<svg width="16" height="16" viewBox="0 0 16 16" fill="none" xmlns="http://www.w3.org/2000/svg">
<g clip-path="url(#clip0_467_218)">
<path d="M8 16C12.4183 16 16 12.4183 16 8C16 3.58172 12.4183 0 8 0C3.58172 0 0 3.58172 0 8C0 12.4183 3.58172 16 8 16Z" fill="#F0F0F0"/>
<path d="M13.5979 2.28575C12.155 0.872 10.1794 0 7.99983 0C7.30418 0 5.26877 0.872 3.82593 2.28575H13.5979Z" fill="#6DA544"/>
<path d="M7.99991 6.85701H15.9183C15.8028 6.04998 15.5671 5.28185 15.2296 4.57129H7.6521L7.99991 6.85701Z" fill="#6DA544"/>
<path d="M0.770262 11.4288H15.2296C15.5671 10.7183 15.8029 9.9501 15.9183 9.14307H0.081543C0.197012 9.95013 0.432668 10.7183 0.770262 11.4288Z" fill="#6DA544"/>
<path d="M2.40186 13.7144C3.84476 15.1281 5.82032 16.0001 7.99992 16.0001C10.1795 16.0001 12.1551 15.1281 13.598 13.7144H2.40186Z" fill="#6DA544"/>
<path d="M7.99992 0C3.96973 0 0.636168 2.98034 0.081543 6.85716H7.99992V0Z" fill="#D80027"/>
<path d="M3.99991 6.13318L3.6521 5.43755V4.04624L4.52166 3.35059L5.39122 4.04624V5.08971L5.73904 4.7419V5.43755L5.04338 6.13318H3.99991Z" fill="#F0F0F0"/>
<path d="M2.12911 4L2.2212 4.28344H2.5192L2.27811 4.45866L2.37023 4.74206L2.12911 4.56687L1.88798 4.74206L1.98011 4.45866L1.73901 4.28344H2.03701L2.12911 4Z" fill="#F0F0F0"/>
<path d="M2.82466 3.3042L2.91676 3.58764H3.21479L2.97366 3.76286L3.06576 4.04626L2.82466 3.87111L2.58357 4.04626L2.6757 3.76286L2.43457 3.58764H2.73254L2.82466 3.3042Z" fill="#F0F0F0"/>
<path d="M3.52046 2.6084L3.61256 2.89184H3.91053L3.66946 3.06705L3.76153 3.35046L3.52046 3.1753L3.27934 3.35046L3.37143 3.06705L3.13037 2.89184H3.42834L3.52046 2.6084Z" fill="#F0F0F0"/>
<path d="M6.91423 4L6.82214 4.28344H6.52417L6.76523 4.45866L6.67314 4.74206L6.91423 4.56687L7.15536 4.74206L7.06326 4.45866L7.30433 4.28344H7.00636L6.91423 4Z" fill="#F0F0F0"/>
<path d="M6.21843 3.3042L6.12634 3.58764H5.82837L6.06943 3.76286L5.97734 4.04626L6.21843 3.87111L6.45956 4.04626L6.36743 3.76286L6.60853 3.58764H6.31056L6.21843 3.3042Z" fill="#F0F0F0"/>
<path d="M5.52291 2.6084L5.43078 2.89184H5.13281L5.37388 3.06705L5.28178 3.35046L5.52291 3.1753L5.764 3.35046L5.67191 3.06705L5.91297 2.89184H5.615L5.52291 2.6084Z" fill="#F0F0F0"/>
<path d="M4.52169 2.26074L4.42956 2.54418H4.13159L4.37265 2.71937L4.28056 3.00277L4.52169 2.82762L4.76278 3.00277L4.67069 2.71937L4.91175 2.54418H4.61378L4.52169 2.26074Z" fill="#F0F0F0"/>
</g>
<defs>
<clipPath id="clip0_467_218">
<rect width="16" height="16" fill="white"/>
</clipPath>
</defs>
</svg>
