<svg width="16" height="16" viewBox="0 0 16 16" fill="none" xmlns="http://www.w3.org/2000/svg">
<g clip-path="url(#clip0_467_267)">
<path d="M4.52171 15.2062C5.57346 15.7147 6.75336 16 7.99996 16C9.24655 16 10.4265 15.7147 11.4782 15.2062L12.1739 8L11.4782 0.793813C10.4265 0.28525 9.24655 0 7.99996 0C6.75336 0 5.57346 0.28525 4.52171 0.793813L3.82605 8L4.52171 15.2062Z" fill="#FFDA44"/>
<path d="M11.4783 15.2058C14.1542 13.9118 16 11.1715 16 7.99985C16 4.8282 14.1542 2.08788 11.4783 0.793945V15.2058Z" fill="#D80027"/>
<path d="M4.52175 15.2058V0.793945C1.84578 2.08788 0 4.82816 0 7.99985C0 11.1715 1.84578 13.9118 4.52175 15.2058Z" fill="#0052B4"/>
<path d="M8 10.7826C8 9.506 8 8 8 8H10.087V9.04347C10.087 9.22475 9.73916 9.889 8.88062 10.4348C8.55547 10.6415 8.21888 10.708 8 10.7826Z" fill="#D80027"/>
<path d="M5.91309 5.91309H8.00005V8.00005H5.91309V5.91309Z" fill="#D80027"/>
<path d="M9.04347 5.21763C9.04347 4.83341 8.732 4.52197 8.34781 4.52197C8.22094 4.52197 8.10238 4.55647 8 4.61579C7.89759 4.55647 7.77906 4.52197 7.65219 4.52197C7.268 4.52197 6.95653 4.83341 6.95653 5.21763H5.21741V8.69585C5.21741 9.99072 6.24572 10.7396 7.05213 11.1278C6.99178 11.2308 6.95653 11.3504 6.95653 11.4785C6.95653 11.8627 7.268 12.1742 7.65219 12.1742C7.77906 12.1742 7.89763 12.1397 8 12.0803C8.10241 12.1397 8.22094 12.1742 8.34781 12.1742C8.732 12.1742 9.04347 11.8627 9.04347 11.4785C9.04347 11.3504 9.00822 11.2308 8.94784 11.1278C9.75425 10.7396 10.7826 9.99075 10.7826 8.69585V5.21763H9.04347ZM9.73913 8.69585C9.73913 8.87713 9.73913 9.42872 8.88063 9.97454C8.55544 10.1813 8.21888 10.3153 8 10.3899C7.78113 10.3153 7.44456 10.1813 7.11938 9.97454C6.26088 9.42872 6.26088 8.87713 6.26088 8.69585V6.2611H9.73913V8.69585Z" fill="#FF9811"/>
</g>
<defs>
<clipPath id="clip0_467_267">
<rect width="16" height="16" fill="white"/>
</clipPath>
</defs>
</svg>
