<svg width="16" height="16" viewBox="0 0 16 16" fill="none" xmlns="http://www.w3.org/2000/svg">
<g clip-path="url(#clip0_467_2205)">
<path d="M8 16C12.4183 16 16 12.4183 16 8C16 3.58172 12.4183 0 8 0C3.58172 0 0 3.58172 0 8C0 12.4183 3.58172 16 8 16Z" fill="#F0F0F0"/>
<path d="M4.52173 10.7827L5.21738 15.5026C6.08401 15.8242 7.02142 16.0001 7.99998 16.0001C11.4397 16.0001 14.372 13.8291 15.5024 10.7827H4.52173Z" fill="black"/>
<path d="M4.52173 5.21741L5.21738 0.497531C6.08401 0.175937 7.02142 0 7.99998 0C11.4397 0 14.372 2.171 15.5024 5.21741H4.52173Z" fill="#6DA544"/>
<path d="M0 7.99996C0 11.4397 2.17103 14.372 5.21741 15.5024V0.497559C2.17103 1.6279 0 4.56025 0 7.99996Z" fill="#A2001D"/>
</g>
<defs>
<clipPath id="clip0_467_2205">
<rect width="16" height="16" fill="white"/>
</clipPath>
</defs>
</svg>
