<svg width="16" height="16" viewBox="0 0 16 16" fill="none" xmlns="http://www.w3.org/2000/svg">
<g clip-path="url(#clip0_467_235)">
<path d="M11.4783 0.793813C10.4266 0.28525 9.24664 0 8.00008 0C6.75352 0 5.57358 0.28525 4.52183 0.793813L3.82617 8L4.52183 15.2062C5.57358 15.7147 6.75352 16 8.00008 16C9.24664 16 10.4266 15.7147 11.4783 15.2062L12.174 8L11.4783 0.793813Z" fill="#D80027"/>
<path d="M4.52175 0.793945C1.84581 2.08791 0 4.8282 0 7.99985C0 11.1715 1.84581 13.9118 4.52175 15.2058V0.793945Z" fill="black"/>
<path d="M11.4783 0.793945V15.2058C14.1542 13.9118 16 11.1715 16 7.99985C16 4.8282 14.1542 2.08791 11.4783 0.793945Z" fill="#496E2D"/>
<path d="M7.99988 5.21729C6.46307 5.21729 5.21729 6.4631 5.21729 7.99988C5.21729 9.53666 6.4631 10.7825 7.99988 10.7825C9.53666 10.7825 10.7825 9.53666 10.7825 7.99988C10.7825 6.4631 9.53669 5.21729 7.99988 5.21729ZM7.99988 9.739C7.03938 9.739 6.26075 8.96035 6.26075 7.99988C6.26075 7.03941 7.03941 6.26075 7.99988 6.26075C8.96035 6.26075 9.739 7.03941 9.739 7.99988C9.739 8.96035 8.96038 9.739 7.99988 9.739Z" fill="#FFDA44"/>
<path d="M7.99986 6.95654C7.61564 6.95654 7.3042 7.26798 7.3042 7.6522V8.69567H8.69551V7.6522C8.69551 7.26798 8.38407 6.95654 7.99986 6.95654Z" fill="#FFDA44"/>
</g>
<defs>
<clipPath id="clip0_467_235">
<rect width="16" height="16" fill="white"/>
</clipPath>
</defs>
</svg>
