<svg width="16" height="16" viewBox="0 0 16 16" fill="none" xmlns="http://www.w3.org/2000/svg">
<g clip-path="url(#clip0_467_250)">
<path d="M8 16C12.4183 16 16 12.4183 16 8C16 3.58172 12.4183 0 8 0C3.58172 0 0 3.58172 0 8C0 12.4183 3.58172 16 8 16Z" fill="#D80027"/>
<path d="M12.5217 5.93767H9.62405C9.80293 5.75036 9.91302 5.49677 9.91302 5.2173C9.91302 4.64102 9.44583 4.17383 8.86955 4.17383C8.50649 4.17383 8.1869 4.35933 7.99999 4.64061C7.81308 4.35933 7.49346 4.17383 7.13043 4.17383C6.55415 4.17383 6.08696 4.64102 6.08696 5.2173C6.08696 5.49677 6.19705 5.75039 6.37593 5.93767H3.47827C3.47827 6.70608 4.14755 7.32895 4.9159 7.32895H4.86952C4.86952 8.09739 5.49243 8.7203 6.26087 8.7203C6.26087 8.96917 6.32646 9.20248 6.44096 9.40448L5.2869 10.5586L6.17233 11.444L7.42833 10.188C7.47752 10.206 7.52843 10.2205 7.58099 10.2303L6.82202 11.9439L7.99999 13.2173L9.17796 11.9439L8.41899 10.2303C8.47158 10.2204 8.52246 10.206 8.57165 10.1879L9.82765 11.4439L10.7131 10.5585L9.55899 9.40439C9.67352 9.20242 9.73912 8.96908 9.73912 8.7202C10.5075 8.7202 11.1304 8.09733 11.1304 7.32886H11.0841C11.8524 7.32892 12.5217 6.70608 12.5217 5.93767Z" fill="black"/>
</g>
<defs>
<clipPath id="clip0_467_250">
<rect width="16" height="16" fill="white"/>
</clipPath>
</defs>
</svg>
