<svg width="16" height="16" viewBox="0 0 16 16" fill="none" xmlns="http://www.w3.org/2000/svg">
<g clip-path="url(#clip0_467_275)">
<path d="M0 8C0 3.58175 3.58175 0 8 0C12.4183 0 16 3.58175 16 8C15.6522 8 8 9.04347 8 9.04347L0 8Z" fill="#D80027"/>
<path d="M16 8C16 12.4183 12.4183 16 8 16C3.58175 16 0 12.4183 0 8" fill="black"/>
<path d="M6.90308 6.36309L7.58126 6.85527L7.32283 7.6524L8.00051 7.1594L8.67876 7.65159L8.41933 6.85471L9.09695 6.36177L8.25898 6.36227L7.99951 5.56543L7.74104 6.36255L6.90308 6.36309Z" fill="#FFDA44"/>
<path d="M9.99998 4.53603C9.36957 4.17206 8.68029 4.00028 7.99998 4.00147V5.04472C8.50282 5.04381 9.01226 5.17069 9.47823 5.43975C10.89 6.25488 11.3755 8.06663 10.5604 9.47844C9.74526 10.8903 7.93354 11.3757 6.52169 10.5606C6.11038 10.3231 5.77835 10.0007 5.5336 9.6286L4.66248 10.2037C4.99363 10.7071 5.44351 11.143 5.99998 11.4642C7.9101 12.567 10.3613 11.9103 11.464 10.0001C12.5669 8.09 11.9101 5.63885 9.99998 4.53603Z" fill="#FFDA44"/>
<path d="M5.69339 7.30469C5.41682 7.81028 5.60251 8.44437 6.10808 8.72094L9.49711 10.5728C9.26664 10.9941 9.38904 11.5069 9.81033 11.7373L10.7258 12.2381C11.1471 12.4686 11.6755 12.3139 11.906 11.8926L12.4068 10.9771L5.69339 7.30469Z" fill="#FFDA44"/>
</g>
<defs>
<clipPath id="clip0_467_275">
<rect width="16" height="16" fill="white"/>
</clipPath>
</defs>
</svg>
