<svg width="16" height="16" viewBox="0 0 16 16" fill="none" xmlns="http://www.w3.org/2000/svg">
<g clip-path="url(#clip0_467_305)">
<path d="M8 16C12.4183 16 16 12.4183 16 8C16 3.58172 12.4183 0 8 0C3.58172 0 0 3.58172 0 8C0 12.4183 3.58172 16 8 16Z" fill="#F0F0F0"/>
<path d="M8.00001 0C4.82832 0 2.08782 1.84578 0.793823 4.52175H15.2062C13.9122 1.84578 11.1717 0 8.00001 0Z" fill="#338AF3"/>
<path d="M8.00001 15.9998C11.1717 15.9998 13.9122 14.154 15.2062 11.478H0.793823C2.08782 14.154 4.82832 15.9998 8.00001 15.9998Z" fill="#338AF3"/>
<path d="M10.3911 8.00018L9.41404 8.45977L9.93432 9.40599L8.87339 9.20302L8.73895 10.2748L7.99998 9.48652L7.26098 10.2748L7.12657 9.20302L6.06564 9.40596L6.58589 8.45974L5.60889 8.00018L6.58592 7.54059L6.06564 6.5944L7.12654 6.79734L7.26101 5.72559L7.99998 6.51384L8.73898 5.72559L8.87339 6.79734L9.93436 6.5944L9.41407 7.54062L10.3911 8.00018Z" fill="#FFDA44"/>
</g>
<defs>
<clipPath id="clip0_467_305">
<rect width="16" height="16" fill="white"/>
</clipPath>
</defs>
</svg>
