<svg width="16" height="16" viewBox="0 0 16 16" fill="none" xmlns="http://www.w3.org/2000/svg">
<g clip-path="url(#clip0_467_259)">
<path d="M8 16C12.4183 16 16 12.4183 16 8C16 3.58172 12.4183 0 8 0C3.58172 0 0 3.58172 0 8C0 12.4183 3.58172 16 8 16Z" fill="#F0F0F0"/>
<path d="M11.8811 1.0035C10.7316 0.3645 9.40844 0 8 0C3.58206 0 0.0005625 3.58119 0 7.99906L5.56522 5.21741L11.8811 1.0035Z" fill="#0052B4"/>
<path d="M0 8.00098C0.0005625 12.4189 3.58206 16 8 16C9.40844 16 10.7316 15.6356 11.8811 14.9965L5.56522 10.7826L0 8.00098Z" fill="#0052B4"/>
<path d="M12.5478 1.41798C12.3329 1.26926 12.1103 1.13095 11.8808 1.00342L0 7.99886V7.99979C0 7.99979 0 8.00045 0 8.00073L11.8809 14.9961C12.1103 14.8686 12.3329 14.7303 12.5478 14.5816L1.36944 7.99979L12.5478 1.41798Z" fill="#D80027"/>
<path d="M13.913 7.7017H12.96C13.2078 7.4042 13.1925 6.96161 12.9134 6.68252C13.2091 6.38686 13.2091 5.90745 12.9134 5.61173L12.8956 5.62961C13.1912 5.33395 13.2091 4.83667 12.9134 4.54102L8.63037 8.82402C8.92606 9.11973 9.39706 9.1162 9.69271 8.82052L9.77515 8.74517L11.826 8.55873V9.4408H12.5217V8.49548L13.5652 8.40064L13.913 7.7017Z" fill="#A2001D"/>
<path d="M8.69591 9.73911L8 9.3913L8.69591 9.04346H13.2176V9.73911H8.69591Z" fill="#FFDA44"/>
</g>
<defs>
<clipPath id="clip0_467_259">
<rect width="16" height="16" fill="white"/>
</clipPath>
</defs>
</svg>
