<svg width="16" height="16" viewBox="0 0 16 16" fill="none" xmlns="http://www.w3.org/2000/svg">
<g clip-path="url(#clip0_467_323)">
<path d="M16 8C16 12.4183 12.4183 16 8 16C3.58175 16 0 12.4183 0 8C0 8.00187 8 0.00090625 8 0C12.4183 0 16 3.58175 16 8Z" fill="#0052B4"/>
<path d="M7.97852 7.99992H7.99992C7.99992 7.99267 7.99992 7.98573 7.99992 7.97852C7.9928 7.98567 7.98567 7.9928 7.97852 7.99992Z" fill="#F0F0F0"/>
<path d="M8 4.17391C8 2.76625 8 1.84384 8 0H7.99866C3.581 0.00071875 0 3.58212 0 7.99997H4.17391V5.64959L6.52428 7.99997H7.97862C7.98578 7.99284 7.99291 7.98572 8.00003 7.97856C8.00003 7.43959 8.00003 6.95869 8.00003 6.52431L5.64962 4.17391H8Z" fill="#F0F0F0"/>
<path d="M4.04733 1.04346C2.79611 1.75593 1.75593 2.79611 1.04346 4.04733V7.99999H3.13043V3.13046V3.13043H7.99999C7.99999 2.47221 7.99999 1.84514 7.99999 1.04346H4.04733Z" fill="#D80027"/>
<path d="M7.99989 7.01609L5.15761 4.17384H4.17383C4.17383 4.17381 4.17383 4.17384 4.17383 4.17384L7.99986 7.99987H7.99989C7.99989 7.99987 7.99989 7.32159 7.99989 7.01609Z" fill="#D80027"/>
<path d="M4.82486 9.39111L5.26392 10.3092L6.25539 10.08L5.81139 10.9957L6.6087 11.628L5.61598 11.8517L5.61877 12.8694L4.82486 12.2327L4.03098 12.8694L4.03377 11.8517L3.04102 11.628L3.83836 10.9957L3.3943 10.08L4.38583 10.3092L4.82486 9.39111Z" fill="#F0F0F0"/>
<path d="M11.9776 11.1304L12.1971 11.5894L12.6929 11.4748L12.4708 11.9327L12.8695 12.2488L12.3732 12.3607L12.3745 12.8695L11.9776 12.5512L11.5807 12.8695L11.582 12.3607L11.0857 12.2488L11.4843 11.9327L11.2623 11.4748L11.7581 11.5894L11.9776 11.1304Z" fill="#F0F0F0"/>
<path d="M9.9354 6.26074L10.1549 6.7198L10.6506 6.60518L10.4286 7.06302L10.8273 7.37918L10.331 7.49105L10.3323 7.99987L9.9354 7.68152L9.53846 7.99987L9.5398 7.49105L9.04346 7.37918L9.44211 7.06302L9.22011 6.60518L9.71586 6.7198L9.9354 6.26074Z" fill="#F0F0F0"/>
<path d="M11.9776 3.47803L12.1971 3.93709L12.6929 3.8225L12.4709 4.28034L12.8695 4.59646L12.3732 4.70837L12.3745 5.21718L11.9776 4.89884L11.5807 5.21718L11.582 4.70837L11.0857 4.59646L11.4843 4.28034L11.2623 3.8225L11.7581 3.93709L11.9776 3.47803Z" fill="#F0F0F0"/>
<path d="M13.7616 5.56494L13.9811 6.024L14.4768 5.90938L14.2548 6.36722L14.6535 6.68338L14.1571 6.79528L14.1585 7.30407L13.7616 6.98575L13.3646 7.30407L13.366 6.79528L12.8696 6.68338L13.2683 6.36722L13.0463 5.90938L13.542 6.024L13.7616 5.56494Z" fill="#F0F0F0"/>
<path d="M12.4859 8L12.6585 8.53144H13.2173L12.7652 8.85991L12.938 9.39131L12.4859 9.06287L12.0338 9.39131L12.2065 8.85991L11.7544 8.53144H12.3132L12.4859 8Z" fill="#F0F0F0"/>
</g>
<defs>
<clipPath id="clip0_467_323">
<rect width="16" height="16" fill="white"/>
</clipPath>
</defs>
</svg>
