<svg width="16" height="16" viewBox="0 0 16 16" fill="none" xmlns="http://www.w3.org/2000/svg">
<g clip-path="url(#clip0_467_344)">
<path d="M16 8.00007C16 7.0215 15.824 6.0841 15.5024 5.21747L8 4.86963L0.497594 5.21744C0.176031 6.0841 0 7.0215 0 8.00007C0 8.97863 0.176031 9.91604 0.497594 10.7827L8 11.1305L15.5024 10.7827C15.824 9.91604 16 8.97863 16 8.00007Z" fill="#D80027"/>
<path d="M7.99996 16.0001C11.4397 16.0001 14.372 13.8291 15.5024 10.7827H0.497559C1.6279 13.8291 4.56025 16.0001 7.99996 16.0001Z" fill="#6DA544"/>
<path d="M0.497559 5.21741H15.5024C14.372 2.171 11.4397 0 7.99996 0C4.56025 0 1.6279 2.171 0.497559 5.21741Z" fill="#338AF3"/>
<path d="M8.17388 10.2608C6.92526 10.2608 5.91301 9.24854 5.91301 7.99991C5.91301 6.75129 6.92526 5.73904 8.17388 5.73904C8.5632 5.73904 8.92954 5.83747 9.24935 6.01079C8.7476 5.52013 8.06148 5.21729 7.30432 5.21729C5.76751 5.21729 4.52173 6.4631 4.52173 7.99988C4.52173 9.53666 5.76754 10.7825 7.30432 10.7825C8.06151 10.7825 8.74763 10.4796 9.24935 9.98897C8.92954 10.1623 8.5632 10.2608 8.17388 10.2608Z" fill="#F0F0F0"/>
<path d="M9.91312 6.43457L10.2126 7.27679L11.0199 6.89298L10.6361 7.70029L11.4783 7.99979L10.6361 8.29929L11.0199 9.1066L10.2126 8.72279L9.91312 9.56501L9.61368 8.72279L8.80634 9.1066L9.19015 8.29929L8.3479 7.99979L9.19015 7.70029L8.80634 6.89298L9.61368 7.27679L9.91312 6.43457Z" fill="#F0F0F0"/>
</g>
<defs>
<clipPath id="clip0_467_344">
<rect width="16" height="16" fill="white"/>
</clipPath>
</defs>
</svg>
