<svg width="16" height="16" viewBox="0 0 16 16" fill="none" xmlns="http://www.w3.org/2000/svg">
<g clip-path="url(#clip0_467_351)">
<path d="M8 16C12.4183 16 16 12.4183 16 8C16 3.58172 12.4183 0 8 0C3.58172 0 0 3.58172 0 8C0 12.4183 3.58172 16 8 16Z" fill="#F0F0F0"/>
<path d="M0 7.99994C0 11.0323 1.68719 13.6704 4.17391 15.0272V0.972656C1.68719 2.32947 0 4.96759 0 7.99994Z" fill="#D80027"/>
<path d="M0 7.9998C0 11.696 2.50691 14.8062 5.91303 15.7242V0.275391C2.50691 1.19339 0 4.30358 0 7.9998Z" fill="#0052B4"/>
<path d="M2.86951 2.78271V4.08706C2.86951 4.7354 3.39507 5.26096 4.04341 5.26096C4.69176 5.26096 5.21732 4.7354 5.21732 4.08706V2.78271H2.86951Z" fill="#D80027"/>
<path d="M4.04344 4.56545C3.77972 4.56545 3.56519 4.35092 3.56519 4.0872V3.47852H4.52172V4.0872C4.52172 4.35092 4.30715 4.56545 4.04344 4.56545Z" fill="#F0F0F0"/>
<path d="M8.69562 8.348H6.60865C6.60865 7.96381 6.29718 7.65234 5.913 7.65234C5.52881 7.65234 5.21734 7.96381 5.21734 8.348H3.13037C3.13037 8.73222 3.46503 9.04366 3.84918 9.04366H3.82603C3.82603 9.42787 4.13743 9.73931 4.52168 9.73931C4.52168 10.1235 4.83309 10.435 5.21734 10.435H6.60865C6.99284 10.435 7.30431 10.1235 7.30431 9.73931C7.6885 9.73931 7.99996 9.42787 7.99996 9.04366H7.97681C8.36096 9.04366 8.69562 8.73222 8.69562 8.348Z" fill="#FFDA44"/>
<path d="M8.9815 7.23455L8.79887 7.52695L9.0204 7.79095L8.6859 7.70767L8.50325 7.99995L8.47915 7.65605L8.14465 7.57264L8.46437 7.44352L8.44031 7.09961L8.6619 7.36373L8.9815 7.23455Z" fill="#FFDA44"/>
<path d="M7.9158 6.34033L7.84421 6.67755L8.14274 6.84989L7.79987 6.88608L7.72821 7.22321L7.58796 6.90827L7.24512 6.94427L7.50134 6.71358L7.36115 6.39871L7.65965 6.57105L7.9158 6.34033Z" fill="#FFDA44"/>
<path d="M6.60852 5.86475L6.65649 6.20615L6.99596 6.266L6.68615 6.41712L6.73412 6.75853L6.49468 6.51053L6.1848 6.66165L6.34665 6.35725L6.10718 6.10931L6.44671 6.16912L6.60852 5.86475Z" fill="#FFDA44"/>
<path d="M5.21739 5.86475L5.37927 6.16912L5.71874 6.10928L5.47927 6.35731L5.64111 6.66168L5.3313 6.51053L5.0918 6.75846L5.1398 6.41712L4.82996 6.26603L5.16942 6.20615L5.21739 5.86475Z" fill="#FFDA44"/>
<path d="M3.91019 6.34033L4.16638 6.57105L4.46488 6.39871L4.32476 6.71371L4.58085 6.9443L4.23807 6.90827L4.09779 7.22321L4.02622 6.88602L3.68335 6.85002L3.98185 6.67758L3.91019 6.34033Z" fill="#FFDA44"/>
<path d="M2.84451 7.23452L3.16423 7.3637L3.3857 7.09961L3.36176 7.44358L3.68135 7.57273L3.34682 7.65605L3.3227 7.99992L3.14016 7.70764L2.80566 7.79098L3.02726 7.52692L2.84451 7.23452Z" fill="#FFDA44"/>
</g>
<defs>
<clipPath id="clip0_467_351">
<rect width="16" height="16" fill="white"/>
</clipPath>
</defs>
</svg>
