<svg width="16" height="16" viewBox="0 0 16 16" fill="none" xmlns="http://www.w3.org/2000/svg">
<g clip-path="url(#clip0_467_465)">
<path d="M8 16C12.4183 16 16 12.4183 16 8C16 3.58172 12.4183 0 8 0C3.58172 0 0 3.58172 0 8C0 12.4183 3.58172 16 8 16Z" fill="#F0F0F0"/>
<path d="M8.00009 0C5.16353 0 2.67196 1.47634 1.25146 3.70247L12.1002 14.8703C14.4359 13.4733 16.0001 10.9195 16.0001 8C16.0001 3.58175 12.4183 0 8.00009 0Z" fill="#FFDA44"/>
<path d="M16.0001 8.00019C16.0001 5.9245 15.2095 4.03363 13.9131 2.61182V13.3886C15.2095 11.9668 16.0001 10.0759 16.0001 8.00019Z" fill="#0052B4"/>
<path d="M9.99341 15.0589L10.8314 15.0584L11.0899 14.2613L11.3493 15.0581L11.7696 15.0579C12.0273 14.9199 12.2766 14.7683 12.5165 14.6038L1.39653 3.48389C1.21328 3.75126 1.04616 4.03045 0.895875 4.31982L0.994687 4.62332L1.83266 4.62279L1.15503 5.11576L1.41447 5.91261L0.736219 5.42048L0.331688 5.71473C0.116031 6.43898 0 7.20614 0 8.00042C0 12.4187 3.58175 16.0004 8 16.0004C8.93412 16.0004 9.83072 15.84 10.6641 15.5457L9.99341 15.0589ZM1.78434 7.65261L2.04278 6.85548L1.36459 6.36329L2.20256 6.36276L2.46103 5.56561L2.72047 6.36245L3.55844 6.36192L2.88078 6.85489L3.14022 7.65173L2.46197 7.15961L1.78434 7.65261ZM3.51012 9.39173L3.76856 8.59461L3.09037 8.10242L3.92834 8.10189L4.18681 7.30473L4.44625 8.10157L5.28422 8.10104L4.60659 8.59401L4.86603 9.39085L4.18778 8.89873L3.51012 9.39173ZM5.23588 11.1309L5.49431 10.3337L4.81612 9.84154L5.65409 9.84101L5.91256 9.04386L6.172 9.8407L7.00997 9.84017L6.33234 10.3331L6.59178 11.13L5.91353 10.6378L5.23588 11.1309ZM7.63928 12.377L6.96163 12.87L7.22006 12.0729L6.54187 11.5807L7.37984 11.5801L7.63834 10.783L7.89778 11.5798L8.73575 11.5793L8.05812 12.0723L8.31756 12.8691L7.63928 12.377ZM8.68741 14.6091L8.94584 13.812L8.26766 13.3198L9.10563 13.3193L9.36409 12.5221L9.62353 13.3189L10.4615 13.3184L9.78388 13.8114L10.0433 14.6082L9.36506 14.116L8.68741 14.6091Z" fill="#0052B4"/>
</g>
<defs>
<clipPath id="clip0_467_465">
<rect width="16" height="16" fill="white"/>
</clipPath>
</defs>
</svg>
