<svg width="16" height="16" viewBox="0 0 16 16" fill="none" xmlns="http://www.w3.org/2000/svg">
<g clip-path="url(#clip0_467_374)">
<path d="M7.99998 0C12.4182 0 16 3.58174 16 7.99998C16 12.4182 12.4182 16 7.99998 16C3.58174 16 0 12.4182 0 7.99998" fill="#FFDA44"/>
<path d="M7.82617 3.55561H14.6525C14.203 2.88414 13.6545 2.28477 13.0279 1.77783H7.82617V3.55561Z" fill="#D80027"/>
<path d="M7.82617 7.11124H15.9507C15.8825 6.49481 15.7443 5.89959 15.5443 5.3335H7.82617V7.11124Z" fill="#D80027"/>
<path d="M0.455875 10.6665H15.5441C15.7442 10.1004 15.8824 9.50511 15.9506 8.88867H0.0494385C0.117563 9.50514 0.255751 10.1004 0.455875 10.6665Z" fill="#D80027"/>
<path d="M2.97206 14.2221H13.0278C13.6543 13.7152 14.2029 13.1158 14.6524 12.4443H1.34753C1.79703 13.1158 2.34553 13.7152 2.97206 14.2221Z" fill="#D80027"/>
<path d="M8.00002 0C3.58174 0 -3.12497e-05 3.58174 2.04483e-10 8.00005C1.82581 7.99998 3.58174 8.00005 7.99998 8.00005L8.00002 0Z" fill="#4A1F63"/>
<path d="M6.60872 4.17417V4.86983H6.26091V4.17417H5.56525V4.86983H5.21744V3.47852H3.82613V4.86983H3.47829V4.17417H2.78266V4.86983H2.43482V4.17417H1.73914V6.2611H7.30438V4.17417H6.60872Z" fill="#F0F0F0"/>
</g>
<defs>
<clipPath id="clip0_467_374">
<rect width="16" height="16" fill="white"/>
</clipPath>
</defs>
</svg>
