<svg width="16" height="16" viewBox="0 0 16 16" fill="none" xmlns="http://www.w3.org/2000/svg">
<g clip-path="url(#clip0_467_392)">
<path d="M8 16C12.4183 16 16 12.4183 16 8C16 3.58172 12.4183 0 8 0C3.58172 0 0 3.58172 0 8C0 12.4183 3.58172 16 8 16Z" fill="#F0F0F0"/>
<path d="M0.067749 9.04346C0.253874 10.472 0.817062 11.7818 1.65384 12.8705L5.91303 9.04346H0.067749Z" fill="#D80027"/>
<path d="M6.95652 15.9322V10.0869L3.12952 14.3461C4.21817 15.1829 5.52799 15.7461 6.95652 15.9322Z" fill="#D80027"/>
<path d="M6.95652 0.0678711C5.52799 0.253996 4.21817 0.817184 3.12952 1.65396L6.95652 5.91321V0.0678711Z" fill="#D80027"/>
<path d="M0.067749 6.95688H5.91303L1.65381 3.12988C0.81703 4.21851 0.253843 5.52835 0.067749 6.95688Z" fill="#D80027"/>
<path d="M9.04346 0.0678711V5.91318L12.8705 1.65396C11.7819 0.817246 10.472 0.253965 9.04346 0.0678711Z" fill="#D80027"/>
<path d="M15.9322 6.95691C15.7461 5.52838 15.1829 4.21854 14.3461 3.12988L10.0869 6.95691H15.9322Z" fill="#D80027"/>
<path d="M10.0869 9.04346L14.3462 12.8705C15.1829 11.7818 15.7461 10.472 15.9323 9.04346H10.0869Z" fill="#D80027"/>
<path d="M9.04346 15.9322C10.472 15.7461 11.7819 15.1829 12.8705 14.3461L9.04346 10.0869V15.9322Z" fill="#D80027"/>
<path d="M14.3468 12.8713L9.47576 8.00016L9.47573 8.00013L14.3468 3.12901C14.1368 2.85601 13.9069 2.59338 13.6569 2.34326C13.4068 2.0932 13.1442 1.86335 12.8711 1.65332L8.00004 6.52441H8.00001L3.12892 1.65332C2.85592 1.86338 2.59326 2.09316 2.34314 2.34326C2.09307 2.59338 1.86323 2.85601 1.6532 3.12904L6.52429 8.0001L6.52432 8.00013L1.65323 12.8713C1.86329 13.1442 2.0931 13.4069 2.34317 13.657C2.59326 13.9071 2.85592 14.1369 3.12895 14.3469L8.00001 9.47585L12.8711 14.3469C13.1441 14.1369 13.4068 13.9071 13.6569 13.657C13.907 13.4069 14.1368 13.1442 14.3468 12.8713Z" fill="#496E2D"/>
<path d="M9.04347 15.9323V9.04356V9.0435H15.9323C15.9768 8.70191 16 8.35366 16 8C16 7.64638 15.9768 7.29813 15.9323 6.95656H9.04353L9.0435 6.95653V0.06775C8.70194 0.0232813 8.35372 0 8 0C7.64634 3.125e-05 7.29809 0.0232813 6.95653 0.06775L6.95656 6.95647V6.95653H0.06775C0.02325 7.29809 0 7.64634 0 8C3.125e-05 8.35372 0.02325 8.70191 0.06775 9.04347H6.9565L6.95653 15.9323C7.29812 15.9768 7.64628 16 8 16C8.35372 16 8.70194 15.9768 9.04347 15.9323Z" fill="#F0F0F0"/>
</g>
<defs>
<clipPath id="clip0_467_392">
<rect width="16" height="16" fill="white"/>
</clipPath>
</defs>
</svg>
