<svg width="16" height="16" viewBox="0 0 16 16" fill="none" xmlns="http://www.w3.org/2000/svg">
<g clip-path="url(#clip0_467_386)">
<path d="M11.4782 0.793813C10.4265 0.28525 9.24652 0 7.99996 0C6.75339 0 5.57346 0.28525 4.52171 0.793813L3.82605 8L4.52171 15.2062C5.57346 15.7147 6.75339 16 7.99996 16C9.24652 16 10.4265 15.7147 11.4782 15.2062L12.1739 8L11.4782 0.793813Z" fill="#FFDA44"/>
<path d="M4.52175 0.793945C1.84581 2.08788 0 4.82816 0 7.99985C0 11.1715 1.84581 13.9118 4.52175 15.2058V0.793945Z" fill="#0052B4"/>
<path d="M11.4783 0.793945V15.2058C14.1542 13.9118 16 11.1715 16 7.99985C16 4.8282 14.1542 2.08788 11.4783 0.793945Z" fill="#0052B4"/>
<path d="M10.4347 4.86948L10.9014 5.1028L10.4347 4.86948L9.96804 4.63617C9.93992 4.69245 9.33057 5.93223 9.23104 7.82602H8.5217V4.86948L7.99995 4.17383L7.4782 4.86948V7.82602H6.76885C6.66929 5.93223 6.05998 4.69245 6.03182 4.63617L5.09851 5.10283C5.10495 5.11564 5.7391 6.40642 5.7391 8.34777V8.86952H7.47823V11.826H8.5217V8.86952H10.2608V8.34773C10.2608 7.34405 10.4345 6.51642 10.5802 5.99886C10.739 5.43448 10.9004 5.10489 10.902 5.10161L10.4347 4.86948Z" fill="black"/>
</g>
<defs>
<clipPath id="clip0_467_386">
<rect width="16" height="16" fill="white"/>
</clipPath>
</defs>
</svg>
