<svg width="16" height="16" viewBox="0 0 16 16" fill="none" xmlns="http://www.w3.org/2000/svg">
<g clip-path="url(#clip0_467_581)">
<path d="M0 8C0 3.58175 3.58175 0 8 0C12.4183 0 16 3.58175 16 8C15.6522 8 8 9.04347 8 9.04347L0 8Z" fill="#D80027"/>
<path d="M16 8C16 12.4183 12.4183 16 8 16C3.58175 16 0 12.4183 0 8" fill="#6DA544"/>
<path d="M7.99991 5.21729L8.60419 7.07722H10.56L8.97779 8.22678L9.5821 10.0868L7.99991 8.93732L6.41769 10.0868L7.0221 8.22678L5.43982 7.07722H7.39557L7.99991 5.21729Z" fill="#FFDA44"/>
</g>
<defs>
<clipPath id="clip0_467_581">
<rect width="16" height="16" fill="white"/>
</clipPath>
</defs>
</svg>
