<svg width="16" height="16" viewBox="0 0 16 16" fill="none" xmlns="http://www.w3.org/2000/svg">
<g clip-path="url(#clip0_467_371)">
<path d="M8 16C12.4183 16 16 12.4183 16 8C16 3.58172 12.4183 0 8 0C3.58172 0 0 3.58172 0 8C0 12.4183 3.58172 16 8 16Z" fill="#F0F0F0"/>
<path d="M8.00006 0C6.39456 0 4.89981 0.473281 3.64693 1.28744L5.7044 2.66647L3.13049 3.99978L5.7044 5.33309L3.13049 6.66641L5.7044 7.99956L3.13049 9.33284L5.7044 10.6661L3.13049 11.9996L5.7044 13.3329L3.64668 14.7123C4.89962 15.5267 6.39446 16 8.00006 16C12.4183 16 16.0001 12.4183 16.0001 8C16.0001 3.58175 12.4183 0 8.00006 0V0Z" fill="#D80027"/>
</g>
<defs>
<clipPath id="clip0_467_371">
<rect width="16" height="16" fill="white"/>
</clipPath>
</defs>
</svg>
