<svg width="16" height="16" viewBox="0 0 16 16" fill="none" xmlns="http://www.w3.org/2000/svg">
<g clip-path="url(#clip0_467_585)">
<path d="M8 16C12.4183 16 16 12.4183 16 8C16 3.58172 12.4183 0 8 0C3.58172 0 0 3.58172 0 8C0 12.4183 3.58172 16 8 16Z" fill="#F0F0F0"/>
<path d="M12.8712 1.65296C10.007 -0.55098 5.99303 -0.55098 3.12891 1.65293L8.00003 6.52405L12.8712 1.65296Z" fill="#D80027"/>
<path d="M7.99997 9.47565L3.12891 14.3467C5.99303 16.5506 10.007 16.5506 12.8712 14.3467L8.00003 9.47559L7.99997 9.47565Z" fill="#D80027"/>
<path d="M6.52429 8.00003L1.6532 3.12891C-0.55074 5.99303 -0.55074 10.007 1.6532 12.8712L6.52429 8.00003Z" fill="#6DA544"/>
<path d="M9.47571 8.00003L14.3468 12.8712C16.5507 10.007 16.5507 5.99303 14.3468 3.12891L9.47571 8.00003Z" fill="#6DA544"/>
<path d="M7.99998 11.4785C9.92096 11.4785 11.4782 9.92121 11.4782 8.00022C11.4782 6.07924 9.92096 4.52197 7.99998 4.52197C6.07899 4.52197 4.52173 6.07924 4.52173 8.00022C4.52173 9.92121 6.07899 11.4785 7.99998 11.4785Z" fill="#F0F0F0"/>
<path d="M7.99997 5.56543L8.30119 6.08718H8.90366L8.60241 6.6089L8.90366 7.13065H8.30119L7.99997 7.6524L7.69875 7.13065H7.09631L7.39753 6.6089L7.09631 6.08718H7.69875L7.99997 5.56543Z" fill="#D80027"/>
<path d="M6.46887 8L6.77009 8.52175H7.37253L7.07131 9.04347L7.37253 9.56522H6.77009L6.46887 10.087L6.16762 9.56522H5.56519L5.8664 9.04347L5.56519 8.52175H6.16762L6.46887 8Z" fill="#D80027"/>
<path d="M9.53113 8L9.83235 8.52175H10.4348L10.1336 9.04347L10.4348 9.56522H9.83235L9.53113 10.087L9.22988 9.56522H8.62744L8.92866 9.04347L8.62744 8.52175H9.22988L9.53113 8Z" fill="#D80027"/>
</g>
<defs>
<clipPath id="clip0_467_585">
<rect width="16" height="16" fill="white"/>
</clipPath>
</defs>
</svg>
