<svg width="16" height="16" viewBox="0 0 16 16" fill="none" xmlns="http://www.w3.org/2000/svg">
<g clip-path="url(#clip0_467_434)">
<path d="M16 8C16 12.4183 12.4183 16 8 16C3.58175 16 0 12.4183 0 8C0 8.00191 8 0.000875 8 0C12.4183 0 16 3.58175 16 8Z" fill="#D80027"/>
<path d="M8 3.82617V6.52439L5.21741 3.82617H8Z" fill="#0052B4"/>
<path d="M4.17386 8.00007H6.52421L4.17386 4.86963L3.82605 7.30441L4.17386 8.00007Z" fill="#0052B4"/>
<path d="M7.97864 7.99992H8.00004C8.00004 7.99273 8.00004 7.98573 8.00004 7.97852C7.99292 7.98567 7.98579 7.9928 7.97864 7.99992Z" fill="#F0F0F0"/>
<path d="M8 4.17391C8 2.76625 8 1.84391 8 0H7.99866C3.58097 0.00075 0 3.58216 0 8H4.17391V5.64966L6.52425 8H7.97862C7.98575 7.99288 7.99288 7.98575 8.00003 7.97859C8.00003 7.43963 8.00003 6.95872 8.00003 6.52431L5.64962 4.17391H8Z" fill="#F0F0F0"/>
<path d="M4.04733 1.04346C2.79611 1.75593 1.75589 2.79611 1.04346 4.04733V8.3478H3.13043V3.13049V3.13043H8.3478C8.3478 2.47221 8.3478 1.84514 8.3478 1.04346H4.04733Z" fill="#D80027"/>
<path d="M8.31808 7.33411L5.1577 4.17383H4.17395V4.17389L8.31798 8.31792H8.31804C8.31808 8.31795 8.31808 7.63961 8.31808 7.33411Z" fill="#D80027"/>
<path d="M9.04346 4.17383V7.99989C9.04346 9.86364 13.913 9.86364 13.913 7.99989V4.17383H9.04346Z" fill="#F3F3F3"/>
<path d="M9.04346 8.00003V8C9.04346 9.86375 11.4782 10.4348 11.4782 10.4348C11.4782 10.4348 13.913 9.86375 13.913 8V8.00003H9.04346Z" fill="#6DA544"/>
<path d="M11.4782 6.46973L10.3478 6.9567V8.00016L11.4782 8.69582L12.6087 8.00016V6.9567L11.4782 6.46973Z" fill="#A2001D"/>
<path d="M10.3478 5.91309H12.6087V6.95655H10.3478V5.91309Z" fill="#338AF3"/>
</g>
<defs>
<clipPath id="clip0_467_434">
<rect width="16" height="16" fill="white"/>
</clipPath>
</defs>
</svg>
