<svg width="16" height="16" viewBox="0 0 16 16" fill="none" xmlns="http://www.w3.org/2000/svg">
<g clip-path="url(#clip0_467_564)">
<path d="M8.00005 15.9986C12.4177 15.9986 15.9989 12.4174 15.9989 7.9998C15.9989 3.58217 12.4177 0.000976562 8.00005 0.000976562C3.58242 0.000976562 0.0012207 3.58217 0.0012207 7.9998C0.0012207 12.4174 3.58242 15.9986 8.00005 15.9986Z" fill="#F0F0F0"/>
<path d="M1.07277 4.00049C0.711732 4.62575 0.445414 5.27945 0.268066 5.94531L13.6452 13.6686C14.1331 13.1821 14.5662 12.6245 14.9271 11.9993L1.07277 4.00049Z" fill="black"/>
<path d="M11.9994 1.0728C8.79884 -0.775018 4.85251 -0.159161 2.35474 2.33127L15.7318 10.0545C16.6398 6.64627 15.1999 2.92066 11.9994 1.0728Z" fill="#FFDA44"/>
<path d="M4.00069 14.9271C7.2012 16.7749 11.1476 16.1591 13.6453 13.6687L0.268204 5.94531C-0.639659 9.35367 0.800121 13.0793 4.00069 14.9271Z" fill="#FFDA44"/>
<path d="M10.2605 7.13051C10.2605 8.37894 9.24845 9.39106 7.99999 9.39106C6.75152 9.39106 5.73944 8.37898 5.73944 7.13051C5.73944 6.74125 5.83785 6.37496 6.01117 6.05518C5.52062 6.55684 5.21777 7.24286 5.21777 7.99994C5.21777 9.5365 6.46339 10.7822 7.99999 10.7822C9.53658 10.7822 10.7822 9.53653 10.7822 7.99994C10.7822 7.24286 10.4794 6.55684 9.98881 6.05518C10.1621 6.37503 10.2605 6.74125 10.2605 7.13051Z" fill="#D80027"/>
<path d="M7.47852 4.52246H8.52185V9.7391H7.47852V4.52246Z" fill="#D80027"/>
<path d="M9.73896 5.56592H6.26123C6.26123 5.80602 6.47039 6.00065 6.71046 6.00065H6.69596C6.69596 6.24074 6.89062 6.43537 7.13069 6.43537C7.13069 6.67547 7.32535 6.8701 7.56541 6.8701H8.43484C8.67494 6.8701 8.86957 6.67547 8.86957 6.43537C9.10967 6.43537 9.3043 6.24074 9.3043 6.00065H9.28983C9.52983 6.00061 9.73896 5.80605 9.73896 5.56592Z" fill="#D80027"/>
<path d="M5.56567 10.0869H10.4345V11.1302H5.56567V10.0869Z" fill="#D80027"/>
<path d="M9.04346 10.4346H11.1301V11.4779H9.04346V10.4346Z" fill="#D80027"/>
<path d="M4.87012 10.4346H6.95676V11.4779H4.87012V10.4346Z" fill="#D80027"/>
</g>
<defs>
<clipPath id="clip0_467_564">
<rect width="16" height="16" fill="white"/>
</clipPath>
</defs>
</svg>
