<svg width="16" height="16" viewBox="0 0 16 16" fill="none" xmlns="http://www.w3.org/2000/svg">
<g clip-path="url(#clip0_467_484)">
<path d="M0 8C0 3.58175 3.58175 0 8 0C12.4183 0 16 3.58175 16 8H0Z" fill="#F0F0F0"/>
<path d="M5.91305 7.5625L5.47571 7.99984H5.91305V7.5625Z" fill="#0052B4"/>
<path d="M10.0869 7.5625V7.99981H10.5242L10.0869 7.5625Z" fill="#0052B4"/>
<path d="M0.230813 6.08691C0.0803438 6.69991 0 7.34051 0 7.99991H2.52428L4.43728 6.08691H0.230813Z" fill="#0052B4"/>
<path d="M11.5626 6.08691L13.4756 7.99991H16C16 7.34051 15.9196 6.69991 15.7692 6.08691H11.5626Z" fill="#0052B4"/>
<path d="M11.0708 6.08691H10.087L12 7.99991H12.9838L11.0708 6.08691Z" fill="#D80027"/>
<path d="M5.91306 7.07063V6.08691H5.913L4 7.99991H4.98381L5.91306 7.07063Z" fill="#D80027"/>
<path d="M3.74752 1.22314C3.41777 1.43052 3.10424 1.66121 2.8092 1.91299H4.43733L3.74752 1.22314Z" fill="#0052B4"/>
<path d="M13.1907 1.91299C12.8957 1.66118 12.5822 1.43049 12.2524 1.22314L11.5626 1.91299H13.1907Z" fill="#0052B4"/>
<path d="M9.04346 5.04347H15.4356C15.1332 4.2835 14.7175 3.58106 14.2096 2.9565H9.04349H9.04346V0.0677188C8.70189 0.02325 8.35364 0 7.99999 0C7.64627 0 7.29808 0.02325 6.95652 0.0677188V2.95647V2.9565H1.79036C1.28246 3.58106 0.866769 4.2835 0.564331 5.04347H6.95646H6.95649V8H9.04346V5.0435V5.04347Z" fill="#D80027"/>
<path d="M5.91308 1.91309V1.91306L4.70705 0.707031C4.48408 0.807875 4.26677 0.918969 4.0553 1.03906L4.92933 1.91309H5.91308Z" fill="#D80027"/>
<path d="M10.0869 1.91313L11.293 0.707098C11.0636 0.603379 10.8284 0.510379 10.588 0.428223L10.0869 0.929379V1.91313Z" fill="#D80027"/>
<path d="M16 8C16 12.4183 12.4183 16 8 16C3.58175 16 0 12.4183 0 8H16Z" fill="#F0F0F0"/>
<path d="M14.6665 9.02021C13.9999 9.02021 13.9999 8.41064 13.3332 8.41064C12.6665 8.41064 12.6665 9.02021 11.9999 9.02021C11.3333 9.02021 11.3333 8.41064 10.6666 8.41064C9.99997 8.41064 9.99997 9.02021 9.33328 9.02021C8.66659 9.02021 8.66656 8.41064 7.99985 8.41064C7.33319 8.41064 7.33319 9.02021 6.66656 9.02021C6 9.02021 6 8.41064 5.33334 8.41064C4.66663 8.41064 4.66663 9.02021 3.99991 9.02021C3.33319 9.02021 3.33319 8.41064 2.66647 8.41064C1.99991 8.41064 1.99991 9.02021 1.33325 9.02021C0.670188 9.02021 0.666345 8.41736 0.010376 8.41093C0.0288447 8.77686 0.0725322 9.13611 0.138595 9.48743C0.66997 9.56552 0.716501 10.0869 1.33328 10.0869C1.99994 10.0869 1.99994 9.47736 2.6665 9.47736C3.33322 9.47736 3.33322 10.0869 3.99994 10.0869C4.66666 10.0869 4.66666 9.47736 5.33338 9.47736C6.00003 9.47736 6.00003 10.0869 6.66659 10.0869C7.33325 10.0869 7.33325 9.47736 7.99988 9.47736C8.66659 9.47736 8.66659 10.0869 9.33331 10.0869C10 10.0869 10 9.47736 10.6667 9.47736C11.3333 9.47736 11.3333 10.0869 11.9999 10.0869C12.6666 10.0869 12.6666 9.47736 13.3332 9.47736C13.9999 9.47736 13.9999 10.0869 14.6666 10.0869C15.2834 10.0869 15.3299 9.56555 15.8613 9.48746C15.9274 9.13611 15.9711 8.77689 15.9896 8.41096C15.3335 8.41743 15.3296 9.02021 14.6665 9.02021Z" fill="#0052B4"/>
<path d="M13.3332 10.4976C12.6666 10.4976 12.6666 11.1071 11.9999 11.1071C11.3333 11.1071 11.3333 10.4976 10.6667 10.4976C10 10.4976 10 11.1071 9.33331 11.1071C8.66659 11.1071 8.66659 10.4976 7.99987 10.4976C7.33322 10.4976 7.33322 11.1071 6.66659 11.1071C6.00003 11.1071 6.00003 10.4976 5.33337 10.4976C4.66666 10.4976 4.66666 11.1071 3.99994 11.1071C3.33322 11.1071 3.33322 10.4976 2.6665 10.4976C1.99994 10.4976 1.99994 11.1071 1.33328 11.1071C0.856937 11.1071 0.720874 10.796 0.438843 10.6182C0.626593 11.1607 0.870843 11.6767 1.165 12.1591C1.21616 12.1686 1.27184 12.1738 1.33328 12.1738C1.99994 12.1738 1.99994 11.5643 2.6665 11.5643C3.33322 11.5643 3.33322 12.1738 3.99994 12.1738C4.66666 12.1738 4.66666 11.5643 5.33337 11.5643C6.00003 11.5643 6.00003 12.1738 6.66659 12.1738C7.33325 12.1738 7.33325 11.5643 7.99987 11.5643C8.66659 11.5643 8.66659 12.1738 9.33331 12.1738C10 12.1738 10 11.5643 10.6667 11.5643C11.3333 11.5643 11.3333 12.1738 11.9999 12.1738C12.6666 12.1738 12.6666 11.5643 13.3332 11.5643C13.9999 11.5643 13.9999 12.1738 14.6666 12.1738C14.728 12.1738 14.7837 12.1686 14.8349 12.1591C15.1291 11.6767 15.3733 11.1607 15.5611 10.6183C15.2791 10.7959 15.143 11.1071 14.6666 11.1071C13.9999 11.1071 13.9999 10.4976 13.3332 10.4976Z" fill="#0052B4"/>
<path d="M15.9957 7.74854C15.9964 7.77075 15.9972 7.79297 15.9977 7.81529C15.9972 7.793 15.9964 7.77075 15.9957 7.74854Z" fill="#F0F0F0"/>
<path d="M0.00231934 7.81529C0.00285059 7.793 0.00360059 7.77079 0.00428809 7.74854C0.00363184 7.77079 0.00281934 7.79304 0.00231934 7.81529Z" fill="#F0F0F0"/>
<path d="M0 8.00005C0 7.93834 0.0009375 7.87687 0.00234375 7.81543C0.00090625 7.87687 0 7.93834 0 8.00005Z" fill="#F0F0F0"/>
<path d="M0 8C0 8.14572 0.004125 8.2905 0.0119063 8.43428C0.666375 8.44163 0.670719 9.04347 1.33331 9.04347C1.99997 9.04347 1.99997 8.43397 2.66653 8.43397C3.33325 8.43397 3.33325 9.04347 3.99997 9.04347C4.66669 9.04347 4.66669 8.43397 5.33341 8.43397C6.00006 8.43397 6.00006 9.04347 6.66663 9.04347C7.33328 9.04347 7.33328 8.43397 7.99991 8.43397C8.66663 8.43397 8.66663 9.04347 9.33334 9.04347C10.0001 9.04347 10.0001 8.43397 10.6667 8.43397C11.3333 8.43397 11.3333 9.04347 12 9.04347C12.6666 9.04347 12.6666 8.43397 13.3333 8.43397C14 8.43397 14 9.04347 14.6666 9.04347C15.3292 9.04347 15.3336 8.44163 15.9882 8.43428C15.9959 8.29047 16 8.14572 16 8H0Z" fill="#F0F0F0"/>
<path d="M15.9977 7.81543C15.9991 7.8768 16 7.9383 16 8.00005C16 7.93834 15.9991 7.87687 15.9977 7.81543Z" fill="#F0F0F0"/>
<path d="M13.3332 12.5845C12.6665 12.5845 12.6665 13.194 11.9999 13.194C11.3333 13.194 11.3332 12.5845 10.6666 12.5845C9.99996 12.5845 9.99996 13.194 9.33327 13.194C8.66655 13.194 8.66655 12.5845 7.99984 12.5845C7.33318 12.5845 7.33318 13.194 6.66655 13.194C5.99999 13.194 5.99999 12.5845 5.33334 12.5845C4.66662 12.5845 4.66662 13.194 3.9999 13.194C3.33318 13.194 3.33318 12.5845 2.66646 12.5845C2.20602 12.5845 2.06355 12.8752 1.7998 13.0551C2.49946 13.9122 3.37352 14.6211 4.36743 15.1286L7.99996 14.9456L11.6325 15.1286C12.6263 14.621 13.5004 13.9122 14.2001 13.0552C13.9362 12.8753 13.7937 12.5845 13.3332 12.5845Z" fill="#0052B4"/>
<path d="M12.437 12.7756L10.0034 13.241L9.69508 10.7827L8.00002 12.5907L6.30502 10.7827L5.99658 13.241L3.56311 12.7755L4.75652 14.9459L4.36677 15.1292C5.45702 15.686 6.6918 16.0001 8.00002 16.0001C9.30824 16.0001 10.543 15.686 11.6333 15.1293L11.2437 14.946L12.437 12.7756Z" fill="#FFDA44"/>
</g>
<defs>
<clipPath id="clip0_467_484">
<rect width="16" height="16" fill="white"/>
</clipPath>
</defs>
</svg>
