<svg width="16" height="16" viewBox="0 0 16 16" fill="none" xmlns="http://www.w3.org/2000/svg">
<g clip-path="url(#clip0_467_450)">
<path d="M13.6569 13.6567C10.5327 16.7808 5.46736 16.7808 2.34314 13.6567C-0.781047 10.5325 -0.781047 5.46712 2.34314 2.34291C2.34427 2.34291 9.53245 0.218937 12.6567 3.34312C15.7809 6.46731 13.659 13.6545 13.6569 13.6567Z" fill="#FFDA44"/>
<path d="M13.6569 13.6569C16.781 10.5327 16.781 5.46737 13.6569 2.34315C10.5327 -0.781066 5.46736 -0.781035 2.34314 2.34315L13.6569 13.6569Z" fill="#D80027"/>
<path d="M10.0911 10.092C9.76245 10.2211 9.3806 10.2074 9.04932 10.0215C8.46401 9.69297 8.25507 8.94941 8.58367 8.364L8.48392 8.30806C9.48613 8.06641 10.2276 7.15672 10.2146 6.08322C10.2065 5.41581 9.90832 4.81872 9.44185 4.41016L8.71145 5.15847C8.98757 5.37853 9.1666 5.71609 9.1712 6.09588C9.17932 6.76713 8.63988 7.31984 7.96867 7.32794L7.97007 7.44222C7.25967 6.69516 6.10117 6.50788 5.17801 7.05588C4.60407 7.39663 4.23613 7.95338 4.11548 8.56166L5.12873 8.82009C5.18126 8.47091 5.38404 8.14709 5.71063 7.95319C6.28785 7.61053 7.03623 7.80141 7.37888 8.37859L7.47726 8.32025C7.18545 9.30894 7.60248 10.4059 8.5387 10.9314C9.12076 11.2581 9.78688 11.2984 10.374 11.0987L10.0911 10.092ZM7.97707 8.02344L7.97701 8.02347L7.97707 8.02344Z" fill="#FF9811"/>
<path d="M10.962 5.41811L10.3966 7.43596L8.70001 7.12268L7.60795 4.87158L4.65773 5.91849L4.42507 5.26286L3.6532 5.16777L4.23479 6.8068L6.26507 6.28755L6.84204 7.91346L5.43854 9.98474L7.82032 12.0162L7.36885 12.5455L7.67245 13.2616L8.80114 11.9383L7.33632 10.4396L8.45592 9.12705L10.9515 9.30686L11.5199 6.22843L12.204 6.35477L12.6724 5.73383L10.962 5.41811ZM7.99935 8.05439V8.05446V8.05439Z" fill="#FFEACF"/>
</g>
<defs>
<clipPath id="clip0_467_450">
<rect width="16" height="16" fill="white"/>
</clipPath>
</defs>
</svg>
