<svg width="16" height="16" viewBox="0 0 16 16" fill="none" xmlns="http://www.w3.org/2000/svg">
<g clip-path="url(#clip0_467_471)">
<path d="M0.37775 5.5651C0.132688 6.33288 -3.12445e-05 7.15079 5.51734e-09 7.99988C-3.12445e-05 8.84891 0.132688 9.66685 0.377781 10.4347L8 10.7825L15.6222 10.4347C15.8672 9.66685 16 8.84888 16 7.99991C16 7.15085 15.8673 6.33288 15.6222 5.5651L7.99997 5.21729L0.37775 5.5651Z" fill="#F0F0F0"/>
<path d="M16 8.00023C16 7.52564 15.9584 7.06076 15.8792 6.60889H0.120875C0.0415625 7.06076 0 7.52557 0 8.0002C0 8.47482 0.0415938 8.93964 0.120875 9.39151H15.8792C15.9584 8.93961 16 8.47479 16 8.00023Z" fill="black"/>
<path d="M8.00003 15.9998C11.5693 15.9998 14.5921 13.6622 15.6222 10.4346H0.377808C1.40796 13.6622 4.43081 15.9998 8.00003 15.9998Z" fill="#338AF3"/>
<path d="M8.00006 1.25323e-09C4.43084 1.25323e-09 1.40803 2.33759 0.377808 5.56516L15.6222 5.56519C14.5921 2.33759 11.5692 -6.24988e-05 8.00006 1.25323e-09Z" fill="#338AF3"/>
</g>
<defs>
<clipPath id="clip0_467_471">
<rect width="16" height="16" fill="white"/>
</clipPath>
</defs>
</svg>
