<svg width="16" height="16" viewBox="0 0 16 16" fill="none" xmlns="http://www.w3.org/2000/svg">
<g clip-path="url(#clip0_467_405)">
<path d="M8 16C12.4183 16 16 12.4183 16 8C16 3.58172 12.4183 0 8 0C3.58172 0 0 3.58172 0 8C0 12.4183 3.58172 16 8 16Z" fill="#FCFCFC"/>
<path d="M3.30438 7.42048L2.43481 5.84288L3.30438 4.29004L4.17394 5.84288L3.30438 7.42048Z" fill="#A2001D"/>
<path d="M1.56524 7.42048L0.695679 5.84288L1.56524 4.29004L2.4348 5.84288L1.56524 7.42048Z" fill="#A2001D"/>
<path d="M3.30438 11.71L2.43481 10.1324L3.30438 8.57959L4.17394 10.1324L3.30438 11.71Z" fill="#A2001D"/>
<path d="M1.56524 11.71L0.695679 10.1324L1.56524 8.57959L2.4348 10.1324L1.56524 11.71Z" fill="#A2001D"/>
<path d="M4.17393 1.55291L3.92774 1.11328C3.48618 1.37491 3.07202 1.67781 2.69043 2.01669L3.30437 3.13047L4.17393 1.55291Z" fill="#A2001D"/>
<path d="M3.3044 12.8696L2.68396 13.9776C3.06521 14.3169 3.47908 14.6203 3.92046 14.8825L4.17399 14.4225L3.3044 12.8696Z" fill="#A2001D"/>
<path d="M4.86951 10.0869V15.3639C5.83104 15.7732 6.88894 15.9999 7.99994 15.9999C11.4397 15.9999 14.372 13.8289 15.5023 10.7825L4.86951 10.0869Z" fill="#6DA544"/>
<path d="M15.5023 10.7826C15.8239 9.91594 15.9999 8.97856 15.9999 8C15.9999 3.58175 12.4182 0 7.99994 0C6.88904 0 5.83104 0.226656 4.86951 0.635875V10.7826H15.5023V10.7826Z" fill="#A2001D"/>
</g>
<defs>
<clipPath id="clip0_467_405">
<rect width="16" height="16" fill="white"/>
</clipPath>
</defs>
</svg>
