<svg width="16" height="16" viewBox="0 0 16 16" fill="none" xmlns="http://www.w3.org/2000/svg">
<g clip-path="url(#clip0_467_420)">
<path d="M16 7.99999C16 5.25433 14.6166 2.83205 12.509 1.3913L8 1.04346L3.49103 1.39127C1.38344 2.83205 0 5.25436 0 7.99999C0 10.7457 1.38344 13.1679 3.49103 14.6087L8 14.9565L12.509 14.6087C14.6166 13.1679 16 10.7457 16 7.99999Z" fill="#0052B4"/>
<path d="M12.509 1.39131C11.2251 0.513625 9.67268 0 8.00006 0C6.32746 0 4.775 0.513625 3.49109 1.39131H12.509Z" fill="#A2001D"/>
<path d="M3.49109 14.6089C4.77496 15.4866 6.32746 16.0002 8.00006 16.0002C9.67268 16.0002 11.2251 15.4866 12.509 14.6089H3.49109Z" fill="#A2001D"/>
<path d="M8.00004 11.826C10.1131 11.826 11.8261 10.113 11.8261 7.99992C11.8261 5.88683 10.1131 4.17383 8.00004 4.17383C5.88695 4.17383 4.17395 5.88683 4.17395 7.99992C4.17395 10.113 5.88695 11.826 8.00004 11.826Z" fill="#F0F0F0"/>
<path d="M7.99994 11.1305C9.72884 11.1305 11.1304 9.72896 11.1304 8.00007C11.1304 6.27117 9.72884 4.86963 7.99994 4.86963C6.27105 4.86963 4.86951 6.27117 4.86951 8.00007C4.86951 9.72896 6.27105 11.1305 7.99994 11.1305Z" fill="#6DA544"/>
<path d="M8.00005 10.087C9.15266 10.087 10.087 9.15266 10.087 8.00005C10.087 6.84745 9.15266 5.91309 8.00005 5.91309C6.84745 5.91309 5.91309 6.84745 5.91309 8.00005C5.91309 9.15266 6.84745 10.087 8.00005 10.087Z" fill="#F0F0F0"/>
<path d="M7.99994 7.47803L6.86951 7.99978V8.86934L7.99994 9.565L9.13038 8.86934V7.99978L7.99994 7.47803Z" fill="#0052B4"/>
<path d="M6.86951 6.95654H9.13038V8.00001H6.86951V6.95654Z" fill="#FFDA44"/>
</g>
<defs>
<clipPath id="clip0_467_420">
<rect width="16" height="16" fill="white"/>
</clipPath>
</defs>
</svg>
