<svg width="16" height="16" viewBox="0 0 16 16" fill="none" xmlns="http://www.w3.org/2000/svg">
<g clip-path="url(#clip0_467_615)">
<path d="M8.00007 0C7.0215 0 6.0841 0.176031 5.21747 0.497594L4.86963 8L5.21744 15.5024C6.0841 15.824 7.0215 16 8.00007 16C8.97863 16 9.91604 15.824 10.7827 15.5024L11.1305 8L10.7827 0.497594C9.91604 0.176031 8.97863 0 8.00007 0V0Z" fill="#338AF3"/>
<path d="M16.0001 7.99996C16.0001 4.56025 13.8291 1.6279 10.7827 0.497559V15.5024C13.8291 14.372 16.0001 11.4397 16.0001 7.99996Z" fill="#FFDA44"/>
<path d="M5.21741 15.5024V0.497559C2.171 1.6279 0 4.56025 0 7.99996C0 11.4397 2.171 14.372 5.21741 15.5024Z" fill="#F0F0F0"/>
</g>
<defs>
<clipPath id="clip0_467_615">
<rect width="16" height="16" fill="white"/>
</clipPath>
</defs>
</svg>
