<svg width="16" height="16" viewBox="0 0 16 16" fill="none" xmlns="http://www.w3.org/2000/svg">
<g clip-path="url(#clip0_467_710)">
<path d="M8 16C12.4183 16 16 12.4183 16 8C16 3.58172 12.4183 0 8 0C3.58172 0 0 3.58172 0 8C0 12.4183 3.58172 16 8 16Z" fill="#6DA544"/>
<path d="M12.2807 11.478L12.5002 11.9371L12.996 11.8225L12.774 12.2803L13.1726 12.5965L12.6763 12.7083L12.6777 13.2172L12.2807 12.8988L11.8838 13.2172L11.8851 12.7083L11.3888 12.5965L11.7875 12.2803L11.5655 11.8225L12.0612 11.9371L12.2807 11.478Z" fill="#FFDA44"/>
<path d="M10.2385 6.6084L10.458 7.06743L10.9538 6.95284L10.7317 7.41071L11.1304 7.72684L10.6341 7.83871L10.6354 8.34752L10.2385 8.02921L9.84153 8.34752L9.84287 7.83871L9.34656 7.72684L9.74521 7.41071L9.52318 6.95284L10.019 7.06743L10.2385 6.6084Z" fill="#FFDA44"/>
<path d="M12.2808 3.82568L12.5003 4.28471L12.9961 4.17009L12.7741 4.62796L13.1727 4.94412L12.6764 5.05596L12.6777 5.56481L12.2808 5.24646L11.8839 5.56481L11.8852 5.05596L11.3889 4.94412L11.7875 4.62796L11.5655 4.17009L12.0613 4.28471L12.2808 3.82568Z" fill="#FFDA44"/>
<path d="M14.0646 5.9126L14.2842 6.37163L14.7799 6.25704L14.5579 6.71491L14.9566 7.03104L14.4602 7.14291L14.4616 7.65175L14.0646 7.33341L13.6677 7.65175L13.669 7.14291L13.1727 7.03104L13.5714 6.71491L13.3494 6.25704L13.8451 6.37163L14.0646 5.9126Z" fill="#FFDA44"/>
<path d="M12.7891 8.34766L12.9618 8.87912H13.5206L13.0685 9.20756L13.2412 9.73897L12.7891 9.41056L12.337 9.73897L12.5097 9.20756L12.0576 8.87912H12.6164L12.7891 8.34766Z" fill="#FFDA44"/>
<path d="M8.86959 10.2608C7.62094 10.2608 6.60869 9.24854 6.60869 7.99991C6.60869 6.75129 7.62091 5.73904 8.86959 5.73904C9.25891 5.73904 9.62525 5.8375 9.94506 6.01079C9.44335 5.5201 8.75725 5.21729 7.99997 5.21729C6.46322 5.21729 5.21741 6.4631 5.21741 7.99988C5.21741 9.53666 6.46322 10.7825 7.99997 10.7825C8.75722 10.7825 9.44334 10.4797 9.94503 9.98897C9.62525 10.1623 9.25891 10.2608 8.86959 10.2608Z" fill="#FFDA44"/>
<path d="M5.03078 3.13023C4.79015 2.71448 4.34093 2.43457 3.82606 2.43457C3.31118 2.43457 2.86196 2.71448 2.62134 3.13023H5.03078Z" fill="#FFDA44"/>
<path d="M5.03544 3.13818L3.8261 4.34753L2.61675 3.13818C2.50116 3.34103 2.43481 3.57562 2.43481 3.82581C2.43481 4.59421 3.05772 5.21712 3.82613 5.21712C4.59453 5.21712 5.21744 4.59425 5.21744 3.82581C5.21741 3.57562 5.15103 3.34103 5.03544 3.13818Z" fill="#FFDA44"/>
<path d="M3.47827 4V5.17356C3.58943 5.20216 3.70599 5.21737 3.82608 5.21737C3.94618 5.21737 4.06274 5.20213 4.1739 5.17356V4H3.47827Z" fill="#A2001D"/>
</g>
<defs>
<clipPath id="clip0_467_710">
<rect width="16" height="16" fill="white"/>
</clipPath>
</defs>
</svg>
