<svg width="16" height="16" viewBox="0 0 16 16" fill="none" xmlns="http://www.w3.org/2000/svg">
<g clip-path="url(#clip0_467_816)">
<path d="M15.1117 4.33159C14.7421 3.61537 14.2576 2.94312 13.6572 2.34275C13.0568 1.74234 12.3845 1.25781 11.6683 0.888184L6.0324 6.03212L0.888428 11.668C1.25808 12.3842 1.74262 13.0565 2.34299 13.6569C2.94337 14.2573 3.61565 14.7418 4.33183 15.1115L9.96774 9.9675L15.1117 4.33159Z" fill="#FFDA44"/>
<path d="M2.34295 13.6569C2.67855 13.9925 3.03664 14.2918 3.41224 14.5553L14.5555 3.41199C14.292 3.0364 13.9927 2.6783 13.6571 2.34271C13.3215 2.00712 12.9634 1.70784 12.5878 1.44434L1.44458 12.5876C1.70805 12.9631 2.00733 13.3213 2.34295 13.6569Z" fill="#D80027"/>
<path d="M2.34282 2.34287C-0.18115 4.86684 -0.665681 8.6574 0.888257 11.6682L11.6681 0.888341C8.65732 -0.665565 4.86676 -0.180971 2.34282 2.34287Z" fill="#338AF3"/>
<path d="M13.6571 13.6568C16.181 11.1329 16.6655 7.34232 15.1117 4.33154L4.33179 15.1114C7.34257 16.6653 11.1332 16.1808 13.6571 13.6568Z" fill="#338AF3"/>
<path d="M4.26332 2.43457L4.69501 3.76323H6.09201L4.96182 4.58435L5.39351 5.91298L4.26332 5.09182L3.13307 5.91298L3.56482 4.58435L2.43457 3.76323H3.83157L4.26332 2.43457Z" fill="#FFDA44"/>
</g>
<defs>
<clipPath id="clip0_467_816">
<rect width="16" height="16" fill="white"/>
</clipPath>
</defs>
</svg>
