<svg width="16" height="16" viewBox="0 0 16 16" fill="none" xmlns="http://www.w3.org/2000/svg">
<g clip-path="url(#clip0_467_670)">
<path d="M8 16C12.4183 16 16 12.4183 16 8C16 3.58172 12.4183 0 8 0C3.58172 0 0 3.58172 0 8C0 12.4183 3.58172 16 8 16Z" fill="#F0F0F0"/>
<path d="M8.00001 0C5.79086 0 3.79086 0.895438 2.34314 2.34313L8.00001 8V0Z" fill="black"/>
<path d="M0 8C0 10.2092 0.895438 12.2092 2.34313 13.6569L8 8H0Z" fill="black"/>
<path d="M8 16C10.2092 16 12.2092 15.1046 13.6569 13.6569L8 8V16Z" fill="black"/>
<path d="M16 8.00014C16 5.79098 15.1046 3.79098 13.6569 2.34326L8 8.00014H16Z" fill="black"/>
<path d="M5.21741 5.56534L8 5.91325L10.7826 5.56534V3.89578L9.66956 4.45231L8 2.78271L6.33044 4.45231L5.21741 3.89578V5.56534Z" fill="#FFDA44"/>
<path d="M8 12.1741C6.46566 12.1741 5.21741 10.9258 5.21741 9.39146V6.60899L6.26088 5.56543H9.73913L10.7826 6.60899V9.39146C10.7826 10.9258 9.53434 12.1741 8 12.1741Z" fill="#D80027"/>
<path d="M7.99999 11.1306C7.04102 11.1306 6.26086 10.3504 6.26086 9.39145V6.60889H9.73911V9.39142C9.73911 10.3504 8.95896 11.1306 7.99999 11.1306Z" fill="#F0F0F0"/>
<path d="M5.21741 5.56543H6.26088V6.6089H5.21741V5.56543Z" fill="#FFDA44"/>
<path d="M9.73914 5.56543H10.7826V6.6089H9.73914V5.56543Z" fill="#FFDA44"/>
<path d="M9.73914 7.82617H10.7826V8.86964H9.73914V7.82617Z" fill="#FFDA44"/>
<path d="M5.21741 7.82617H6.26088V8.86964H5.21741V7.82617Z" fill="#FFDA44"/>
<path d="M8.00002 11.1308C7.81827 11.1308 7.64305 11.1027 7.47827 11.0508V12.1246C7.6474 12.1568 7.82165 12.1743 8.00002 12.1743C8.1784 12.1743 8.35265 12.1568 8.52177 12.1246V11.0508C8.35699 11.1027 8.18177 11.1308 8.00002 11.1308Z" fill="#FFDA44"/>
<path d="M6.28417 9.67383L5.45142 10.5066C5.59579 10.8353 5.80179 11.1309 6.05498 11.3787L6.79248 10.6412C6.52929 10.3869 6.34595 10.0507 6.28417 9.67383Z" fill="#FFDA44"/>
<path d="M10.5487 10.5066L9.71592 9.67383C9.65411 10.0506 9.4708 10.3869 9.20764 10.6412L9.94514 11.3787C10.1983 11.1309 10.4043 10.8353 10.5487 10.5066Z" fill="#FFDA44"/>
<path d="M7.6521 7.18848V7.76816C7.6521 7.96023 7.80782 8.11598 7.99991 8.11598C8.19201 8.11598 8.34772 7.96023 8.34772 7.76816V7.18848H7.6521Z" fill="#0052B4"/>
<path d="M7.6521 9.50732V10.087C7.6521 10.2791 7.80782 10.4348 7.99991 10.4348C8.19201 10.4348 8.34772 10.2791 8.34772 10.087V9.50732H7.6521Z" fill="#0052B4"/>
<path d="M8.69556 8.34766V8.92741C8.69556 9.11947 8.85128 9.27522 9.04337 9.27522C9.23546 9.27522 9.39118 9.11947 9.39118 8.92741V8.34766H8.69556Z" fill="#0052B4"/>
<path d="M7.6521 8.34766V8.92741C7.6521 9.11947 7.80782 9.27522 7.99991 9.27522C8.19201 9.27522 8.34772 9.11947 8.34772 8.92741V8.34766H7.6521Z" fill="#0052B4"/>
<path d="M6.60864 8.34766V8.92741C6.60864 9.11947 6.76436 9.27522 6.95646 9.27522C7.14855 9.27522 7.30427 9.11947 7.30427 8.92741V8.34766H6.60864Z" fill="#0052B4"/>
</g>
<defs>
<clipPath id="clip0_467_670">
<rect width="16" height="16" fill="white"/>
</clipPath>
</defs>
</svg>
