<svg width="16" height="16" viewBox="0 0 16 16" fill="none" xmlns="http://www.w3.org/2000/svg">
<g clip-path="url(#clip0_467_655)">
<path d="M8 16C12.4183 16 16 12.4183 16 8C16 3.58172 12.4183 0 8 0C3.58172 0 0 3.58172 0 8C0 12.4183 3.58172 16 8 16Z" fill="#F0F0F0"/>
<path d="M15.0271 4.17414C13.9934 2.27948 12.2158 0.849203 10.0868 0.275391L9.73901 4.17414H15.0271Z" fill="#0052B4"/>
<path d="M0.972656 4.17414H6.26078L5.91297 0.275391C3.784 0.849203 2.00644 2.27952 0.972656 4.17414Z" fill="#0052B4"/>
<path d="M9.73901 8V11.8261H15.0271C15.6473 10.6895 15.9999 9.38594 15.9999 8H9.73901Z" fill="#6DA544"/>
<path d="M6.26088 8H0C0 9.38594 0.352594 10.6895 0.972719 11.8261H6.26084V8H6.26088Z" fill="#6DA544"/>
<path d="M0.972656 11.8262C2.00644 13.7208 3.784 15.1511 5.91297 15.7249L6.26078 12.3153L0.972656 11.8262Z" fill="#FFDA44"/>
<path d="M10.0868 15.7249C12.2158 15.1511 13.9934 13.7208 15.0271 11.8262L9.73901 12.3152L10.0868 15.7249Z" fill="#FFDA44"/>
<path d="M9.73901 12.3152L15.0272 11.8262H9.73901V12.3152Z" fill="#FFDA44"/>
<path d="M6.26081 11.8262H0.972656L6.26081 12.3152V11.8262Z" fill="#FFDA44"/>
<path d="M8.00005 0C7.27796 0 6.57852 0.09625 5.91309 0.275594V15.7244C6.57852 15.9038 7.27796 16 8.00005 16C8.72215 16 9.42159 15.9038 10.087 15.7244V0.275594C9.42159 0.09625 8.72215 0 8.00005 0V0Z" fill="#D80027"/>
<path d="M4.30317 1.73926L4.51898 2.40354H5.21751L4.65245 2.8141L4.86829 3.47838L4.30317 3.06785L3.73807 3.47838L3.95398 2.8141L3.38892 2.40354H4.08738L4.30317 1.73926Z" fill="#FFDA44"/>
</g>
<defs>
<clipPath id="clip0_467_655">
<rect width="16" height="16" fill="white"/>
</clipPath>
</defs>
</svg>
