<svg width="16" height="16" viewBox="0 0 16 16" fill="none" xmlns="http://www.w3.org/2000/svg">
<g clip-path="url(#clip0_467_738)">
<path d="M16 8C16 12.4183 12.4183 16 8 16C3.58175 16 0 12.4183 0 8C0 8.00191 8 0.000875 8 0C12.4183 0 16 3.58175 16 8Z" fill="#0052B4"/>
<path d="M7.97864 7.99992H8.00004C8.00004 7.99273 8.00004 7.98573 8.00004 7.97852C7.99292 7.98567 7.98579 7.9928 7.97864 7.99992Z" fill="#F0F0F0"/>
<path d="M8 4.17391C8 2.76625 8 1.84391 8 0H7.99866C3.58097 0.00075 0 3.58216 0 8H4.17391V5.64966L6.52425 8H7.97862C7.98575 7.99288 7.99288 7.98575 8.00003 7.97859C8.00003 7.43963 8.00003 6.95872 8.00003 6.52431L5.64962 4.17391H8Z" fill="#F0F0F0"/>
<path d="M4.04733 1.04346C2.79611 1.75593 1.75589 2.79611 1.04346 4.04733V7.99999H3.13043V3.13049V3.13043H7.99999C7.99999 2.47221 7.99999 1.84514 7.99999 1.04346H4.04733Z" fill="#D80027"/>
<path d="M8.00004 7.01611L5.1577 4.17383H4.17395V4.17389L7.99998 7.99989H8.00004C8.00004 7.99989 8.00004 7.32155 8.00004 7.01611Z" fill="#D80027"/>
<path d="M10.7825 8L10.9306 8.4555H11.4095L11.0221 8.737L11.1701 9.19253L10.7825 8.911L10.3951 9.19253L10.5431 8.737L10.1556 8.4555H10.6345L10.7825 8Z" fill="#F0F0F0"/>
<path d="M8.81498 8.8151L9.24169 9.0325L9.58038 8.69385L9.50544 9.16691L9.93219 9.38435L9.45913 9.45922L9.38423 9.93235L9.16676 9.50557L8.69373 9.5805L9.03244 9.24185L8.81498 8.8151Z" fill="#F0F0F0"/>
<path d="M8 10.7826L8.4555 10.6346L8.45556 10.1558L8.737 10.5432L9.19253 10.3951L8.911 10.7826L9.19253 11.1702L8.737 11.0222L8.45556 11.4096V10.9307L8 10.7826Z" fill="#F0F0F0"/>
<path d="M8.81498 12.75L9.03238 12.3233L8.69373 11.9847L9.16679 12.0596L9.38423 11.6328L9.45913 12.1059L9.93219 12.1807L9.50544 12.3982L9.58038 12.8713L9.24169 12.5326L8.81498 12.75Z" fill="#F0F0F0"/>
<path d="M10.7826 13.5651L10.6346 13.1096H10.1556L10.5431 12.8281L10.3951 12.3726L10.7826 12.6541L11.1701 12.3726L11.0221 12.8281L11.4095 13.1096H10.9306L10.7826 13.5651Z" fill="#F0F0F0"/>
<path d="M12.7502 12.75L12.3234 12.5327L11.9848 12.8713L12.0597 12.3982L11.6329 12.1808L12.106 12.1059L12.1809 11.6328L12.3983 12.0596L12.8714 11.9847L12.5327 12.3233L12.7502 12.75Z" fill="#F0F0F0"/>
<path d="M13.5652 10.7826L13.1097 10.9307V11.4096L12.8282 11.0221L12.3727 11.1702L12.6542 10.7826L12.3727 10.3951L12.8282 10.5432L13.1097 10.1558V10.6346L13.5652 10.7826Z" fill="#F0F0F0"/>
<path d="M12.7502 8.8151L12.5328 9.24182L12.8714 9.58047L12.3983 9.50554L12.1809 9.93232L12.106 9.45919L11.6329 9.38428L12.0597 9.16688L11.9848 8.69385L12.3234 9.03247L12.7502 8.8151Z" fill="#F0F0F0"/>
</g>
<defs>
<clipPath id="clip0_467_738">
<rect width="16" height="16" fill="white"/>
</clipPath>
</defs>
</svg>
