<svg width="16" height="16" viewBox="0 0 16 16" fill="none" xmlns="http://www.w3.org/2000/svg">
<g clip-path="url(#clip0_467_697)">
<path d="M8 16C12.4183 16 16 12.4183 16 8C16 3.58172 12.4183 0 8 0C3.58172 0 0 3.58172 0 8C0 12.4183 3.58172 16 8 16Z" fill="#F0F0F0"/>
<path d="M16 7.9998C16 12.418 12.4183 15.9998 8 15.9998C3.58175 15.9998 0 12.418 0 7.9998C0 3.58155 8 7.9998 8 7.9998C8 7.9998 14.055 7.9998 16 7.9998Z" fill="#D80027"/>
<path d="M0 8C0 3.58175 3.58175 0 8 0V8C8 8 2.78259 8 0 8Z" fill="#0052B4"/>
<path d="M4.76212 2.78271L5.28016 4.37703H6.9565L5.60031 5.36234L6.11831 6.95665L4.76212 5.97131L3.40594 6.95665L3.92394 5.36234L2.56775 4.37703H4.24409L4.76212 2.78271Z" fill="#F0F0F0"/>
</g>
<defs>
<clipPath id="clip0_467_697">
<rect width="16" height="16" fill="white"/>
</clipPath>
</defs>
</svg>
