<svg width="16" height="16" viewBox="0 0 16 16" fill="none" xmlns="http://www.w3.org/2000/svg">
<g clip-path="url(#clip0_467_756)">
<path d="M8 16C12.4183 16 16 12.4183 16 8C16 3.58172 12.4183 0 8 0C3.58172 0 0 3.58172 0 8C0 12.4183 3.58172 16 8 16Z" fill="#FCFCFC"/>
<path d="M10.7855 6.776C10.7855 5.084 9.41383 3.7124 7.72187 3.7124C6.4733 3.7124 5.39996 4.45959 4.92271 5.53097L4.54487 6.90081L4.89268 7.24862L4.19702 8.63993L4.89268 8.98775L4.54487 9.33556V9.68337L4.89268 10.0312V10.7268L5.24049 11.0747L6.28396 10.7268C6.28396 10.7268 6.28396 11.0747 6.63177 11.4225C6.97958 11.7703 7.32746 12.466 7.32746 12.466C7.32746 12.466 8.37093 12.8138 9.06658 11.7703C9.76224 10.7269 10.4579 10.379 10.4579 10.379L9.7874 9.03796C10.4006 8.47787 10.7855 7.67203 10.7855 6.776Z" fill="black"/>
<path d="M11.0352 7.9475C12.4486 7.70909 12.6841 4.94141 12.6841 4.94141H10.7362C11.7449 7.37619 10.6891 7.53997 10.6891 7.53997C10.5461 7.43356 5.42742 5.00869 5.26517 4.94703C5.22608 4.99934 5.08218 5.13675 4.90724 5.56456C4.73227 5.99237 4.68933 6.37725 4.68933 6.37725C4.77127 6.43066 10.2073 8.32881 10.351 8.34462C10.6361 8.53106 10.987 9.08859 10.7909 10.7417L12.6657 10.2133C12.6658 10.2133 12.0295 8.52069 11.0352 7.9475Z" fill="#ACABB1"/>
</g>
<defs>
<clipPath id="clip0_467_756">
<rect width="16" height="16" fill="white"/>
</clipPath>
</defs>
</svg>
