<svg width="16" height="16" viewBox="0 0 16 16" fill="none" xmlns="http://www.w3.org/2000/svg">
<g clip-path="url(#clip0_467_800)">
<path d="M8 16C12.4183 16 16 12.4183 16 8C16 3.58172 12.4183 0 8 0C3.58172 0 0 3.58172 0 8C0 12.4183 3.58172 16 8 16Z" fill="#FFDA44"/>
<path d="M7.99995 15.9999C10.625 15.9999 12.9546 14.7356 14.4134 12.7827H1.58655C3.0453 14.7356 5.37495 15.9999 7.99995 15.9999Z" fill="#0052B4"/>
<path d="M16 8C16 3.58175 12.4183 0 8 0C3.58175 0 0 3.58175 0 8C0 8.94603 0.164656 9.8535 0.466125 10.6959H15.5338C15.8353 9.8535 16 8.94603 16 8Z" fill="#0052B4"/>
<path d="M5.47569 5.13037L5.90734 6.45887H7.30434L6.17419 7.28006L6.60584 8.60862L5.47569 7.7875L4.34553 8.60862L4.77725 7.28006L3.64709 6.45887H5.04403L5.47569 5.13037Z" fill="#F0F0F0"/>
<path d="M3.07674 3.73926L3.33574 4.53638H4.17396L3.49586 5.02907L3.75486 5.82623L3.07674 5.33354L2.39865 5.82623L2.65768 5.02907L1.97961 4.53638H2.8178L3.07674 3.73926Z" fill="#F0F0F0"/>
</g>
<defs>
<clipPath id="clip0_467_800">
<rect width="16" height="16" fill="white"/>
</clipPath>
</defs>
</svg>
