<svg width="16" height="16" viewBox="0 0 16 16" fill="none" xmlns="http://www.w3.org/2000/svg">
<g clip-path="url(#clip0_467_619)">
<path d="M8 16C12.4183 16 16 12.4183 16 8C16 3.58172 12.4183 0 8 0C3.58172 0 0 3.58172 0 8C0 12.4183 3.58172 16 8 16Z" fill="#F0F0F0"/>
<path d="M7.99995 15.9999C10.4247 15.9999 12.5973 14.921 14.0644 13.2173H1.93555C3.40264 14.921 5.57523 15.9999 7.99995 15.9999Z" fill="#0052B4"/>
<path d="M16 8C16 3.58175 12.4183 0 8 0C3.58175 0 0 3.58175 0 8C0 8.72209 0.09625 9.42153 0.275594 10.087H15.7244C15.9038 9.42153 16 8.72209 16 8Z" fill="#0052B4"/>
<path d="M0.635986 11.1304C0.790205 11.4927 0.970486 11.8412 1.17433 12.1738H14.826C15.0297 11.8412 15.21 11.4927 15.3643 11.1304H0.635986Z" fill="#D80027"/>
<path d="M5.71848 8.52197L5.84798 8.92054H6.26708L5.92805 9.16688L6.05755 9.56544L5.71848 9.3191L5.37942 9.56544L5.50895 9.16688L5.16992 8.92054H5.58902L5.71848 8.52197Z" fill="#FFDA44"/>
<path d="M5.71848 13.7393L5.84798 14.1379H6.26708L5.92805 14.3842L6.05755 14.7827L5.71848 14.5364L5.37942 14.7827L5.50895 14.3842L5.16992 14.1379H5.58902L5.71848 13.7393Z" fill="#FFDA44"/>
<path d="M3.28977 11.9751L3.41927 12.3736H3.83837L3.49934 12.6199L3.62884 13.0186L3.28977 12.7722L2.95071 13.0186L3.08027 12.6199L2.74121 12.3736H3.16027L3.28977 11.9751Z" fill="#FFDA44"/>
<path d="M4.21754 9.04346L4.34704 9.44205H4.7661L4.4271 9.68836L4.5566 10.087L4.21754 9.84061L3.87848 10.087L4.00804 9.68836L3.66895 9.44205H4.08804L4.21754 9.04346Z" fill="#FFDA44"/>
<path d="M2.74121 10.6852L3.16021 10.6853L3.28974 10.2866L3.41927 10.6852L3.83837 10.6852L3.4993 10.9316L3.62884 11.3302L3.28974 11.0838L2.95071 11.3301L3.08021 10.9315L2.74121 10.6852Z" fill="#FFDA44"/>
<path d="M3.87829 14.185L4.00779 13.7865L3.6687 13.5402H4.08779L4.21733 13.1416L4.34686 13.5402H4.76592L4.42686 13.7865L4.55636 14.1851L4.21729 13.9387L3.87829 14.185Z" fill="#FFDA44"/>
<path d="M8.14622 11.9751L8.01675 12.3736H7.59766L7.93666 12.6199L7.80716 13.0186L8.14622 12.7722L8.48528 13.0186L8.35575 12.6199L8.69481 12.3736H8.27572L8.14622 11.9751Z" fill="#FFDA44"/>
<path d="M7.21848 9.04346L7.08902 9.44205H6.66992L7.00892 9.68836L6.87942 10.087L7.21848 9.84061L7.55755 10.087L7.42802 9.68836L7.76708 9.44205H7.34798L7.21848 9.04346Z" fill="#FFDA44"/>
<path d="M8.69481 10.6852L8.27578 10.6853L8.14625 10.2866L8.01675 10.6852L7.59766 10.6852L7.93669 10.9316L7.80716 11.3302L8.14625 11.0838L8.48528 11.3301L8.35578 10.9315L8.69481 10.6852Z" fill="#FFDA44"/>
<path d="M7.55755 14.185L7.42808 13.7865L7.76714 13.5402H7.34805L7.21852 13.1416L7.08902 13.5402H6.66992L7.00898 13.7865L6.87948 14.1851L7.21855 13.9387L7.55755 14.185Z" fill="#FFDA44"/>
</g>
<defs>
<clipPath id="clip0_467_619">
<rect width="16" height="16" fill="white"/>
</clipPath>
</defs>
</svg>
