<svg width="16" height="16" viewBox="0 0 16 16" fill="none" xmlns="http://www.w3.org/2000/svg">
<g clip-path="url(#clip0_467_808)">
<path d="M8 16C12.4183 16 16 12.4183 16 8C16 3.58172 12.4183 0 8 0C3.58172 0 0 3.58172 0 8C0 12.4183 3.58172 16 8 16Z" fill="#FCFCFC"/>
<path d="M12.5217 6.95654C12.2782 6.95654 11.9768 6.95654 11.4782 6.95654C11.4782 8.87754 9.92093 10.4348 7.99999 10.4348C6.07896 10.4348 4.52174 8.87754 4.52174 6.95654C4.18549 6.95654 3.81446 6.95654 3.47827 6.95654C3.47827 9.02576 4.86815 10.7704 6.76533 11.3076C6.55733 11.7028 6.58902 12.2002 6.88615 12.571C7.2764 12.2582 7.68043 11.9344 8.02318 11.6598C8.36593 11.9345 8.76999 12.2583 9.16021 12.571C9.46027 12.1965 9.4898 11.6928 9.2749 11.2957C11.1513 10.7453 12.5217 9.01104 12.5217 6.95654Z" fill="#6DA544"/>
<path d="M5.21741 6.60861C5.21741 6.60861 5.21741 8.34773 6.95653 8.34773L7.30434 8.69555H8C8 8.69555 8.34781 7.65208 9.04347 7.65208C9.04347 7.65208 9.04347 6.95642 9.73913 6.95642C10.4348 6.95642 10.7826 6.95642 10.7826 6.95642C10.7826 6.95642 10.4348 5.56511 12.1739 4.52164L11.4783 4.17383C11.4783 4.17383 9.04347 5.91295 7.30434 5.56514V6.2608H6.60869L6.26088 5.91298L5.21741 6.60861Z" fill="#FFDA44"/>
</g>
<defs>
<clipPath id="clip0_467_808">
<rect width="16" height="16" fill="white"/>
</clipPath>
</defs>
</svg>
