<svg width="16" height="16" viewBox="0 0 16 16" fill="none" xmlns="http://www.w3.org/2000/svg">
<g clip-path="url(#clip0_467_830)">
<path d="M7.30436 8.69566C7.30436 8.69566 2.34783 2.34203 2.34314 2.34316C3.79083 0.895438 5.79086 0 8.00001 0C12.4183 0 16 3.58175 16 8L7.30436 8.69566Z" fill="#338AF3"/>
<path d="M7.30436 8C7.30436 8 2.34783 13.658 2.34314 13.6568C3.79083 15.1046 5.79086 16 8.00001 16C12.4183 16 16 12.4183 16 8H7.30436Z" fill="#6DA544"/>
<path d="M2.34314 2.34326C-0.781047 5.46745 -0.781047 10.5328 2.34314 13.657C3.63417 12.366 4.87583 11.1243 8.00002 8.00014L2.34314 2.34326Z" fill="#F0F0F0"/>
<path d="M3.2378 5.91309L3.75577 7.50734H5.43221L4.07602 8.49271L4.59396 10.087L3.2378 9.10168L1.88158 10.087L2.39964 8.49271L1.04346 7.50734H2.71977L3.2378 5.91309Z" fill="#D80027"/>
</g>
<defs>
<clipPath id="clip0_467_830">
<rect width="16" height="16" fill="white"/>
</clipPath>
</defs>
</svg>
