<svg width="16" height="16" viewBox="0 0 16 16" fill="none" xmlns="http://www.w3.org/2000/svg">
<g clip-path="url(#clip0_467_823)">
<path d="M8 16C12.4183 16 16 12.4183 16 8C16 3.58172 12.4183 0 8 0C3.58172 0 0 3.58172 0 8C0 12.4183 3.58172 16 8 16Z" fill="#F0F0F0"/>
<path d="M6.2609 6.95653H15.9323C15.4209 3.03131 12.0646 0 7.99999 0C7.40265 0 6.82086 0.0660313 6.26086 0.190156V6.95653H6.2609Z" fill="#D80027"/>
<path d="M4.17394 6.95644V0.972656C1.97728 2.17122 0.404718 4.36969 0.067749 6.95647H4.17394V6.95644Z" fill="#D80027"/>
<path d="M4.1739 9.04346H0.067749C0.404718 11.6302 1.97728 13.8287 4.17394 15.0272L4.1739 9.04346Z" fill="#D80027"/>
<path d="M6.26086 9.04349V15.8098C6.82086 15.934 7.40265 16 7.99999 16C12.0646 16 15.4209 12.9687 15.9323 9.04346H6.26086V9.04349Z" fill="#D80027"/>
</g>
<defs>
<clipPath id="clip0_467_823">
<rect width="16" height="16" fill="white"/>
</clipPath>
</defs>
</svg>
