<svg width="16" height="16" viewBox="0 0 16 16" fill="none" xmlns="http://www.w3.org/2000/svg">
<g clip-path="url(#clip0_467_835)">
<path d="M8 16C12.4183 16 16 12.4183 16 8C16 3.58172 12.4183 0 8 0C3.58172 0 0 3.58172 0 8C0 12.4183 3.58172 16 8 16Z" fill="#F0F0F0"/>
<path d="M9.56531 15.8462C12.7279 15.2188 15.2192 12.7275 15.8466 9.56494H9.56531V15.8462Z" fill="#496E2D"/>
<path d="M0.153564 9.56494C0.780908 12.7275 3.27222 15.2188 6.43481 15.8462V9.56494H0.153564Z" fill="#496E2D"/>
<path d="M15.8466 6.43457C15.2192 3.27201 12.7279 0.780695 9.56531 0.15332V6.43457H15.8466Z" fill="#496E2D"/>
<path d="M6.43481 0.15332C3.27222 0.780695 0.780908 3.27201 0.153564 6.43457H6.43481V0.15332Z" fill="#496E2D"/>
<path d="M7.47828 9.56543H6.43481V15.8467C6.77535 15.9142 7.12369 15.96 7.47828 15.9828V9.56543Z" fill="#FFDA44"/>
<path d="M7.47828 6.43495V0.0175781C7.12369 0.0403906 6.77531 0.0861719 6.43481 0.153703V6.43495H7.47828Z" fill="#FFDA44"/>
<path d="M8.52177 0.0174062C8.34921 0.00625 8.17537 0 8.00002 0C7.82468 0 7.65083 0.00625 7.47827 0.0174062V6.43481H8.52174V0.0174062H8.52177Z" fill="black"/>
<path d="M7.47827 15.9828C7.65083 15.994 7.82468 16.0002 8.00002 16.0002C8.17537 16.0002 8.34921 15.994 8.52177 15.9828V9.56543H7.4783V15.9828H7.47827Z" fill="black"/>
<path d="M6.43483 7.47804V6.43457H0.153581C0.0860186 6.77513 0.0402686 7.12345 0.0174561 7.47804H6.43483Z" fill="#FFDA44"/>
<path d="M9.56531 7.47804H15.9827C15.9599 7.12345 15.9141 6.77513 15.8466 6.43457H9.56534V7.47804H9.56531Z" fill="#FFDA44"/>
<path d="M9.56519 8.52153H15.9826C15.9937 8.349 16 8.17512 16 7.99978C16 7.82443 15.9937 7.65056 15.9826 7.47803H9.56519V8.52153Z" fill="black"/>
<path d="M0.0174062 7.47803C0.00628125 7.65056 0 7.82443 0 7.99978C0 8.17512 0.00628125 8.349 0.0174062 8.52153H6.43481V7.47806H0.0174062V7.47803Z" fill="black"/>
<path d="M8.00004 11.826C10.1131 11.826 11.8261 10.113 11.8261 7.99992C11.8261 5.88683 10.1131 4.17383 8.00004 4.17383C5.88695 4.17383 4.17395 5.88683 4.17395 7.99992C4.17395 10.113 5.88695 11.826 8.00004 11.826Z" fill="#D80027"/>
<path d="M8.87172 8.42712C8.58712 7.85796 8.21722 7.28109 8.21722 7.28109C8.21722 7.28109 8.2264 7.01843 8.2264 6.86193C8.2264 6.62618 8.03528 6.43506 7.79953 6.43506C7.57619 6.43506 7.39319 6.60665 7.37453 6.82512C7.1989 6.83659 7.05994 6.98228 7.05994 7.16078C7.05994 7.29056 7.13347 7.40303 7.24109 7.45925C7.29459 7.33412 7.39934 7.23643 7.5289 7.1919C7.55003 7.20918 7.57272 7.22462 7.59694 7.23771L7.65162 7.2639C7.65162 7.2639 7.44884 7.8355 7.44884 8.14256C7.44884 9.00581 8.01803 9.27203 8.01803 9.27203V9.28093L7.73344 9.5655H8.30259V8.99631L8.58719 9.2809C8.58969 9.27556 9.12625 8.93621 8.87172 8.42712Z" fill="#496E2D"/>
<path d="M8.0001 4.86963L8.1296 5.26819H8.54866L8.20963 5.51453L8.33916 5.9131L8.0001 5.66679L7.66104 5.9131L7.79057 5.51453L7.45154 5.26819H7.8706L8.0001 4.86963Z" fill="#496E2D"/>
<path d="M6.16 5.46732L6.499 5.71366L6.83806 5.46729L6.70856 5.86591L7.04763 6.11219L6.62853 6.11222L6.49903 6.51079L6.3695 6.11222L5.95044 6.11219L6.28947 5.86585L6.16 5.46732Z" fill="#496E2D"/>
<path d="M5.02283 7.03284H5.44186L5.57139 6.63428L5.70089 7.03284L6.11998 7.03281L5.78095 7.27918L5.91048 7.67775L5.57139 7.4314L5.23236 7.67771L5.36183 7.27915L5.02283 7.03284Z" fill="#496E2D"/>
<path d="M5.02283 8.96763L5.36183 8.72135L5.23233 8.32275L5.57139 8.5691L5.91045 8.32275L5.78095 8.72132L6.12001 8.96766L5.70089 8.96769L5.57139 9.36622L5.44186 8.96763H5.02283Z" fill="#496E2D"/>
<path d="M6.16003 10.5327L6.2895 10.1342L5.95044 9.88785H6.36953L6.49906 9.48926L6.62856 9.88782H7.04766L6.7086 10.1342L6.8381 10.5327L6.49903 10.2864L6.16003 10.5327Z" fill="#496E2D"/>
<path d="M8.0001 11.1304L7.8706 10.7319H7.45154L7.79057 10.4855L7.66104 10.0869L8.0001 10.3332L8.33913 10.0869L8.20963 10.4855L8.54866 10.7319L8.1296 10.7319L8.0001 11.1304Z" fill="#496E2D"/>
<path d="M9.84002 10.5327L9.50102 10.2864L9.16199 10.5328L9.29145 10.1342L8.95239 9.88785L9.37149 9.88782L9.50095 9.48926L9.63052 9.88785H10.0496L9.71055 10.1342L9.84002 10.5327Z" fill="#496E2D"/>
<path d="M10.9773 8.9676H10.5583L10.4288 9.36619L10.2993 8.96766H9.88013L10.2192 8.72128L10.0897 8.32275L10.4288 8.56907L10.7678 8.32275L10.6383 8.72132L10.9773 8.9676Z" fill="#496E2D"/>
<path d="M10.9773 7.03281L10.6383 7.27912L10.7678 7.67768L10.4288 7.43137L10.0897 7.67775L10.2192 7.27915L9.88013 7.03284L10.2993 7.03278L10.4287 6.63428L10.5583 7.03281H10.9773Z" fill="#496E2D"/>
<path d="M9.84002 5.46729L9.71055 5.86582L10.0496 6.11216H9.63052L9.50102 6.51075L9.37149 6.11219L8.95239 6.11222L9.29145 5.86582L9.16195 5.46732L9.50102 5.7136L9.84002 5.46729Z" fill="#496E2D"/>
</g>
<defs>
<clipPath id="clip0_467_835">
<rect width="16" height="16" fill="white"/>
</clipPath>
</defs>
</svg>
