<svg width="16" height="16" viewBox="0 0 16 16" fill="none" xmlns="http://www.w3.org/2000/svg">
<g clip-path="url(#clip0_467_865)">
<path d="M8 16C12.4183 16 16 12.4183 16 8C16 3.58172 12.4183 0 8 0C3.58172 0 0 3.58172 0 8C0 12.4183 3.58172 16 8 16Z" fill="#F0F0F0"/>
<path d="M0.275635 10.0869C1.01432 12.8276 3.17235 14.9857 5.9131 15.7244V10.0869H0.275635Z" fill="#D80027"/>
<path d="M5.91307 0.275391C3.17235 1.01405 1.01429 3.17211 0.275635 5.91283H5.9131V0.275391H5.91307Z" fill="#0052B4"/>
<path d="M15.7244 5.91283C14.9857 3.17211 12.8276 1.01405 10.0869 0.275391V5.91286H15.7244V5.91283Z" fill="#D80027"/>
<path d="M10.0869 15.7244C12.8276 14.9857 14.9857 12.8277 15.7244 10.0869H10.0869V15.7244Z" fill="#0052B4"/>
<path d="M10.087 8.00005C10.087 9.15268 9.15268 10.087 8.00005 10.087C6.84746 10.087 5.91309 9.15268 5.91309 8.00005C5.91309 6.84743 8.00005 5.91309 8.00005 5.91309C8.00005 5.91309 10.087 6.84743 10.087 8.00005Z" fill="#496E2D"/>
<path d="M5.91309 8.00005C5.91309 6.84743 6.84746 5.91309 8.00005 5.91309C9.15268 5.91309 10.087 6.84743 10.087 8.00005" fill="#0052B4"/>
<path d="M6.82605 6.95654V8.26089C6.82605 8.90923 7.35161 9.43479 7.99996 9.43479C8.6483 9.43479 9.17386 8.90923 9.17386 8.26089V6.95654H6.82605Z" fill="#D80027"/>
</g>
<defs>
<clipPath id="clip0_467_865">
<rect width="16" height="16" fill="white"/>
</clipPath>
</defs>
</svg>
