<svg width="16" height="16" viewBox="0 0 16 16" fill="none" xmlns="http://www.w3.org/2000/svg">
<g clip-path="url(#clip0_467_253)">
<path d="M8.00001 0C12.4183 0 16 3.58175 16 8C16 12.4183 12.4183 16 8.00001 16C8.00001 15.6522 6.95654 8 6.95654 8L8.00001 0Z" fill="#F0F0F0"/>
<path d="M8 16C3.58175 16 0 12.4183 0 8C0 3.58175 3.58175 0 8 0" fill="#496E2D"/>
<path d="M9.71892 6.46533L9.06254 7.36986L7.99951 7.02511L8.65695 7.92886L8.00064 8.8334L9.06326 8.48743L9.7207 9.39114L9.72001 8.27361L10.7827 7.92761L9.71967 7.58293L9.71892 6.46533Z" fill="#D80027"/>
<path d="M8.66363 10.2608C7.41501 10.2608 6.40276 9.24854 6.40276 7.99991C6.40276 6.75129 7.41501 5.73904 8.66363 5.73904C9.05294 5.73904 9.41929 5.83747 9.7391 6.01079C9.23735 5.52013 8.55122 5.21729 7.79407 5.21729C6.25726 5.21729 5.01147 6.4631 5.01147 7.99988C5.01147 9.53666 6.25729 10.7825 7.79407 10.7825C8.55126 10.7825 9.23738 10.4796 9.7391 9.98897C9.41929 10.1623 9.05294 10.2608 8.66363 10.2608Z" fill="#D80027"/>
</g>
<defs>
<clipPath id="clip0_467_253">
<rect width="16" height="16" fill="white"/>
</clipPath>
</defs>
</svg>
