<svg width="16" height="16" viewBox="0 0 16 16" fill="none" xmlns="http://www.w3.org/2000/svg">
<g clip-path="url(#clip0_467_879)">
<path d="M0 8C0 3.58175 3.58175 0 8 0C12.4183 0 16 3.58175 16 8L8 8.69566L0 8Z" fill="#FFDA44"/>
<path d="M1.07056 11.9998C2.45384 14.3909 5.03896 15.9998 8.00006 15.9998C10.9612 15.9998 13.5463 14.3909 14.9296 11.9998L8.00006 11.478L1.07056 11.9998Z" fill="#D80027"/>
<path d="M14.9295 12C15.6102 10.8233 16 9.45722 16 8H0C0 9.45722 0.389813 10.8233 1.0705 12H14.9295Z" fill="#0052B4"/>
<path d="M7.99988 10.7825C9.53666 10.7825 10.7825 9.53666 10.7825 7.99988C10.7825 6.46309 9.53666 5.21729 7.99988 5.21729C6.46309 5.21729 5.21729 6.46309 5.21729 7.99988C5.21729 9.53666 6.46309 10.7825 7.99988 10.7825Z" fill="#FFDA44"/>
<path d="M8.00011 9.739C7.04114 9.739 6.26099 8.95882 6.26099 7.99988V6.95641C6.26099 5.99744 7.04117 5.21729 8.00011 5.21729C8.95905 5.21729 9.73924 5.99747 9.73924 6.95641V7.99988C9.73924 8.95885 8.95908 9.739 8.00011 9.739Z" fill="#338AF3"/>
<path d="M10.7825 3.82603H8.69557C8.69557 3.44184 8.3841 3.13037 7.99991 3.13037C7.61572 3.13037 7.30425 3.44184 7.30425 3.82603H5.21729C5.21729 4.21025 5.55194 4.52168 5.9361 4.52168H5.91294C5.91294 4.9059 6.22438 5.21734 6.6086 5.21734C6.6086 5.60156 6.92004 5.913 7.30425 5.913H8.69557C9.07979 5.913 9.39122 5.60156 9.39122 5.21734C9.77544 5.21734 10.0869 4.9059 10.0869 4.52168H10.0637C10.4479 4.52168 10.7825 4.21021 10.7825 3.82603Z" fill="black"/>
</g>
<defs>
<clipPath id="clip0_467_879">
<rect width="16" height="16" fill="white"/>
</clipPath>
</defs>
</svg>
