<svg width="16" height="16" viewBox="0 0 16 16" fill="none" xmlns="http://www.w3.org/2000/svg">
<g clip-path="url(#clip0_467_915)">
<path d="M0 8.00007C0 8.97863 0.176031 9.916 0.497594 10.7827L8 11.1305L15.5024 10.7827C15.824 9.916 16 8.97863 16 8.00007C16 7.0215 15.824 6.08413 15.5024 5.21747L8 4.86963L0.497594 5.21744C0.176031 6.08413 0 7.0215 0 8.00007H0Z" fill="black"/>
<path d="M7.99996 0C4.56025 0 1.6279 2.171 0.497559 5.21741H15.5024C14.372 2.171 11.4397 0 7.99996 0Z" fill="#0052B4"/>
<path d="M15.5024 10.7827H0.497559C1.6279 13.8291 4.56025 16.0001 7.99996 16.0001C11.4397 16.0001 14.372 13.8291 15.5024 10.7827Z" fill="#F0F0F0"/>
</g>
<defs>
<clipPath id="clip0_467_915">
<rect width="16" height="16" fill="white"/>
</clipPath>
</defs>
</svg>
