<svg width="16" height="16" viewBox="0 0 16 16" fill="none" xmlns="http://www.w3.org/2000/svg">
<g clip-path="url(#clip0_467_886)">
<path d="M8 16C12.4183 16 16 12.4183 16 8C16 3.58172 12.4183 0 8 0C3.58172 0 0 3.58172 0 8C0 12.4183 3.58172 16 8 16Z" fill="#F0F0F0"/>
<path d="M7.99996 0C4.56025 0 1.6279 2.171 0.497559 5.21741H15.5024C14.372 2.171 11.4397 0 7.99996 0Z" fill="#D80027"/>
<path d="M7.99996 16.0001C11.4397 16.0001 14.372 13.8291 15.5024 10.7827H0.497559C1.6279 13.8291 4.56025 16.0001 7.99996 16.0001Z" fill="black"/>
<path d="M10.7825 7.13023H8.69557C8.69557 6.74604 8.3841 6.43457 7.99991 6.43457C7.61572 6.43457 7.30425 6.74604 7.30425 7.13023H5.21729C5.21729 7.51445 5.55194 7.82588 5.93613 7.82588H5.91294C5.91294 8.2101 6.22438 8.52154 6.6086 8.52154C6.6086 8.90576 6.92004 9.2172 7.30425 9.2172H8.69557C9.07979 9.2172 9.39122 8.90576 9.39122 8.52154C9.77544 8.52154 10.0869 8.2101 10.0869 7.82588H10.0637C10.4479 7.82588 10.7825 7.51445 10.7825 7.13023Z" fill="#FF9811"/>
</g>
<defs>
<clipPath id="clip0_467_886">
<rect width="16" height="16" fill="white"/>
</clipPath>
</defs>
</svg>
