<svg width="16" height="16" viewBox="0 0 16 16" fill="none" xmlns="http://www.w3.org/2000/svg">
<g clip-path="url(#clip0_467_910)">
<path d="M7.30424 7.3042C7.30424 7.3042 2.34771 13.6579 2.34302 13.6567C3.79071 15.1044 5.79074 15.9999 7.99989 15.9999C12.4181 15.9999 15.9999 12.4181 15.9999 7.99986L7.30424 7.3042Z" fill="#338AF3"/>
<path d="M7.30424 8C7.30424 8 2.34771 2.34203 2.34302 2.34316C3.79071 0.895438 5.79074 0 7.99989 0C12.4181 0 15.9999 3.58175 15.9999 8H7.30424Z" fill="#6DA544"/>
<path d="M2.34314 2.34326C-0.781047 5.46745 -0.781047 10.5328 2.34314 13.657C2.34292 13.6583 16 8.00014 16 8.00014L2.34314 2.34326Z" fill="#D80027"/>
<path d="M4.17395 4.6958C2.63961 4.6958 1.39136 5.94408 1.39136 7.47839V8.52186C1.39136 10.0562 2.63964 11.3045 4.17395 11.3045C5.70826 11.3045 6.95654 10.0562 6.95654 8.52186V7.47839C6.95658 5.94408 5.70829 4.6958 4.17395 4.6958ZM5.91308 8.52189C5.91308 9.29914 5.40051 9.9588 4.69567 10.181V9.04364L5.43392 8.30539L4.69608 7.56755L4.69567 7.30496V6.95671H3.65223V8.00014L2.91448 8.73786L3.65223 9.47558V10.181C2.94739 9.95883 2.43483 9.29918 2.43483 8.52193V7.47846C2.43483 6.51949 3.21501 5.73933 4.17395 5.73933C5.13289 5.73933 5.91308 6.51952 5.91308 7.47846V8.52189Z" fill="#FFDA44"/>
</g>
<defs>
<clipPath id="clip0_467_910">
<rect width="16" height="16" fill="white"/>
</clipPath>
</defs>
</svg>
