<svg width="16" height="16" viewBox="0 0 16 16" fill="none" xmlns="http://www.w3.org/2000/svg">
<g clip-path="url(#clip0_467_1963)">
<path d="M0 8.00022C0 8.97879 0.176031 9.91616 0.497594 10.7828L8 11.4785L15.5024 10.7828C15.824 9.91616 16 8.97879 16 8.00022C16 7.02166 15.824 6.08429 15.5024 5.21763L8 4.52197L0.497594 5.21763C0.176031 6.08429 0 7.02166 0 8.00022H0Z" fill="#FFDA44"/>
<path d="M15.5024 5.21741C14.372 2.17103 11.4397 0 7.99996 0C4.56025 0 1.6279 2.17103 0.497559 5.21741H15.5024Z" fill="#D80027"/>
<path d="M0.497559 10.7827C1.6279 13.8291 4.56025 16.0001 7.99996 16.0001C11.4397 16.0001 14.372 13.8291 15.5024 10.7827H0.497559Z" fill="#D80027"/>
</g>
<defs>
<clipPath id="clip0_467_1963">
<rect width="16" height="16" fill="white"/>
</clipPath>
</defs>
</svg>
