<svg width="16" height="16" viewBox="0 0 16 16" fill="none" xmlns="http://www.w3.org/2000/svg">
<g clip-path="url(#clip0_467_919)">
<path d="M0 8.00022C0 8.97885 0.176031 9.91622 0.497625 10.7829L8 11.4785L15.5024 10.7829C15.824 9.91622 16 8.97882 16 8.00022C16 7.03507 15.829 6.10985 15.5158 5.25319L8 4.52197L0.484188 5.25322C0.170969 6.10985 0 7.03507 0 8.00022H0Z" fill="#FFDA44"/>
<path d="M7.99996 16.0001C11.4397 16.0001 14.372 13.8291 15.5024 10.7827H0.497559C1.6279 13.8291 4.56025 16.0001 7.99996 16.0001Z" fill="#D80027"/>
<path d="M7.99996 0C4.56025 0 1.6279 2.171 0.497559 5.21741H15.5024C14.372 2.171 11.4397 0 7.99996 0Z" fill="#6DA544"/>
<path d="M7.99992 11.826C10.113 11.826 11.826 10.113 11.826 7.99992C11.826 5.88683 10.113 4.17383 7.99992 4.17383C5.88683 4.17383 4.17383 5.88683 4.17383 7.99992C4.17383 10.113 5.88683 11.826 7.99992 11.826Z" fill="#0052B4"/>
<path d="M7.99925 5.03711L8.68994 7.1628H10.9286L9.11678 8.47658L9.81291 10.6086L7.99925 9.28855L6.18838 10.6061L6.88169 8.47658L5.07153 7.1628H7.30856L7.99925 5.03711Z" fill="#FFDA44"/>
<path d="M10.7538 8.52912L8.56272 7.81712L9.91687 5.95337L9.35413 5.54443L7.99991 7.40831L6.64581 5.54447L6.083 5.95334L7.43712 7.81725L5.24609 8.52909L5.46103 9.19075L7.65216 8.47884V10.7827H8.34778V8.47881L10.5388 9.19075L10.7538 8.52912Z" fill="#FFDA44"/>
</g>
<defs>
<clipPath id="clip0_467_919">
<rect width="16" height="16" fill="white"/>
</clipPath>
</defs>
</svg>
