<svg width="16" height="16" viewBox="0 0 16 16" fill="none" xmlns="http://www.w3.org/2000/svg">
<g clip-path="url(#clip0_467_927)">
<path d="M8 16C12.4183 16 16 12.4183 16 8C16 3.58172 12.4183 0 8 0C3.58172 0 0 3.58172 0 8C0 12.4183 3.58172 16 8 16Z" fill="#0052B4"/>
<path d="M8.00002 3.13037L8.25905 3.92753H9.09718L8.41908 4.42018L8.67811 5.21734L8.00002 4.72465L7.32189 5.21734L7.58093 4.42018L6.90283 3.92753H7.74099L8.00002 3.13037Z" fill="#FFDA44"/>
<path d="M4.55658 4.55685L5.30345 4.93735L5.89611 4.34473L5.76495 5.17254L6.5118 5.55307L5.68395 5.6842L5.55283 6.51207L5.1723 5.76523L4.34448 5.89638L4.93714 5.30373L4.55658 4.55685Z" fill="#FFDA44"/>
<path d="M3.13037 8.00002L3.92753 7.74099V6.90283L4.42015 7.58096L5.21734 7.32193L4.72462 8.00002L5.21734 8.67811L4.42015 8.41911L3.92753 9.09721V8.25905L3.13037 8.00002Z" fill="#FFDA44"/>
<path d="M4.55658 11.4435L4.93711 10.6966L4.34448 10.1039L5.17233 10.2351L5.55279 9.48828L5.68395 10.3161L6.51176 10.4473L5.76501 10.8278L5.89611 11.6556L5.30345 11.0629L4.55658 11.4435Z" fill="#FFDA44"/>
<path d="M8.00002 12.8696L7.74096 12.0725H6.90283L7.58096 11.5798L7.32189 10.7827L8.00002 11.2753L8.67811 10.7827L8.41908 11.5798L9.09718 12.0725H8.25902L8.00002 12.8696Z" fill="#FFDA44"/>
<path d="M11.4432 11.4435L10.6963 11.063L10.1037 11.6556L10.2348 10.8278L9.48804 10.4473L10.3158 10.3161L10.447 9.48828L10.8275 10.2351L11.6553 10.1039L11.0626 10.6967L11.4432 11.4435Z" fill="#FFDA44"/>
<path d="M12.8694 8.00002L12.0722 8.25905V9.09721L11.5796 8.41908L10.7825 8.67811L11.2751 8.00002L10.7825 7.32193L11.5796 7.58096L12.0722 6.90283V7.74102L12.8694 8.00002Z" fill="#FFDA44"/>
<path d="M11.4432 4.55682L11.0627 5.3037L11.6553 5.89635L10.8274 5.76516L10.447 6.51201L10.3158 5.68416L9.48804 5.55301L10.2348 5.17251L10.1037 4.34473L10.6964 4.93735L11.4432 4.55682Z" fill="#FFDA44"/>
</g>
<defs>
<clipPath id="clip0_467_927">
<rect width="16" height="16" fill="white"/>
</clipPath>
</defs>
</svg>
