<svg width="16" height="16" viewBox="0 0 16 16" fill="none" xmlns="http://www.w3.org/2000/svg">
<g clip-path="url(#clip0_467_956)">
<path d="M16 8C16 12.4183 12.4183 16 8 16C3.58175 16 0 12.4183 0 8C0 8.00191 8 0.000875 8 0C12.4183 0 16 3.58175 16 8Z" fill="#338AF3"/>
<path d="M8 3.82617V6.52439L5.21741 3.82617H8Z" fill="#0052B4"/>
<path d="M4.17386 8.00007H6.52424L4.17386 4.86963L3.82605 7.30441L4.17386 8.00007Z" fill="#0052B4"/>
<path d="M7.97864 7.99992H8.00004C8.00004 7.99273 8.00004 7.98573 8.00004 7.97852C7.99292 7.98567 7.98579 7.9928 7.97864 7.99992Z" fill="#F0F0F0"/>
<path d="M8 4.17391C8 2.76625 8 1.84391 8 0H7.99866C3.581 0.00075 0 3.58216 0 8H4.17391V5.64966L6.52428 8H7.97866C7.98578 7.99288 7.99291 7.98575 8.00006 7.97859C8.00006 7.43963 8.00006 6.95872 8.00006 6.52431L5.64962 4.17391H8Z" fill="#F0F0F0"/>
<path d="M4.04733 1.04346C2.79611 1.75593 1.75593 2.79611 1.04346 4.04733V7.99999H3.13043V3.13049V3.13043H7.99999C7.99999 2.47221 7.99999 1.84514 7.99999 1.04346H4.04733Z" fill="#D80027"/>
<path d="M8.00001 7.01611L5.15773 4.17383H4.17395V4.17389L7.99995 7.99989H8.00001C8.00001 7.99989 8.00001 7.32155 8.00001 7.01611Z" fill="#D80027"/>
<path d="M9.04346 5.21763V8.00019C9.04346 9.86394 11.4782 10.435 11.4782 10.435C11.4782 10.435 13.913 9.86394 13.913 8.00019V5.21763L11.4782 4.52197L9.04346 5.21763Z" fill="#F3F3F3"/>
<path d="M13.913 5.2173V4.17383H9.04346V5.2173H11.1304V7.3043H9.04346V7.99989V7.99995L11.1304 7.99998V10.328C11.3403 10.4023 11.4782 10.4347 11.4782 10.4347C11.4782 10.4347 11.6161 10.4023 11.826 10.328V7.99995H13.913V7.99989V7.30427H11.826V5.21727H13.913V5.2173Z" fill="#D80027"/>
</g>
<defs>
<clipPath id="clip0_467_956">
<rect width="16" height="16" fill="white"/>
</clipPath>
</defs>
</svg>
