<svg width="16" height="16" viewBox="0 0 16 16" fill="none" xmlns="http://www.w3.org/2000/svg">
<g clip-path="url(#clip0_467_938)">
<path d="M16 8C16 12.4183 12.4183 16 8 16C3.58175 16 0 12.4183 0 8C0 8.00191 8 0.000875 8 0C12.4183 0 16 3.58175 16 8Z" fill="#0052B4"/>
<path d="M7.97852 7.99992H7.99992C7.99992 7.99273 7.99992 7.98573 7.99992 7.97852C7.9928 7.98567 7.98567 7.9928 7.97852 7.99992Z" fill="#F0F0F0"/>
<path d="M8 4.17391C8 2.76625 8 1.84391 8 0H7.99866C3.581 0.00075 0 3.58216 0 8H4.17391V5.64966L6.52428 8H7.97862L8.00003 7.97859C8.00003 7.43963 8.00003 6.95872 8.00003 6.52431L5.64962 4.17391H8Z" fill="#F0F0F0"/>
<path d="M4.04733 1.04346C2.79611 1.75593 1.75593 2.79611 1.04346 4.04733V7.99999H3.13043V3.13049V3.13043H7.99999C7.99999 2.47221 7.99999 1.84514 7.99999 1.04346H4.04733Z" fill="#D80027"/>
<path d="M7.99989 7.01611L5.15761 4.17383H4.17383V4.17389L7.99983 7.99989H7.99989C7.99989 7.99989 7.99989 7.32155 7.99989 7.01611Z" fill="#D80027"/>
<path d="M12.8696 9.39111V9.73893H10.087V9.39111H9.04346V10.7824H9.73911V11.1302H13.2174V10.7824H13.913V9.39111H12.8696Z" fill="#FFDA44"/>
<path d="M9.04346 4.17383V7.99992C9.04346 9.86364 11.4782 10.4347 11.4782 10.4347C11.4782 10.4347 13.913 9.86364 13.913 7.99992V4.17383H9.04346Z" fill="#338AF3"/>
<path d="M11.4781 7.02783C10.8694 7.02783 10.8694 7.58436 10.2608 7.58436C9.65211 7.58436 9.65211 7.02783 9.04346 7.02783V8.00174C9.65211 8.00174 9.65211 8.55827 10.2608 8.55827C10.8694 8.55827 10.8694 8.00174 11.4781 8.00174C12.0868 8.00174 12.0868 8.55827 12.6956 8.55827C13.3043 8.55827 13.3043 8.00174 13.913 8.00174V7.02783C13.3043 7.02783 13.3043 7.58436 12.6956 7.58436C12.0868 7.58436 12.0868 7.02783 11.4781 7.02783Z" fill="#F3F3F3"/>
<path d="M11.4781 5.07812C10.8694 5.07812 10.8694 5.63466 10.2608 5.63466C9.65211 5.63466 9.65211 5.07812 9.04346 5.07812V6.05203C9.65211 6.05203 9.65211 6.60856 10.2608 6.60856C10.8694 6.60856 10.8694 6.05203 11.4781 6.05203C12.0868 6.05203 12.0868 6.60856 12.6956 6.60856C13.3043 6.60856 13.3043 6.05203 13.913 6.05203V5.07812C13.3043 5.07812 13.3043 5.63466 12.6956 5.63466C12.0868 5.63466 12.0868 5.07812 11.4781 5.07812Z" fill="#F3F3F3"/>
</g>
<defs>
<clipPath id="clip0_467_938">
<rect width="16" height="16" fill="white"/>
</clipPath>
</defs>
</svg>
