<svg width="16" height="16" viewBox="0 0 16 16" fill="none" xmlns="http://www.w3.org/2000/svg">
<g clip-path="url(#clip0_467_1426)">
<path d="M8 16C12.4183 16 16 12.4183 16 8C16 3.58172 12.4183 0 8 0C3.58172 0 0 3.58172 0 8C0 12.4183 3.58172 16 8 16Z" fill="#338AF3"/>
<path d="M8.00002 3.47803L8.34533 4.5409H9.46295L8.55883 5.19781L8.90414 6.26065L8.00002 5.60378L7.09586 6.26065L7.44127 5.19781L6.53711 4.5409H7.6547L8.00002 3.47803Z" fill="#F0F0F0"/>
<path d="M3.47827 7.99962L4.54115 7.65425V6.53662L5.19805 7.44081L6.2609 7.09546L5.60402 7.99962L6.2609 8.90368L5.19805 8.55831L4.54115 9.46246V8.3449L3.47827 7.99962Z" fill="#F0F0F0"/>
<path d="M8.00008 12.5214L7.65473 11.4585H6.53711L7.4413 10.8016L7.09595 9.73877L8.00008 10.3956L8.90417 9.73877L8.5588 10.8016L9.46295 11.4585H8.34539L8.00008 12.5214Z" fill="#F0F0F0"/>
<path d="M12.5219 7.99953L11.459 8.34487V9.46246L10.8021 8.55831L9.73926 8.90365L10.3961 7.99953L9.73926 7.09543L10.8021 7.44081L11.459 6.53662V7.65421L12.5219 7.99953Z" fill="#F0F0F0"/>
</g>
<defs>
<clipPath id="clip0_467_1426">
<rect width="16" height="16" fill="white"/>
</clipPath>
</defs>
</svg>
