<svg width="16" height="16" viewBox="0 0 16 16" fill="none" xmlns="http://www.w3.org/2000/svg">
<g clip-path="url(#clip0_467_952)">
<path d="M8 16C12.4183 16 16 12.4183 16 8C16 3.58172 12.4183 0 8 0C3.58172 0 0 3.58172 0 8C0 12.4183 3.58172 16 8 16Z" fill="#F0F0F0"/>
<path d="M15.6522 7.99984L15.9322 6.95637C15.8857 6.60071 15.8159 6.25234 15.7245 5.9129H7.30437V0.0302734C6.94937 0.0608359 6.60109 0.114867 6.2609 0.190305L4.86959 1.0433L4.17393 0.973086C3.80784 1.17284 3.45906 1.40034 3.13047 1.6528V5.91287H0.275621C0.184152 6.2523 0.114402 6.60068 0.0679023 6.95634L0.34784 7.99984L0.0678711 9.0433C0.114371 9.39896 0.184121 9.74734 0.27559 10.0868H3.13043V14.3468C3.45903 14.5993 3.80784 14.8268 4.1739 15.0266L5.21737 14.9563L6.26084 15.8093C6.60106 15.8847 6.94934 15.9388 7.30431 15.9694V10.0868H15.7244C15.8158 9.74737 15.8856 9.39899 15.9321 9.04334L15.6522 7.99984Z" fill="#0052B4"/>
<path d="M15.9323 6.95632H6.26091H6.26088V0.189941C5.52156 0.353879 4.82066 0.619598 4.17391 0.972504V6.95628H0.0677188C0.02325 7.29788 0 7.64613 0 7.99978C0 8.35344 0.02325 8.70169 0.0677188 9.04325H4.17387H4.17391V15.027C4.82066 15.3799 5.52156 15.6457 6.26088 15.8096V9.04335V9.04329H15.9323C15.9768 8.70169 16 8.35344 16 7.99978C16 7.64613 15.9768 7.29788 15.9323 6.95632Z" fill="#D80027"/>
</g>
<defs>
<clipPath id="clip0_467_952">
<rect width="16" height="16" fill="white"/>
</clipPath>
</defs>
</svg>
