<svg width="16" height="16" viewBox="0 0 16 16" fill="none" xmlns="http://www.w3.org/2000/svg">
<g clip-path="url(#clip0_467_1037)">
<path d="M8 16C12.4183 16 16 12.4183 16 8C16 3.58172 12.4183 0 8 0C3.58172 0 0 3.58172 0 8C0 12.4183 3.58172 16 8 16Z" fill="#FFDA44"/>
<path d="M3.49109 1.39131C4.775 0.513625 6.32743 0 8.00006 0C9.67268 0 11.2251 0.513625 12.509 1.39131L8.00006 1.73913L3.49109 1.39131Z" fill="#A2001D"/>
<path d="M8.00001 7.99982L7.48944 7.48926L7.35388 7.7321L8.00001 7.99982Z" fill="#0052B4"/>
<path d="M2.34314 2.34326C-0.781047 5.46745 -0.781047 10.5328 2.34314 13.657C3.63417 12.366 4.87583 11.1243 8.00002 8.00014L2.34314 2.34326Z" fill="#496E2D"/>
<path d="M13.6569 2.34326C16.7811 5.46745 16.7811 10.5328 13.6569 13.657C12.3658 12.366 11.1242 11.1243 8 8.00014L13.6569 2.34326Z" fill="#496E2D"/>
<path d="M8 10.7825C9.53679 10.7825 10.7826 9.53666 10.7826 7.99988C10.7826 6.46309 9.53679 5.21729 8 5.21729C6.46322 5.21729 5.21741 6.46309 5.21741 7.99988C5.21741 9.53666 6.46322 10.7825 8 10.7825Z" fill="#A2001D"/>
<path d="M8.00001 5.21729L8.62373 7.13694H10.6424L9.00935 8.3236L9.63307 10.2433L8.00001 9.05691L6.36688 10.2433L6.99073 8.3236L5.35767 7.13694H7.37623L8.00001 5.21729Z" fill="#FFDA44"/>
<path d="M8.00263 0H7.99729C5.78938 0.00071875 3.7906 0.895813 2.34351 2.34275H13.6564C12.2093 0.895813 10.2105 0.00071875 8.00263 0Z" fill="#A2001D"/>
<path d="M2.34351 13.6572C3.79119 15.1047 5.79101 15.9999 7.99991 15.9999C10.2088 15.9999 12.2086 15.1047 13.6563 13.6572H2.34351Z" fill="#A2001D"/>
<path d="M8.00001 0.869629L8.12954 1.26819H8.5486L8.20957 1.51454L8.3391 1.9131L8.00001 1.66679L7.66098 1.9131L7.79051 1.51454L7.45142 1.26819H7.87048L8.00001 0.869629Z" fill="#FFDA44"/>
<path d="M6.06007 0.869629L6.1896 1.26819H6.60866L6.26963 1.51454L6.39916 1.9131L6.06007 1.66679L5.72107 1.9131L5.85057 1.51454L5.51147 1.26819H5.93054L6.06007 0.869629Z" fill="#FFDA44"/>
<path d="M9.93995 0.869629L10.0695 1.26819H10.4885L10.1495 1.51454L10.279 1.9131L9.93995 1.66679L9.60092 1.9131L9.73045 1.51454L9.39136 1.26819H9.81042L9.93995 0.869629Z" fill="#FFDA44"/>
<path d="M8.00001 14.0869L8.12954 14.4855H8.5486L8.20957 14.7318L8.3391 15.1304L8.00001 14.884L7.66098 15.1304L7.79051 14.7318L7.45142 14.4855H7.87048L8.00001 14.0869Z" fill="#FFDA44"/>
<path d="M6.06007 14.0869L6.1896 14.4855H6.60866L6.26963 14.7318L6.39916 15.1304L6.06007 14.884L5.72107 15.1304L5.85057 14.7318L5.51147 14.4855H5.93054L6.06007 14.0869Z" fill="#FFDA44"/>
<path d="M9.93995 14.0869L10.0695 14.4855H10.4885L10.1495 14.7318L10.279 15.1304L9.93995 14.884L9.60092 15.1304L9.73045 14.7318L9.39136 14.4855H9.81042L9.93995 14.0869Z" fill="#FFDA44"/>
<path d="M2.43759 7.86795C2.64306 8.19261 2.5465 8.62233 2.22184 8.82783C1.89722 9.03333 1.46747 8.93677 1.26197 8.61211C0.889938 8.02436 1.10566 7.06445 1.10566 7.06445C1.10566 7.06445 2.06553 7.28017 2.43759 7.86795Z" fill="#FFDA44"/>
<path d="M2.0358 8.88166C2.22789 8.88166 2.38361 8.72594 2.38361 8.53385C2.38361 8.34176 2.22789 8.18604 2.0358 8.18604C1.84371 8.18604 1.68799 8.34176 1.68799 8.53385C1.68799 8.72594 1.84371 8.88166 2.0358 8.88166Z" fill="#A2001D"/>
</g>
<defs>
<clipPath id="clip0_467_1037">
<rect width="16" height="16" fill="white"/>
</clipPath>
</defs>
</svg>
