<svg width="16" height="16" viewBox="0 0 16 16" fill="none" xmlns="http://www.w3.org/2000/svg">
<g clip-path="url(#clip0_467_1078)">
<path d="M8 16C12.4183 16 16 12.4183 16 8C16 3.58172 12.4183 0 8 0C3.58172 0 0 3.58172 0 8C0 12.4183 3.58172 16 8 16Z" fill="#F0F0F0"/>
<path d="M15.9323 6.95653H9.04353H9.0435V0.0677188C8.70191 0.02325 8.35366 0 8 0C7.64634 0 7.29809 0.02325 6.95653 0.0677188V6.95653H0.0677188C0.02325 7.29809 0 7.64634 0 8C0 8.35366 0.02325 8.70191 0.0677188 9.04347H6.95647H6.9565V15.9323C7.29809 15.9768 7.64634 16 8 16C8.35366 16 8.70191 15.9768 9.04347 15.9323V9.04356V9.0435H15.9323C15.9768 8.70191 16 8.35366 16 8C16 7.64634 15.9768 7.29809 15.9323 6.95653Z" fill="#D80027"/>
<path d="M10.2609 8.34769L10.7826 8.69553V7.30422L10.2609 7.65207H8.34781V5.739L8.69566 5.21729H7.30434L7.65219 5.739V7.65207H5.73913L5.21741 7.30422V8.69553L5.73913 8.34769H7.65219V10.2608L7.30434 10.7825H8.69566L8.34781 10.2608V8.34769H10.2609Z" fill="#FFDA44"/>
</g>
<defs>
<clipPath id="clip0_467_1078">
<rect width="16" height="16" fill="white"/>
</clipPath>
</defs>
</svg>
