<svg width="16" height="16" viewBox="0 0 16 16" fill="none" xmlns="http://www.w3.org/2000/svg">
<g clip-path="url(#clip0_467_1018)">
<path d="M8 16C12.4183 16 16 12.4183 16 8C16 3.58172 12.4183 0 8 0C3.58172 0 0 3.58172 0 8C0 12.4183 3.58172 16 8 16Z" fill="#F9F9F9"/>
<path d="M8 16.0001C11.4397 16.0001 14.3721 13.8291 15.5024 10.7827H0.497559C1.62793 13.8291 4.56025 16.0001 8 16.0001Z" fill="#D80027"/>
<path d="M11.1305 6.60886V5.56539H11.4783V4.86973H10.7826V5.21758H10.087V4.86973H9.39136V5.56539H9.73917V6.60886H9.04351V4.17414H9.39136V3.47852H8.6957V3.82627H8.34786V3.47852H7.65223V3.82627H7.30439V3.47852H6.60873V4.17414H6.95657V6.60886H6.26092V5.56539H6.60873V4.86973H5.91307V5.21758H5.21745V4.86973H4.52179V5.56539H4.86961V6.60886H4.17395V9.39148H11.8261V6.60886H11.1305Z" fill="#D80027"/>
<path d="M8.00005 9.04346C7.42376 9.04346 6.95658 9.51065 6.95658 10.0869C6.95658 10.5412 7.24701 10.9276 7.65223 11.0708V12.5217H6.60876V13.9131H8.34789V11.0708C8.75311 10.9276 9.04355 10.5412 9.04355 10.087C9.04351 9.51068 8.57633 9.04346 8.00005 9.04346ZM8.00005 10.4348C7.80795 10.4348 7.65223 10.279 7.65223 10.087C7.65223 9.89486 7.80795 9.73915 8.00005 9.73915C8.19214 9.73915 8.34786 9.89486 8.34786 10.087C8.34786 10.279 8.19214 10.4348 8.00005 10.4348Z" fill="#FFDA44"/>
</g>
<defs>
<clipPath id="clip0_467_1018">
<rect width="16" height="16" fill="white"/>
</clipPath>
</defs>
</svg>
