<svg width="16" height="16" viewBox="0 0 16 16" fill="none" xmlns="http://www.w3.org/2000/svg">
<g clip-path="url(#clip0_467_996)">
<path d="M8 16C12.4183 16 16 12.4183 16 8C16 3.58172 12.4183 0 8 0C3.58172 0 0 3.58172 0 8C0 12.4183 3.58172 16 8 16Z" fill="#F0F0F0"/>
<path d="M8.00011 0C4.69277 0 1.85439 2.00706 0.635986 4.86956H15.3643C14.1459 2.00706 11.3075 0 8.00011 0Z" fill="#A2001D"/>
<path d="M8.00011 15.9999C11.3075 15.9999 14.1459 13.9929 15.3642 11.1304H0.635986C1.85439 13.9929 4.69277 15.9999 8.00011 15.9999Z" fill="#496E2D"/>
<path d="M15.7244 5.91309H0.275594C0.09625 6.57849 0 7.27796 0 8.00005C0 8.72215 0.09625 9.42162 0.275594 10.087H15.7244C15.9038 9.42162 16 8.72215 16 8.00005C16 7.27796 15.9038 6.57849 15.7244 5.91309Z" fill="#0052B4"/>
</g>
<defs>
<clipPath id="clip0_467_996">
<rect width="16" height="16" fill="white"/>
</clipPath>
</defs>
</svg>
