<svg width="16" height="16" viewBox="0 0 16 16" fill="none" xmlns="http://www.w3.org/2000/svg">
<g clip-path="url(#clip0_467_1089)">
<path d="M10.7827 0.497625C9.916 0.176031 8.9786 0 8 0C7.02147 0 6.0841 0.176031 5.21747 0.497562L4.86963 8L5.21744 15.5024C6.0841 15.824 7.02147 16 8 16C8.97863 16 9.916 15.824 10.7827 15.5024L11.1305 8L10.7827 0.497625Z" fill="#FFDA44"/>
<path d="M0 8C0 11.4397 2.171 14.3721 5.21741 15.5024V0.497559C2.171 1.62793 0 4.56025 0 8Z" fill="#D80027"/>
<path d="M16 8C16 4.56025 13.829 1.62793 10.7826 0.497559V15.5024C13.829 14.3721 16 11.4397 16 8Z" fill="#6DA544"/>
</g>
<defs>
<clipPath id="clip0_467_1089">
<rect width="16" height="16" fill="white"/>
</clipPath>
</defs>
</svg>
