<svg width="16" height="16" viewBox="0 0 16 16" fill="none" xmlns="http://www.w3.org/2000/svg">
<g clip-path="url(#clip0_467_902)">
<path d="M8 16C12.4183 16 16 12.4183 16 8C16 3.58172 12.4183 0 8 0C3.58172 0 0 3.58172 0 8C0 12.4183 3.58172 16 8 16Z" fill="#F0F0F0"/>
<path d="M4.86966 5.21741H15.5025C14.3722 2.171 11.4398 0 8.0001 0C5.79091 0 3.79113 0.895594 2.34351 2.34341L4.86966 5.21741Z" fill="#6DA544"/>
<path d="M4.86966 10.7827H15.5025C14.3722 13.8291 11.4398 16.0001 8.0001 16.0001C5.79091 16.0001 3.79113 15.1045 2.34351 13.6567L4.86966 10.7827Z" fill="#D80027"/>
<path d="M2.34314 2.34326C-0.781047 5.46745 -0.781047 10.5328 2.34314 13.657C3.63417 12.366 4.87583 11.1243 8.00002 8.00014L2.34314 2.34326Z" fill="#0052B4"/>
<path d="M9.39136 6.60889V8.34801C9.39136 9.41301 10.7827 9.73936 10.7827 9.73936C10.7827 9.73936 12.174 9.41301 12.174 8.34801V6.60889H9.39136Z" fill="#DEDDE0"/>
<path d="M10.4348 8.03467H11.1305V9.04335H10.4348V8.03467Z" fill="#786145"/>
<path d="M11.4781 7.6522C11.4781 7.26798 11.1667 6.95654 10.7825 6.95654C10.3983 6.95654 10.0868 7.26798 10.0868 7.6522C9.89473 7.6522 9.73901 7.80792 9.73901 8.00001C9.73901 8.19211 9.89473 8.34782 10.0868 8.34782H11.4781C11.6702 8.34782 11.826 8.19211 11.826 8.00001C11.826 7.80792 11.6703 7.6522 11.4781 7.6522Z" fill="#6DA544"/>
</g>
<defs>
<clipPath id="clip0_467_902">
<rect width="16" height="16" fill="white"/>
</clipPath>
</defs>
</svg>
