<svg width="16" height="16" viewBox="0 0 16 16" fill="none" xmlns="http://www.w3.org/2000/svg">
<g clip-path="url(#clip0_467_1024)">
<path d="M8 16C12.4183 16 16 12.4183 16 8C16 3.58172 12.4183 0 8 0C3.58172 0 0 3.58172 0 8C0 12.4183 3.58172 16 8 16Z" fill="#F0F0F0"/>
<path d="M8 5.91314H15.7244C15.5238 5.16895 15.2189 4.46767 14.8258 3.82617H8V5.91314Z" fill="#338AF3"/>
<path d="M3.0201 14.2608H12.9799C13.71 13.6793 14.3361 12.973 14.8258 12.1738H1.17419C1.66391 12.973 2.29004 13.6793 3.0201 14.2608Z" fill="#338AF3"/>
<path d="M2.7826 1.93555C2.15366 2.47714 1.60994 3.11492 1.17419 3.82605H2.7826V1.93555Z" fill="#338AF3"/>
<path d="M8 8.00005C8 7.18518 8 6.50321 8 5.91309H4.86956V8.00005H2.78259V5.91309H0.275594C0.09625 6.57852 0 7.27796 0 8.00005C0 8.72215 0.09625 9.42159 0.275594 10.087H15.7244C15.9038 9.42159 16 8.72215 16 8.00005H8Z" fill="#338AF3"/>
<path d="M7.99994 0C6.88904 0 5.83107 0.226656 4.86951 0.635875V3.82609H7.99994C7.99994 3.09759 7.99994 2.478 7.99994 1.73913H12.9799C11.6133 0.65075 9.88273 0 7.99994 0Z" fill="#338AF3"/>
</g>
<defs>
<clipPath id="clip0_467_1024">
<rect width="16" height="16" fill="white"/>
</clipPath>
</defs>
</svg>
