<svg width="16" height="16" viewBox="0 0 16 16" fill="none" xmlns="http://www.w3.org/2000/svg">
<g clip-path="url(#clip0_467_1071)">
<path d="M8 16C12.4183 16 16 12.4183 16 8C16 3.58172 12.4183 0 8 0C3.58172 0 0 3.58172 0 8C0 12.4183 3.58172 16 8 16Z" fill="#F0F0F0"/>
<path d="M16 8.00013C16 4.82844 14.1542 2.08795 11.4783 0.793945V15.2063C14.1542 13.9123 16 11.1718 16 8.00013Z" fill="#338AF3"/>
<path d="M0 8.00013C0 11.1718 1.84578 13.9123 4.52175 15.2063V0.793945C1.84578 2.08795 0 4.82844 0 8.00013Z" fill="#338AF3"/>
<path d="M10.0906 9.35267L8.73789 7.99998L10.0255 6.71232L9.96714 6.03226L9.59852 5.66357L8.00002 7.26207L6.40152 5.66357L6.03289 6.03226L5.97455 6.71232L7.26214 7.99998L5.90942 9.35267L6.6473 10.0905L8.00002 8.73782L9.35274 10.0905L10.0906 9.35267Z" fill="#ACABB1"/>
<path d="M9.9676 6.03223L9.22975 6.77007C9.54447 7.08479 9.73916 7.51957 9.73916 7.99982C9.73916 8.96032 8.9605 9.73895 8.00003 9.73895C7.03956 9.73895 6.26088 8.96032 6.26088 7.99982C6.26088 7.51957 6.45556 7.08479 6.77028 6.77007L6.03244 6.03223C5.52884 6.53573 5.21741 7.23138 5.21741 7.99982C5.21741 9.53663 6.46322 10.7824 8 10.7824C9.53678 10.7824 10.7826 9.5366 10.7826 7.99982C10.7826 7.23141 10.4712 6.53576 9.9676 6.03223Z" fill="#6DA544"/>
</g>
<defs>
<clipPath id="clip0_467_1071">
<rect width="16" height="16" fill="white"/>
</clipPath>
</defs>
</svg>
