<svg width="16" height="16" viewBox="0 0 16 16" fill="none" xmlns="http://www.w3.org/2000/svg">
<g clip-path="url(#clip0_467_1060)">
<path d="M3.49109 14.6087C4.77496 15.4864 6.32746 16.0001 8.00006 16.0001C9.67265 16.0001 11.2251 15.4864 12.509 14.6087L8.00006 13.9131L3.49109 14.6087Z" fill="#D80027"/>
<path d="M12.509 1.39131C11.2251 0.513656 9.67265 0 8.00006 0C6.32746 0 4.77496 0.513656 3.49109 1.39131L8.00006 2.08697L12.509 1.39131Z" fill="#D80027"/>
<path d="M16 7.9998C16 5.35261 14.4151 2.69418 12.509 1.39111H3.49103C1.38344 2.83186 0 5.25418 0 7.9998C0 10.7455 1.38344 13.1677 3.49103 14.6085H12.509C14.6166 13.1677 16 10.7455 16 7.9998Z" fill="#0052B4"/>
<path d="M7.54723 13.0499C7.43791 12.9561 4.86951 10.7234 4.86951 7.99998C4.86951 5.27657 7.43788 3.04379 7.54723 2.95007L7.99994 2.56201L8.45266 2.95004C8.56198 3.04379 11.1304 5.27654 11.1304 7.99998C11.1304 10.7234 8.56201 12.9562 8.45266 13.0499L7.99994 13.438L7.54723 13.0499Z" fill="#D80027"/>
<path d="M10.4347 7.99978C10.4347 5.565 7.99997 3.47803 7.99997 3.47803C7.99997 3.47803 5.56519 5.56506 5.56519 7.99978C5.56519 8.74462 5.79322 9.45678 6.10953 10.0867H9.8904C10.2067 9.45678 10.4347 8.74462 10.4347 7.99978Z" fill="#338AF3"/>
<path d="M10.4347 8C10.4347 8.74484 10.2067 9.457 9.8904 10.087L7.99997 10.4348L6.10953 10.087C5.79322 9.45703 5.56519 8.74484 5.56519 8H10.4347Z" fill="#0052B4"/>
<path d="M8.00006 12.5217C8.00006 12.5217 9.17281 11.5162 9.89049 10.0869H6.10962C6.82731 11.5162 8.00006 12.5217 8.00006 12.5217Z" fill="#FFDA44"/>
<path d="M6.43481 6.60889H9.56525L8.00003 8.17411L6.43481 6.60889Z" fill="#6DA544"/>
<path d="M7.47827 7.65234H8.52174V10.7828H7.47827V7.65234Z" fill="#A2001D"/>
</g>
<defs>
<clipPath id="clip0_467_1060">
<rect width="16" height="16" fill="white"/>
</clipPath>
</defs>
</svg>
