<svg width="16" height="16" viewBox="0 0 16 16" fill="none" xmlns="http://www.w3.org/2000/svg">
<g clip-path="url(#clip0_467_1082)">
<path d="M8 0C7.27794 0 6.57844 0.09625 5.91303 0.275594L5.21741 8L5.91306 15.7244C6.57844 15.9038 7.27794 16 8 16C12.4183 16 16 12.4183 16 8C16 3.58175 12.4183 0 8 0Z" fill="#FFDA44"/>
<path d="M5.21741 8L5.91306 15.7244C6.57844 15.9037 7.27794 16 8 16C12.4183 16 16 12.4183 16 8H5.21741Z" fill="#6DA544"/>
<path d="M0 7.99994C0 11.0323 1.68719 13.6704 4.17391 15.0272V0.972656C1.68719 2.32947 0 4.96759 0 7.99994Z" fill="#D80027"/>
<path d="M0 7.9998C0 11.696 2.50691 14.8062 5.91303 15.7242V0.275391C2.50691 1.19339 0 4.30358 0 7.9998Z" fill="#D80027"/>
<path d="M3.02296 5.91309L3.54093 7.50734H5.21736L3.86118 8.49271L4.37911 10.087L3.02296 9.10168L1.66674 10.087L2.1848 8.49271L0.828613 7.50734H2.50496L3.02296 5.91309Z" fill="black"/>
</g>
<defs>
<clipPath id="clip0_467_1082">
<rect width="16" height="16" fill="white"/>
</clipPath>
</defs>
</svg>
