<svg width="16" height="16" viewBox="0 0 16 16" fill="none" xmlns="http://www.w3.org/2000/svg">
<g clip-path="url(#clip0_467_1093)">
<path d="M8 16C12.4183 16 16 12.4183 16 8C16 3.58172 12.4183 0 8 0C3.58172 0 0 3.58172 0 8C0 12.4183 3.58172 16 8 16Z" fill="#F0F0F0"/>
<path d="M7.9999 0C6.5855 0 5.25712 0.367563 4.10425 1.01163V14.9884C5.25715 15.6324 6.5855 16 7.9999 16C12.4182 16 15.9999 12.4183 15.9999 8C15.9999 3.58175 12.4182 0 7.9999 0Z" fill="#6DA544"/>
<path d="M4.12794 0.998535C3.62465 1.27744 3.15472 1.60894 2.72537 1.98582C2.76878 1.94775 2.81262 1.91013 2.85681 1.873L8.98384 8.00007L2.85678 14.1271C2.81256 14.09 2.76875 14.0524 2.72534 14.0143C3.15469 14.3912 3.62465 14.7227 4.1279 15.0016L16.0001 8.00007L4.12794 0.998535Z" fill="#F0F0F0"/>
<path d="M3.45208 1.41797C3.20811 1.58691 2.9738 1.76869 2.75052 1.96297L7.99989 7.99978L2.75049 14.0366C2.97377 14.2309 3.20808 14.4127 3.45205 14.5816L14.6305 7.99978L3.45208 1.41797Z" fill="#FFDA44"/>
<path d="M2.85661 1.87305C2.67877 2.02248 2.50714 2.17914 2.34302 2.34323L7.30424 8.00011L2.34302 13.657C2.50714 13.8211 2.67874 13.9778 2.85661 14.1272L8.98367 8.00011L2.85661 1.87305Z" fill="black"/>
<path d="M2.34314 2.34326C-0.781047 5.46745 -0.781047 10.5328 2.34314 13.657C3.63417 12.366 4.87583 11.1243 8.00002 8.00014L2.34314 2.34326Z" fill="#D80027"/>
</g>
<defs>
<clipPath id="clip0_467_1093">
<rect width="16" height="16" fill="white"/>
</clipPath>
</defs>
</svg>
