<svg width="16" height="16" viewBox="0 0 16 16" fill="none" xmlns="http://www.w3.org/2000/svg">
<g clip-path="url(#clip0_467_1109)">
<path d="M8 16C12.4183 16 16 12.4183 16 8C16 3.58172 12.4183 0 8 0C3.58172 0 0 3.58172 0 8C0 12.4183 3.58172 16 8 16Z" fill="#F0F0F0"/>
<path d="M8.00004 16C10.0287 16 11.8806 15.2445 13.2909 14H2.70923C4.11945 15.2445 5.97138 16 8.00004 16Z" fill="#D80027"/>
<path d="M0.251953 9.9998C0.434609 10.7094 0.712297 11.3807 1.07042 11.9998H14.9294C15.2875 11.3807 15.5652 10.7094 15.7479 9.9998L7.99992 9.39111L0.251953 9.9998Z" fill="#0052B4"/>
<path d="M15.748 6C15.5653 5.29044 15.2876 4.61906 14.9295 4L7.99999 3.82609C7.99999 2.42881 7.99999 1.10828 7.99999 0C7.40571 0 6.82652 0.0648437 6.26918 0.18775C6.25849 0.190125 1.04346 4.30369 1.04346 8C1.1768 8.02319 7.99999 8.69566 7.99999 8.69566C7.99999 8.69566 7.99999 7.17188 7.99999 6H15.748Z" fill="#0052B4"/>
<path d="M8 4.99151V0.991508H5.46641L6.26944 0.188477C2.97284 0.915539 0.439875 3.67566 0.0521875 7.08716C0.018125 7.38685 0 7.69138 0 8.0002H4.05219V6.40573L5.66244 8.0002H8.52447L5.46637 4.99151H8Z" fill="#F0F0F0"/>
<path d="M8.00366 8.0001L4.99497 4.99141H4.05219V4.99144L7.06084 8.0001H3.04347V4.0001H14.9295C14.4939 3.24719 13.939 2.57207 13.2908 2.0001H3.04347V1.72119C2.23634 2.35922 1.55534 3.14947 1.04347 4.04866V8.0001H0C0 8.69069 0.0875 9.36088 0.252031 10.0001H15.748C15.9125 9.36085 16 8.69069 16 8.0001H8.00366Z" fill="#D80027"/>
</g>
<defs>
<clipPath id="clip0_467_1109">
<rect width="16" height="16" fill="white"/>
</clipPath>
</defs>
</svg>
