<svg width="16" height="16" viewBox="0 0 16 16" fill="none" xmlns="http://www.w3.org/2000/svg">
<g clip-path="url(#clip0_467_1127)">
<path d="M8 16C12.4183 16 16 12.4183 16 8C16 3.58172 12.4183 0 8 0C3.58172 0 0 3.58172 0 8C0 12.4183 3.58172 16 8 16Z" fill="#D80027"/>
<path d="M8.82598 6.05208C8.64417 6.8083 8.32114 6.66408 8.16261 7.32358C7.22876 7.09905 6.65364 6.15999 6.87817 5.22608C7.10261 4.29224 8.04176 3.71712 8.97564 3.94165C8.65855 5.26062 8.98864 5.37574 8.82598 6.05208Z" fill="#F0F0F0"/>
<path d="M6.4028 6.61231C7.06583 7.01887 6.82883 7.28159 7.40702 7.63618C6.90489 8.45497 5.83411 8.71168 5.0153 8.20959C4.19652 7.7075 3.93974 6.63665 4.44186 5.81787C5.5983 6.527 5.8097 6.24865 6.4028 6.61231Z" fill="#F0F0F0"/>
<path d="M6.18688 9.09035C6.77847 8.58541 6.955 8.89197 7.47091 8.45166C8.0945 9.18219 8.00775 10.2799 7.27725 10.9035C6.54669 11.5271 5.44894 11.4403 4.82544 10.7098C5.85713 9.8291 5.65772 9.54194 6.18688 9.09035Z" fill="#F0F0F0"/>
<path d="M8.47683 10.0614C8.17933 9.34279 8.52546 9.26954 8.26611 8.64288C9.15358 8.2756 10.1708 8.69729 10.5381 9.58476C10.9054 10.4722 10.4837 11.4894 9.59621 11.8568C9.07755 10.6034 8.74289 10.7043 8.47683 10.0614Z" fill="#F0F0F0"/>
<path d="M10.1079 8.18352C9.33252 8.24436 9.36974 7.89249 8.69364 7.94555C8.61855 6.98808 9.33399 6.15086 10.2915 6.07571C11.249 6.00074 12.0862 6.71611 12.1613 7.67367C10.8089 7.77971 10.8014 8.12918 10.1079 8.18352Z" fill="#F0F0F0"/>
</g>
<defs>
<clipPath id="clip0_467_1127">
<rect width="16" height="16" fill="white"/>
</clipPath>
</defs>
</svg>
