<svg width="16" height="16" viewBox="0 0 16 16" fill="none" xmlns="http://www.w3.org/2000/svg">
<g clip-path="url(#clip0_467_1117)">
<path d="M8 16C12.4183 16 16 12.4183 16 8C16 3.58172 12.4183 0 8 0C3.58172 0 0 3.58172 0 8C0 12.4183 3.58172 16 8 16Z" fill="#F0F0F0"/>
<path d="M8.00001 15.9998C11.1717 15.9998 13.9122 14.154 15.2062 11.478H0.793823C2.08782 14.154 4.82832 15.9998 8.00001 15.9998Z" fill="#338AF3"/>
<path d="M8.00001 0C4.82832 0 2.08782 1.84578 0.793823 4.52175H15.2062C13.9122 1.84578 11.1717 0 8.00001 0Z" fill="#338AF3"/>
<path d="M4.92324 5.21729L5.18224 6.01444H6.02039L5.34233 6.50707L5.60136 7.30422L4.92324 6.81157L4.24511 7.30422L4.50414 6.50707L3.82605 6.01444H4.66421L4.92324 5.21729Z" fill="#338AF3"/>
<path d="M4.92324 8.6958L5.18224 9.49299H6.02039L5.34233 9.98561L5.60136 10.7827L4.92324 10.2901L4.24511 10.7827L4.50414 9.98561L3.82605 9.49299H4.66421L4.92324 8.6958Z" fill="#338AF3"/>
<path d="M11.0767 5.21729L11.3357 6.01444H12.1739L11.4958 6.50707L11.7548 7.30422L11.0767 6.81157L10.3986 7.30422L10.6576 6.50707L9.97949 6.01444H10.8177L11.0767 5.21729Z" fill="#338AF3"/>
<path d="M11.0767 8.6958L11.3357 9.49299H12.1739L11.4958 9.98561L11.7548 10.7827L11.0767 10.2901L10.3986 10.7827L10.6576 9.98561L9.97949 9.49299H10.8177L11.0767 8.6958Z" fill="#338AF3"/>
<path d="M8.00002 6.95654L8.25905 7.75373H9.09721L8.41911 8.24636L8.67814 9.04348L8.00002 8.55082L7.32189 9.04348L7.58093 8.24636L6.90283 7.75373H7.74099L8.00002 6.95654Z" fill="#338AF3"/>
</g>
<defs>
<clipPath id="clip0_467_1117">
<rect width="16" height="16" fill="white"/>
</clipPath>
</defs>
</svg>
