<svg width="16" height="16" viewBox="0 0 16 16" fill="none" xmlns="http://www.w3.org/2000/svg">
<g clip-path="url(#clip0_467_766)">
<path d="M16 8.00007C16 7.0215 15.824 6.0841 15.5024 5.21747L8 4.86963L0.497594 5.21744C0.176031 6.0841 0 7.0215 0 8.00007C0 8.97863 0.176031 9.91604 0.497594 10.7827L8 11.1305L15.5024 10.7827C15.824 9.91604 16 8.97863 16 8.00007Z" fill="#F0F0F0"/>
<path d="M7.99996 16.0001C11.4397 16.0001 14.372 13.8291 15.5024 10.7827H0.497559C1.6279 13.8291 4.56025 16.0001 7.99996 16.0001Z" fill="#0052B4"/>
<path d="M0.497559 5.21741H15.5024C14.372 2.171 11.4397 0 7.99996 0C4.56025 0 1.6279 2.171 0.497559 5.21741Z" fill="#D80027"/>
<path d="M10.087 5.56518H8.69568L8.92759 3.82603L9.85509 3.13037L10.7826 3.82603V5.21734L10.087 5.56518Z" fill="#338AF3"/>
<path d="M5.91303 5.56518H7.30434L7.07244 3.82603L6.14491 3.13037L5.21741 3.82603V5.21734L5.91303 5.56518Z" fill="#338AF3"/>
<path d="M8.92751 5.56518H7.07239V3.82603L7.99995 3.13037L8.92751 3.82603V5.56518Z" fill="#0052B4"/>
<path d="M5.21741 5.21729V9.04335C5.21741 9.95438 5.65747 10.7646 6.33622 11.2725L6.82319 11.1506L7.43769 11.7688C7.61941 11.8063 7.80744 11.826 8.00003 11.826C8.19159 11.826 8.37869 11.8065 8.55944 11.7694L9.26091 11.1854L9.66378 11.2713C10.3423 10.7635 10.7826 9.95413 10.7826 9.04335V5.21729H5.21741Z" fill="#F0F0F0"/>
<path d="M5.21741 5.21729H6.33044V6.33032H5.21741V5.21729Z" fill="#D80027"/>
<path d="M7.44348 5.21729H8.55651V6.33032H7.44348V5.21729Z" fill="#D80027"/>
<path d="M9.66956 5.21729H10.7826V6.33032H9.66956V5.21729Z" fill="#D80027"/>
<path d="M6.33044 6.33008H7.44348V7.44311H6.33044V6.33008Z" fill="#D80027"/>
<path d="M8.55652 6.33008H9.66955V7.44311H8.55652V6.33008Z" fill="#D80027"/>
<path d="M5.21741 7.44287H6.33044V8.5559H5.21741V7.44287Z" fill="#D80027"/>
<path d="M6.33044 8.55615H7.44348V9.66918H6.33044V8.55615Z" fill="#D80027"/>
<path d="M7.44348 7.44287H8.55651V8.5559H7.44348V7.44287Z" fill="#D80027"/>
<path d="M9.66956 7.44287H10.7826V8.5559H9.66956V7.44287Z" fill="#D80027"/>
<path d="M8.55652 8.55615H9.66955V9.66918H8.55652V8.55615Z" fill="#D80027"/>
<path d="M7.44348 9.66895H8.55651V10.782H7.44348V9.66895Z" fill="#D80027"/>
<path d="M6.3304 9.66943H5.28918C5.38468 10.0832 5.57243 10.4618 5.82987 10.7825H6.3304V9.66943Z" fill="#D80027"/>
<path d="M9.66956 10.7825H10.1701C10.4276 10.4618 10.6152 10.0832 10.7107 9.66943H9.66956V10.7825Z" fill="#D80027"/>
<path d="M6.33044 10.7822V11.2679C6.65416 11.5115 7.03248 11.6861 7.44348 11.7699V10.7822H6.33044Z" fill="#D80027"/>
<path d="M8.55652 10.7822V11.7699C8.96755 11.6862 9.34583 11.5115 9.66955 11.2679V10.7822H8.55652Z" fill="#D80027"/>
</g>
<defs>
<clipPath id="clip0_467_766">
<rect width="16" height="16" fill="white"/>
</clipPath>
</defs>
</svg>
