<svg width="16" height="16" viewBox="0 0 16 16" fill="none" xmlns="http://www.w3.org/2000/svg">
<g clip-path="url(#clip0_467_1100)">
<path d="M16 8C16 12.4183 12.4183 16 8 16C3.58175 16 0 12.4183 0 8C0 3.58175 8 0 8 0C8 0 16 3.58175 16 8Z" fill="#A2001D"/>
<path d="M0 8C0 3.58175 3.58175 0 8 0C12.4183 0 16 3.58175 16 8" fill="#0052B4"/>
<path d="M10.7825 10.087L7.99988 9.73918L5.21729 10.087V5.91309H10.7825V10.087Z" fill="#F0F0F0"/>
<path d="M7.99996 9.73917C8.76836 9.73917 9.39127 9.11626 9.39127 8.34786C9.39127 7.57945 8.76836 6.95654 7.99996 6.95654C7.23155 6.95654 6.60864 7.57945 6.60864 8.34786C6.60864 9.11626 7.23155 9.73917 7.99996 9.73917Z" fill="#0052B4"/>
<path d="M8.0001 9.04366C8.3843 9.04366 8.69576 8.7322 8.69576 8.348C8.69576 7.9638 8.3843 7.65234 8.0001 7.65234C7.6159 7.65234 7.30444 7.9638 7.30444 8.348C7.30444 8.7322 7.6159 9.04366 8.0001 9.04366Z" fill="#A2001D"/>
<path d="M6.95654 6.60889H9.04348L8.00001 7.65239L6.95654 6.60889Z" fill="#6DA544"/>
<path d="M7.6521 7.3042H8.34776V9.39117H7.6521V7.3042Z" fill="#FFDA44"/>
<path d="M9.11291 9.18262H6.88679L5.21729 10.087H10.7825L9.11291 9.18262Z" fill="#6DA544"/>
</g>
<defs>
<clipPath id="clip0_467_1100">
<rect width="16" height="16" fill="white"/>
</clipPath>
</defs>
</svg>
