<svg width="16" height="16" viewBox="0 0 16 16" fill="none" xmlns="http://www.w3.org/2000/svg">
<g clip-path="url(#clip0_467_1177)">
<path d="M8 16C12.4183 16 16 12.4183 16 8C16 3.58172 12.4183 0 8 0C3.58172 0 0 3.58172 0 8C0 12.4183 3.58172 16 8 16Z" fill="#F0F0F0"/>
<path d="M11.0121 6.2611H9.00389L7.99983 4.52197L6.9958 6.2611H4.98755L5.99174 8.00022L4.98755 9.73935H6.9958L7.99983 11.4785L9.00389 9.73935H11.0121L10.0079 8.00022L11.0121 6.2611ZM9.23342 8.00022L8.61667 9.0686H7.38308L6.76624 8.00022L7.38305 6.93185H8.61664L9.23342 8.00022ZM7.99983 5.86344L8.22939 6.26107H7.77033L7.99983 5.86344ZM6.14939 6.93185H6.60852L6.37896 7.32947L6.14939 6.93185ZM6.14939 9.0686L6.37899 8.67097L6.60855 9.0686H6.14939ZM7.99983 10.137L7.7703 9.73935H8.22939L7.99983 10.137ZM9.85027 9.0686H9.39114L9.62074 8.67097L9.85027 9.0686ZM9.39114 6.93185H9.85027L9.62071 7.32947L9.39114 6.93185Z" fill="#0052B4"/>
<path d="M12.9798 1.73926H3.01998C2.28988 2.32076 1.66376 3.02707 1.17407 3.82623H14.8257C14.336 3.0271 13.7099 2.32076 12.9798 1.73926Z" fill="#0052B4"/>
<path d="M3.01998 14.2608H12.9798C13.7099 13.6793 14.336 12.973 14.8257 12.1738H1.17407C1.66379 12.973 2.28992 13.6793 3.01998 14.2608Z" fill="#0052B4"/>
</g>
<defs>
<clipPath id="clip0_467_1177">
<rect width="16" height="16" fill="white"/>
</clipPath>
</defs>
</svg>
