<svg width="16" height="16" viewBox="0 0 16 16" fill="none" xmlns="http://www.w3.org/2000/svg">
<g clip-path="url(#clip0_467_1147)">
<path d="M8 16C12.4183 16 16 12.4183 16 8C16 3.58172 12.4183 0 8 0C3.58172 0 0 3.58172 0 8C0 12.4183 3.58172 16 8 16Z" fill="#F0F0F0"/>
<path d="M8.00001 0C4.82832 0 2.08782 1.84578 0.793823 4.52175H15.2062C13.9122 1.84578 11.1717 0 8.00001 0Z" fill="#FF9811"/>
<path d="M8.00001 15.9998C11.1717 15.9998 13.9122 14.154 15.2062 11.478H0.793823C2.08782 14.154 4.82832 15.9998 8.00001 15.9998Z" fill="#6DA544"/>
<path d="M8 10.7825C9.53679 10.7825 10.7826 9.53666 10.7826 7.99988C10.7826 6.46309 9.53679 5.21729 8 5.21729C6.46322 5.21729 5.21741 6.46309 5.21741 7.99988C5.21741 9.53666 6.46322 10.7825 8 10.7825Z" fill="#0052B4"/>
<path d="M7.99999 9.73899C8.96048 9.73899 9.73911 8.96036 9.73911 7.99987C9.73911 7.03937 8.96048 6.26074 7.99999 6.26074C7.0395 6.26074 6.26086 7.03937 6.26086 7.99987C6.26086 8.96036 7.0395 9.73899 7.99999 9.73899Z" fill="#F0F0F0"/>
<path d="M8.00001 5.854L8.53654 7.07082L9.85854 6.92703L9.07304 8.00007L9.85854 9.0731L8.53654 8.92932L8.00001 10.1461L7.46348 8.92932L6.14148 9.07307L6.92698 8.00007L6.14148 6.92703L7.46348 7.07082L8.00001 5.854Z" fill="#0052B4"/>
</g>
<defs>
<clipPath id="clip0_467_1147">
<rect width="16" height="16" fill="white"/>
</clipPath>
</defs>
</svg>
