<svg width="16" height="16" viewBox="0 0 16 16" fill="none" xmlns="http://www.w3.org/2000/svg">
<g clip-path="url(#clip0_467_513)">
<path d="M8 16C12.4183 16 16 12.4183 16 8C16 3.58172 12.4183 0 8 0C3.58172 0 0 3.58172 0 8C0 12.4183 3.58172 16 8 16Z" fill="#F0F0F0"/>
<path d="M14.6667 8.95722C14 8.95722 14 8.34766 13.3333 8.34766C12.6667 8.34766 12.6667 8.95722 12 8.95722C11.3334 8.95722 11.3334 8.34766 10.6667 8.34766C10.0001 8.34766 10.0001 8.95722 9.3334 8.95722C8.66672 8.95722 8.66669 8.34766 7.99997 8.34766C7.33331 8.34766 7.33331 8.95722 6.66669 8.95722C6.00012 8.95722 6.00012 8.34766 5.33347 8.34766C4.66675 8.34766 4.66675 8.95722 4.00003 8.95722C3.33331 8.95722 3.33331 8.34766 2.66659 8.34766C2.00003 8.34766 2.00003 8.95722 1.33337 8.95722C0.670311 8.95722 0.666467 8.35438 0.010498 8.34794C0.0289668 8.71384 0.0726543 9.07312 0.138717 9.42447C0.670092 9.5025 0.716623 10.0238 1.33344 10.0238C2.00009 10.0238 2.00009 9.41434 2.66665 9.41434C3.33337 9.41434 3.33337 10.0238 4.00009 10.0238C4.66681 10.0238 4.66681 9.41434 5.33353 9.41434C6.00019 9.41434 6.00019 10.0238 6.66675 10.0238C7.3334 10.0238 7.3334 9.41434 8.00003 9.41434C8.66675 9.41434 8.66675 10.0238 9.33347 10.0238C10.0002 10.0238 10.0002 9.41434 10.6668 9.41434C11.3335 9.41434 11.3335 10.0238 12.0001 10.0238C12.6667 10.0238 12.6667 9.41434 13.3334 9.41434C14.0001 9.41434 14.0001 10.0238 14.6667 10.0238C15.2836 10.0238 15.3301 9.50253 15.8615 9.42447C15.9276 9.07309 15.9712 8.71388 15.9898 8.34794C15.3337 8.35441 15.3297 8.95722 14.6667 8.95722Z" fill="#0052B4"/>
<path d="M13.3333 10.4346C12.6666 10.4346 12.6666 11.0441 12 11.0441C11.3334 11.0441 11.3333 10.4346 10.6667 10.4346C10.0001 10.4346 10.0001 11.0441 9.33336 11.0441C8.66665 11.0441 8.66665 10.4346 7.99993 10.4346C7.33327 10.4346 7.33327 11.0441 6.66665 11.0441C6.00008 11.0441 6.00008 10.4346 5.33343 10.4346C4.66671 10.4346 4.66671 11.0441 3.99999 11.0441C3.33327 11.0441 3.33327 10.4346 2.66655 10.4346C1.99999 10.4346 1.99999 11.0441 1.33333 11.0441C0.84224 11.0441 0.712584 10.7136 0.411865 10.5394C0.59399 11.0838 0.833209 11.6019 1.12212 12.087C1.18468 12.1021 1.25424 12.1108 1.3333 12.1108C1.99996 12.1108 1.99996 11.5013 2.66652 11.5013C3.33324 11.5013 3.33324 12.1108 3.99996 12.1108C4.66668 12.1108 4.66668 11.5013 5.3334 11.5013C6.00005 11.5013 6.00005 12.1108 6.66662 12.1108C7.33327 12.1108 7.33327 11.5013 7.9999 11.5013C8.66662 11.5013 8.66662 12.1108 9.33333 12.1108C10.0001 12.1108 10.0001 11.5013 10.6667 11.5013C11.3333 11.5013 11.3333 12.1108 12 12.1108C12.6666 12.1108 12.6666 11.5013 13.3332 11.5013C14 11.5013 14 12.1108 14.6666 12.1108C14.7457 12.1108 14.8153 12.1021 14.8779 12.087C15.1669 11.6019 15.4061 11.0838 15.5881 10.5395C15.2874 10.7136 15.1577 11.0442 14.6666 11.0442C14 11.0441 14 10.4346 13.3333 10.4346Z" fill="#0052B4"/>
<path d="M15.8139 6.27927C15.3265 6.38043 15.2644 6.8703 14.6665 6.8703C13.9999 6.8703 13.9999 6.26074 13.3332 6.26074C12.6665 6.26074 12.6665 6.8703 11.9999 6.8703C11.3333 6.8703 11.3333 6.26074 10.6666 6.26074C9.99997 6.26074 9.99997 6.8703 9.33329 6.8703C8.6666 6.8703 8.66657 6.26074 7.99985 6.26074C7.63963 6.26074 7.47401 6.43868 7.29272 6.6023V7.66896C7.47401 7.50537 7.6396 7.32746 7.99985 7.32746C8.66657 7.32746 8.66657 7.93696 9.33329 7.93696C10 7.93696 10 7.32746 10.6666 7.32746C11.3333 7.32746 11.3333 7.93696 11.9999 7.93696C12.6665 7.93696 12.6666 7.32746 13.3332 7.32746C13.9999 7.32746 13.9999 7.93696 14.6665 7.93696C15.2834 7.93696 15.3299 7.41565 15.8613 7.33759C15.8954 7.33759 15.9334 7.33724 15.9724 7.33677C15.9429 6.97699 15.8894 6.62399 15.8139 6.27927Z" fill="#0052B4"/>
<path d="M15.2297 4.57098C15.0915 4.68702 14.9318 4.78339 14.6668 4.78339C14.0001 4.78339 14.0001 4.17383 13.3334 4.17383C12.6668 4.17383 12.6668 4.78339 12.0002 4.78339C11.3335 4.78339 11.3335 4.17383 10.6669 4.17383C10.0002 4.17383 10.0002 4.78339 9.33353 4.78339C8.66684 4.78339 8.66681 4.17383 8.00009 4.17383C7.63987 4.17383 7.47425 4.35177 7.29297 4.51539V5.58205C7.47425 5.41845 7.63984 5.24055 8.00009 5.24055C8.66681 5.24055 8.66681 5.85005 9.33353 5.85005C10.0002 5.85005 10.0002 5.24055 10.6668 5.24055C11.3335 5.24055 11.3335 5.85005 12.0001 5.85005C12.6667 5.85005 12.6667 5.24055 13.3334 5.24055C14.0001 5.24055 14.0001 5.85005 14.6667 5.85005C15.1398 5.85005 15.2776 5.54364 15.5557 5.36545C15.4609 5.09367 15.3521 4.82852 15.2297 4.57098Z" fill="#0052B4"/>
<path d="M13.3902 2.08854C13.3717 2.08754 13.3528 2.08691 13.3332 2.08691C12.6666 2.08691 12.6666 2.69648 11.9999 2.69648C11.3333 2.69648 11.3333 2.08691 10.6667 2.08691C10 2.08691 10 2.69648 9.33329 2.69648C8.66657 2.69648 8.66657 2.08691 7.99985 2.08691C7.63963 2.08691 7.47401 2.26485 7.29272 2.42848V3.49513C7.47401 3.33154 7.6396 3.15363 7.99985 3.15363C8.66657 3.15363 8.66657 3.76313 9.33329 3.76313C10 3.76313 10 3.15363 10.6666 3.15363C11.3333 3.15363 11.3333 3.76313 11.9999 3.76313C12.6665 3.76313 12.6666 3.15363 13.3332 3.15363C13.9999 3.15363 13.9999 3.76313 14.6665 3.76313C14.7076 3.76313 14.7459 3.7607 14.7823 3.75635C14.395 3.13873 13.9262 2.57757 13.3902 2.08854Z" fill="#0052B4"/>
<path d="M10.0447 0.264125C9.86173 0.42875 9.69636 0.609562 9.33326 0.609562C8.66654 0.609562 8.66654 6.25e-05 7.99986 0H7.99973C7.65498 3.125e-05 7.48854 0.163062 7.31592 0.320531V1.38722C7.48851 1.22975 7.65501 1.06669 7.99986 1.06669C8.66657 1.06669 8.66657 1.67619 9.33329 1.67619C9.99998 1.67619 9.99998 1.06669 10.6666 1.06669C11.3333 1.06669 11.3333 1.67619 11.9999 1.67619C12.2796 1.67619 12.4419 1.56881 12.5854 1.44425C11.8249 0.911281 10.9674 0.507344 10.0447 0.264125Z" fill="#0052B4"/>
<path d="M9.33336 15.2185C8.66665 15.2185 8.66664 14.6089 7.99993 14.6089C7.33327 14.6089 7.33327 15.2185 6.66664 15.2185C6.00008 15.2185 6.00008 14.6089 5.33343 14.6089C4.82277 14.6089 4.70299 14.9662 4.37549 15.1337C5.27861 15.5935 6.28071 15.8866 7.34133 15.973C7.50536 15.8232 7.67199 15.6756 7.99993 15.6756C8.32796 15.6756 8.49458 15.8232 8.65864 15.9731C9.7193 15.8866 10.7215 15.5935 11.6246 15.1337C11.2971 14.9663 11.1773 14.6089 10.6667 14.6089C10.0001 14.6089 10.0001 15.2185 9.33336 15.2185Z" fill="#0052B4"/>
<path d="M12.0001 13.1315C11.3334 13.1315 11.3334 12.522 10.6668 12.522C10.0002 12.522 10.0002 13.1315 9.33347 13.1315C8.66675 13.1315 8.66675 12.522 8.00003 12.522C7.33338 12.522 7.33338 13.1315 6.66675 13.1315C6.00019 13.1315 6.00019 12.522 5.33353 12.522C4.66681 12.522 4.66681 13.1315 4.0001 13.1315C3.33338 13.1315 3.33338 12.522 2.66666 12.522C2.18725 12.522 2.05263 12.8373 1.76685 13.0143C1.94597 13.2368 2.13641 13.4497 2.33794 13.6516C2.42822 13.613 2.53416 13.5887 2.66663 13.5887C3.33335 13.5887 3.33335 14.1982 4.00006 14.1982C4.66678 14.1982 4.66678 13.5887 5.3335 13.5887C6.00016 13.5887 6.00016 14.1982 6.66672 14.1982C7.33338 14.1982 7.33338 13.5887 8 13.5887C8.66672 13.5887 8.66672 14.1982 9.33344 14.1982C10.0002 14.1982 10.0002 13.5887 10.6668 13.5887C11.3334 13.5887 11.3334 14.1982 12.0001 14.1982C12.6667 14.1982 12.6667 13.5887 13.3333 13.5887C13.466 13.5887 13.5719 13.613 13.6623 13.6516C13.8638 13.4497 14.0543 13.2368 14.2334 13.0143C13.9476 12.8373 13.8129 12.522 13.3334 12.522C12.6667 12.522 12.6667 13.1315 12.0001 13.1315Z" fill="#0052B4"/>
<path d="M7.97852 7.99992H7.99992C7.99992 7.99273 7.99992 7.98573 7.99992 7.97852C7.9928 7.98567 7.98567 7.9928 7.97852 7.99992Z" fill="#F0F0F0"/>
<path d="M8.00012 4.17398V6.52439L5.21753 3.82617L8.00012 4.17398Z" fill="#0052B4"/>
<path d="M4.17402 8.00007H6.52433L4.17398 4.86963L3.82617 7.30441L4.17402 8.00007Z" fill="#0052B4"/>
<path d="M8 4.17391C8 2.76625 8 1.84391 8 0H7.99866C3.581 0.00075 0 3.58216 0 8H4.17394V5.64966L6.52425 8H7.97862C7.98575 7.99288 7.99288 7.98575 8.00003 7.97859C8.00003 7.43963 8.00003 6.95872 8.00003 6.52431L5.64962 4.17391H8Z" fill="#F0F0F0"/>
<path d="M4.04733 1.04346C2.79611 1.75593 1.75593 2.79611 1.04346 4.04733V7.99999H3.13043V3.13049V3.13043H7.99999C7.99999 2.47221 7.99999 1.84514 7.99999 1.04346H4.04733Z" fill="#D80027"/>
<path d="M7.99992 7.01611L5.15758 4.17383H4.17383V4.17389L7.99986 7.99989H7.99992C7.99992 7.99989 7.99992 7.32155 7.99992 7.01611Z" fill="#D80027"/>
<path d="M10.4348 4.17383H13.5653L12 5.73905L10.4348 4.17383Z" fill="#6DA544"/>
<path d="M11.6521 5.39111H12.3478V7.30414H11.6521V5.39111Z" fill="#A2001D"/>
<path d="M11.6521 10.4346H12.3478V12.3476H11.6521V10.4346Z" fill="#A2001D"/>
<path d="M14.087 9.39132C14.087 8.81504 13.6198 8.34786 13.0435 8.34786C12.7762 8.34786 12.5325 8.44848 12.3479 8.61376V8.00001H12.6957V7.30436H12.3479V6.95654H11.6522V7.30436H11.3044V8.00001H11.6522V8.61376C11.4676 8.44848 11.2239 8.34786 10.9566 8.34786C10.3803 8.34786 9.91309 8.81504 9.91309 9.39132C9.91309 9.70029 10.0475 9.97779 10.2609 10.1689V10.7826H13.7391V10.1689C13.9526 9.97779 14.087 9.70029 14.087 9.39132Z" fill="#FFDA44"/>
<path d="M13.0434 9.04346C12.9337 9.04346 12.8569 9.09164 12.8117 9.13202L12.3477 9.54736H11.6521L11.1881 9.13202C11.143 9.09164 11.0662 9.04346 10.9565 9.04346C10.7647 9.04346 10.6086 9.19949 10.6086 9.39127C10.6086 9.52636 10.6815 9.61171 10.7249 9.65061L10.9565 9.85799V10.0869H13.0435V9.85799L13.275 9.65061C13.3185 9.61174 13.3913 9.52636 13.3913 9.39127C13.3912 9.19949 13.2352 9.04346 13.0434 9.04346Z" fill="#D80027"/>
</g>
<defs>
<clipPath id="clip0_467_513">
<rect width="16" height="16" fill="white"/>
</clipPath>
</defs>
</svg>
