<svg width="16" height="16" viewBox="0 0 16 16" fill="none" xmlns="http://www.w3.org/2000/svg">
<g clip-path="url(#clip0_467_1162)">
<path d="M8 16C12.4183 16 16 12.4183 16 8C16 3.58172 12.4183 0 8 0C3.58172 0 0 3.58172 0 8C0 12.4183 3.58172 16 8 16Z" fill="#F0F0F0"/>
<path d="M7.99996 0C4.56025 0 1.6279 2.171 0.497559 5.21741H15.5024C14.372 2.171 11.4397 0 7.99996 0Z" fill="#A2001D"/>
<path d="M7.99996 16.0001C11.4397 16.0001 14.372 13.8291 15.5024 10.7827H0.497559C1.6279 13.8291 4.56025 16.0001 7.99996 16.0001Z" fill="black"/>
<path d="M6.08697 7.4783C6.08259 7.4783 6.07831 7.47859 6.07394 7.47865V7.4783H4.54466C4.62219 7.17874 4.894 6.95655 5.21741 6.95655V5.91309C4.25844 5.91309 3.47828 6.69327 3.47828 7.65221V8.5044V8.52181H6.07394H6.08697C6.18287 8.52181 6.26087 8.59984 6.26087 8.69571V9.04352H2.78259V10.087H7.30434V8.69568C7.30434 8.02443 6.75822 7.4783 6.08697 7.4783Z" fill="#496E2D"/>
<path d="M8.69569 9.04352V5.91309H7.65222V10.087H9.39135V9.04352H8.69569Z" fill="#496E2D"/>
<path d="M12.1739 9.04355V5.91309H11.1304V9.04355H10.7826V8.00009H9.73914V10.0871H12.8696V9.04355H12.1739Z" fill="#496E2D"/>
</g>
<defs>
<clipPath id="clip0_467_1162">
<rect width="16" height="16" fill="white"/>
</clipPath>
</defs>
</svg>
