<svg width="16" height="16" viewBox="0 0 16 16" fill="none" xmlns="http://www.w3.org/2000/svg">
<g clip-path="url(#clip0_467_1157)">
<path d="M8 16C12.4183 16 16 12.4183 16 8C16 3.58172 12.4183 0 8 0C3.58172 0 0 3.58172 0 8C0 12.4183 3.58172 16 8 16Z" fill="#F0F0F0"/>
<path d="M10.5985 5.91312H9.55176C9.56042 6.02815 9.56533 6.14421 9.56533 6.26093C9.56533 7.0348 9.37189 7.7849 9.03467 8.31884C8.93064 8.48352 8.75583 8.71609 8.52183 8.87296V5.91309H7.47836V8.87296C7.24439 8.71609 7.06954 8.48355 6.96551 8.31884C6.62826 7.7849 6.43486 7.0348 6.43486 6.26093C6.43486 6.14421 6.43979 6.02812 6.44842 5.91312H5.40173C5.39501 6.02759 5.39136 6.14352 5.39136 6.26093C5.39136 8.40643 6.53723 10.087 8.00004 10.087C9.46286 10.087 10.6087 8.40643 10.6087 6.26093C10.6088 6.14352 10.6051 6.02759 10.5985 5.91312Z" fill="#D80027"/>
<path d="M3.30423 3.82609H4.3477V4.52175H5.39117V3.82609H6.43464V4.52175H7.47811V3.82609H8.52158V4.52175H9.56504V3.82609H10.6085V4.52175H11.652V3.82609H12.6955V4.52175H15.206C13.9121 1.84578 11.1715 0 7.99989 0C4.82823 0 2.0877 1.84578 0.793701 4.52175H3.30423V3.82609Z" fill="#6DA544"/>
<path d="M12.6955 11.478V12.1737H11.6521V11.478H10.6086V12.1737H9.56514V11.478H8.52167V12.1737H7.4782V11.478H6.43473V12.1737H5.39126V11.478H4.3477V12.1737H3.30423V11.478H0.793701C2.0877 14.154 4.8282 15.9998 7.99989 15.9998C11.1716 15.9998 13.9121 14.154 15.2061 11.478H12.6955Z" fill="#D80027"/>
</g>
<defs>
<clipPath id="clip0_467_1157">
<rect width="16" height="16" fill="white"/>
</clipPath>
</defs>
</svg>
