<svg width="16" height="16" viewBox="0 0 16 16" fill="none" xmlns="http://www.w3.org/2000/svg">
<g clip-path="url(#clip0_467_1200)">
<path d="M8 16C12.4183 16 16 12.4183 16 8C16 3.58172 12.4183 0 8 0C3.58172 0 0 3.58172 0 8C0 12.4183 3.58172 16 8 16Z" fill="#F0F0F0"/>
<path d="M14.3467 12.8712L9.47561 8.00016H9.47558L14.3467 3.12901C14.1366 2.85601 13.9068 2.59335 13.6568 2.34326C13.4067 2.0932 13.144 1.86335 12.871 1.65332L7.99992 6.52441L7.99989 6.52445L3.12879 1.65332C2.85583 1.86338 2.59314 2.09316 2.34304 2.34326C2.09295 2.59335 1.86314 2.85601 1.65311 3.12901L6.5242 8.00007L6.52423 8.0001L1.65308 12.8713C1.86317 13.1443 2.09298 13.4069 2.34301 13.657C2.59311 13.9071 2.85573 14.1369 3.12876 14.3469L7.99989 9.47585L7.99992 9.47582L12.871 14.3469C13.144 14.1369 13.4067 13.907 13.6568 13.657C13.9069 13.4069 14.1366 13.1442 14.3467 12.8712Z" fill="#D80027"/>
<path d="M6.60864 2.43493L7.99996 2.78274L9.39127 2.43493V1.25233L8.83474 1.53058L7.99996 0.695801L7.16517 1.53058L6.60864 1.25233V2.43493Z" fill="#FFDA44"/>
<path d="M6.60864 2.43457V3.3042C6.60864 4.3692 7.99996 4.69551 7.99996 4.69551C7.99996 4.69551 9.39127 4.36916 9.39127 3.3042V2.43457H6.60864Z" fill="#D80027"/>
</g>
<defs>
<clipPath id="clip0_467_1200">
<rect width="16" height="16" fill="white"/>
</clipPath>
</defs>
</svg>
