<svg width="16" height="16" viewBox="0 0 16 16" fill="none" xmlns="http://www.w3.org/2000/svg">
<g clip-path="url(#clip0_467_1191)">
<path d="M8 16C12.4183 16 16 12.4183 16 8C16 3.58172 12.4183 0 8 0C3.58172 0 0 3.58172 0 8C0 12.4183 3.58172 16 8 16Z" fill="#FFDA44"/>
<path d="M12.8704 1.65375C11.5215 0.616844 9.83286 0 7.99993 0C6.16699 0 4.47836 0.616875 3.12939 1.65375L7.99993 6.52425L12.8704 1.65375Z" fill="#6DA544"/>
<path d="M1.65372 3.12939C0.616875 4.47836 0 6.16696 0 7.99989C0 9.83283 0.616875 11.5215 1.65375 12.8705L6.52428 7.99989L1.65372 3.12939Z" fill="black"/>
<path d="M3.12939 14.3461C4.47839 15.383 6.16699 15.9998 7.99993 15.9998C9.83286 15.9998 11.5215 15.383 12.8705 14.3461L7.99993 9.47559L3.12939 14.3461Z" fill="#6DA544"/>
<path d="M14.3463 12.8704C15.3832 11.5214 16.0001 9.83283 16.0001 7.99989C16.0001 6.16696 15.3832 4.47836 14.3463 3.12939L9.47583 7.99989L14.3463 12.8704Z" fill="black"/>
</g>
<defs>
<clipPath id="clip0_467_1191">
<rect width="16" height="16" fill="white"/>
</clipPath>
</defs>
</svg>
