<svg width="16" height="16" viewBox="0 0 16 16" fill="none" xmlns="http://www.w3.org/2000/svg">
<g clip-path="url(#clip0_467_1205)">
<path d="M8 16C12.4183 16 16 12.4183 16 8C16 3.58172 12.4183 0 8 0C3.58172 0 0 3.58172 0 8C0 12.4183 3.58172 16 8 16Z" fill="#F0F0F0"/>
<path d="M4.86954 5.21741H15.5024C14.372 2.171 11.4397 0 7.99998 0C5.79079 0 3.79101 0.895594 2.34338 2.34341L4.86954 5.21741Z" fill="black"/>
<path d="M4.86954 10.7827H15.5024C14.372 13.8291 11.4397 16.0001 7.99998 16.0001C5.79079 16.0001 3.79101 15.1045 2.34338 13.6567L4.86954 10.7827Z" fill="#6DA544"/>
<path d="M2.34314 2.34326C-0.781047 5.46745 -0.781047 10.5328 2.34314 13.657C3.63417 12.366 4.87583 11.1243 8.00002 8.00014L2.34314 2.34326Z" fill="#D80027"/>
<path d="M3.1752 6.26074L3.61423 7.17884L4.60576 6.94968L4.1617 7.86534L4.95904 8.49765L3.96633 8.72137L3.96908 9.73899L3.1752 9.10234L2.38129 9.73899L2.38408 8.72137L1.39136 8.49765L2.18867 7.86534L1.74467 6.94968L2.73614 7.17884L3.1752 6.26074Z" fill="#F0F0F0"/>
</g>
<defs>
<clipPath id="clip0_467_1205">
<rect width="16" height="16" fill="white"/>
</clipPath>
</defs>
</svg>
