<svg width="16" height="16" viewBox="0 0 16 16" fill="none" xmlns="http://www.w3.org/2000/svg">
<g clip-path="url(#clip0_467_1216)">
<path d="M8 16C12.4183 16 16 12.4183 16 8C16 3.58172 12.4183 0 8 0C3.58172 0 0 3.58172 0 8C0 12.4183 3.58172 16 8 16Z" fill="#F0F0F0"/>
<path d="M8.00001 0C4.82832 0 2.08782 1.84578 0.793823 4.52175H15.2062C13.9122 1.84578 11.1717 0 8.00001 0Z" fill="black"/>
<path d="M8.00001 15.9998C4.82832 15.9998 2.08782 14.154 0.793823 11.478H15.2062C13.9122 14.154 11.1717 15.9998 8.00001 15.9998Z" fill="#496E2D"/>
<path d="M15.6222 5.56543H0.377781C0.132719 6.33321 0 7.15118 0 8.00021C0 8.84924 0.132719 9.66721 0.377781 10.435H15.6222C15.8673 9.66721 16 8.84924 16 8.00021C16 7.15118 15.8673 6.33321 15.6222 5.56543Z" fill="#A2001D"/>
<path d="M10.4911 3.69705L9.54369 3.25977L8 6.75511L6.45632 3.25977L5.50891 3.69705L7.42541 8.00014L5.50891 12.3032L6.45632 12.7405L8 9.24517L9.54369 12.7405L10.4911 12.3032L8.5746 8.00014L10.4911 3.69705Z" fill="#F0F0F0"/>
<path d="M8.64351 4.1093C8.27676 3.70877 8.00004 3.47852 8.00004 3.47852C8.00004 3.47852 7.72332 3.70873 7.35657 4.1093V11.8912C7.72332 12.2918 8.00004 12.522 8.00004 12.522C8.00004 12.522 8.27676 12.2918 8.64351 11.8912V4.1093Z" fill="#F0F0F0"/>
<path d="M6.26086 5.60127V10.3985C6.64843 11.0852 7.12277 11.6481 7.47827 12.0213V3.97852C7.12277 4.35167 6.6484 4.91458 6.26086 5.60127Z" fill="#A2001D"/>
<path d="M9.73913 5.60127C9.35154 4.91455 8.87723 4.35167 8.52173 3.97852V12.0213C8.8772 11.6481 9.35154 11.0852 9.73913 10.3985V5.60127Z" fill="#A2001D"/>
<path d="M9.73914 5.60156V10.3988C10.1315 9.70353 10.4348 8.88138 10.4348 8.00022C10.4348 7.11906 10.1315 6.29688 9.73914 5.60156Z" fill="black"/>
<path d="M6.26084 5.60156V10.3988C5.8685 9.70353 5.56519 8.88138 5.56519 8.00022C5.56519 7.11906 5.8685 6.29688 6.26084 5.60156Z" fill="black"/>
</g>
<defs>
<clipPath id="clip0_467_1216">
<rect width="16" height="16" fill="white"/>
</clipPath>
</defs>
</svg>
