<svg width="16" height="16" viewBox="0 0 16 16" fill="none" xmlns="http://www.w3.org/2000/svg">
<g clip-path="url(#clip0_467_1255)">
<path d="M8 16C12.4183 16 16 12.4183 16 8C16 3.58172 12.4183 0 8 0C3.58172 0 0 3.58172 0 8C0 12.4183 3.58172 16 8 16Z" fill="#D80027"/>
<path d="M11.9125 8.00007L10.3139 8.75201L11.1651 10.3004L9.42912 9.9682L9.20924 11.7218L8.00002 10.4321L6.7909 11.7218L6.57093 9.9682L4.83505 10.3003L5.6863 8.75195L4.08765 8.00007L5.6863 7.24816L4.83505 5.69979L6.57087 6.03198L6.79096 4.27832L8.00002 5.56804L9.2093 4.27832L9.42912 6.03198L11.1652 5.69979L10.3139 7.24826L11.9125 8.00007Z" fill="#FFDA44"/>
<path d="M7.99997 10.435C9.34466 10.435 10.4347 9.3449 10.4347 8.00021C10.4347 6.65552 9.34466 5.56543 7.99997 5.56543C6.65527 5.56543 5.56519 6.65552 5.56519 8.00021C5.56519 9.3449 6.65527 10.435 7.99997 10.435Z" fill="#D80027"/>
<path d="M6.78261 8C6.72395 8 6.66604 8.003 6.60889 8.00869C6.61098 8.34591 6.73298 8.65456 6.93448 8.89434C7.04198 8.60506 7.20248 8.34128 7.40489 8.11553C7.21157 8.04119 7.00186 8 6.78261 8Z" fill="#FFDA44"/>
<path d="M7.53198 9.31071C7.67823 9.36296 7.8357 9.39162 7.99995 9.39162C8.1642 9.39162 8.32167 9.36296 8.46792 9.31071C8.3882 8.99784 8.22361 8.71852 7.99995 8.49902C7.7763 8.71849 7.6117 8.99784 7.53198 9.31071Z" fill="#FFDA44"/>
<path d="M9.20485 7.30476C8.96429 6.88895 8.51501 6.60889 8.00001 6.60889C7.48501 6.60889 7.03573 6.88892 6.79517 7.30476C7.23373 7.30698 7.64498 7.42623 8.00001 7.63214C8.35504 7.42623 8.76623 7.30698 9.20485 7.30476Z" fill="#FFDA44"/>
<path d="M8.59509 8.11553C8.7975 8.34125 8.958 8.60503 9.0655 8.89434C9.267 8.65456 9.389 8.34591 9.39109 8.00869C9.33391 8.00297 9.276 8 9.21737 8C8.99819 7.99997 8.78847 8.04116 8.59509 8.11553Z" fill="#FFDA44"/>
</g>
<defs>
<clipPath id="clip0_467_1255">
<rect width="16" height="16" fill="white"/>
</clipPath>
</defs>
</svg>
