<svg width="16" height="16" viewBox="0 0 16 16" fill="none" xmlns="http://www.w3.org/2000/svg">
<g clip-path="url(#clip0_467_598)">
<path d="M0 7.99978C0 9.38571 0.352594 10.6893 0.972719 11.8259L8 12.5215L15.0273 11.8259C15.6474 10.6893 16 9.38571 16 7.99978C16 6.61384 15.6474 5.31028 15.0273 4.17368L8 3.47803L0.972719 4.17368C0.352594 5.31028 0 6.61384 0 7.99978H0Z" fill="#D80027"/>
<path d="M0.972778 4.17391H15.0273C13.6705 1.68716 11.0324 0 8.00006 0C4.96772 0 2.32962 1.68716 0.972778 4.17391Z" fill="#0052B4"/>
<path d="M8.00006 16.0001C11.0324 16.0001 13.6705 14.3129 15.0273 11.8262H0.972778C2.32962 14.3129 4.96772 16.0001 8.00006 16.0001Z" fill="#0052B4"/>
<path d="M10.7826 9.56521V8.52174H10.0869V7.13043L9.39129 6.43477L8.69563 7.13043V5.73911L7.99998 5.04346L7.30432 5.73911V7.13043L6.60867 6.43477L5.91301 7.13043V8.52174H5.21738V9.56521H4.52173V10.6087H11.4782V9.56521H10.7826Z" fill="#F0F0F0"/>
</g>
<defs>
<clipPath id="clip0_467_598">
<rect width="16" height="16" fill="white"/>
</clipPath>
</defs>
</svg>
