<svg width="16" height="16" viewBox="0 0 16 16" fill="none" xmlns="http://www.w3.org/2000/svg">
<g clip-path="url(#clip0_467_1229)">
<path d="M0 8C0 3.58175 3.58175 0 8 0C12.4183 0 16 3.58175 16 8" fill="#D80027"/>
<path d="M10.7826 7.44L9.64556 7.97478L10.2511 9.076L9.01641 8.83978L8.85997 10.087L8 9.16969L7.14 10.087L6.98359 8.83978L5.74894 9.07594L6.35441 7.97478L5.21741 7.44L6.35441 6.90513L5.74894 5.80403L6.98356 6.04016L7.14003 4.79297L8 5.71025L8.86 4.79297L9.01641 6.04016L10.2511 5.80403L9.64566 6.90522L10.7826 7.44Z" fill="#FFDA44"/>
<path d="M10.087 2.60866H8.52181C8.52181 2.32057 8.28818 2.08691 8.00005 2.08691C7.71193 2.08691 7.4783 2.32054 7.4783 2.60866H5.91309C5.91309 2.89679 6.16409 3.13041 6.45221 3.13041H6.4348C6.4348 3.41854 6.66837 3.65216 6.95655 3.65216C6.95655 3.94029 7.19012 4.17391 7.4783 4.17391H8.52177C8.80987 4.17391 9.04352 3.94032 9.04352 3.65216C9.33162 3.65216 9.56527 3.41857 9.56527 3.13041H9.54787C9.83602 3.13041 10.087 2.89682 10.087 2.60866Z" fill="#FFDA44"/>
<path d="M16 8C16 12.4183 12.4183 16 8 16C3.58175 16 0 12.4183 0 8H16Z" fill="#F0F0F0"/>
<path d="M7.99996 15.9998C10.5006 15.9998 12.733 14.8522 14.2 13.0552C13.9361 12.8753 13.7937 12.5845 13.3332 12.5845C12.6665 12.5845 12.6665 13.194 11.9999 13.194C11.3333 13.194 11.3332 12.5845 10.6666 12.5845C9.99996 12.5845 9.99996 13.194 9.33327 13.194C8.66659 13.194 8.66655 12.5845 7.99984 12.5845C7.33318 12.5845 7.33318 13.194 6.66655 13.194C5.99999 13.194 5.99999 12.5845 5.33334 12.5845C4.66662 12.5845 4.66662 13.194 3.9999 13.194C3.33318 13.194 3.33318 12.5845 2.66646 12.5845C2.20602 12.5845 2.06355 12.8752 1.7998 13.0551C3.2668 14.8522 5.49924 15.9998 7.99996 15.9998Z" fill="#0052B4"/>
<path d="M14.6665 9.02021C13.9999 9.02021 13.9999 8.41064 13.3332 8.41064C12.6665 8.41064 12.6665 9.02021 11.9999 9.02021C11.3333 9.02021 11.3333 8.41064 10.6666 8.41064C9.99997 8.41064 9.99997 9.02021 9.33328 9.02021C8.66659 9.02021 8.66656 8.41064 7.99985 8.41064C7.33319 8.41064 7.33319 9.02021 6.66656 9.02021C6 9.02021 6 8.41064 5.33334 8.41064C4.66663 8.41064 4.66663 9.02021 3.99991 9.02021C3.33319 9.02021 3.33319 8.41064 2.66647 8.41064C1.99991 8.41064 1.99991 9.02021 1.33325 9.02021C0.670188 9.02021 0.666345 8.41736 0.010376 8.41093C0.0288447 8.77686 0.0725322 9.13611 0.138595 9.48743C0.66997 9.56552 0.716501 10.0869 1.33328 10.0869C1.99994 10.0869 1.99994 9.47736 2.6665 9.47736C3.33322 9.47736 3.33322 10.0869 3.99994 10.0869C4.66666 10.0869 4.66666 9.47736 5.33338 9.47736C6.00003 9.47736 6.00003 10.0869 6.66659 10.0869C7.33325 10.0869 7.33325 9.47736 7.99988 9.47736C8.66659 9.47736 8.66659 10.0869 9.33331 10.0869C10 10.0869 10 9.47736 10.6667 9.47736C11.3333 9.47736 11.3333 10.0869 11.9999 10.0869C12.6666 10.0869 12.6666 9.47736 13.3332 9.47736C13.9999 9.47736 13.9999 10.0869 14.6666 10.0869C15.2834 10.0869 15.3299 9.56555 15.8613 9.48746C15.9274 9.13611 15.9711 8.77689 15.9896 8.41096C15.3335 8.41743 15.3296 9.02021 14.6665 9.02021Z" fill="#0052B4"/>
<path d="M13.3332 10.4976C12.6666 10.4976 12.6666 11.1071 11.9999 11.1071C11.3333 11.1071 11.3333 10.4976 10.6667 10.4976C10 10.4976 10 11.1071 9.33331 11.1071C8.66659 11.1071 8.66659 10.4976 7.99987 10.4976C7.33322 10.4976 7.33322 11.1071 6.66659 11.1071C6.00003 11.1071 6.00003 10.4976 5.33337 10.4976C4.66666 10.4976 4.66666 11.1071 3.99994 11.1071C3.33322 11.1071 3.33322 10.4976 2.6665 10.4976C1.99994 10.4976 1.99994 11.1071 1.33328 11.1071C0.856937 11.1071 0.720874 10.796 0.438843 10.6182C0.626593 11.1607 0.870843 11.6767 1.165 12.1591C1.21616 12.1686 1.27184 12.1738 1.33328 12.1738C1.99994 12.1738 1.99994 11.5643 2.6665 11.5643C3.33322 11.5643 3.33322 12.1738 3.99994 12.1738C4.66666 12.1738 4.66666 11.5643 5.33337 11.5643C6.00003 11.5643 6.00003 12.1738 6.66659 12.1738C7.33325 12.1738 7.33325 11.5643 7.99987 11.5643C8.66659 11.5643 8.66659 12.1738 9.33331 12.1738C10 12.1738 10 11.5643 10.6667 11.5643C11.3333 11.5643 11.3333 12.1738 11.9999 12.1738C12.6666 12.1738 12.6666 11.5643 13.3332 11.5643C13.9999 11.5643 13.9999 12.1738 14.6666 12.1738C14.7281 12.1738 14.7837 12.1686 14.8349 12.1591C15.1291 11.6767 15.3733 11.1607 15.5611 10.6183C15.2791 10.7959 15.143 11.1071 14.6666 11.1071C13.9999 11.1071 13.9999 10.4976 13.3332 10.4976Z" fill="#0052B4"/>
<path d="M15.9752 7.36787C15.3336 7.38303 15.3248 7.97675 14.6666 7.97675C13.9999 7.97675 13.9999 7.36719 13.3332 7.36719C12.6666 7.36719 12.6666 7.97675 11.9999 7.97675C11.3333 7.97675 11.3333 7.36719 10.6667 7.36719C10 7.36719 10 7.97675 9.33331 7.97675C8.66662 7.97675 8.66659 7.36719 7.99988 7.36719C7.33322 7.36719 7.33322 7.97675 6.66659 7.97675C6.00003 7.97675 6.00003 7.36719 5.33337 7.36719C4.66666 7.36719 4.66666 7.97675 3.99994 7.97675C3.33322 7.97675 3.33322 7.36719 2.6665 7.36719C1.99994 7.36719 1.99994 7.97675 1.33328 7.97675C0.675188 7.97675 0.666281 7.38309 0.0247812 7.36787C0.0085 7.57644 0 7.78719 0 7.99991C0 8.14562 0.004125 8.29041 0.0119063 8.43419C0.666375 8.44153 0.670719 9.04337 1.33331 9.04337C1.99997 9.04337 1.99997 8.43387 2.66653 8.43387C3.33325 8.43387 3.33325 9.04337 3.99997 9.04337C4.66669 9.04337 4.66669 8.43387 5.33341 8.43387C6.00006 8.43387 6.00006 9.04337 6.66663 9.04337C7.33328 9.04337 7.33328 8.43387 7.99991 8.43387C8.66663 8.43387 8.66663 9.04337 9.33334 9.04337C10.0001 9.04337 10.0001 8.43387 10.6667 8.43387C11.3333 8.43387 11.3333 9.04337 12 9.04337C12.6666 9.04337 12.6666 8.43387 13.3333 8.43387C14 8.43387 14 9.04337 14.6666 9.04337C15.3292 9.04337 15.3336 8.44153 15.9882 8.43419C15.9959 8.29037 16 8.14562 16 7.99991C16 7.78719 15.9915 7.57644 15.9752 7.36787Z" fill="#F0F0F0"/>
</g>
<defs>
<clipPath id="clip0_467_1229">
<rect width="16" height="16" fill="white"/>
</clipPath>
</defs>
</svg>
