<svg width="16" height="16" viewBox="0 0 16 16" fill="none" xmlns="http://www.w3.org/2000/svg">
<g clip-path="url(#clip0_467_726)">
<path d="M8 16C12.4183 16 16 12.4183 16 8C16 3.58172 12.4183 0 8 0C3.58172 0 0 3.58172 0 8C0 12.4183 3.58172 16 8 16Z" fill="#F0F0F0"/>
<path d="M15.9997 7.97705H7.32756C5.60578 9.69886 4.56459 11.0281 3.50146 12.0913L8.02322 12.4988L15.0399 11.8031C15.6522 10.672 16 9.37674 16 8.00021C16 7.99246 15.9997 7.9848 15.9997 7.97705Z" fill="#D80027"/>
<path d="M3.50145 4.15075H15.0143C13.6538 1.67675 11.0228 0 7.99998 0C5.7967 0 3.80182 0.890969 2.3551 2.332L3.50145 4.15075Z" fill="#FFDA44"/>
<path d="M3.84926 11.8027C3.13007 12.5219 2.85213 13.1245 2.33179 13.6448C3.78038 15.0994 5.78491 15.9998 7.99997 15.9998C11.0417 15.9998 13.6868 14.3022 15.0399 11.8027H3.84926Z" fill="#0052B4"/>
<path d="M2.34314 2.31982C-0.781047 5.44401 -0.781047 10.5094 2.34314 13.6336C3.63417 12.3425 4.87583 11.1009 8.00002 7.9767L2.34314 2.31982Z" fill="#6DA544"/>
<path d="M2.11015 7.97677C2.11015 6.81121 2.92931 5.83749 4.02318 5.59862C3.85506 5.5619 3.68062 5.54199 3.50143 5.54199C2.15671 5.54199 1.06665 6.63206 1.06665 7.97677C1.06665 9.32149 2.15671 10.4116 3.50143 10.4116C3.68059 10.4116 3.85503 10.3916 4.02318 10.3549C2.92931 10.116 2.11015 9.14234 2.11015 7.97677Z" fill="#F0F0F0"/>
<path d="M3.99635 5.88965L4.12588 6.28821H4.54494L4.20588 6.53455L4.33541 6.93312L3.99635 6.6868L3.65728 6.93312L3.78682 6.53455L3.44775 6.28821H3.86682L3.99635 5.88965Z" fill="#F0F0F0"/>
<path d="M3.99635 6.93311L4.12588 7.3317H4.54494L4.20588 7.57801L4.33541 7.97661L3.99635 7.73026L3.65728 7.97661L3.78682 7.57801L3.44775 7.3317H3.86682L3.99635 6.93311Z" fill="#F0F0F0"/>
<path d="M3.99635 7.97656L4.12588 8.37512H4.54494L4.20588 8.62147L4.33541 9.02003L3.99635 8.77369L3.65728 9.02003L3.78682 8.62147L3.44775 8.37512H3.86682L3.99635 7.97656Z" fill="#F0F0F0"/>
<path d="M3.99635 9.02002L4.12588 9.41858H4.54494L4.20588 9.66493L4.33541 10.0635L3.99635 9.81718L3.65728 10.0635L3.78682 9.66493L3.44775 9.41858H3.86682L3.99635 9.02002Z" fill="#F0F0F0"/>
</g>
<defs>
<clipPath id="clip0_467_726">
<rect width="16" height="16" fill="white"/>
</clipPath>
</defs>
</svg>
