<svg width="16" height="16" viewBox="0 0 16 16" fill="none" xmlns="http://www.w3.org/2000/svg">
<g clip-path="url(#clip0_467_1240)">
<path d="M8 16C12.4183 16 16 12.4183 16 8C16 3.58172 12.4183 0 8 0C3.58172 0 0 3.58172 0 8C0 12.4183 3.58172 16 8 16Z" fill="#0052B4"/>
<path d="M3.51403 4.86963L3.68672 5.40113H4.24547L3.79344 5.72954L3.96609 6.26094L3.51403 5.93254L3.06194 6.26094L3.23466 5.72954L2.78259 5.40113H3.34131L3.51403 4.86963Z" fill="#F0F0F0"/>
<path d="M5.25313 4.34814L5.42582 4.87961H5.98457L5.53254 5.20802L5.7052 5.73943L5.25313 5.41102L4.80107 5.73943L4.97376 5.20802L4.52173 4.87961H5.08048L5.25313 4.34814Z" fill="#F0F0F0"/>
<path d="M6.99227 3.82617L7.16496 4.35764H7.72371L7.27168 4.68608L7.44433 5.21748L6.99227 4.88905L6.54021 5.21748L6.7129 4.68608L6.26086 4.35764H6.81961L6.99227 3.82617Z" fill="#F0F0F0"/>
<path d="M12.486 4.86963L12.3133 5.40113H11.7545L12.2066 5.72954L12.0339 6.26094L12.486 5.93254L12.938 6.26094L12.7653 5.72954L13.2174 5.40113H12.6586L12.486 4.86963Z" fill="#F0F0F0"/>
<path d="M10.7468 4.34814L10.5741 4.87961H10.0154L10.4674 5.20802L10.2948 5.73943L10.7468 5.41102L11.1989 5.73943L11.0262 5.20802L11.4782 4.87961H10.9195L10.7468 4.34814Z" fill="#F0F0F0"/>
<path d="M9.00768 3.82617L8.835 4.35764H8.27625L8.72828 4.68608L8.55562 5.21748L9.00768 4.88905L9.45975 5.21748L9.28706 4.68608L9.73909 4.35764H9.18034L9.00768 3.82617Z" fill="#F0F0F0"/>
<path d="M9.39128 8.34801L7.99997 6.60889L7.30431 6.9567V7.65236L6.26084 8.34801H5.56519V9.24673C6.58481 9.65961 7.30431 10.6586 7.30431 11.8263H7.99997V11.1306L8.69562 10.435L9.39128 11.1306L10.0869 10.435V9.73932L10.7826 8.69586L9.39128 8.34801Z" fill="#FFDA44"/>
</g>
<defs>
<clipPath id="clip0_467_1240">
<rect width="16" height="16" fill="white"/>
</clipPath>
</defs>
</svg>
