<svg width="16" height="16" viewBox="0 0 16 16" fill="none" xmlns="http://www.w3.org/2000/svg">
<g clip-path="url(#clip0_467_1589)">
<path d="M8 16C12.4183 16 16 12.4183 16 8C16 3.58172 12.4183 0 8 0C3.58172 0 0 3.58172 0 8C0 12.4183 3.58172 16 8 16Z" fill="#F0F0F0"/>
<path d="M7.99995 0C5.57523 0 3.40264 1.07887 1.93555 2.78259H14.0643C12.5973 1.07887 10.4247 0 7.99995 0Z" fill="#0052B4"/>
<path d="M14.0644 13.2173H1.93555C3.40264 14.921 5.57523 15.9999 7.99995 15.9999C10.4247 15.9999 12.5973 14.921 14.0644 13.2173Z" fill="#0052B4"/>
<path d="M14.8258 3.82617H1.17419C0.429531 5.04133 0 6.47048 0 8.00008C0 9.52967 0.429531 10.9589 1.17419 12.174H14.8258C15.5705 10.9589 16 9.52967 16 8.00008C16 6.47048 15.5705 5.04133 14.8258 3.82617Z" fill="#D80027"/>
<path d="M4.92176 11.0784C6.62183 11.0784 8.00001 9.7002 8.00001 8.00012C8.00001 6.30005 6.62183 4.92188 4.92176 4.92188C3.22169 4.92188 1.84351 6.30005 1.84351 8.00012C1.84351 9.7002 3.22169 11.0784 4.92176 11.0784Z" fill="#F0F0F0"/>
<path d="M4.92174 4.92188L5.61239 7.04753H7.85108L6.0393 8.36134L6.73536 10.4933L4.92174 9.17328L3.11086 10.4909L3.80417 8.36134L1.99402 7.04753H4.23105L4.92174 4.92188Z" fill="#D80027"/>
</g>
<defs>
<clipPath id="clip0_467_1589">
<rect width="16" height="16" fill="white"/>
</clipPath>
</defs>
</svg>
