<svg width="16" height="16" viewBox="0 0 16 16" fill="none" xmlns="http://www.w3.org/2000/svg">
<g clip-path="url(#clip0_467_1211)">
<path d="M8 16C12.4183 16 16 12.4183 16 8C16 3.58172 12.4183 0 8 0C3.58172 0 0 3.58172 0 8C0 12.4183 3.58172 16 8 16Z" fill="#338AF3"/>
<path d="M12.5218 8.08691H3.47827C3.47827 8.71126 4.02205 9.21735 4.64633 9.21735H4.60871C4.60871 9.8417 5.1148 10.3478 5.73915 10.3478C5.73915 10.9721 6.24524 11.4782 6.86958 11.4782H9.13046C9.7548 11.4782 10.2609 10.9721 10.2609 10.3478C10.8852 10.3478 11.3913 9.8417 11.3913 9.21735H11.3537C11.9779 9.21735 12.5218 8.71126 12.5218 8.08691Z" fill="#FFDA44"/>
<path d="M11.1304 6.60889C11.1304 8.33776 9.72882 9.73932 7.99994 9.73932C6.27104 9.73932 4.86951 8.33776 4.86951 6.60889" fill="#338AF3"/>
<path d="M10.3911 6.60858L9.41404 7.06817L9.93432 8.01442L8.87339 7.81145L8.73895 8.8832L7.99998 8.09492L7.26098 8.8832L7.12657 7.81145L6.06564 8.01436L6.58589 7.06814L5.60889 6.60858L6.58592 6.14902L6.06564 5.2028L7.12654 5.40573L7.26101 4.33398L7.99998 5.12227L8.73898 4.33398L8.87339 5.40573L9.93436 5.2028L9.41407 6.14905L10.3911 6.60858Z" fill="#FFDA44"/>
</g>
<defs>
<clipPath id="clip0_467_1211">
<rect width="16" height="16" fill="white"/>
</clipPath>
</defs>
</svg>
