<svg width="16" height="16" viewBox="0 0 16 16" fill="none" xmlns="http://www.w3.org/2000/svg">
<g clip-path="url(#clip0_467_1264)">
<path d="M15.2062 4.52175C13.9122 1.84578 11.1717 0 8.00001 0C4.82832 0 2.08782 1.84578 0.793823 4.52175L8.00001 5.21741L15.2062 4.52175Z" fill="#D80027"/>
<path d="M0.793823 11.4784C2.08782 14.1543 4.82832 16.0001 8.00001 16.0001C11.1717 16.0001 13.9122 14.1543 15.2062 11.4784L8.00001 10.7827L0.793823 11.4784Z" fill="#D80027"/>
<path d="M15.2062 4.52197H0.793813C0.28525 5.57369 0 6.75363 0 8.00022C0 9.24682 0.28525 10.4268 0.793813 11.4785H15.2062C15.7148 10.4268 16 9.24682 16 8.00022C16 6.75363 15.7148 5.57369 15.2062 4.52197Z" fill="#0052B4"/>
<path d="M8 10.7825C9.53679 10.7825 10.7826 9.53666 10.7826 7.99988C10.7826 6.46309 9.53679 5.21729 8 5.21729C6.46322 5.21729 5.21741 6.46309 5.21741 7.99988C5.21741 9.53666 6.46322 10.7825 8 10.7825Z" fill="#F0F0F0"/>
</g>
<defs>
<clipPath id="clip0_467_1264">
<rect width="16" height="16" fill="white"/>
</clipPath>
</defs>
</svg>
