<svg width="16" height="16" viewBox="0 0 16 16" fill="none" xmlns="http://www.w3.org/2000/svg">
<g clip-path="url(#clip0_467_1310)">
<path d="M16 8.00001C16 12.4183 12.4183 16 8 16C3.58175 16 0 12.4183 0 8.00001C0.347813 8.00001 8 6.95654 8 6.95654L16 8.00001Z" fill="#D80027"/>
<path d="M0 8C0 3.58175 3.58175 0 8 0C12.4183 0 16 3.58175 16 8" fill="#0052B4"/>
<path d="M5.91304 5.56515C5.91304 4.98887 5.44585 4.52168 4.86957 4.52168C4.60223 4.52168 4.35857 4.62231 4.17392 4.78759V4.17384H4.52173V3.47818H4.17392V3.13037H3.47826V3.47818H3.13045V4.17384H3.47826V4.78759C3.2936 4.62231 3.04995 4.52168 2.7826 4.52168C2.20632 4.52168 1.73914 4.98887 1.73914 5.56515C1.73914 5.87412 1.87354 6.15162 2.08695 6.34271V6.95646H5.5652V6.34271C5.77867 6.15162 5.91304 5.87412 5.91304 5.56515Z" fill="#FFDA44"/>
</g>
<defs>
<clipPath id="clip0_467_1310">
<rect width="16" height="16" fill="white"/>
</clipPath>
</defs>
</svg>
