<svg width="16" height="16" viewBox="0 0 16 16" fill="none" xmlns="http://www.w3.org/2000/svg">
<g clip-path="url(#clip0_467_1968)">
<path d="M7.99998 16C12.4183 16 16 12.4183 16 7.99998C16 3.58172 12.4183 0 7.99998 0C3.58172 0 0 3.58172 0 7.99998C0 12.4183 3.58172 16 7.99998 16Z" fill="#FFDA44"/>
<path d="M6.26091 1.39111H3.49106C3.36831 1.47502 3.24819 1.56236 3.13047 1.65277L2.43481 7.99977L3.13047 14.3468C3.24819 14.4372 3.36831 14.5246 3.49106 14.6084H6.26091V1.39111Z" fill="#FF9811"/>
<path d="M0 7.99986C0 10.5856 1.22713 12.8845 3.13044 14.3469V1.65283C1.22713 3.11527 0 5.41408 0 7.99986Z" fill="#6DA544"/>
<path d="M12.8696 4.87695V5.07711L12.8771 5.07823L12.8696 4.87695Z" fill="#FFDA44"/>
<path d="M15.3624 10.0867H13.8551L13.2175 10.7824V12.1737H11.8262V11.4781H12.5218V10.0867H9.39138V10.9563H8.69572V9.29908C8.48229 9.10802 8.34791 8.83049 8.34791 8.52152V3.9998C8.34791 3.42352 8.8151 2.95633 9.39138 2.95633V9.39111H10.7827L11.2601 8.99327C11.1767 8.79468 11.1305 8.57658 11.1305 8.34764V7.30418H10.087V5.21724H12.174C12.174 4.86943 12.6957 4.52158 12.6957 4.52158C12.6957 4.52158 13.2175 4.86939 13.2175 5.21724V5.73899V7.30421C13.6044 7.3088 14.2193 7.29877 14.8835 7.30421C14.709 6.99921 14.6088 6.6373 14.6088 6.26074C14.6088 5.64696 14.8738 5.09514 15.2956 4.71327C14.6876 3.36593 13.7174 2.21711 12.509 1.39111H7.30444V14.6085H12.5091C13.9784 13.6041 15.0956 12.1225 15.6376 10.3869L15.3624 10.0867Z" fill="#A2001D"/>
</g>
<defs>
<clipPath id="clip0_467_1968">
<rect width="16" height="16" fill="white"/>
</clipPath>
</defs>
</svg>
