<svg width="16" height="16" viewBox="0 0 16 16" fill="none" xmlns="http://www.w3.org/2000/svg">
<g clip-path="url(#clip0_467_1286)">
<path d="M8 16C12.4183 16 16 12.4183 16 8C16 3.58172 12.4183 0 8 0C3.58172 0 0 3.58172 0 8C0 12.4183 3.58172 16 8 16Z" fill="#F0F0F0"/>
<path d="M1.82861 2.90912H14.1714C13.7155 2.35709 13.1867 1.86756 12.6002 1.45459H3.39977C2.81324 1.8675 2.28452 2.35706 1.82861 2.90912Z" fill="#F0F0F0"/>
<path d="M0 8.0002C0 8.24542 0.0116563 8.48786 0.03325 8.72748H15.9668C15.9883 8.48786 16 8.24542 16 8.0002C16 7.75498 15.9883 7.51254 15.9668 7.27295H0.03325C0.0116563 7.51254 0 7.75498 0 8.0002H0Z" fill="#F0F0F0"/>
<path d="M0.872395 11.6361H15.1276C15.3632 11.1753 15.5553 10.6887 15.6988 10.1816H0.30127C0.444676 10.6887 0.636863 11.1754 0.872395 11.6361Z" fill="#F0F0F0"/>
<path d="M3.39977 14.5454H12.6002C13.1867 14.1324 13.7155 13.6429 14.1713 13.0908H1.82861C2.28452 13.6428 2.81324 14.1324 3.39977 14.5454Z" fill="#F0F0F0"/>
<path d="M0.30127 5.8183H15.6988C15.5554 5.31118 15.3632 4.82455 15.1277 4.36377H0.872426C0.636895 4.82455 0.444707 5.31118 0.30127 5.8183Z" fill="#F0F0F0"/>
<path d="M3.82605 1.45453H12.6002C11.2989 0.538344 9.71236 0 7.99996 0C6.95649 0 5.1273 0.538344 3.82605 1.45453Z" fill="#D80027"/>
<path d="M7.6521 4.36371H15.1275C14.8615 3.8433 14.5402 3.35584 14.1713 2.90918H7.6521V4.36371Z" fill="#D80027"/>
<path d="M7.6521 7.27289H15.9667C15.9217 6.77345 15.8312 6.28708 15.6987 5.81836H7.6521V7.27289Z" fill="#D80027"/>
<path d="M0.301203 10.1821H15.6987C15.8313 9.71338 15.9217 9.22698 15.9667 8.72754H0.0332031C0.0782031 9.22698 0.168641 9.71335 0.301203 10.1821Z" fill="#D80027"/>
<path d="M1.82856 13.0908H14.1713C14.5402 12.644 14.8615 12.1566 15.1276 11.6362H0.872314C1.13835 12.1566 1.45966 12.6441 1.82856 13.0908Z" fill="#D80027"/>
<path d="M8 15.9999C9.71241 15.9999 11.299 15.4616 12.6002 14.5454H3.39978C4.70103 15.4616 6.28759 15.9999 8 15.9999Z" fill="#D80027"/>
<path d="M0.301172 5.81819C0.168609 6.28694 0.0782031 6.77328 0.0332031 7.27272H7.99995V0C4.33808 0 1.25092 2.46038 0.301172 5.81819Z" fill="#0052B4"/>
<path d="M4.76209 2.08691L5.28006 3.68113H6.9565L5.60031 4.66651L6.11825 6.26082L4.76209 5.27551L3.40587 6.26082L3.92394 4.66651L2.56775 3.68113H4.24409L4.76209 2.08691Z" fill="#F0F0F0"/>
</g>
<defs>
<clipPath id="clip0_467_1286">
<rect width="16" height="16" fill="white"/>
</clipPath>
</defs>
</svg>
