<svg width="16" height="16" viewBox="0 0 16 16" fill="none" xmlns="http://www.w3.org/2000/svg">
<g clip-path="url(#clip0_467_1281)">
<path d="M0 7.99992C0 9.24648 0.285219 10.4264 0.793813 11.4782L8 11.826L15.2062 11.4782C15.7148 10.4264 16 9.24648 16 7.99992C16 6.75336 15.7148 5.57342 15.2062 4.52167L8 4.17383L0.793813 4.52164C0.285219 5.57342 0 6.75336 0 7.99992H0Z" fill="#F0F0F0"/>
<path d="M8.00001 15.9998C11.1717 15.9998 13.9122 14.154 15.2062 11.478H0.793823C2.08782 14.154 4.82832 15.9998 8.00001 15.9998Z" fill="#6DA544"/>
<path d="M8.00001 0C4.82832 0 2.08782 1.84578 0.793823 4.52175H15.2062C13.9122 1.84578 11.1717 0 8.00001 0Z" fill="#0052B4"/>
<path d="M8.5218 7.82612V5.91309H7.47833V7.82612L6.21802 9.08646C6.58455 9.68646 7.24552 10.087 8.00008 10.087C8.75464 10.087 9.41558 9.68646 9.78214 9.08646L8.5218 7.82612Z" fill="black"/>
</g>
<defs>
<clipPath id="clip0_467_1281">
<rect width="16" height="16" fill="white"/>
</clipPath>
</defs>
</svg>
