<svg width="16" height="16" viewBox="0 0 16 16" fill="none" xmlns="http://www.w3.org/2000/svg">
<g clip-path="url(#clip0_467_1270)">
<path d="M8 16C12.4183 16 16 12.4183 16 8C16 3.58172 12.4183 0 8 0C3.58172 0 0 3.58172 0 8C0 12.4183 3.58172 16 8 16Z" fill="#F0F0F0"/>
<path d="M8.00004 0C4.30382 0 1.19363 2.50691 0.275635 5.91303H15.7245C14.8064 2.50691 11.6963 0 8.00004 0Z" fill="#A2001D"/>
<path d="M8.00004 15.9999C11.6963 15.9999 14.8064 13.493 15.7244 10.0869H0.275635C1.19363 13.493 4.30382 15.9999 8.00004 15.9999Z" fill="#A2001D"/>
</g>
<defs>
<clipPath id="clip0_467_1270">
<rect width="16" height="16" fill="white"/>
</clipPath>
</defs>
</svg>
