<svg width="16" height="16" viewBox="0 0 16 16" fill="none" xmlns="http://www.w3.org/2000/svg">
<g clip-path="url(#clip0_467_1303)">
<path d="M0.793813 4.52183C0.28525 5.57358 0 6.75348 0 8.00008C0 9.24667 0.28525 10.4266 0.793813 11.4783L8 12.174L15.2062 11.4783C15.7147 10.4266 16 9.24667 16 8.00008C16 6.75348 15.7147 5.57358 15.2062 4.52183L8 3.82617L0.793813 4.52183Z" fill="black"/>
<path d="M0.794067 11.478C2.088 14.154 4.82829 15.9998 7.99997 15.9998C11.1716 15.9998 13.9119 14.154 15.2059 11.478H0.794067Z" fill="#496E2D"/>
<path d="M0.794067 4.52175H15.2059C13.9119 1.84578 11.1716 0 7.99997 0C4.82829 0 2.088 1.84578 0.794067 4.52175Z" fill="#D80027"/>
<path d="M9.862 6.53711L10.5184 7.44164L11.5814 7.09695L10.924 8.0007L11.5803 8.9052L10.5177 8.5592L9.86022 9.46295L9.8609 8.34542L8.79822 7.99942L9.86128 7.65473L9.862 6.53711Z" fill="#F0F0F0"/>
<path d="M8.07061 10.2608C6.82199 10.2608 5.80974 9.24854 5.80974 7.99991C5.80974 6.75129 6.82199 5.73904 8.07061 5.73904C8.45993 5.73904 8.82627 5.83747 9.14608 6.01079C8.64433 5.52013 7.95821 5.21729 7.20105 5.21729C5.66424 5.21729 4.41846 6.4631 4.41846 7.99988C4.41846 9.53666 5.66427 10.7825 7.20105 10.7825C7.95824 10.7825 8.64436 10.4796 9.14608 9.98897C8.82624 10.1623 8.45996 10.2608 8.07061 10.2608Z" fill="#F0F0F0"/>
</g>
<defs>
<clipPath id="clip0_467_1303">
<rect width="16" height="16" fill="white"/>
</clipPath>
</defs>
</svg>
