<svg width="16" height="16" viewBox="0 0 16 16" fill="none" xmlns="http://www.w3.org/2000/svg">
<g clip-path="url(#clip0_467_1476)">
<path d="M8 16C12.4183 16 16 12.4183 16 8C16 3.58172 12.4183 0 8 0C3.58172 0 0 3.58172 0 8C0 12.4183 3.58172 16 8 16Z" fill="#D80027"/>
<path d="M12.7277 6.56525H9.11603L7.99997 3.13037L6.8839 6.56525H3.27222L6.19412 8.68812L5.07803 12.1231L7.99997 10.0002L10.9219 12.1231L9.80581 8.68815L12.7277 6.56525ZM7.0119 8.4224L7.38931 7.26087H8.61059L8.98803 8.4224V8.42243L7.99997 9.14028L7.01194 8.42243L7.0119 8.4224ZM8.38459 6.56525H7.61537L7.99997 5.3815L8.38459 6.56525ZM9.57975 7.9925L9.34203 7.2609H10.5867L9.57975 7.9925ZM6.65787 7.2609L6.42015 7.9925L5.41319 7.2609H6.65787ZM6.40125 10.3018L6.78587 9.11812L7.40822 9.57025L6.40125 10.3018ZM8.59172 9.57028L9.21406 9.11815L9.59869 10.3019L8.59172 9.57028Z" fill="#FFDA44"/>
</g>
<defs>
<clipPath id="clip0_467_1476">
<rect width="16" height="16" fill="white"/>
</clipPath>
</defs>
</svg>
