<svg width="16" height="16" viewBox="0 0 16 16" fill="none" xmlns="http://www.w3.org/2000/svg">
<g clip-path="url(#clip0_467_1338)">
<path d="M11.4782 0.793813C10.4265 0.28525 9.24655 0 7.99996 0C6.75336 0 5.57346 0.28525 4.52171 0.793813L3.82605 8L4.52171 15.2062C5.57346 15.7147 6.75336 16 7.99996 16C9.24655 16 10.4265 15.7147 11.4782 15.2062L12.1739 8L11.4782 0.793813Z" fill="#FFDA44"/>
<path d="M4.52175 0.793945C1.84578 2.08791 0 4.8282 0 7.99985C0 11.1715 1.84578 13.9118 4.52175 15.2058V0.793945Z" fill="#0052B4"/>
<path d="M11.4783 0.793945V15.2058C14.1542 13.9118 16 11.1715 16 7.99985C16 4.8282 14.1542 2.08791 11.4783 0.793945Z" fill="#0052B4"/>
<path d="M10.2609 8.69553L10.7826 9.39119V6.60857L10.2609 7.30422H8.69566V5.739L9.39131 5.21729H6.60869L7.30434 5.739V7.30422H5.73913L5.21741 6.60857V9.39119L5.73913 8.69553H7.30434V10.2608L6.60869 10.7825H9.39131L8.69566 10.2608V8.69553H10.2609Z" fill="#D80027"/>
<path d="M10.087 7.65224H8.34787V5.91309H7.65224V7.65224H5.91309V8.34787H7.65224V10.087H8.34787V8.34787H10.087V7.65224Z" fill="#F0F0F0"/>
</g>
<defs>
<clipPath id="clip0_467_1338">
<rect width="16" height="16" fill="white"/>
</clipPath>
</defs>
</svg>
