<svg width="16" height="16" viewBox="0 0 16 16" fill="none" xmlns="http://www.w3.org/2000/svg">
<g clip-path="url(#clip0_467_1433)">
<path d="M11.4783 0.793813C10.4266 0.28525 9.24664 0 8.00008 0C6.75352 0 5.57358 0.28525 4.52183 0.793813L3.82617 8L4.52183 15.2062C5.57358 15.7147 6.75352 16 8.00008 16C9.24664 16 10.4266 15.7147 11.4783 15.2062L12.174 8L11.4783 0.793813Z" fill="#FFDA44"/>
<path d="M4.52175 0.793945C1.84581 2.08791 0 4.8282 0 7.99985C0 11.1715 1.84581 13.9118 4.52175 15.2058V0.793945Z" fill="#0052B4"/>
<path d="M11.4783 0.793945V15.2058C14.1542 13.9118 16 11.1715 16 7.99985C16 4.8282 14.1542 2.08791 11.4783 0.793945Z" fill="#D80027"/>
<path d="M10.7825 6.29437H8.86944C8.86944 5.81412 8.48013 5.4248 7.99988 5.4248C7.51963 5.4248 7.13032 5.81412 7.13032 6.29437H5.21729C5.21729 6.76721 5.62919 7.15049 6.10197 7.15049H6.07347C6.07347 7.62337 6.45679 8.00671 6.92966 8.00671C6.92966 8.42537 7.23035 8.77324 7.62747 8.84762L6.95279 10.3708C7.27607 10.5022 7.62938 10.5752 7.99988 10.5752C8.37035 10.5752 8.72369 10.5022 9.04694 10.3708L8.37228 8.84762C8.76941 8.77324 9.0701 8.42537 9.0701 8.00671C9.54297 8.00671 9.92628 7.62337 9.92628 7.15049H9.89775C10.3706 7.15049 10.7825 6.76718 10.7825 6.29437Z" fill="#FF9811"/>
<path d="M8.00007 7.47803L6.86963 7.99978V9.04325L8.00007 9.7389L9.1305 9.04325V7.99978L8.00007 7.47803Z" fill="#0052B4"/>
<path d="M6.86963 6.95654H9.1305V8.00001H6.86963V6.95654Z" fill="#D80027"/>
</g>
<defs>
<clipPath id="clip0_467_1433">
<rect width="16" height="16" fill="white"/>
</clipPath>
</defs>
</svg>
