<svg width="16" height="16" viewBox="0 0 16 16" fill="none" xmlns="http://www.w3.org/2000/svg">
<g clip-path="url(#clip0_467_1456)">
<path d="M8 16C12.4183 16 16 12.4183 16 8C16 3.58172 12.4183 0 8 0C3.58172 0 0 3.58172 0 8C0 12.4183 3.58172 16 8 16Z" fill="#FFDA44"/>
<path d="M16 7.9998C16 5.25414 14.6166 2.83183 12.509 1.39111H3.49103C1.38344 2.83183 0 5.25414 0 7.9998C0 10.7455 1.38344 13.1678 3.49103 14.6085H12.509C14.6166 13.1678 16 10.7455 16 7.9998Z" fill="#A2001D"/>
<path d="M6.26086 5.91311H9.73911V4.52183L9.04346 4.86964L7.99999 3.82617L6.95652 4.86964L6.26086 4.52183V5.91311Z" fill="#FFDA44"/>
<path d="M11.1304 7.99997H9.39198C9.46016 7.88203 9.49979 7.74556 9.49979 7.59956C9.49979 7.15622 9.14038 6.79688 8.6971 6.79688C8.39082 6.79688 8.12482 6.9685 7.98948 7.22069C7.85413 6.96847 7.58813 6.79688 7.28185 6.79688C6.83857 6.79688 6.47916 7.15622 6.47916 7.59956C6.47916 7.74559 6.51885 7.88206 6.58698 7.99997H4.86951C4.86951 8.53194 5.33285 8.96316 5.86479 8.96316H5.83273C5.83273 9.3995 6.12294 9.76794 6.52085 9.88628L5.73907 10.6681L6.47691 11.406L7.52357 10.3593C7.56457 10.3743 7.60698 10.3863 7.65082 10.3946L7.01838 11.8226C7.32144 11.9458 7.65266 12.0142 8.00001 12.0142C8.34732 12.0142 8.67854 11.9458 8.98163 11.8226L8.34919 10.3946C8.39301 10.3864 8.43541 10.3743 8.47638 10.3593L9.52304 11.406L10.2608 10.6681L9.47904 9.88631C9.87691 9.76791 10.1672 9.39953 10.1672 8.96319H10.1351C10.6671 8.96316 11.1304 8.53194 11.1304 7.99997Z" fill="#FFDA44"/>
<path d="M7.99994 8.52197L6.86951 9.04369V10.0872L7.99994 10.7828L9.13038 10.0872V9.04369L7.99994 8.52197Z" fill="#6DA544"/>
<path d="M6.86951 8H9.13038V9.39131H6.86951V8Z" fill="#0052B4"/>
</g>
<defs>
<clipPath id="clip0_467_1456">
<rect width="16" height="16" fill="white"/>
</clipPath>
</defs>
</svg>
