<svg width="16" height="16" viewBox="0 0 16 16" fill="none" xmlns="http://www.w3.org/2000/svg">
<g clip-path="url(#clip0_467_1400)">
<path d="M8 16C12.4183 16 16 12.4183 16 8C16 3.58172 12.4183 0 8 0C3.58172 0 0 3.58172 0 8C0 12.4183 3.58172 16 8 16Z" fill="#338AF3"/>
<path d="M3.82617 8.6958H12.174V9.73927H3.82617V8.6958Z" fill="#818085"/>
<path d="M5.21729 5.56534L7.99988 5.91321L10.7825 5.56534V3.89578L9.66944 4.45231L7.99988 2.78271L6.33032 4.45231L5.21729 3.89578V5.56534Z" fill="#FFDA44"/>
<path d="M4.52177 10.7828H3.47827V8.86976L3.82612 8.34798L3.47827 7.82626V6.60889H4.52177V10.7828Z" fill="#F0F0F0"/>
<path d="M12.5218 10.7828H11.4783V6.60889H12.5218V7.82623L12.1739 8.35673L12.5218 8.86982V10.7828Z" fill="#F0F0F0"/>
<path d="M3.47827 7.82617H12.5217V8.86964H3.47827V7.82617Z" fill="#ACABB1"/>
<path d="M7.99988 12.1741C6.46554 12.1741 5.21729 10.9258 5.21729 9.39149V5.56543H10.7825V9.39149C10.7825 10.9258 9.53422 12.1741 7.99988 12.1741Z" fill="#F0F0F0"/>
<path d="M8.00011 11.1306C7.04114 11.1306 6.26099 10.3504 6.26099 9.39145V6.60889H9.73924V9.39145C9.73924 10.3504 8.95908 11.1306 8.00011 11.1306Z" fill="#0052B4"/>
<path d="M5.21729 5.56543H6.26075V6.6089H5.21729V5.56543Z" fill="#D80027"/>
<path d="M9.73901 5.56543H10.7825V6.6089H9.73901V5.56543Z" fill="#D80027"/>
<path d="M9.73901 7.82617H10.7825V8.86964H9.73901V7.82617Z" fill="#D80027"/>
<path d="M5.21729 7.82617H6.26075V8.86964H5.21729V7.82617Z" fill="#D80027"/>
<path d="M7.47803 5.56543H8.5215V6.6089H7.47803V5.56543Z" fill="#D80027"/>
<path d="M7.99978 11.1308C7.81803 11.1308 7.64281 11.1027 7.47803 11.0508V12.1246C7.64715 12.1568 7.8214 12.1743 7.99978 12.1743C8.17815 12.1743 8.3524 12.1568 8.52153 12.1246V11.0508C8.35675 11.1027 8.18153 11.1308 7.99978 11.1308Z" fill="#D80027"/>
<path d="M6.28392 9.67383L5.45117 10.5066C5.59555 10.8353 5.80155 11.1309 6.05473 11.3787L6.79223 10.6412C6.52905 10.3869 6.3457 10.0507 6.28392 9.67383Z" fill="#D80027"/>
<path d="M10.5486 10.5066L9.7158 9.67383C9.65399 10.0506 9.47068 10.3869 9.20752 10.6412L9.94502 11.3787C10.1981 11.1309 10.4042 10.8353 10.5486 10.5066Z" fill="#D80027"/>
</g>
<defs>
<clipPath id="clip0_467_1400">
<rect width="16" height="16" fill="white"/>
</clipPath>
</defs>
</svg>
