<svg width="16" height="16" viewBox="0 0 16 16" fill="none" xmlns="http://www.w3.org/2000/svg">
<g clip-path="url(#clip0_467_1334)">
<path d="M8 16C12.4183 16 16 12.4183 16 8C16 3.58172 12.4183 0 8 0C3.58172 0 0 3.58172 0 8C0 12.4183 3.58172 16 8 16Z" fill="#F0F0F0"/>
<path d="M5.21741 7.9998V15.5022C6.08403 15.8238 7.02144 15.9998 8 15.9998C12.4183 15.9998 16 12.418 16 7.9998C16 3.58155 5.21741 7.9998 5.21741 7.9998Z" fill="#6DA544"/>
<path d="M8 0C7.02144 0 6.08403 0.176031 5.21741 0.497594V8H16C16 3.58175 12.4183 0 8 0Z" fill="#D80027"/>
</g>
<defs>
<clipPath id="clip0_467_1334">
<rect width="16" height="16" fill="white"/>
</clipPath>
</defs>
</svg>
