<svg width="16" height="16" viewBox="0 0 16 16" fill="none" xmlns="http://www.w3.org/2000/svg">
<g clip-path="url(#clip0_467_1373)">
<path d="M8 16C12.4183 16 16 12.4183 16 8C16 6.65741 15.6687 5.39231 15.0843 4.28125L7.99059 8.00937L11.7188 0.915688C10.6077 0.33125 9.34259 0 8 0C3.58175 0 0 3.58175 0 8C0 10.2092 0.895438 12.2092 2.34313 13.6569C3.79084 15.1046 5.79084 16 8 16Z" fill="#0052B4"/>
<path d="M15.0758 4.2901C14.7096 3.5931 14.2336 2.93869 13.6475 2.35263C13.0614 1.76657 12.4071 1.29047 11.71 0.924316L2.33374 13.6663L15.0758 4.2901Z" fill="#F0F0F0"/>
<path d="M2.33374 13.6663L15.0758 4.29001C14.7096 3.59301 14.2336 2.9386 13.6475 2.35254L2.33374 13.6663Z" fill="#FF9811"/>
<path d="M6.94723 4.69113L5.97023 5.15069L6.49051 6.09694L5.42957 5.89397L5.29513 6.96572L4.55613 6.17744L3.81713 6.96572L3.68276 5.89397L2.62182 6.09688L3.14204 5.15066L2.16504 4.69113L3.14207 4.23153L2.62182 3.28535L3.6827 3.48825L3.81716 2.4165L4.55613 3.20479L5.29513 2.4165L5.42957 3.48825L6.49054 3.28535L5.97026 4.23157L6.94723 4.69113Z" fill="#F0F0F0"/>
</g>
<defs>
<clipPath id="clip0_467_1373">
<rect width="16" height="16" fill="white"/>
</clipPath>
</defs>
</svg>
