<svg width="16" height="16" viewBox="0 0 16 16" fill="none" xmlns="http://www.w3.org/2000/svg">
<g clip-path="url(#clip0_467_1726)">
<path d="M8 16C12.4183 16 16 12.4183 16 8C16 3.58172 12.4183 0 8 0C3.58172 0 0 3.58172 0 8C0 12.4183 3.58172 16 8 16Z" fill="#FFDA44"/>
<path d="M9.21663 15.908C10.5178 15.7095 11.7154 15.1972 12.7309 14.4512L8 8L9.21663 15.908Z" fill="#D80027"/>
<path d="M6.78332 0.0917969C5.48223 0.290297 4.28454 0.802672 3.26904 1.54858L7.99998 7.99983L6.78332 0.0917969Z" fill="#D80027"/>
<path d="M3.26904 14.4512C4.28448 15.1971 5.48217 15.7095 6.78326 15.9081L7.99998 8L3.26904 14.4512Z" fill="#D80027"/>
<path d="M1.54882 3.26904C0.802885 4.28454 0.290572 5.4822 0.092041 6.78332L8.00007 7.99998L1.54882 3.26904Z" fill="#D80027"/>
<path d="M0.092041 9.21663C0.290541 10.5178 0.802916 11.7154 1.54885 12.7309L8.00007 8L0.092041 9.21663Z" fill="#D80027"/>
<path d="M15.908 6.78329C15.7095 5.4822 15.1972 4.28451 14.4512 3.26904L8 7.99995L15.908 6.78329Z" fill="#D80027"/>
<path d="M12.7309 1.54855C11.7154 0.802641 10.5178 0.290297 9.21663 0.0917969L8 7.99983L12.7309 1.54855Z" fill="#D80027"/>
<path d="M14.4513 12.7309C15.1972 11.7154 15.7095 10.5177 15.9081 9.21666L8 8L14.4513 12.7309Z" fill="#D80027"/>
<path d="M8.00012 10.7825C9.53691 10.7825 10.7827 9.53666 10.7827 7.99988C10.7827 6.46309 9.53691 5.21729 8.00012 5.21729C6.46334 5.21729 5.21753 6.46309 5.21753 7.99988C5.21753 9.53666 6.46334 10.7825 8.00012 10.7825Z" fill="#D80027"/>
<path d="M8.00005 10.087C9.15266 10.087 10.087 9.15266 10.087 8.00005C10.087 6.84745 9.15266 5.91309 8.00005 5.91309C6.84745 5.91309 5.91309 6.84745 5.91309 8.00005C5.91309 9.15266 6.84745 10.087 8.00005 10.087Z" fill="#FFDA44"/>
</g>
<defs>
<clipPath id="clip0_467_1726">
<rect width="16" height="16" fill="white"/>
</clipPath>
</defs>
</svg>
