<svg width="16" height="16" viewBox="0 0 16 16" fill="none" xmlns="http://www.w3.org/2000/svg">
<g clip-path="url(#clip0_467_1365)">
<path d="M10.7826 0.497594C9.91592 0.176031 8.97854 0 7.99998 0C7.02142 0 6.08404 0.176031 5.21738 0.497594L4.52173 8L5.21738 15.5024C6.08404 15.824 7.02142 16 7.99998 16C8.97854 16 9.91592 15.824 10.7826 15.5024L11.4782 8L10.7826 0.497594Z" fill="#FFDA44"/>
<path d="M16 7.99993C16 4.56025 13.829 1.62787 10.7826 0.497559V15.5024C13.829 14.372 16 11.4397 16 7.99993Z" fill="#D80027"/>
<path d="M0 7.99993C0 11.4397 2.171 14.372 5.21741 15.5024V0.497559C2.171 1.62787 0 4.56025 0 7.99993Z" fill="#6DA544"/>
</g>
<defs>
<clipPath id="clip0_467_1365">
<rect width="16" height="16" fill="white"/>
</clipPath>
</defs>
</svg>
