<svg width="16" height="16" viewBox="0 0 16 16" fill="none" xmlns="http://www.w3.org/2000/svg">
<g clip-path="url(#clip0_467_1443)">
<path d="M8.00007 16C8.97863 16 9.91604 15.824 10.7827 15.5024L11.1305 8L10.7827 0.497594C9.91604 0.176031 8.97863 0 8.00007 0C7.0215 0 6.0841 0.176031 5.21747 0.497594L4.86963 8L5.21744 15.5024C6.0841 15.824 7.0215 16 8.00007 16Z" fill="#0052B4"/>
<path d="M0 7.99996C0 11.4397 2.171 14.372 5.21741 15.5024V0.497559C2.171 1.6279 0 4.56025 0 7.99996Z" fill="#A2001D"/>
<path d="M10.7827 0.497559V15.5024C13.8291 14.372 16.0001 11.4397 16.0001 7.99996C16.0001 4.56025 13.8291 1.6279 10.7827 0.497559Z" fill="#A2001D"/>
<path d="M3.82617 8H4.52183V10.7826H3.82617V8Z" fill="#FFDA44"/>
<path d="M1.04346 8H1.73911V10.7826H1.04346V8Z" fill="#FFDA44"/>
<path d="M2.78257 9.73897C3.16677 9.73897 3.47823 9.42751 3.47823 9.04331C3.47823 8.65911 3.16677 8.34766 2.78257 8.34766C2.39837 8.34766 2.08691 8.65911 2.08691 9.04331C2.08691 9.42751 2.39837 9.73897 2.78257 9.73897Z" fill="#FFDA44"/>
<path d="M2.78263 6.95637C2.97472 6.95637 3.13044 6.80065 3.13044 6.60855C3.13044 6.41646 2.97472 6.26074 2.78263 6.26074C2.59054 6.26074 2.43481 6.41646 2.43481 6.60855C2.43481 6.80065 2.59054 6.95637 2.78263 6.95637Z" fill="#FFDA44"/>
<path d="M2.08691 10.0869H3.47823V10.7826H2.08691V10.0869Z" fill="#FFDA44"/>
<path d="M2.08691 7.3042H3.47823V7.99986H2.08691V7.3042Z" fill="#FFDA44"/>
<path d="M2.78248 4.17383L3.02886 4.93195H3.82598L3.18114 5.40052L3.42733 6.15864L2.78248 5.69008L2.13767 6.15864L2.38386 5.40052L1.73901 4.93195H2.53614L2.78248 4.17383Z" fill="#FFDA44"/>
</g>
<defs>
<clipPath id="clip0_467_1443">
<rect width="16" height="16" fill="white"/>
</clipPath>
</defs>
</svg>
