<svg width="16" height="16" viewBox="0 0 16 16" fill="none" xmlns="http://www.w3.org/2000/svg">
<g clip-path="url(#clip0_467_1604)">
<path d="M8 16C12.4183 16 16 12.4183 16 8C16 3.58172 12.4183 0 8 0C3.58172 0 0 3.58172 0 8C0 12.4183 3.58172 16 8 16Z" fill="#338AF3"/>
<path d="M7.74783 13.037C7.53218 13.0266 7.35374 12.8864 7.28383 12.6961C7.16036 12.8572 6.94818 12.9382 6.73914 12.8843C6.52974 12.8304 6.38333 12.6572 6.35305 12.4561C6.1993 12.589 5.9753 12.6251 5.78158 12.5302C5.58749 12.4349 5.47899 12.2356 5.49011 12.0328C5.31308 12.1323 5.0863 12.1225 4.91552 11.9904C4.74508 11.8582 4.67865 11.6415 4.73011 11.445C4.53671 11.5069 4.3169 11.4519 4.17602 11.2881C4.03515 11.1246 4.01355 10.8989 4.10333 10.717C3.90158 10.7385 3.69708 10.6404 3.59202 10.4519C3.48661 10.2634 3.51099 10.0377 3.63583 9.87726C3.43374 9.85779 3.25286 9.72039 3.18818 9.51448C3.12315 9.30858 3.19271 9.09223 3.34749 8.96039C3.1534 8.90051 3.00452 8.72939 2.98261 8.51483C2.96071 8.30023 3.07202 8.10301 3.24974 8.00492C3.07199 7.90751 2.95999 7.71033 2.98121 7.49604H2.98155C3.00277 7.28108 3.15165 7.10964 3.34536 7.04908C3.19058 6.91761 3.12033 6.70161 3.18468 6.49567C3.24902 6.28942 3.42952 6.15167 3.63164 6.13148C3.50677 5.97148 3.48174 5.7457 3.58643 5.55689C3.69111 5.36836 3.89565 5.26992 4.09774 5.29114C4.0073 5.10923 4.02852 4.88348 4.16905 4.71933C4.30924 4.55551 4.52905 4.5002 4.7228 4.56142C4.67061 4.36523 4.73671 4.1482 4.90715 4.0157C5.07724 3.88314 5.30402 3.87304 5.48105 3.97183C5.46958 3.76908 5.57774 3.56973 5.77149 3.47408C5.9649 3.37876 6.18924 3.41426 6.3433 3.54711C6.37286 3.34611 6.5193 3.1722 6.72833 3.11789C6.93702 3.06364 7.14921 3.14398 7.27302 3.30467C7.34293 3.11442 7.52102 2.97389 7.73668 2.96311C7.95199 2.95201 8.14327 3.07301 8.23233 3.25498C8.33877 3.08245 8.54121 2.9802 8.75443 3.01254C8.96799 3.04454 9.13183 3.20173 9.18261 3.39829C9.32174 3.25008 9.54086 3.19133 9.7433 3.26573C9.94608 3.34051 10.0748 3.52764 10.0845 3.73076C10.2504 3.61392 10.4772 3.60033 10.6605 3.71442C10.8438 3.82817 10.9318 4.0372 10.9005 4.23789C11.0866 4.15686 11.3113 4.1892 11.4678 4.33736C11.6244 4.48589 11.6689 4.70814 11.5979 4.89839C11.7965 4.85629 12.0101 4.93283 12.1339 5.10986C12.2577 5.28654 12.2567 5.51333 12.1492 5.68551C12.352 5.68411 12.5458 5.80239 12.6317 6.00029C12.7172 6.19854 12.6703 6.42083 12.5301 6.56795C12.7294 6.60761 12.8953 6.76239 12.9391 6.97386C12.9826 7.18533 12.8918 7.39298 12.7252 7.50883C12.9117 7.58783 13.0431 7.77248 13.0435 7.98814V7.99511V7.99964C13.0435 8.21526 12.9127 8.40033 12.7263 8.47998C12.8932 8.59514 12.9847 8.80276 12.9412 9.01423C12.8981 9.2257 12.7326 9.38086 12.5332 9.4212C12.6738 9.56798 12.7214 9.78989 12.6362 9.98851C12.551 10.1868 12.3572 10.3054 12.1541 10.3043C12.2619 10.4765 12.2637 10.7033 12.1402 10.8803C12.0167 11.0574 11.8035 11.1346 11.6049 11.0929C11.6762 11.2828 11.632 11.5054 11.4759 11.6543C11.3193 11.8028 11.095 11.8355 10.9089 11.7551C10.9406 11.9555 10.8529 12.1649 10.6699 12.2793C10.487 12.3938 10.2602 12.3805 10.0939 12.264C10.0845 12.4671 9.95652 12.6546 9.75411 12.7298C9.55171 12.8049 9.75411 12.7298 9.75377 12.7298C9.55133 12.8045 9.33221 12.7461 9.19274 12.5983C9.14264 12.7952 8.97918 12.9527 8.76561 12.9855C8.55239 13.0178 8.34961 12.9162 8.24283 12.7437C8.15796 12.9187 7.97849 13.0376 7.77396 13.0376C7.76524 13.0377 7.75655 13.0374 7.74783 13.037Z" fill="#F3F3F3"/>
<path d="M7.99998 11.4785C9.92096 11.4785 11.4782 9.92121 11.4782 8.00022C11.4782 6.07924 9.92096 4.52197 7.99998 4.52197C6.07899 4.52197 4.52173 6.07924 4.52173 8.00022C4.52173 9.92121 6.07899 11.4785 7.99998 11.4785Z" fill="#338AF3"/>
<path d="M8.76139 6.81922C8.93226 6.69247 9.04351 6.48988 9.04351 6.26075V5.91294C9.04351 5.52872 8.73208 5.21729 8.34786 5.21729H7.65223C7.26801 5.21729 6.95658 5.52872 6.95658 5.91294V6.26075C6.95658 6.48988 7.06783 6.69247 7.2387 6.81922L6.60876 13.2173C6.60876 13.2173 6.95658 13.5651 8.00008 13.5651C9.04358 13.5651 9.39139 13.2173 9.39139 13.2173L8.76139 6.81922Z" fill="#BDBCC1"/>
<path d="M8 5.21729L8.60432 7.07722H10.5601L8.97791 8.22685L9.58219 10.0868L8 8.93732L6.41775 10.0868L7.02216 8.22685L5.43994 7.07722H7.39566L8 5.21729Z" fill="#F0F0F0"/>
</g>
<defs>
<clipPath id="clip0_467_1604">
<rect width="16" height="16" fill="white"/>
</clipPath>
</defs>
</svg>
