<svg width="16" height="16" viewBox="0 0 16 16" fill="none" xmlns="http://www.w3.org/2000/svg">
<g clip-path="url(#clip0_467_1378)">
<path d="M8 16C12.4183 16 16 12.4183 16 8C16 3.58172 12.4183 0 8 0C3.58172 0 0 3.58172 0 8C0 12.4183 3.58172 16 8 16Z" fill="#F0F0F0"/>
<path d="M15.9314 6.95633C15.7107 5.26927 14.9529 3.63908 13.6568 2.34298C12.3607 1.04689 10.7305 0.289047 9.04346 0.0683594L9.04349 6.95633H15.9314Z" fill="#0052B4"/>
<path d="M6.95657 0.0683594C5.26951 0.289047 3.63929 1.04686 2.3432 2.34295C1.04713 3.63908 0.289291 5.2693 0.0686035 6.95639L6.9566 6.95636L6.95657 0.0683594Z" fill="#0052B4"/>
<path d="M0.0686035 9.04346C0.289291 10.7305 1.04713 12.3608 2.3432 13.6568C3.63929 14.9529 5.26948 15.7107 6.9566 15.9315L6.95657 9.04352L0.0686035 9.04346Z" fill="#0052B4"/>
<path d="M9.04346 15.9314C10.7305 15.7107 12.3607 14.9529 13.6568 13.6568C14.9529 12.3607 15.7107 10.7305 15.9314 9.04346H9.04346V15.9314Z" fill="#0052B4"/>
<path d="M10.7308 5.07615C10.7308 4.96977 10.8173 4.8833 10.9237 4.8833H11.3369C11.9902 4.8833 12.5216 4.35187 12.5216 3.69865C12.5216 3.04543 11.9902 2.51396 11.3369 2.51396H10.9445C10.8164 2.41774 10.6445 2.3584 10.455 2.3584C10.0596 2.3584 9.73905 2.6148 9.73905 2.93112C9.73905 3.24437 10.0535 3.49849 10.4436 3.50343L10.4434 3.50571H11.3369C11.4433 3.50571 11.5298 3.59221 11.5298 3.69859C11.5298 3.80496 11.4433 3.89143 11.3369 3.89143H10.9237C10.2704 3.89143 9.73901 4.42287 9.73901 5.07609C9.73901 5.7293 10.2704 6.26077 10.9237 6.26077H12.5216V5.26896H10.9237C10.8173 5.26899 10.7308 5.18252 10.7308 5.07615Z" fill="#F0F0F0"/>
<path d="M4.47002 5.07615C4.47002 4.96977 4.55649 4.8833 4.6629 4.8833H5.07615C5.7294 4.8833 6.26087 4.35187 6.26087 3.69865C6.26087 3.04543 5.72943 2.51396 5.07615 2.51396H4.68371C4.55562 2.41774 4.38377 2.3584 4.19421 2.3584C3.7988 2.3584 3.47827 2.6148 3.47827 2.93112C3.47827 3.24437 3.79268 3.49849 4.1828 3.50343L4.18262 3.50571H5.07618C5.18258 3.50571 5.26905 3.59221 5.26905 3.69859C5.26905 3.80496 5.18258 3.89143 5.07618 3.89143H4.66293C4.00968 3.89143 3.47827 4.42287 3.47827 5.07609C3.47827 5.7293 4.00965 6.26077 4.66293 6.26077H6.26083V5.26896H4.6629C4.55649 5.26899 4.47002 5.18252 4.47002 5.07615Z" fill="#F0F0F0"/>
<path d="M10.7308 12.457C10.7308 12.3506 10.8173 12.2642 10.9237 12.2642H11.337C11.9902 12.2642 12.5217 11.7327 12.5217 11.0795C12.5217 10.4263 11.9902 9.89482 11.337 9.89482H10.9445C10.8164 9.7986 10.6446 9.73926 10.455 9.73926C10.0596 9.73926 9.73905 9.9957 9.73905 10.312C9.73905 10.6252 10.0535 10.8794 10.4436 10.8843L10.4434 10.8866H11.3369C11.4433 10.8866 11.5298 10.9731 11.5298 11.0794C11.5298 11.1858 11.4433 11.2723 11.3369 11.2723H10.9237C10.2704 11.2723 9.73901 11.8037 9.73901 12.4569C9.73901 13.1102 10.2704 13.6416 10.9237 13.6416H12.5216V12.6499H10.9237C10.8173 12.6499 10.7308 12.5634 10.7308 12.457Z" fill="#F0F0F0"/>
<path d="M4.47005 12.457C4.47005 12.3506 4.55652 12.2642 4.66293 12.2642H5.07618C5.72943 12.2642 6.2609 11.7327 6.2609 11.0795C6.2609 10.4263 5.72946 9.89482 5.07618 9.89482H4.68374C4.55565 9.7986 4.3838 9.73926 4.19424 9.73926C3.7988 9.73926 3.47827 9.9957 3.47827 10.312C3.47827 10.6252 3.79268 10.8794 4.1828 10.8843L4.18262 10.8866H5.07618C5.18258 10.8866 5.26905 10.9731 5.26905 11.0794C5.26905 11.1858 5.18258 11.2723 5.07618 11.2723H4.66293C4.00968 11.2723 3.47827 11.8037 3.47827 12.4569C3.47827 13.1102 4.00965 13.6416 4.66293 13.6416H6.26087V12.6499H4.66293C4.55652 12.6499 4.47005 12.5634 4.47005 12.457Z" fill="#F0F0F0"/>
</g>
<defs>
<clipPath id="clip0_467_1378">
<rect width="16" height="16" fill="white"/>
</clipPath>
</defs>
</svg>
