<svg width="16" height="16" viewBox="0 0 16 16" fill="none" xmlns="http://www.w3.org/2000/svg">
<g clip-path="url(#clip0_467_1390)">
<path d="M8 16C12.4183 16 16 12.4183 16 8C16 3.58172 12.4183 0 8 0C3.58172 0 0 3.58172 0 8C0 12.4183 3.58172 16 8 16Z" fill="#496E2D"/>
<path d="M7.99988 9.24253C6.66782 9.24253 5.555 8.30634 5.28197 7.05618C5.24003 7.24837 5.21729 7.44765 5.21729 7.65246C5.21729 9.18931 6.46307 10.4351 7.99988 10.4351C9.53669 10.4351 10.7825 9.18928 10.7825 7.65246C10.7825 7.44765 10.7597 7.24837 10.7178 7.05615C10.4448 8.30637 9.33194 9.24253 7.99988 9.24253Z" fill="#FFDA44"/>
<path d="M7.99974 5.56543L8.25874 6.36259H9.09696L8.41887 6.85524L8.67787 7.6524L7.99974 7.15971L7.32165 7.6524L7.58068 6.85524L6.90259 6.36259H7.74074L7.99974 5.56543Z" fill="#FFDA44"/>
</g>
<defs>
<clipPath id="clip0_467_1390">
<rect width="16" height="16" fill="white"/>
</clipPath>
</defs>
</svg>
