<svg width="16" height="16" viewBox="0 0 16 16" fill="none" xmlns="http://www.w3.org/2000/svg">
<g clip-path="url(#clip0_467_1464)">
<path d="M16 8C16 12.4183 12.4183 16 8 16C3.58175 16 0 12.4183 0 8C0 8.00191 8 0.000875 8 0C12.4183 0 16 3.58175 16 8Z" fill="#0052B4"/>
<path d="M7.97864 7.99992H8.00004C8.00004 7.99273 8.00004 7.98573 8.00004 7.97852C7.99292 7.98567 7.98579 7.9928 7.97864 7.99992Z" fill="#F0F0F0"/>
<path d="M8 4.17391C8 2.76625 8 1.84391 8 0H7.99866C3.58097 0.00075 0 3.58216 0 8H4.17391V5.64966L6.52425 8H7.97862C7.98575 7.99288 7.99288 7.98575 8.00003 7.97859C8.00003 7.43963 8.00003 6.95872 8.00003 6.52431L5.64962 4.17391H8Z" fill="#F0F0F0"/>
<path d="M4.04733 1.04346C2.79611 1.75593 1.75589 2.79611 1.04346 4.04733V7.99999H3.13043V3.13049V3.13043H7.99999C7.99999 2.47221 7.99999 1.84514 7.99999 1.04346H4.04733Z" fill="#D80027"/>
<path d="M8.00004 7.01611L5.1577 4.17383H4.17395V4.17389L7.99998 7.99989H8.00004C8.00004 7.99989 8.00004 7.32155 8.00004 7.01611Z" fill="#D80027"/>
<path d="M9.04346 4.17383V7.99989C9.04346 9.86364 11.4782 10.4347 11.4782 10.4347C11.4782 10.4347 13.913 9.86364 13.913 7.99989V4.17383H9.04346Z" fill="#338AF3"/>
<path d="M9.04346 8C9.04346 9.86375 11.4782 10.4348 11.4782 10.4348C11.4782 10.4348 13.913 9.86375 13.913 8H9.04346Z" fill="#A2001D"/>
<path d="M12.5218 5.91297H11.8261V5.21729H11.1304V5.91297H10.4348V6.6086H11.1304V8.69553H11.8261V6.6086H12.5218V5.91297Z" fill="black"/>
</g>
<defs>
<clipPath id="clip0_467_1464">
<rect width="16" height="16" fill="white"/>
</clipPath>
</defs>
</svg>
