<svg width="16" height="16" viewBox="0 0 16 16" fill="none" xmlns="http://www.w3.org/2000/svg">
<g clip-path="url(#clip0_467_1361)">
<path d="M8 16C12.4183 16 16 12.4183 16 8C16 3.58172 12.4183 0 8 0C3.58172 0 0 3.58172 0 8C0 12.4183 3.58172 16 8 16Z" fill="#D80027"/>
<path d="M2.78259 4.17383H13.2174V11.826H2.78259V4.17383Z" fill="#6DA544"/>
<path d="M9.28839 10.2608C8.03976 10.2608 7.02751 9.24854 7.02751 7.99991C7.02751 6.75129 8.03976 5.73904 9.28839 5.73904C9.6777 5.73904 10.044 5.83747 10.3639 6.01079C9.86214 5.52013 9.17604 5.21729 8.41882 5.21729C6.88207 5.21729 5.63623 6.4631 5.63623 7.99988C5.63623 9.53666 6.88207 10.7825 8.41882 10.7825C9.17604 10.7825 9.86217 10.4796 10.3639 9.98897C10.044 10.1623 9.6777 10.2608 9.28839 10.2608Z" fill="#F0F0F0"/>
</g>
<defs>
<clipPath id="clip0_467_1361">
<rect width="16" height="16" fill="white"/>
</clipPath>
</defs>
</svg>
