<svg width="16" height="16" viewBox="0 0 16 16" fill="none" xmlns="http://www.w3.org/2000/svg">
<g clip-path="url(#clip0_467_1350)">
<path d="M8 16C12.4183 16 16 12.4183 16 8C16 3.58172 12.4183 0 8 0C3.58172 0 0 3.58172 0 8C0 12.4183 3.58172 16 8 16Z" fill="#F0F0F0"/>
<path d="M7.65222 8.00005H16C16 7.27796 15.9038 6.57852 15.7244 5.91309H7.65222V8.00005Z" fill="#D80027"/>
<path d="M7.65222 3.82623H14.8258C14.3361 3.0271 13.71 2.32076 12.9799 1.73926H7.65222V3.82623Z" fill="#D80027"/>
<path d="M8.00005 16.0004C9.88283 16.0004 11.6134 15.3496 12.98 14.2612H3.02014C4.38674 15.3496 6.11727 16.0004 8.00005 16.0004Z" fill="#D80027"/>
<path d="M1.17423 12.1739H14.8259C15.219 11.5324 15.5239 10.8311 15.7244 10.0869H0.275635C0.476166 10.8311 0.781072 11.5324 1.17423 12.1739Z" fill="#D80027"/>
<path d="M8 8C8 3.58175 8 3.06087 8 0C3.58175 0 0 3.58175 0 8H8Z" fill="#0052B4"/>
<path d="M5.3198 6.84757C4.22724 6.84757 3.34155 5.96185 3.34155 4.86932C3.34155 3.77679 4.22727 2.89107 5.3198 2.89107C5.66046 2.89107 5.98099 2.97723 6.26083 3.12885C5.82183 2.69957 5.22146 2.43457 4.55893 2.43457C3.21427 2.43457 2.12415 3.52466 2.12415 4.86935C2.12415 6.21404 3.21427 7.30413 4.55893 7.30413C5.22146 7.30413 5.82183 7.03913 6.26083 6.60985C5.98099 6.76141 5.66049 6.84757 5.3198 6.84757Z" fill="#FFDA44"/>
<path d="M5.87732 3.47803L6.22854 4.21246L7.0217 4.02921L6.66651 4.76168L7.30438 5.26753L6.5102 5.44656L6.51241 6.26065L5.87732 5.75134L5.2422 6.26065L5.24438 5.44656L4.4502 5.26753L5.08807 4.76168L4.73285 4.02921L5.52607 4.21246L5.87732 3.47803Z" fill="#FFDA44"/>
</g>
<defs>
<clipPath id="clip0_467_1350">
<rect width="16" height="16" fill="white"/>
</clipPath>
</defs>
</svg>
