<svg width="16" height="16" viewBox="0 0 16 16" fill="none" xmlns="http://www.w3.org/2000/svg">
<g clip-path="url(#clip0_467_1479)">
<path d="M8 16C12.4183 16 16 12.4183 16 8C16 3.58172 12.4183 0 8 0C3.58172 0 0 3.58172 0 8C0 12.4183 3.58172 16 8 16Z" fill="#F0F0F0"/>
<path d="M4.32407 11.1304L2.34338 13.6565C3.79101 15.1043 5.79079 15.9999 7.99998 15.9999C11.3072 15.9999 14.1451 13.9928 15.3634 11.1304H4.32407Z" fill="#FFDA44"/>
<path d="M15.3759 4.89853C14.1644 2.02069 11.3184 0 7.99998 0C5.79079 0 3.79101 0.895594 2.34338 2.34341L4.34682 4.89853H15.3759Z" fill="#496E2D"/>
<path d="M1.73914 5.88428V10.0872H15.7244C15.9039 9.42181 16 8.72231 16 8.00022C16 7.26765 15.9013 6.55828 15.7169 5.88428H1.73914Z" fill="black"/>
<path d="M2.34314 2.34326C-0.781047 5.46745 -0.781047 10.5328 2.34314 13.657C3.63417 12.366 4.87583 11.1243 8.00002 8.00014L2.34314 2.34326Z" fill="#A2001D"/>
<path d="M3.2378 5.91309L3.75577 7.50734H5.43221L4.07602 8.49271L4.59396 10.087L3.2378 9.10168L1.88158 10.087L2.39964 8.49271L1.04346 7.50734H2.71977L3.2378 5.91309Z" fill="#FFDA44"/>
<path d="M1.72205 8H4.75405V9.39131H1.72205V8Z" fill="#F0F0F0"/>
<path d="M5.32815 6.40502L4.83624 5.91309L3.23786 7.51146L1.63949 5.91309L1.14758 6.40502L2.74736 8.00196L1.14758 9.60177L1.63949 10.087L3.23786 8.49152L4.83624 10.087L5.32815 9.60177L3.72836 8.00196L5.32815 6.40502Z" fill="black"/>
</g>
<defs>
<clipPath id="clip0_467_1479">
<rect width="16" height="16" fill="white"/>
</clipPath>
</defs>
</svg>
