<svg width="16" height="16" viewBox="0 0 16 16" fill="none" xmlns="http://www.w3.org/2000/svg">
<g clip-path="url(#clip0_467_1493)">
<path d="M8 16C12.4183 16 16 12.4183 16 8C16 3.58172 12.4183 0 8 0C3.58172 0 0 3.58172 0 8C0 12.4183 3.58172 16 8 16Z" fill="#F0F0F0"/>
<path d="M2.34317 13.6569C2.67876 13.9924 3.03682 14.2917 3.41242 14.5552L14.5552 3.41242C14.2917 3.03682 13.9924 2.67876 13.6568 2.34317C13.3212 2.00757 12.9632 1.70832 12.5876 1.44482L1.44482 12.5876C1.70829 12.9632 2.00757 13.3213 2.34317 13.6569Z" fill="#A2001D"/>
<path d="M2.3431 2.34327C-0.180777 4.86714 -0.665277 8.65752 0.888566 11.6682L11.668 0.888797C8.65732 -0.665046 4.86691 -0.180484 2.3431 2.34327Z" fill="#0052B4"/>
<path d="M13.6568 13.657C16.1806 11.1332 16.6651 7.34275 15.1113 4.33203L4.33191 15.1115C7.34257 16.6653 11.133 16.1808 13.6568 13.657Z" fill="#496E2D"/>
<path d="M6.60863 4.52154L5.7122 4.9432L6.18957 5.81138L5.21617 5.6252L5.09279 6.60848L4.41479 5.88526L3.73676 6.60848L3.61345 5.6252L2.64001 5.81135L3.11735 4.94316L2.22095 4.52154L3.11738 4.09985L2.64001 3.23173L3.61342 3.41791L3.73679 2.43457L4.41479 3.15782L5.09282 2.43457L5.21617 3.41791L6.18957 3.23173L5.71226 4.09988L6.60863 4.52154Z" fill="#FFDA44"/>
</g>
<defs>
<clipPath id="clip0_467_1493">
<rect width="16" height="16" fill="white"/>
</clipPath>
</defs>
</svg>
