<svg width="16" height="16" viewBox="0 0 16 16" fill="none" xmlns="http://www.w3.org/2000/svg">
<g clip-path="url(#clip0_467_1499)">
<path d="M8 16C12.4183 16 16 12.4183 16 8C16 3.58172 12.4183 0 8 0C3.58172 0 0 3.58172 0 8C0 12.4183 3.58172 16 8 16Z" fill="#0052B4"/>
<path d="M11.4332 8.55806C11.4627 8.37628 11.4782 8.18987 11.4782 7.99993C11.4782 8.18987 11.4627 8.37628 11.4332 8.55806L12.8695 7.99993L11.4332 7.44184L10.6443 7.13531L9.36259 6.63728L8.86456 5.35556C9.70437 5.63084 10.369 6.29543 10.6443 7.13528L11.4332 7.44181C11.1948 5.97006 10.0297 4.805 8.55803 4.56662L7.99993 3.13037L7.44181 4.56665C5.97006 4.80509 4.80506 5.97009 4.56665 7.44184L3.13037 7.99993L4.56668 8.55806C4.80509 10.0298 5.97009 11.1948 7.44184 11.4332L7.99993 12.8695L8.55806 11.4332C10.0298 11.1948 11.1948 10.0298 11.4332 8.55806ZM8.82518 7.17472L7.99993 7.99993H10.9488L8.82515 8.82518L7.99993 7.99993V10.9489L7.17468 8.82515L7.99993 7.99993H5.05103L7.17468 7.17472L7.99993 7.99993V5.05103L8.82518 7.17472ZM7.13528 5.35559L6.63721 6.63731L5.35556 7.13534C5.63084 6.29543 6.29543 5.6309 7.13528 5.35559ZM5.35559 8.86459L6.63721 9.36262L7.13528 10.6443C6.29543 10.369 5.6309 9.70443 5.35559 8.86459ZM8.86459 10.6443L9.36262 9.36262L10.6443 8.86459C10.369 9.70443 9.70443 10.369 8.86459 10.6443Z" fill="#F0F0F0"/>
<path d="M10.9489 8H8L8.82525 8.82525L10.9489 8Z" fill="#0052B4"/>
<path d="M5.05103 8.00002H7.99993L7.17468 7.1748L5.05103 8.00002Z" fill="#0052B4"/>
<path d="M7.99981 10.9489V8L7.17456 8.82525L7.99981 10.9489Z" fill="#0052B4"/>
<path d="M8 8.00018L8.82525 7.17496L8 5.05127V8.00018Z" fill="#0052B4"/>
<path d="M7.6521 1.04346H8.34776V2.43477H7.6521V1.04346Z" fill="#F0F0F0"/>
<path d="M1.04346 7.65234H2.43477V8.348H1.04346V7.65234Z" fill="#F0F0F0"/>
<path d="M7.6521 13.5654H8.34776V14.9567H7.6521V13.5654Z" fill="#F0F0F0"/>
<path d="M13.5652 7.65234H14.9565V8.348H13.5652V7.65234Z" fill="#F0F0F0"/>
</g>
<defs>
<clipPath id="clip0_467_1499">
<rect width="16" height="16" fill="white"/>
</clipPath>
</defs>
</svg>
