<svg width="16" height="16" viewBox="0 0 16 16" fill="none" xmlns="http://www.w3.org/2000/svg">
<g clip-path="url(#clip0_467_1555)">
<path d="M0.793813 4.52183C0.28525 5.57358 0 6.75348 0 8.00008C0 9.24667 0.28525 10.4266 0.793813 11.4783L8 12.174L15.2062 11.4783C15.7147 10.4266 16 9.24667 16 8.00008C16 6.75348 15.7147 5.57358 15.2062 4.52183L8 3.82617L0.793813 4.52183Z" fill="#F0F0F0"/>
<path d="M0.794067 11.478C2.088 14.154 4.82829 15.9998 7.99997 15.9998C11.1717 15.9998 13.9119 14.154 15.2059 11.478H0.794067Z" fill="#6DA544"/>
<path d="M0.794067 4.52175H15.2059C13.9119 1.84578 11.1716 0 7.99997 0C4.82832 0 2.088 1.84578 0.794067 4.52175Z" fill="#FF9811"/>
<path d="M8 10.7825C9.53679 10.7825 10.7826 9.53666 10.7826 7.99988C10.7826 6.46309 9.53679 5.21729 8 5.21729C6.46322 5.21729 5.21741 6.46309 5.21741 7.99988C5.21741 9.53666 6.46322 10.7825 8 10.7825Z" fill="#FF9811"/>
</g>
<defs>
<clipPath id="clip0_467_1555">
<rect width="16" height="16" fill="white"/>
</clipPath>
</defs>
</svg>
