<svg width="16" height="16" viewBox="0 0 16 16" fill="none" xmlns="http://www.w3.org/2000/svg">
<g clip-path="url(#clip0_467_1583)">
<path d="M11.4782 0.793813C10.4265 0.28525 9.24655 0 7.99996 0C6.75336 0 5.57346 0.28525 4.52171 0.793813L3.82605 8L4.52171 15.2062C5.57346 15.7147 6.75336 16 7.99996 16C9.24655 16 10.4265 15.7147 11.4782 15.2062L12.1739 8L11.4782 0.793813Z" fill="#F0F0F0"/>
<path d="M4.52175 0.793945C1.84578 2.08788 0 4.82816 0 7.99985C0 11.1715 1.84578 13.9118 4.52175 15.2058V0.793945Z" fill="#6DA544"/>
<path d="M11.4783 0.793945V15.2058C14.1542 13.9118 16 11.1715 16 7.99985C16 4.8282 14.1542 2.08788 11.4783 0.793945Z" fill="#6DA544"/>
<path d="M10.087 10.4349L8.00005 3.82617L5.91309 10.4349H7.4783V12.174H8.52181V10.4349H10.087Z" fill="#6DA544"/>
</g>
<defs>
<clipPath id="clip0_467_1583">
<rect width="16" height="16" fill="white"/>
</clipPath>
</defs>
</svg>
