<svg width="16" height="16" viewBox="0 0 16 16" fill="none" xmlns="http://www.w3.org/2000/svg">
<g clip-path="url(#clip0_467_1546)">
<path d="M8 16C12.4183 16 16 12.4183 16 8C16 3.58172 12.4183 0 8 0C3.58172 0 0 3.58172 0 8C0 12.4183 3.58172 16 8 16Z" fill="#F0F0F0"/>
<path d="M8.00001 0C4.82832 0 2.08782 1.84578 0.793823 4.52175H15.2062C13.9122 1.84578 11.1717 0 8.00001 0Z" fill="#338AF3"/>
<path d="M8.00001 15.9998C11.1717 15.9998 13.9122 14.154 15.2062 11.478H0.793823C2.08782 14.154 4.82832 15.9998 8.00001 15.9998Z" fill="#338AF3"/>
<path d="M7.99997 5.56543C6.65528 5.56543 5.56519 6.65552 5.56519 8.00021C5.56519 9.3449 6.65528 10.435 7.99997 10.435C9.34465 10.435 10.4347 9.3449 10.4347 8.00021C10.4347 6.65552 9.34465 5.56543 7.99997 5.56543ZM7.99997 9.39152C7.23159 9.39152 6.60865 8.76865 6.60865 8.00021C6.60865 7.23177 7.23156 6.6089 7.99997 6.6089C8.76837 6.6089 9.39128 7.23177 9.39128 8.00021C9.39128 8.76865 8.76834 9.39152 7.99997 9.39152Z" fill="#FFDA44"/>
<path d="M9.20493 8.34781L8 8L6.79506 8.34781L6.39343 9.04347H9.60653L9.20493 8.34781Z" fill="#0052B4"/>
<path d="M8.00006 6.26074L7.19678 7.65205L8.00006 7.99987L8.80334 7.65205L8.00006 6.26074Z" fill="#338AF3"/>
<path d="M6.79504 8.34797H9.20492L8.80326 7.65234H7.1967L6.79504 8.34797Z" fill="#6DA544"/>
</g>
<defs>
<clipPath id="clip0_467_1546">
<rect width="16" height="16" fill="white"/>
</clipPath>
</defs>
</svg>
