<svg width="16" height="16" viewBox="0 0 16 16" fill="none" xmlns="http://www.w3.org/2000/svg">
<g clip-path="url(#clip0_467_1597)">
<path d="M8 16C12.4183 16 16 12.4183 16 8C16 3.58172 12.4183 0 8 0C3.58172 0 0 3.58172 0 8C0 12.4183 3.58172 16 8 16Z" fill="#F0F0F0"/>
<path d="M1.93563 2.78271C1.65491 3.10875 1.40007 3.45759 1.17419 3.82618H14.8258C14.5999 3.45759 14.3451 3.10871 14.0644 2.78271H1.93563Z" fill="#D80027"/>
<path d="M1.9356 13.2173H14.0644C14.3451 12.8913 14.5999 12.5424 14.8258 12.1738H1.17419C1.40004 12.5424 1.65488 12.8913 1.9356 13.2173Z" fill="#D80027"/>
<path d="M6.97635 6.53711L7.63272 7.44164L8.69575 7.09695L8.03835 8.0007L8.69466 8.9052L7.632 8.5592L6.9746 9.46295L6.97525 8.34542L5.9126 7.99942L6.97566 7.65473L6.97635 6.53711Z" fill="#D80027"/>
<path d="M5.18487 10.2608C3.93625 10.2608 2.924 9.24854 2.924 7.99991C2.924 6.75129 3.93625 5.73904 5.18487 5.73904C5.57418 5.73904 5.94053 5.83747 6.26034 6.01079C5.75862 5.52013 5.07246 5.21729 4.31531 5.21729C2.7785 5.21729 1.53271 6.4631 1.53271 7.99988C1.53271 9.53666 2.77853 10.7825 4.31531 10.7825C5.07246 10.7825 5.75862 10.4796 6.26034 9.98897C5.94053 10.1623 5.57421 10.2608 5.18487 10.2608Z" fill="#D80027"/>
</g>
<defs>
<clipPath id="clip0_467_1597">
<rect width="16" height="16" fill="white"/>
</clipPath>
</defs>
</svg>
