<svg width="16" height="16" viewBox="0 0 16 16" fill="none" xmlns="http://www.w3.org/2000/svg">
<g clip-path="url(#clip0_467_1519)">
<path d="M8 16C12.4183 16 16 12.4183 16 8C16 3.58172 12.4183 0 8 0C3.58172 0 0 3.58172 0 8C0 12.4183 3.58172 16 8 16Z" fill="#F0F0F0"/>
<path d="M15.953 8.86939L15.9528 8.86914L15.9528 8.86939H15.953Z" fill="#0052B4"/>
<path d="M15.9528 8.86947C15.9528 8.86941 15.9528 8.86935 15.9528 8.86922L7.17956 0.0415039C6.78378 0.0818477 6.3965 0.151035 6.01991 0.246941C2.55931 1.12804 0 7.99991 0 7.99991C0 7.99991 11.1999 15.4948 12.4777 14.63C12.7333 14.457 12.9784 14.2696 13.2118 14.069L8.01234 8.86947H15.9528Z" fill="#0052B4"/>
<path d="M13.913 8.00007L6.13266 0.219727C2.61525 1.06088 0 4.22482 0 8.00007C0 12.4183 3.58175 16.0001 8 16.0001C9.67591 16.0001 11.2312 15.4844 12.5165 14.6035L5.91303 8.00007H13.913Z" fill="#D80027"/>
<path d="M7.60851 11.8122L6.63148 11.3527L7.15176 10.4064L6.09083 10.6094L5.95639 9.5376L5.21742 10.3259L4.47845 9.5376L4.34398 10.6094L3.28308 10.4064L3.80336 11.3527L2.82629 11.8122L3.80336 12.2718L3.28308 13.218L4.34404 13.0151L4.47842 14.0868L5.21742 13.2985L5.95639 14.0868L6.09083 13.0151L7.15173 13.218L6.63145 12.2718L7.60851 11.8122Z" fill="#F0F0F0"/>
<path d="M6.95655 4.43709L6.24593 4.10287L6.62433 3.41465L5.85268 3.56228L5.7549 2.78271L5.21743 3.35606L4.67996 2.78271L4.58215 3.56228L3.81049 3.41465L4.18893 4.10287L3.47827 4.43709L5.21743 4.78497L6.95655 4.43709Z" fill="#F0F0F0"/>
<path d="M7.30431 4.43701C7.30431 5.58961 6.36993 6.52398 5.21734 6.52398C4.06475 6.52398 3.13037 5.58961 3.13037 4.43701" fill="#F0F0F0"/>
</g>
<defs>
<clipPath id="clip0_467_1519">
<rect width="16" height="16" fill="white"/>
</clipPath>
</defs>
</svg>
