<svg width="16" height="16" viewBox="0 0 16 16" fill="none" xmlns="http://www.w3.org/2000/svg">
<g clip-path="url(#clip0_467_1512)">
<path d="M8 16C12.4183 16 16 12.4183 16 8C16 3.58172 12.4183 0 8 0C3.58172 0 0 3.58172 0 8C0 12.4183 3.58172 16 8 16Z" fill="#0052B4"/>
<path d="M8 16C12.4183 16 16 12.4183 16 8C16 3.58172 12.4183 0 8 0C3.58172 0 0 3.58172 0 8C0 12.4183 3.58172 16 8 16Z" fill="#FFDA44"/>
<path d="M8.00005 0C3.81617 0 0.383111 3.21191 0.0305176 7.30434H15.9696C15.617 3.21191 12.1839 0 8.00005 0Z" fill="#0052B4"/>
<path d="M8.00005 16.0001C12.1839 16.0001 15.617 12.7882 15.9696 8.6958H0.0305176C0.383111 12.7882 3.81617 16.0001 8.00005 16.0001Z" fill="#0052B4"/>
<path d="M6.60867 10.7827L5.71223 11.2044L6.18957 12.0726L5.21617 11.8864L5.09282 12.8697L4.41479 12.1465L3.73679 12.8697L3.61345 11.8864L2.64001 12.0726L3.11738 11.2044L2.22095 10.7827L3.11742 10.3611L2.64001 9.49296L3.61342 9.67914L3.73682 8.6958L4.41479 9.41902L5.09285 8.6958L5.21617 9.67914L6.1896 9.49296L5.71226 10.3611L6.60867 10.7827Z" fill="#F0F0F0"/>
</g>
<defs>
<clipPath id="clip0_467_1512">
<rect width="16" height="16" fill="white"/>
</clipPath>
</defs>
</svg>
