<svg width="16" height="16" viewBox="0 0 16 16" fill="none" xmlns="http://www.w3.org/2000/svg">
<g clip-path="url(#clip0_467_1566)">
<path d="M16 8C16 12.4183 12.4183 16 8 16C3.58175 16 0 12.4183 0 8C0 8.00191 8 0.000875 8 0C12.4183 0 16 3.58175 16 8Z" fill="#FFDA44"/>
<path d="M8 3.82617V6.52439L5.21741 3.82617H8Z" fill="#0052B4"/>
<path d="M4.17386 8.00007H6.52421L4.17386 4.86963L3.82605 7.30441L4.17386 8.00007Z" fill="#0052B4"/>
<path d="M7.97864 7.99992H8.00004C8.00004 7.99273 8.00004 7.98573 8.00004 7.97852C7.99292 7.98567 7.98579 7.9928 7.97864 7.99992Z" fill="#F0F0F0"/>
<path d="M8 4.17391C8 2.76625 8 1.84391 8 0H7.99866C3.58097 0.00075 0 3.58216 0 8H4.17391V5.64966L6.52425 8H7.97862C7.98575 7.99288 7.99288 7.98575 8.00003 7.97859C8.00003 7.43963 8.00003 6.95872 8.00003 6.52431L5.64962 4.17391H8Z" fill="#F0F0F0"/>
<path d="M8.00004 7.01611L5.1577 4.17383H4.17395V4.17389L7.99998 7.99989H8.00004C8.00004 7.99989 8.00004 7.32155 8.00004 7.01611Z" fill="#D80027"/>
<path d="M4.04733 1.04346C3.73893 1.21908 3.44346 1.4148 3.16246 1.62846H3.49071L2.62314 2.25889L2.95446 3.2788L2.08689 2.64849L1.99458 2.71558C1.63436 3.12464 1.31499 3.57052 1.04346 4.04733V7.99999H3.13043V3.13049V3.13043H7.99999C7.99999 2.47221 7.99999 1.84514 7.99999 1.04346H4.04733Z" fill="#D80027"/>
<path d="M3.41754 1.44238C3.33126 1.50279 3.2462 1.56488 3.16242 1.6286L2.6232 2.25904L2.08695 2.6486L1.99385 2.71623C1.79742 2.93935 1.6132 3.17348 1.44226 3.41763C1.6371 3.5122 1.85582 3.56535 2.08695 3.56535C2.90339 3.56535 3.5652 2.90354 3.5652 2.0871C3.56526 1.85591 3.51214 1.63726 3.41754 1.44238Z" fill="#0052B4"/>
<path d="M1.99377 2.71604L2.08687 2.64842L2.95443 3.27876L2.62309 2.25886L3.49059 1.62842H3.16227C2.73746 1.95151 2.34599 2.31601 1.99377 2.71604Z" fill="#FFDA44"/>
<path d="M5.52935 1.39111L5.70204 1.92252H6.26079L5.80876 2.25099L5.98135 2.78239L5.52935 2.45396L5.07732 2.78239L5.24988 2.25099L4.79785 1.92252H5.35663L5.52935 1.39111Z" fill="#FFDA44"/>
<path d="M2.08694 4.86914L2.25962 5.40055H2.81838L2.36637 5.72905L2.53897 6.26045L2.08694 5.93198L1.63488 6.26045L1.80747 5.72905L1.35547 5.40055H1.91422L2.08694 4.86914Z" fill="#FFDA44"/>
</g>
<defs>
<clipPath id="clip0_467_1566">
<rect width="16" height="16" fill="white"/>
</clipPath>
</defs>
</svg>
