<svg width="16" height="16" viewBox="0 0 16 16" fill="none" xmlns="http://www.w3.org/2000/svg">
<g clip-path="url(#clip0_467_1533)">
<path d="M16 8C16 12.4183 12.4183 16 8 16C3.58175 16 0 12.4183 0 8C0 8.00191 8 0.000875 8 0C12.4183 0 16 3.58175 16 8Z" fill="#0052B4"/>
<path d="M7.97864 7.99992H8.00004C8.00004 7.99273 8.00004 7.98573 8.00004 7.97852C7.99292 7.98567 7.98579 7.9928 7.97864 7.99992Z" fill="#F0F0F0"/>
<path d="M8 4.17391C8 2.76625 8 1.84391 8 0H7.99866C3.581 0.00075 0 3.58216 0 8H4.17391V5.64966L6.52428 8H7.97862C7.98575 7.99288 7.99291 7.98575 8.00003 7.97859C8.00003 7.43963 8.00003 6.95872 8.00003 6.52431L5.64962 4.17391H8Z" fill="#F0F0F0"/>
<path d="M4.04733 1.04346C2.79611 1.75593 1.75593 2.79611 1.04346 4.04733V7.99999H3.13043V3.13049V3.13043H7.99999C7.99999 2.47221 7.99999 1.84514 7.99999 1.04346H4.04733Z" fill="#D80027"/>
<path d="M8.00001 7.01611L5.15773 4.17383C5.15773 4.17383 4.17395 4.17389 4.17395 4.17383V4.17389L7.99998 7.99989H8.00001C8.00001 7.99989 8.00001 7.32155 8.00001 7.01611Z" fill="#D80027"/>
<path d="M13.8541 5.93604L14.0267 6.46747H14.5855L14.1334 6.79591L14.3061 7.32732L13.8541 6.99891L13.402 7.32732L13.5747 6.79591L13.1226 6.46747H13.6813L13.8541 5.93604Z" fill="#D80027"/>
<path d="M11.8566 9.76221L12.1156 10.5594H12.9538L12.2757 11.052L12.5347 11.8492L11.8566 11.3565L11.1785 11.8492L11.4375 11.052L10.7594 10.5594H11.5976L11.8566 9.76221Z" fill="#D80027"/>
<path d="M11.932 3.50146L12.1479 4.16581H12.8463L12.2812 4.57628L12.4971 5.24059L11.932 4.83L11.3669 5.24059L11.5828 4.57628L11.0177 4.16581H11.7161L11.932 3.50146Z" fill="#D80027"/>
<path d="M10.01 5.91309L10.269 6.71027H11.1072L10.4291 7.2029L10.6882 8.00005L10.01 7.5074L9.3319 8.00005L9.59097 7.2029L8.91284 6.71027H9.751L10.01 5.91309Z" fill="#D80027"/>
</g>
<defs>
<clipPath id="clip0_467_1533">
<rect width="16" height="16" fill="white"/>
</clipPath>
</defs>
</svg>
