<svg width="16" height="16" viewBox="0 0 16 16" fill="none" xmlns="http://www.w3.org/2000/svg">
<g clip-path="url(#clip0_467_1618)">
<path d="M8 16C12.4183 16 16 12.4183 16 8C16 3.58172 12.4183 0 8 0C3.58172 0 0 3.58172 0 8C0 12.4183 3.58172 16 8 16Z" fill="#F0F0F0"/>
<path d="M0 7.99994C0 11.0323 1.68719 13.6704 4.17391 15.0272V0.972656C1.68719 2.32947 0 4.96759 0 7.99994Z" fill="#D80027"/>
<path d="M15.5024 10.7825C15.824 9.91582 16 8.97844 16 7.99988C16 7.02132 15.824 6.08391 15.5024 5.21729H0.497625C0.176031 6.08391 0 7.02132 0 7.99988C0 8.97844 0.176031 9.91582 0.497625 10.7825L8 11.4781L15.5024 10.7825Z" fill="#D80027"/>
<path d="M7.99993 16.0001C11.4397 16.0001 14.372 13.8291 15.5024 10.7827H0.497559C1.62787 13.8291 4.56025 16.0001 7.99993 16.0001Z" fill="#6DA544"/>
<path d="M0 7.9998C0 11.696 2.50691 14.8062 5.91303 15.7242V0.275391C2.50691 1.19339 0 4.30358 0 7.9998Z" fill="#D80027"/>
<path d="M4.89431 3.52056L4.15647 2.78271L3.6646 3.27465L3.17272 2.78271L2.43488 3.52056L2.92678 4.01247L2.43481 4.5044L3.17266 5.24225L3.66456 4.75031L4.15647 5.24225L4.89431 4.5044L4.40241 4.01247L4.89431 3.52056Z" fill="#F0F0F0"/>
</g>
<defs>
<clipPath id="clip0_467_1618">
<rect width="16" height="16" fill="white"/>
</clipPath>
</defs>
</svg>
