<svg width="16" height="16" viewBox="0 0 16 16" fill="none" xmlns="http://www.w3.org/2000/svg">
<g clip-path="url(#clip0_467_1626)">
<path d="M15.7244 10.0868C15.9038 9.42137 16 8.72193 16 7.99984C16 7.27774 15.9038 6.5783 15.7244 5.91287L7.30434 0.0302734C5.74119 0.164961 4.30672 0.749023 3.13044 1.6528L0.275594 5.91287C0.09625 6.5783 0 7.27774 0 7.99984C0 8.71771 0.0950938 9.4133 0.272438 10.0752L3.13041 14.3469C4.30669 15.2506 5.74116 15.8347 7.30431 15.9694L15.7244 10.0868Z" fill="#FFDA44"/>
<path d="M0.275635 10.0869C0.73851 11.8044 1.7587 13.2929 3.13048 14.347V10.0869H0.275635Z" fill="#D80027"/>
<path d="M7.30444 15.9695C7.53376 15.9893 7.76566 15.9999 8.0001 15.9999C11.6963 15.9999 14.8065 13.493 15.7245 10.0869H7.30444V15.9695Z" fill="#D80027"/>
<path d="M15.7245 5.91303C14.8065 2.50691 11.6963 0 8.0001 0C7.76566 0 7.53376 0.0106875 7.30444 0.0304375V5.91303H15.7245Z" fill="#D80027"/>
<path d="M3.13048 1.65283C1.7587 2.70689 0.73851 4.19543 0.275635 5.91289H3.13048V1.65283Z" fill="#D80027"/>
<path d="M15.9323 6.95632H6.26091H6.26088V0.189941C5.52156 0.353879 4.82066 0.619598 4.17391 0.972504V6.95628H0.0677188C0.02325 7.29788 0 7.64613 0 7.99978C0 8.35344 0.02325 8.70169 0.0677188 9.04325H4.17387H4.17391V15.027C4.82066 15.3799 5.52156 15.6457 6.26088 15.8096V9.04335V9.04329H15.9323C15.9768 8.70169 16 8.35344 16 7.99978C16 7.64613 15.9768 7.29788 15.9323 6.95632Z" fill="#0052B4"/>
</g>
<defs>
<clipPath id="clip0_467_1626">
<rect width="16" height="16" fill="white"/>
</clipPath>
</defs>
</svg>
