<svg width="16" height="16" viewBox="0 0 16 16" fill="none" xmlns="http://www.w3.org/2000/svg">
<g clip-path="url(#clip0_467_1654)">
<path d="M8 16C12.4183 16 16 12.4183 16 8C16 3.58172 12.4183 0 8 0C3.58172 0 0 3.58172 0 8C0 12.4183 3.58172 16 8 16Z" fill="#F0F0F0"/>
<path d="M0 8C0 12.4183 3.58175 16 8 16C8 12.9577 8 8 8 8C8 8 2.78259 8 0 8Z" fill="#0052B4"/>
<path d="M8 0C12.4183 0 16 3.58175 16 8C12.9577 8 8 8 8 8C8 8 8 2.78259 8 0Z" fill="#D80027"/>
<path d="M4.76212 2.78271L5.28016 4.37703H6.9565L5.60031 5.36234L6.11831 6.95665L4.76212 5.97131L3.40594 6.95665L3.92394 5.36234L2.56775 4.37703H4.24409L4.76212 2.78271Z" fill="#0052B4"/>
<path d="M11.2378 9.04346L11.7559 10.6378H13.4322L12.076 11.6231L12.594 13.2174L11.2378 12.2321L9.88165 13.2174L10.3996 11.6231L9.04346 10.6378H10.7198L11.2378 9.04346Z" fill="#D80027"/>
</g>
<defs>
<clipPath id="clip0_467_1654">
<rect width="16" height="16" fill="white"/>
</clipPath>
</defs>
</svg>
