<svg width="16" height="16" viewBox="0 0 16 16" fill="none" xmlns="http://www.w3.org/2000/svg">
<g clip-path="url(#clip0_467_977)">
<path d="M8 16C12.4183 16 16 12.4183 16 8C16 3.58172 12.4183 0 8 0C3.58172 0 0 3.58172 0 8C0 12.4183 3.58172 16 8 16Z" fill="#F0F0F0"/>
<path d="M0.972656 4.17391H15.0272C13.6704 1.68716 11.0323 0 7.99994 0C4.96759 0 2.3295 1.68716 0.972656 4.17391Z" fill="#D80027"/>
<path d="M7.99994 16.0001C11.0323 16.0001 13.6704 14.3129 15.0272 11.8262H0.972656C2.3295 14.3129 4.96759 16.0001 7.99994 16.0001Z" fill="#D80027"/>
<path d="M10.7825 7.99988C10.7825 9.53669 9.53666 10.4347 7.99988 10.4347C6.4631 10.4347 5.21729 9.53669 5.21729 7.99988C5.21729 6.46307 6.4631 5.21729 7.99988 5.21729C9.53666 5.21729 10.7825 6.46307 10.7825 7.99988Z" fill="#FFDA44"/>
<path d="M10.7825 8C10.7825 9.53681 9.53666 10.7826 7.99988 10.7826C6.4631 10.7826 5.21729 9.53681 5.21729 8" fill="#0052B4"/>
<path d="M6.26099 7.3042H6.95664V8.69551H6.26099V7.3042Z" fill="#D80027"/>
<path d="M9.0437 7.3042H9.73936V8.69551H9.0437V7.3042Z" fill="#D80027"/>
<path d="M7.65234 6.26074H8.348V8.69552H7.65234V6.26074Z" fill="#D80027"/>
</g>
<defs>
<clipPath id="clip0_467_977">
<rect width="16" height="16" fill="white"/>
</clipPath>
</defs>
</svg>
