<svg width="16" height="16" viewBox="0 0 16 16" fill="none" xmlns="http://www.w3.org/2000/svg">
<g clip-path="url(#clip0_467_1660)">
<path d="M13.6569 13.6568C10.5327 16.781 5.46739 16.781 2.34314 13.6568C-0.781051 10.5327 -0.781051 5.46731 2.34317 2.34309C5.46736 -0.781095 10.0408 -0.289189 13.1649 2.83503C16.2891 5.95922 16.781 10.5327 13.6569 13.6568Z" fill="black"/>
<path d="M2.34314 2.34311C5.46733 -0.781074 10.5326 -0.781012 13.6569 2.34314C16.781 5.46733 16.781 10.5326 13.6569 13.6569" fill="#A2001D"/>
<path d="M6.11378 10.7827L6.24328 11.1813H6.66237L6.32331 11.4276L6.45284 11.8262L6.11378 11.5799L5.77472 11.8262L5.90422 11.4276L5.56519 11.1813H5.98425L6.11378 10.7827Z" fill="#F0F0F0"/>
<path d="M5.04346 6.95654L5.25937 7.62086H5.95781L5.39271 8.03139L5.60856 8.6957L5.04346 8.28511L4.4784 8.6957L4.69428 8.03139L4.12915 7.62086H4.82765L5.04346 6.95654Z" fill="#F0F0F0"/>
<path d="M5.04346 11.8262L5.25931 12.4905H5.95781L5.39265 12.901L5.60856 13.5653L5.04346 13.1547L4.4784 13.5653L4.69421 12.901L4.12915 12.4905H4.82756L5.04346 11.8262Z" fill="#F0F0F0"/>
<path d="M7.08567 8.6958L7.30157 9.36011H8.00001L7.43492 9.77061L7.65076 10.4349L7.08567 10.0243L6.52061 10.4349L6.73648 9.77061L6.17139 9.36011H6.86986L7.08567 8.6958Z" fill="#F0F0F0"/>
<path d="M3.00123 8.6958L3.21713 9.36011H3.91554L3.35048 9.77061L3.56629 10.4349L3.00123 10.0243L2.43613 10.4349L2.65204 9.77061L2.08691 9.36011H2.78538L3.00123 8.6958Z" fill="#F0F0F0"/>
<path d="M13.3922 5.924C13.0346 5.56646 12.5701 5.35525 12.0709 5.31896L13.5652 4.15668C12.9701 3.56153 12.1724 3.29275 11.394 3.34959C11.3008 3.01471 11.1232 2.6984 10.8598 2.43506L10.2695 3.61562C10.2308 3.54506 10.1818 3.47865 10.122 3.41887C9.78235 3.07928 9.23179 3.07928 8.89223 3.41887C8.55267 3.75846 8.5526 4.30903 8.89223 4.64862C8.95201 4.7084 9.01845 4.75743 9.08901 4.79618L7.90845 5.38646C8.17185 5.6499 8.48838 5.82768 8.82345 5.92081C8.76642 6.69918 9.03492 7.49675 9.6301 8.09193L10.9357 6.41325C11.0339 6.31653 11.1637 6.26312 11.3017 6.26312C11.441 6.26312 11.572 6.31737 11.6706 6.41596C11.7691 6.5145 11.8234 6.64553 11.8234 6.78487C11.8234 6.92425 11.7691 7.05525 11.6706 7.15381L12.1625 7.64575C12.3924 7.41581 12.5191 7.11009 12.5191 6.7849C12.5191 6.51884 12.4342 6.2659 12.2775 6.05678C12.5058 6.11775 12.7216 6.23718 12.9004 6.41596C13.4429 6.95843 13.4429 7.84112 12.9004 8.38356L13.3923 8.8755C13.7864 8.48131 14.0035 7.95725 14.0035 7.39978C14.0034 6.84225 13.7863 6.31818 13.3922 5.924Z" fill="#FFDA44"/>
</g>
<defs>
<clipPath id="clip0_467_1660">
<rect width="16" height="16" fill="white"/>
</clipPath>
</defs>
</svg>
