<svg width="16" height="16" viewBox="0 0 16 16" fill="none" xmlns="http://www.w3.org/2000/svg">
<g clip-path="url(#clip0_467_1681)">
<path d="M8 16C12.4183 16 16 12.4183 16 8C16 3.58172 12.4183 0 8 0C3.58172 0 0 3.58172 0 8C0 12.4183 3.58172 16 8 16Z" fill="#F0F0F0"/>
<path d="M8.00001 0V8L2.34314 13.6569C3.79086 15.1046 5.79086 16 8.00001 16C12.4183 16 16 12.4183 16 8C16 3.58175 8.00001 0 8.00001 0Z" fill="#D80027"/>
<path d="M8.00001 0C5.79086 0 3.79086 0.895438 2.34314 2.34313C4.30595 4.30594 5.00273 5.00275 8.00001 8H16C16 3.58175 12.4183 0 8.00001 0Z" fill="#0052B4"/>
<path d="M5.47787 7.99969L4.50087 7.54013L5.02115 6.59391L3.96021 6.79688L3.82577 5.7251L3.08677 6.51335L2.3478 5.7251L2.21333 6.79688L1.15243 6.59388L1.67271 7.54013L0.695679 7.99969L1.67271 8.45925L1.15243 9.40547L2.21343 9.20254L2.34777 10.2743L3.08677 9.48603L3.82577 10.2743L3.96021 9.20254L5.02108 9.4055L4.50083 8.45929L5.47787 7.99969Z" fill="#FFDA44"/>
<path d="M2.13355 3.13037L2.45868 3.58484L2.99134 3.41612L2.65952 3.86575L2.98465 4.32021L2.45446 4.14362L2.12268 4.59321L2.12684 4.03446L1.59668 3.85784L2.12943 3.68912L2.13355 3.13037Z" fill="#FFDA44"/>
<path d="M2.13355 11.4067L2.45868 11.8612L2.99134 11.6925L2.65952 12.1421L2.98465 12.5966L2.45446 12.42L2.12268 12.8696L2.12684 12.3108L1.59668 12.1342L2.12943 11.9655L2.13355 11.4067Z" fill="#FFDA44"/>
<path d="M6.77087 7.26855L6.44577 7.72302L5.91309 7.55424L6.2449 8.0039L5.91977 8.4584L6.44996 8.28177L6.78177 8.73137L6.77759 8.17265L7.30774 7.99602L6.77502 7.8273L6.77087 7.26855Z" fill="#FFDA44"/>
</g>
<defs>
<clipPath id="clip0_467_1681">
<rect width="16" height="16" fill="white"/>
</clipPath>
</defs>
</svg>
