<svg width="16" height="16" viewBox="0 0 16 16" fill="none" xmlns="http://www.w3.org/2000/svg">
<g clip-path="url(#clip0_467_1690)">
<path d="M16 8C16 12.4183 12.4183 16 8 16C3.58175 16 0 12.4183 0 8C0 8.00191 8 0.000875 8 0C12.4183 0 16 3.58175 16 8Z" fill="#0052B4"/>
<path d="M7.97852 7.99992H7.99992C7.99992 7.99273 7.99992 7.98573 7.99992 7.97852C7.9928 7.98567 7.98567 7.9928 7.97852 7.99992Z" fill="#F0F0F0"/>
<path d="M8 4.17391C8 2.76625 8 1.84391 8 0H7.99866C3.58097 0.00075 0 3.58216 0 8H4.17391V5.64966L6.52425 8H7.97862C7.98575 7.99288 7.99288 7.98575 8.00003 7.97859C8.00003 7.43963 8.00003 6.95872 8.00003 6.52431L5.64962 4.17391H8Z" fill="#F0F0F0"/>
<path d="M4.04733 1.04346C2.79611 1.75593 1.75589 2.79611 1.04346 4.04733V7.99999H3.13043V3.13049V3.13043H7.99999C7.99999 2.47221 7.99999 1.84514 7.99999 1.04346H4.04733Z" fill="#D80027"/>
<path d="M7.99992 7.01611L5.15758 4.17383H4.17383V4.17389L7.99986 7.99989H7.99992C7.99992 7.99989 7.99992 7.32155 7.99992 7.01611Z" fill="#D80027"/>
<path d="M12.5217 4.8695L11.4782 5.21734L10.4347 4.8695L10.0869 3.99993L10.4347 3.13037H12.5217L12.1739 3.99993L12.5217 4.8695Z" fill="#ACABB1"/>
<path d="M9.04346 4.86963V8.69569C9.04346 10.5594 11.4782 11.1305 11.4782 11.1305C11.4782 11.1305 13.913 10.5594 13.913 8.69569V4.86963H9.04346Z" fill="#338AF3"/>
<path d="M9.26294 9.60209C9.86144 10.7511 11.4783 11.1305 11.4783 11.1305C11.4783 11.1305 13.0951 10.7511 13.6936 9.60209L11.4783 5.91309L9.26294 9.60209Z" fill="#6DA544"/>
<path d="M13.913 8.65704L11.4782 4.86963L9.04346 8.65707V8.69569C9.04346 9.04063 9.12702 9.34119 9.26293 9.60213L11.4782 6.15603L13.6936 9.6021C13.8295 9.34113 13.913 9.0406 13.913 8.69566V8.65704Z" fill="#FFDA44"/>
</g>
<defs>
<clipPath id="clip0_467_1690">
<rect width="16" height="16" fill="white"/>
</clipPath>
</defs>
</svg>
