<svg width="16" height="16" viewBox="0 0 16 16" fill="none" xmlns="http://www.w3.org/2000/svg">
<g clip-path="url(#clip0_467_1712)">
<path d="M8 16C12.4183 16 16 12.4183 16 8C16 3.58172 12.4183 0 8 0C3.58172 0 0 3.58172 0 8C0 12.4183 3.58172 16 8 16Z" fill="#F0F0F0"/>
<path d="M7.99995 0C5.3827 0 3.05911 1.25697 1.59961 3.2H14.4003C12.9408 1.25697 10.6172 0 7.99995 0Z" fill="#D80027"/>
<path d="M7.99995 15.9998C10.6172 15.9998 12.9408 14.7428 14.4003 12.7998H1.59961C3.05911 14.7428 5.3827 15.9998 7.99995 15.9998Z" fill="#D80027"/>
<path d="M0 7.9999C0 8.54787 0.05525 9.08293 0.160219 9.5999H15.8398C15.9448 9.08293 16 8.54787 16 7.9999C16 7.45193 15.9447 6.91687 15.8398 6.3999H0.160219C0.05525 6.91687 0 7.45193 0 7.9999H0Z" fill="#D80027"/>
<path d="M2.34314 2.34326C-0.781047 5.46745 -0.781047 10.5328 2.34314 13.657C3.63417 12.366 4.87583 11.1243 8.00002 8.00014L2.34314 2.34326Z" fill="#0052B4"/>
<path d="M3.2378 5.91309L3.75577 7.50734H5.43221L4.07602 8.49271L4.59396 10.087L3.2378 9.10168L1.88158 10.087L2.39964 8.49271L1.04346 7.50734H2.71977L3.2378 5.91309Z" fill="#F0F0F0"/>
</g>
<defs>
<clipPath id="clip0_467_1712">
<rect width="16" height="16" fill="white"/>
</clipPath>
</defs>
</svg>
