<svg width="16" height="16" viewBox="0 0 16 16" fill="none" xmlns="http://www.w3.org/2000/svg">
<g clip-path="url(#clip0_467_1706)">
<path d="M0 7.99996C0 11.4397 2.171 14.372 5.21734 15.5023L5.91303 7.99993L5.21734 0.497559C2.171 1.62793 0 4.56025 0 7.99996Z" fill="#6DA544"/>
<path d="M15.9999 8C15.9999 3.58175 12.4182 0 7.99994 0C7.02138 0 6.08397 0.176031 5.21729 0.497594V15.5024C6.08397 15.824 7.02138 16 7.99994 16C12.4182 16 15.9999 12.4183 15.9999 8Z" fill="#D80027"/>
<path d="M5.21741 10.7825C6.75419 10.7825 8 9.53666 8 7.99988C8 6.46309 6.75419 5.21729 5.21741 5.21729C3.68062 5.21729 2.43481 6.46309 2.43481 7.99988C2.43481 9.53666 3.68062 10.7825 5.21741 10.7825Z" fill="#FFDA44"/>
<path d="M3.6521 6.60889V8.34801C3.6521 9.21245 4.35285 9.91323 5.21732 9.91323C6.08179 9.91323 6.78254 9.21248 6.78254 8.34801V6.60889H3.6521Z" fill="#D80027"/>
<path d="M5.21731 8.86972C4.92962 8.86972 4.69556 8.63566 4.69556 8.34797V7.65234H5.73903V8.348C5.73903 8.63566 5.50496 8.86972 5.21731 8.86972Z" fill="#F0F0F0"/>
</g>
<defs>
<clipPath id="clip0_467_1706">
<rect width="16" height="16" fill="white"/>
</clipPath>
</defs>
</svg>
