<svg width="16" height="16" viewBox="0 0 16 16" fill="none" xmlns="http://www.w3.org/2000/svg">
<g clip-path="url(#clip0_467_1670)">
<path d="M8 16C12.4183 16 16 12.4183 16 8C16 3.58172 12.4183 0 8 0C3.58172 0 0 3.58172 0 8C0 12.4183 3.58172 16 8 16Z" fill="#F0F0F0"/>
<path d="M8.00001 0C4.82832 0 2.08782 1.84578 0.793823 4.52175H15.2062C13.9122 1.84578 11.1717 0 8.00001 0Z" fill="#D80027"/>
<path d="M8.00001 15.9998C11.1717 15.9998 13.9122 14.154 15.2062 11.478H0.793823C2.08782 14.154 4.82832 15.9998 8.00001 15.9998Z" fill="#0052B4"/>
<path d="M9.96756 5.68457L9.22972 6.42241C9.54444 6.73713 9.73913 7.17191 9.73913 7.65216C9.73913 8.61266 8.96047 9.39129 8 9.39129C7.03953 9.39129 6.26088 8.61263 6.26088 7.65216C6.26088 7.17191 6.45556 6.73713 6.77028 6.42241L6.03244 5.68457C5.52885 6.18807 5.21741 6.88373 5.21741 7.65216C5.21741 9.18898 6.46322 10.4348 8 10.4348C9.53678 10.4348 10.7826 9.18895 10.7826 7.65216C10.7826 6.88373 10.4711 6.18807 9.96756 5.68457Z" fill="#6DA544"/>
<path d="M8.00002 6.60889L8.25905 7.40607H9.09721L8.41911 7.8987L8.67814 8.69586L8.00002 8.2032L7.32189 8.69586L7.58093 7.8987L6.90283 7.40607H7.74099L8.00002 6.60889Z" fill="#FFDA44"/>
</g>
<defs>
<clipPath id="clip0_467_1670">
<rect width="16" height="16" fill="white"/>
</clipPath>
</defs>
</svg>
