<svg width="16" height="16" viewBox="0 0 16 16" fill="none" xmlns="http://www.w3.org/2000/svg">
<g clip-path="url(#clip0_467_1720)">
<path d="M8 16C12.4183 16 16 12.4183 16 8C16 3.58172 12.4183 0 8 0C3.58172 0 0 3.58172 0 8C0 12.4183 3.58172 16 8 16Z" fill="#F0F0F0"/>
<path d="M15.9999 8C15.9999 3.58175 12.4182 0 7.99993 0C6.43493 0 4.97512 0.449844 3.74206 1.22659L5.49559 1.97162L3.13037 2.97656L5.49559 3.98147L3.13037 4.98634L5.49559 5.99119L3.13037 6.99591L5.49559 8.00056L3.13037 9.00544L5.49559 10.0103L3.13037 11.015L5.49559 12.0198L3.13037 13.0247L5.49559 14.0294L3.74284 14.774C4.97575 15.5504 6.43525 16 7.99993 16C12.4182 16 15.9999 12.4183 15.9999 8Z" fill="#751A46"/>
</g>
<defs>
<clipPath id="clip0_467_1720">
<rect width="16" height="16" fill="white"/>
</clipPath>
</defs>
</svg>
