<svg width="16" height="16" viewBox="0 0 16 16" fill="none" xmlns="http://www.w3.org/2000/svg">
<g clip-path="url(#clip0_467_1723)">
<path d="M8 16C12.4183 16 16 12.4183 16 8C16 3.58172 12.4183 0 8 0C3.58172 0 0 3.58172 0 8C0 12.4183 3.58172 16 8 16Z" fill="#FCFCFC"/>
<path d="M10.4347 6.60889V7.30454H11.3895C10.991 7.85829 10.4603 8.31036 9.84368 8.61476C9.6855 8.45042 9.4634 8.34801 9.21731 8.34801C8.80246 8.34801 8.45571 8.63861 8.36887 9.02732C8.24731 9.03801 8.12428 9.04367 7.99993 9.04367C7.87559 9.04367 7.75256 9.03795 7.631 9.02732C7.54415 8.63864 7.1974 8.34801 6.78256 8.34801C6.53646 8.34801 6.31443 8.45042 6.15618 8.61476C5.53956 8.31039 5.00887 7.85826 4.61043 7.30454H5.56515V6.60889H3.13037C3.13037 9.29823 5.31059 11.4784 7.99993 11.4784C10.6893 11.4784 12.8695 9.29823 12.8695 6.60889H10.4347Z" fill="#D80027"/>
</g>
<defs>
<clipPath id="clip0_467_1723">
<rect width="16" height="16" fill="white"/>
</clipPath>
</defs>
</svg>
