<svg width="16" height="16" viewBox="0 0 16 16" fill="none" xmlns="http://www.w3.org/2000/svg">
<g clip-path="url(#clip0_467_1743)">
<path d="M10.7826 0.497562C9.91588 0.176031 8.97854 4.15929e-09 7.99998 4.15929e-09C7.02142 -3.12458e-05 6.08404 0.176031 5.21738 0.497562L4.52173 7.99997L5.21738 15.5024C6.08401 15.824 7.02138 16 7.99998 16C8.97851 16 9.91592 15.824 10.7826 15.5024L11.4782 8L10.7826 0.497562Z" fill="#FFDA44"/>
<path d="M16 7.99996C16 4.56028 13.829 1.62787 10.7826 0.497559V15.5024C13.829 14.372 16 11.4397 16 7.99996Z" fill="#D80027"/>
<path d="M0 7.9999C0 11.4397 2.171 14.372 5.21734 15.5024L5.21737 0.497559C2.171 1.62787 0 4.56018 0 7.9999H0Z" fill="#0052B4"/>
</g>
<defs>
<clipPath id="clip0_467_1743">
<rect width="16" height="16" fill="white"/>
</clipPath>
</defs>
</svg>
