<svg width="16" height="16" viewBox="0 0 16 16" fill="none" xmlns="http://www.w3.org/2000/svg">
<g clip-path="url(#clip0_467_1835)">
<path d="M8 16C12.4183 16 16 12.4183 16 8C16 3.58172 12.4183 0 8 0C3.58172 0 0 3.58172 0 8C0 12.4183 3.58172 16 8 16Z" fill="#F0F0F0"/>
<path d="M8 0C3.58175 0 0 3.58175 0 8C0 8.97856 0.176031 9.91597 0.497594 10.7826H15.5024C15.824 9.91597 16 8.97856 16 8C16 3.58175 12.4183 0 8 0Z" fill="#0052B4"/>
<path d="M7.99996 0C4.56025 0 1.6279 2.171 0.497559 5.21741H15.5024C14.372 2.171 11.4397 0 7.99996 0Z" fill="#D80027"/>
<path d="M2.0686 4.52197V8.51279C2.0686 10.7829 5.03426 11.4785 5.03426 11.4785C5.03426 11.4785 7.99988 10.7829 7.99988 8.51279V4.52197H2.0686Z" fill="#D80027"/>
<path d="M3.29517 5.21734H6.77345V3.82603L6.07779 4.17384L5.03432 3.13037L3.99082 4.17384L3.29517 3.82603V5.21734Z" fill="#FFDA44"/>
<path d="M7.30434 9.068L5.04347 6.80713L2.78259 9.068L3.52044 9.80585L5.04347 8.28282L6.5665 9.80585L7.30434 9.068Z" fill="#FFDA44"/>
<path d="M7.30434 6.95649H6.24947C6.30878 6.85412 6.34328 6.73555 6.34328 6.60874C6.34328 6.22449 6.03181 5.91309 5.64762 5.91309C5.38216 5.91309 5.15162 6.06177 5.03434 6.28037C4.91706 6.0618 4.68653 5.91309 4.42106 5.91309C4.03687 5.91309 3.72541 6.22449 3.72541 6.60874C3.72541 6.73555 3.75991 6.85415 3.81922 6.95649H2.78259C2.78259 7.34071 3.11725 7.65215 3.50141 7.65215H3.47825C3.47825 8.03637 3.78969 8.34781 4.17391 8.34781C4.17391 8.68799 4.41822 8.97062 4.74087 9.03112L4.19275 10.2687C4.45544 10.3755 4.7425 10.4348 5.0435 10.4348C5.3445 10.4348 5.63156 10.3755 5.89425 10.2687L5.34612 9.03112C5.66878 8.97068 5.91309 8.68802 5.91309 8.34781C6.29731 8.34781 6.60875 8.03637 6.60875 7.65215H6.58559C6.96972 7.65215 7.30434 7.34068 7.30434 6.95649Z" fill="#F0F0F0"/>
</g>
<defs>
<clipPath id="clip0_467_1835">
<rect width="16" height="16" fill="white"/>
</clipPath>
</defs>
</svg>
