<svg width="16" height="16" viewBox="0 0 16 16" fill="none" xmlns="http://www.w3.org/2000/svg">
<g clip-path="url(#clip0_467_1751)">
<path d="M0 7.99986C0 9.38579 0.352594 10.6894 0.972719 11.8259L8 12.5216L15.0273 11.8259C15.6474 10.6894 16 9.38579 16 7.99986L8 7.3042L0 7.99986Z" fill="#FFDA44"/>
<path d="M15.0273 4.17391C13.6704 1.68716 11.0323 0 8 0C4.96766 0 2.32956 1.68716 0.972719 4.17391C0.352594 5.3105 0 6.61406 0 8H16C16 6.61406 15.6474 5.3105 15.0273 4.17391Z" fill="#338AF3"/>
<path d="M8.00006 16.0001C11.0324 16.0001 13.6705 14.3129 15.0273 11.8262H0.972778C2.32962 14.3129 4.96772 16.0001 8.00006 16.0001Z" fill="#496E2D"/>
<path d="M9.04346 4.68179L10.0205 5.14138L9.50024 6.08763L10.5612 5.8847L10.6956 6.95641L11.4346 6.16816L12.1736 6.95641L12.308 5.8847L13.3689 6.08757L12.8486 5.14135L13.8256 4.68179L12.8486 4.22226L13.3689 3.27601L12.308 3.47895L12.1735 2.40723L11.4346 3.19548L10.6956 2.40723L10.5612 3.47895L9.50021 3.27601L10.0205 4.22229L9.04346 4.68179Z" fill="#FFDA44"/>
</g>
<defs>
<clipPath id="clip0_467_1751">
<rect width="16" height="16" fill="white"/>
</clipPath>
</defs>
</svg>
