<svg width="16" height="16" viewBox="0 0 16 16" fill="none" xmlns="http://www.w3.org/2000/svg">
<g clip-path="url(#clip0_467_1813)">
<path d="M8 16C12.4183 16 16 12.4183 16 8C16 3.58172 12.4183 0 8 0C3.58172 0 0 3.58172 0 8C0 12.4183 3.58172 16 8 16Z" fill="#6DA544"/>
<path d="M4.52185 9.56494C4.52185 10.1412 4.98904 10.6084 5.56532 10.6084H8.69576C8.69576 11.0887 9.08507 11.478 9.56532 11.478H10.6088C11.089 11.478 11.4784 11.0887 11.4784 10.6084V9.56494H4.52185Z" fill="#F0F0F0"/>
<path d="M11.5653 4.52148V6.95627C11.5653 7.33986 11.2532 7.65192 10.8696 7.65192V8.69539C11.8286 8.69539 12.6088 7.9152 12.6088 6.95627V4.52148H11.5653Z" fill="#F0F0F0"/>
<path d="M4.08701 6.95627C4.08701 7.33986 3.77495 7.65192 3.39136 7.65192V8.69539C4.35033 8.69539 5.13048 7.9152 5.13048 6.95627V4.52148H4.08701V6.95627Z" fill="#F0F0F0"/>
<path d="M10 4.52148H11.0435V6.95627H10V4.52148Z" fill="#F0F0F0"/>
<path d="M8.43482 5.9128C8.43482 6.0087 8.35678 6.0867 8.26091 6.0867C8.16503 6.0867 8.087 6.00867 8.087 5.9128V4.52148H7.04353V5.9128C7.04353 6.0087 6.9655 6.0867 6.86963 6.0867C6.77375 6.0867 6.69572 6.00867 6.69572 5.9128V4.52148H5.65222V5.9128C5.65222 6.58408 6.19835 7.1302 6.86963 7.1302C7.12816 7.1302 7.36791 7.04895 7.56528 6.91095C7.76263 7.04892 8.00241 7.1302 8.26094 7.1302C8.313 7.1302 8.36419 7.12655 8.41453 7.12014C8.3406 7.4248 8.06622 7.65192 7.73919 7.65192V8.69539C8.69816 8.69539 9.47832 7.9152 9.47832 6.95627V5.9128V4.52148H8.43485V5.9128H8.43482Z" fill="#F0F0F0"/>
<path d="M5.65222 7.65186H7.21744V8.69532H5.65222V7.65186Z" fill="#F0F0F0"/>
</g>
<defs>
<clipPath id="clip0_467_1813">
<rect width="16" height="16" fill="white"/>
</clipPath>
</defs>
</svg>
