<svg width="16" height="16" viewBox="0 0 16 16" fill="none" xmlns="http://www.w3.org/2000/svg">
<g clip-path="url(#clip0_467_1756)">
<path d="M8 16C12.4183 16 16 12.4183 16 8C16 3.58172 12.4183 0 8 0C3.58172 0 0 3.58172 0 8C0 12.4183 3.58172 16 8 16Z" fill="#F0F0F0"/>
<path d="M8 2.96361e-06C7.99253 -0.00562204 -0.00212458 7.99791 4.23548e-07 8C4.23548e-07 3.58175 3.58175 2.96361e-06 8 2.96361e-06Z" fill="#D80027"/>
<path d="M8 2.96362e-06C8.00747 -0.00562204 16.0021 7.99788 16 8C16 3.58175 12.4183 2.96362e-06 8 2.96362e-06Z" fill="#D80027"/>
<path d="M8 16C7.99253 16.0056 -0.00212458 8.00213 4.23548e-07 8C4.23548e-07 12.4183 3.58175 16 8 16Z" fill="#0052B4"/>
<path d="M8 16C8.00747 16.0056 16.0021 8.00213 16 8C16 12.4183 12.4183 16 8 16Z" fill="#0052B4"/>
<path d="M8.00002 4.17383L8.8634 6.83098H11.6573L9.39696 8.47317L10.2603 11.1304L8.00002 9.48814L5.73971 11.1304L6.60309 8.47317L4.34277 6.83098H7.13665L8.00002 4.17383Z" fill="#FFDA44"/>
</g>
<defs>
<clipPath id="clip0_467_1756">
<rect width="16" height="16" fill="white"/>
</clipPath>
</defs>
</svg>
