<svg width="16" height="16" viewBox="0 0 16 16" fill="none" xmlns="http://www.w3.org/2000/svg">
<g clip-path="url(#clip0_467_1765)">
<path d="M0.793813 4.52183C0.28525 5.57358 0 6.75348 0 8.00008C0 9.24667 0.28525 10.4266 0.793813 11.4783L8 12.174L15.2062 11.4783C15.7147 10.4266 16 9.24667 16 8.00008C16 6.75348 15.7147 5.57358 15.2062 4.52183L8 3.82617L0.793813 4.52183Z" fill="#F0F0F0"/>
<path d="M0.794067 11.478C2.088 14.154 4.82832 15.9998 7.99997 15.9998C11.1716 15.9998 13.9119 14.154 15.2059 11.478H0.794067Z" fill="#496E2D"/>
<path d="M0.794067 4.52175H15.2059C13.9119 1.84578 11.1717 0 7.99997 0C4.82829 0 2.088 1.84578 0.794067 4.52175Z" fill="black"/>
<path d="M2.34314 2.34326C-0.781047 5.46745 -0.781047 10.5328 2.34314 13.657C3.63417 12.366 4.87583 11.1243 8.00002 8.00014L2.34314 2.34326Z" fill="#D80027"/>
<path d="M10.087 8.00021C10.087 6.83465 10.9061 5.86093 12 5.62205C11.8319 5.58534 11.6574 5.56543 11.4782 5.56543C10.1335 5.56543 9.04346 6.65549 9.04346 8.00021C9.04346 9.34493 10.1335 10.435 11.4782 10.435C11.6574 10.435 11.8318 10.4151 12 10.3784C10.9061 10.1395 10.087 9.16577 10.087 8.00021Z" fill="#D80027"/>
<path d="M12.1023 6.43506L12.4477 7.498H13.5652L12.6611 8.15481L13.0065 9.21768L12.1023 8.56081L11.1982 9.21768L11.5436 8.15481L10.6394 7.498H11.7569L12.1023 6.43506Z" fill="#D80027"/>
</g>
<defs>
<clipPath id="clip0_467_1765">
<rect width="16" height="16" fill="white"/>
</clipPath>
</defs>
</svg>
