<svg width="16" height="16" viewBox="0 0 16 16" fill="none" xmlns="http://www.w3.org/2000/svg">
<g clip-path="url(#clip0_467_1798)">
<path d="M8 16C12.4183 16 16 12.4183 16 8C16 3.58172 12.4183 0 8 0C3.58172 0 0 3.58172 0 8C0 12.4183 3.58172 16 8 16Z" fill="#F0F0F0"/>
<path d="M15.9323 6.95653H9.04353H9.0435V0.0677188C8.70191 0.02325 8.35366 0 8 0C7.64634 0 7.29809 0.02325 6.95653 0.0677188V6.95647V6.9565H0.0677188C0.02325 7.29809 0 7.64634 0 8C0 8.35366 0.02325 8.70191 0.0677188 9.04347H6.95647H6.9565V15.9323C7.29809 15.9768 7.64634 16 8 16C8.35366 16 8.70191 15.9768 9.04347 15.9323V9.04356V9.0435H15.9323C15.9768 8.70191 16 8.35366 16 8C16 7.64634 15.9768 7.29809 15.9323 6.95653Z" fill="#D80027"/>
<path d="M11.826 2.78271C11.1777 2.78271 10.633 3.22612 10.4785 3.82618L11.826 4.174L13.1735 3.82618C13.019 3.22615 12.4743 2.78271 11.826 2.78271Z" fill="black"/>
<path d="M10.4347 5.91295L12.1739 6.26077V5.5213C12.6628 5.39542 13.0476 5.01052 13.1734 4.52164L11.826 4.17383H10.0869L10.4347 5.2173V5.91295Z" fill="black"/>
<path d="M13.1735 3.82617H10.0869V4.52183V5.21748H10.4347V4.52183H13.1734C13.202 4.41067 13.2174 4.29411 13.2174 4.17402C13.2174 4.05389 13.2021 3.93733 13.1735 3.82617Z" fill="#ACABB1"/>
<path d="M4.52179 2.78271C3.87347 2.78271 3.32875 3.22612 3.17432 3.82618L4.52179 4.174L5.86925 3.82618C5.71482 3.22615 5.1701 2.78271 4.52179 2.78271Z" fill="black"/>
<path d="M3.13056 5.91295L4.86968 6.26077V5.5213C5.35859 5.39542 5.7434 5.01052 5.86925 4.52164L4.52187 4.17383H2.78271L3.13053 5.2173V5.91295H3.13056Z" fill="black"/>
<path d="M5.86934 3.82617H2.78271V4.52183V5.21748H3.13053V4.52183H5.86922C5.89784 4.41067 5.91315 4.29411 5.91315 4.17402C5.91315 4.05389 5.89796 3.93733 5.86934 3.82617Z" fill="#ACABB1"/>
<path d="M11.826 9.73926C11.1777 9.73926 10.633 10.1827 10.4785 10.7827L11.826 11.1305L13.1735 10.7827C13.019 10.1827 12.4743 9.73926 11.826 9.73926Z" fill="black"/>
<path d="M10.4347 12.8695L12.1739 13.2173V12.4778C12.6628 12.352 13.0476 11.9671 13.1734 11.4782L11.826 11.1304H10.0869L10.4347 12.1738V12.8695Z" fill="black"/>
<path d="M13.1735 10.7827H10.0869V11.4784V12.174H10.4347V11.4784H13.1734C13.202 11.3672 13.2174 11.2507 13.2174 11.1306C13.2174 11.0105 13.2021 10.8939 13.1735 10.7827Z" fill="#ACABB1"/>
<path d="M4.52179 9.73926C3.87347 9.73926 3.32875 10.1827 3.17432 10.7827L4.52179 11.1305L5.86925 10.7827C5.71482 10.1827 5.1701 9.73926 4.52179 9.73926Z" fill="black"/>
<path d="M3.13056 12.8695L4.86968 13.2173V12.4778C5.35859 12.352 5.7434 11.9671 5.86925 11.4782L4.52187 11.1304H2.78271L3.13053 12.1738V12.8695H3.13056Z" fill="black"/>
<path d="M5.86934 10.7827H2.78271V11.4784V12.174H3.13053V11.4784H5.86922C5.89784 11.3672 5.91315 11.2507 5.91315 11.1306C5.91315 11.0105 5.89796 10.8939 5.86934 10.7827Z" fill="#ACABB1"/>
</g>
<defs>
<clipPath id="clip0_467_1798">
<rect width="16" height="16" fill="white"/>
</clipPath>
</defs>
</svg>
