<svg width="16" height="16" viewBox="0 0 16 16" fill="none" xmlns="http://www.w3.org/2000/svg">
<g clip-path="url(#clip0_467_1903)">
<path d="M13.6571 13.6571C16.6574 10.6567 16.7759 5.86658 14.0137 2.72412L7.99999 7.99995L2.72412 14.0137C5.86658 16.7759 10.6567 16.6574 13.6571 13.6571Z" fill="#496E2D"/>
<path d="M2.34292 2.34293C5.34326 -0.657404 10.1334 -0.775873 13.2759 1.98628L7.99997 8.00008L1.98629 13.2759C-0.775888 10.1334 -0.657389 5.34327 2.34292 2.34293Z" fill="#0052B4"/>
<path d="M13.2758 1.98633L1.98621 13.2759C2.10033 13.4058 2.21883 13.5331 2.34286 13.6571C2.46686 13.7811 2.59427 13.8996 2.72414 14.0138L14.0137 2.7242C13.8995 2.59433 13.781 2.46695 13.657 2.34292C13.533 2.21898 13.4056 2.10045 13.2758 1.98633Z" fill="#FFDA44"/>
<path d="M3.37063 2.78223L3.54335 3.31369H4.10213L3.65006 3.6421L3.82272 4.17357L3.37063 3.8451L2.91853 4.17357L3.09125 3.6421L2.63916 3.31369H3.19797L3.37063 2.78223Z" fill="#F0F0F0"/>
<path d="M6.225 2.78223L6.39772 3.31369H6.95646L6.5044 3.6421L6.67709 4.17357L6.225 3.8451L5.7729 4.17357L5.94562 3.6421L5.49353 3.31369H6.05231L6.225 2.78223Z" fill="#F0F0F0"/>
<path d="M3.37063 5.56494L3.54335 6.09641H4.10213L3.65006 6.42485L3.82272 6.95631L3.37063 6.62785L2.91853 6.95631L3.09125 6.42485L2.63916 6.09641H3.19797L3.37063 5.56494Z" fill="#F0F0F0"/>
<path d="M6.225 5.56494L6.39772 6.09641H6.95646L6.5044 6.42485L6.67709 6.95631L6.225 6.62785L5.7729 6.95631L5.94562 6.42485L5.49353 6.09641H6.05231L6.225 5.56494Z" fill="#F0F0F0"/>
<path d="M4.79778 4.17334L4.9705 4.70481H5.52925L5.07719 5.03324L5.24988 5.56471L4.79778 5.23624L4.34569 5.56471L4.51838 5.03324L4.06628 4.70481H4.6251L4.79778 4.17334Z" fill="#F0F0F0"/>
</g>
<defs>
<clipPath id="clip0_467_1903">
<rect width="16" height="16" fill="white"/>
</clipPath>
</defs>
</svg>
