<svg width="16" height="16" viewBox="0 0 16 16" fill="none" xmlns="http://www.w3.org/2000/svg">
<g clip-path="url(#clip0_467_1845)">
<path d="M8 16C12.4183 16 16 12.4183 16 8C16 3.58172 12.4183 0 8 0C3.58172 0 0 3.58172 0 8C0 12.4183 3.58172 16 8 16Z" fill="#F0F0F0"/>
<path d="M13.4003 2.09803C11.9772 0.795156 10.0815 0 8.00002 0C7.65927 0 7.32349 0.0214688 6.99392 0.0628125L3.13046 4.52175L0.253174 10.0041C0.439049 10.7248 0.723236 11.4058 1.08989 12.0328L8.00002 8L13.4003 2.09803Z" fill="#FFDA44"/>
<path d="M14.6604 12.4326L3.46765 14.5926C4.75606 15.4801 6.31725 16.0002 8.00006 16.0002C10.7788 16.0002 13.2263 14.5832 14.6604 12.4326Z" fill="#6DA544"/>
<path d="M13.4015 2.09912L1.09448 12.0405C1.41639 12.5895 1.8018 13.0967 2.24076 13.552L16 8.00003C16 5.66381 14.9985 3.56168 13.4015 2.09912Z" fill="#D80027"/>
<path d="M0 8.00018C0 8.69227 0.0879375 9.3638 0.253156 10.0043L6.99391 0.0629883C3.05056 0.557801 0 3.92268 0 8.00018Z" fill="#0052B4"/>
</g>
<defs>
<clipPath id="clip0_467_1845">
<rect width="16" height="16" fill="white"/>
</clipPath>
</defs>
</svg>
