<svg width="16" height="16" viewBox="0 0 16 16" fill="none" xmlns="http://www.w3.org/2000/svg">
<g clip-path="url(#clip0_467_1822)">
<path d="M8 16C12.4183 16 16 12.4183 16 8C16 3.58172 12.4183 0 8 0C3.58172 0 0 3.58172 0 8C0 12.4183 3.58172 16 8 16Z" fill="#F0F0F0"/>
<path d="M12.8705 1.65375C11.5216 0.616844 9.83298 0 8.00005 0C6.16711 0 4.47849 0.616875 3.12952 1.65375L8.00005 6.52425L12.8705 1.65375Z" fill="#0052B4"/>
<path d="M1.65372 3.12939C0.616875 4.47836 0 6.16696 0 7.99989C0 9.83283 0.616875 11.5215 1.65375 12.8705L6.52428 7.99989L1.65372 3.12939Z" fill="#0052B4"/>
<path d="M3.12952 14.3461C4.47852 15.383 6.16711 15.9998 8.00005 15.9998C9.83298 15.9998 11.5216 15.383 12.8706 14.3461L8.00005 9.47559L3.12952 14.3461Z" fill="#0052B4"/>
<path d="M14.3462 12.8704C15.3831 11.5214 16 9.83283 16 7.99989C16 6.16696 15.3831 4.47836 14.3462 3.12939L9.47571 7.99989L14.3462 12.8704Z" fill="#0052B4"/>
</g>
<defs>
<clipPath id="clip0_467_1822">
<rect width="16" height="16" fill="white"/>
</clipPath>
</defs>
</svg>
