<svg width="16" height="16" viewBox="0 0 16 16" fill="none" xmlns="http://www.w3.org/2000/svg">
<g clip-path="url(#clip0_467_1997)">
<path d="M0.793813 4.52183C0.28525 5.57358 0 6.75348 0 8.00008C0 9.24667 0.28525 10.4266 0.793813 11.4783L8 12.174L15.2062 11.4783C15.7147 10.4266 16 9.24667 16 8.00008C16 6.75348 15.7147 5.57358 15.2062 4.52183L8 3.82617L0.793813 4.52183Z" fill="#F0F0F0"/>
<path d="M0.794189 11.478C2.08813 14.154 4.82841 15.9998 8.0001 15.9998C11.1718 15.9998 13.9121 14.154 15.206 11.478H0.794189Z" fill="black"/>
<path d="M0.794189 4.52175H15.206C13.9121 1.84578 11.1718 0 8.0001 0C4.82841 0 2.08813 1.84578 0.794189 4.52175Z" fill="#D80027"/>
<path d="M2.34314 2.34326C-0.781047 5.46745 -0.781047 10.5328 2.34314 13.657C3.63417 12.366 4.87583 11.1243 8.00002 8.00014L2.34314 2.34326Z" fill="#496E2D"/>
</g>
<defs>
<clipPath id="clip0_467_1997">
<rect width="16" height="16" fill="white"/>
</clipPath>
</defs>
</svg>
