<svg width="16" height="16" viewBox="0 0 16 16" fill="none" xmlns="http://www.w3.org/2000/svg">
<g clip-path="url(#clip0_467_1855)">
<path d="M8 16C12.4183 16 16 12.4183 16 8C16 3.58172 12.4183 0 8 0C3.58172 0 0 3.58172 0 8C0 12.4183 3.58172 16 8 16Z" fill="#F0F0F0"/>
<path d="M0 8.00003C0 3.58175 3.58175 0 8 0C12.4183 0 16 3.58175 16 8.00003" fill="#D80027"/>
<path d="M4.86955 4.17401C4.86955 3.00845 5.68871 2.03476 6.78258 1.79585C6.61446 1.75916 6.44005 1.73926 6.26083 1.73926C4.91611 1.73926 3.82605 2.82932 3.82605 4.17404C3.82605 5.51876 4.91611 6.60882 6.26083 6.60882C6.43999 6.60882 6.61442 6.58891 6.78258 6.5522C5.68871 6.31329 4.86955 5.3396 4.86955 4.17401Z" fill="#F0F0F0"/>
<path d="M7.99999 1.91309L8.17268 2.44449H8.73146L8.27937 2.77296L8.45205 3.30437L7.99999 2.97596L7.54793 3.30437L7.72062 2.77296L7.26855 2.44449H7.8273L7.99999 1.91309Z" fill="#F0F0F0"/>
<path d="M6.64446 2.95654L6.81712 3.48798H7.3759L6.92384 3.81642L7.09653 4.34782L6.64446 4.01942L6.19234 4.34782L6.36506 3.81642L5.91296 3.48798H6.47175L6.64446 2.95654Z" fill="#F0F0F0"/>
<path d="M9.35546 2.95654L9.52818 3.48798H10.0869L9.63484 3.81642L9.80755 4.34782L9.35546 4.01942L8.9034 4.34782L9.07609 3.81642L8.62402 3.48798H9.18277L9.35546 2.95654Z" fill="#F0F0F0"/>
<path d="M8.83373 4.52197L9.00642 5.05341H9.56517L9.11311 5.38185L9.2858 5.91325L8.83373 5.58485L8.38167 5.91325L8.55436 5.38185L8.10229 5.05341H8.66101L8.83373 4.52197Z" fill="#F0F0F0"/>
<path d="M7.16628 4.52197L7.33894 5.05341H7.89775L7.44566 5.38185L7.61838 5.91325L7.16628 5.58485L6.71419 5.91325L6.88688 5.38185L6.43481 5.05341H6.9936L7.16628 4.52197Z" fill="#F0F0F0"/>
</g>
<defs>
<clipPath id="clip0_467_1855">
<rect width="16" height="16" fill="white"/>
</clipPath>
</defs>
</svg>
