<svg width="16" height="16" viewBox="0 0 16 16" fill="none" xmlns="http://www.w3.org/2000/svg">
<g clip-path="url(#clip0_467_1898)">
<path d="M8 16C12.4183 16 16 12.4183 16 8C16 3.58172 12.4183 0 8 0C3.58172 0 0 3.58172 0 8C0 12.4183 3.58172 16 8 16Z" fill="#F0F0F0"/>
<path d="M15.5024 5.21734H6.95653V3.13037H2.78259V5.21734H0.497594C0.176031 6.08396 0 7.02137 0 7.99993C0 8.9785 0.176031 9.91587 0.497594 10.7825L8 11.4782L15.5024 10.7825C15.824 9.91587 16 8.9785 16 7.99993C16 7.02137 15.824 6.08396 15.5024 5.21734Z" fill="#0052B4"/>
<path d="M7.99996 16.0001C11.4397 16.0001 14.372 13.8291 15.5024 10.7827H0.497559C1.6279 13.8291 4.56025 16.0001 7.99996 16.0001Z" fill="#D80027"/>
<path d="M2.78259 5.21744V5.91307C2.78259 7.5106 4.86956 8.00007 4.86956 8.00007C4.86956 8.00007 6.95653 7.5106 6.95653 5.91307V5.21744L6.26087 5.9131L4.86956 4.86963L3.47825 5.9131L2.78259 5.21744Z" fill="#F0F0F0"/>
</g>
<defs>
<clipPath id="clip0_467_1898">
<rect width="16" height="16" fill="white"/>
</clipPath>
</defs>
</svg>
