<svg width="16" height="16" viewBox="0 0 16 16" fill="none" xmlns="http://www.w3.org/2000/svg">
<g clip-path="url(#clip0_467_1865)">
<path d="M3.49109 14.6087C4.77503 15.4864 6.32743 16.0001 8.00006 16.0001C9.67268 16.0001 11.2251 15.4864 12.509 14.6087L8.00006 13.9131L3.49109 14.6087Z" fill="#D80027"/>
<path d="M12.509 1.39131C11.2251 0.513656 9.67268 0 8.00006 0C6.32743 0 4.77496 0.513656 3.49109 1.39131L8.00006 2.08697L12.509 1.39131Z" fill="#D80027"/>
<path d="M3.49109 14.6087C4.77503 15.4864 6.32743 16.0001 8.00006 16.0001C9.67268 16.0001 11.2251 15.4864 12.509 14.6087L8.00006 13.9131L3.49109 14.6087Z" fill="#D80027"/>
<path d="M12.509 1.39131C11.2251 0.513656 9.67268 0 8.00006 0C6.32743 0 4.77496 0.513656 3.49109 1.39131L8.00006 2.08697L12.509 1.39131Z" fill="#D80027"/>
<path d="M15.9797 7.47808C15.7901 5.00902 14.2899 2.60852 12.509 1.39111H3.49106C1.51806 2.73989 0.179721 4.94889 0.0168457 7.47808L8.00003 7.99983L15.9797 7.47808Z" fill="#0052B4"/>
<path d="M0.0168457 8.52175C0.179721 11.051 1.51803 13.2599 3.49103 14.6087H12.509C14.4821 13.26 15.8203 11.051 15.9832 8.52175L8.00003 8L0.0168457 8.52175Z" fill="#0052B4"/>
<path d="M15.9796 7.47821H8.52175V1.04346H7.47828V7.47821H0.0168437C0.00575 7.65071 0 7.82468 0 7.99999C0 8.17527 0.00571875 8.34921 0.0168125 8.52171H7.47828V14.9565H8.52175V8.52171H15.9832C15.9943 8.34921 16 8.17527 16 7.99999C16 7.82596 15.993 7.65193 15.9796 7.47821Z" fill="#D80027"/>
<path d="M3.13049 8.00014L8.00002 4.93945L12.8696 8.00014L8.00002 11.0609L3.13049 8.00014Z" fill="#F0F0F0"/>
<path d="M5.21741 9.39117H11.4783L10.087 7.3042L9.39131 7.99986L8.69566 7.65204L8 8.69551H6.60869L5.91303 7.99986L5.21741 9.39117Z" fill="#6DA544"/>
<path d="M7.99996 5.91309L8.17265 6.44449H8.73137L8.27934 6.77296L8.45202 7.3044L7.99996 6.97596L7.5479 7.3044L7.72059 6.77296L7.26855 6.44449H7.82727L7.99996 5.91309Z" fill="#FFDA44"/>
<path d="M7.99998 4.06494L1.73914 8.00013L7.99998 11.9353L14.2609 8.00013L7.99998 4.06494ZM3.70001 8.00013L7.99998 5.29741L12.3 8.00013L7.99998 10.7028L3.70001 8.00013Z" fill="#D80027"/>
</g>
<defs>
<clipPath id="clip0_467_1865">
<rect width="16" height="16" fill="white"/>
</clipPath>
</defs>
</svg>
