<svg width="16" height="16" viewBox="0 0 16 16" fill="none" xmlns="http://www.w3.org/2000/svg">
<g clip-path="url(#clip0_467_1890)">
<path d="M8 16C12.4183 16 16 12.4183 16 8C16 3.58172 12.4183 0 8 0C3.58172 0 0 3.58172 0 8C0 12.4183 3.58172 16 8 16Z" fill="#F0F0F0"/>
<path d="M8 15.9999C12.4183 15.9999 16 12.4181 16 7.99988C16 7.02132 15.824 6.08391 15.5024 5.21729H0.497594C0.176031 6.08391 0 7.02132 0 7.99988C0 12.4181 3.58175 15.9999 8 15.9999Z" fill="#0052B4"/>
<path d="M7.99996 16.0001C11.4397 16.0001 14.372 13.8291 15.5024 10.7827H0.497559C1.6279 13.8291 4.56025 16.0001 7.99996 16.0001Z" fill="#D80027"/>
<path d="M2.06873 4.52197V8.51279C2.06873 10.7829 5.03438 11.4785 5.03438 11.4785C5.03438 11.4785 8.00001 10.7829 8.00001 8.51279V4.52197H2.06873Z" fill="#F0F0F0"/>
<path d="M2.7644 4.52197V8.51279C2.7644 8.77929 2.82359 9.03097 2.94084 9.26694H7.12794C7.24519 9.031 7.30437 8.77929 7.30437 8.51279V4.52197H2.7644Z" fill="#D80027"/>
<path d="M6.42566 7.30422H5.38222V6.60857H6.07788V5.91291H5.38222V5.21729H4.68657V5.91291H3.99094V6.60857H4.68657V7.30422H3.64307V7.99988H4.68657V8.69553H5.38222V7.99988H6.42566V7.30422Z" fill="#F0F0F0"/>
<path d="M3.88976 10.2376C4.33804 10.5193 4.79861 10.6829 5.03439 10.7557C5.27017 10.6829 5.73073 10.5193 6.17901 10.2376C6.63107 9.9535 6.94798 9.62856 7.12792 9.26653C6.92945 9.12612 6.68729 9.04331 6.4257 9.04331C6.33045 9.04331 6.23792 9.05459 6.14895 9.07531C5.96042 8.64694 5.53245 8.34766 5.03442 8.34766C4.53639 8.34766 4.10839 8.64694 3.91989 9.07531C3.83092 9.05459 3.73836 9.04331 3.64314 9.04331C3.38154 9.04331 3.13939 9.12612 2.94092 9.26653C3.12076 9.62853 3.43767 9.95347 3.88976 10.2376Z" fill="#0052B4"/>
</g>
<defs>
<clipPath id="clip0_467_1890">
<rect width="16" height="16" fill="white"/>
</clipPath>
</defs>
</svg>
