<svg width="16" height="16" viewBox="0 0 16 16" fill="none" xmlns="http://www.w3.org/2000/svg">
<g clip-path="url(#clip0_467_1829)">
<path d="M11.4782 0.793813C10.4265 0.28525 9.24652 0 7.99996 0C6.75339 0 5.57346 0.28525 4.52171 0.793813L3.82605 8L4.52171 15.2062C5.57346 15.7147 6.75339 16 7.99996 16C9.24652 16 10.4265 15.7147 11.4782 15.2062L12.1739 8L11.4782 0.793813Z" fill="#FFDA44"/>
<path d="M7.99997 5.21729L8.69059 7.34291H10.9258L9.11759 8.65675L9.80825 10.7825L7.99997 9.46872L6.19169 10.7825L6.88247 8.65675L5.07422 7.34291H7.30931L7.99997 5.21729Z" fill="#496E2D"/>
<path d="M4.52175 0.793945C1.84581 2.08791 0 4.8282 0 7.99985C0 11.1715 1.84581 13.9118 4.52175 15.2058V0.793945Z" fill="#496E2D"/>
<path d="M11.4783 0.793945V15.2058C14.1542 13.9118 16 11.1715 16 7.99985C16 4.8282 14.1542 2.08791 11.4783 0.793945Z" fill="#D80027"/>
</g>
<defs>
<clipPath id="clip0_467_1829">
<rect width="16" height="16" fill="white"/>
</clipPath>
</defs>
</svg>
