<svg width="16" height="16" viewBox="0 0 16 16" fill="none" xmlns="http://www.w3.org/2000/svg">
<g clip-path="url(#clip0_467_1916)">
<path d="M15.5024 10.7828C15.824 9.91616 16 8.97879 16 8.00022C16 7.02166 15.824 6.08429 15.5024 5.21763L8 4.52197L0.497594 5.21763C0.176031 6.08429 0 7.02166 0 8.00022C0 8.97879 0.176031 9.91616 0.497594 10.7828L8 11.4785L15.5024 10.7828Z" fill="#F0F0F0"/>
<path d="M8 16.0001C11.4397 16.0001 14.3721 13.8291 15.5024 10.7827H0.497559C1.62793 13.8291 4.56025 16.0001 8 16.0001Z" fill="#D80027"/>
<path d="M8 0C4.56025 0 1.62793 2.171 0.497559 5.21741H15.5024C14.3721 2.171 11.4397 0 8 0Z" fill="#496E2D"/>
<path d="M8.00001 6.26074L8.43167 7.58927H9.82864L8.69848 8.41043L9.1302 9.73899L8.00001 8.91796L6.86982 9.73899L7.30154 8.41043L6.17139 7.58927H7.56836L8.00001 6.26074Z" fill="black"/>
<path d="M10.3768 1.56543V3.18859C10.3768 3.44437 10.1688 3.65237 9.91309 3.65237V4.34802C10.5524 4.34802 11.0725 3.82793 11.0725 3.18859V1.56543H10.3768Z" fill="#F0F0F0"/>
<path d="M5.39127 3.18859C5.39127 3.44437 5.18324 3.65237 4.92749 3.65237V4.34802C5.56683 4.34802 6.08693 3.82793 6.08693 3.18859V1.56543H5.39127V3.18859Z" fill="#F0F0F0"/>
<path d="M9.33325 1.56543H10.0289V3.18859H9.33325V1.56543Z" fill="#F0F0F0"/>
<path d="M8.28991 2.49293C8.28991 2.55687 8.23788 2.6089 8.17397 2.6089C8.11003 2.6089 8.058 2.55687 8.058 2.49293V1.56543H7.36235V2.49293C7.36235 2.55687 7.31035 2.6089 7.24641 2.6089C7.18247 2.6089 7.13047 2.55687 7.13047 2.49293V1.56543H6.43481V2.49293C6.43481 2.94049 6.79888 3.30455 7.24641 3.30455C7.41875 3.30455 7.57863 3.2504 7.71016 3.15843C7.84175 3.2504 8.0016 3.30455 8.17394 3.30455C8.20866 3.30455 8.24278 3.30212 8.27635 3.29784C8.22703 3.50093 8.04413 3.65237 7.82613 3.65237V4.34802C8.46544 4.34802 8.98553 3.82793 8.98553 3.18859V2.49293V1.56543H8.28988L8.28991 2.49293Z" fill="#F0F0F0"/>
<path d="M6.43481 3.65234H7.47828V4.348H6.43481V3.65234Z" fill="#F0F0F0"/>
</g>
<defs>
<clipPath id="clip0_467_1916">
<rect width="16" height="16" fill="white"/>
</clipPath>
</defs>
</svg>
