<svg width="16" height="16" viewBox="0 0 16 16" fill="none" xmlns="http://www.w3.org/2000/svg">
<g clip-path="url(#clip0_467_2002)">
<path d="M8 16C12.4183 16 16 12.4183 16 8C16 3.58172 12.4183 0 8 0C3.58172 0 0 3.58172 0 8C0 12.4183 3.58172 16 8 16Z" fill="#F0F0F0"/>
<path d="M15.5024 5.21729H0.497562C0.176031 6.08397 0 7.02132 0 7.99988C0 8.97844 0.176031 9.91585 0.497562 10.7825H15.5024C15.824 9.91585 16 8.97844 16 7.99988C16 7.02132 15.824 6.08397 15.5024 5.21729Z" fill="#A2001D"/>
<path d="M8.02318 15.9997C10.7632 15.9997 13.1812 14.6219 14.6231 12.5215H1.42334C2.86515 14.6219 5.28309 15.9997 8.02318 15.9997Z" fill="#6DA544"/>
<path d="M8.02318 0C10.7632 0 13.1812 1.37788 14.6231 3.47825H1.42334C2.86515 1.37788 5.28309 0 8.02318 0Z" fill="#6DA544"/>
<path d="M8.00003 5.21729L8.69069 7.34291H10.9258L9.11759 8.65679L9.80831 10.7825L8.00003 9.46875L6.19175 10.7825L6.8825 8.65679L5.07422 7.34291H7.30938L8.00003 5.21729Z" fill="#FFDA44"/>
</g>
<defs>
<clipPath id="clip0_467_2002">
<rect width="16" height="16" fill="white"/>
</clipPath>
</defs>
</svg>
