<svg width="16" height="16" viewBox="0 0 16 16" fill="none" xmlns="http://www.w3.org/2000/svg">
<g clip-path="url(#clip0_467_1956)">
<path d="M8 16C12.4183 16 16 12.4183 16 8C16 3.58172 12.4183 0 8 0C3.58172 0 0 3.58172 0 8C0 12.4183 3.58172 16 8 16Z" fill="#F0F0F0"/>
<path d="M15.376 4.89853C14.1645 2.02069 11.3185 0 8.0001 0C5.79091 0 3.79113 0.895594 2.34351 2.34341L4.34694 4.89853H15.376Z" fill="black"/>
<path d="M4.36966 11.0723L2.34351 13.6564C3.79113 15.1042 5.79091 15.9998 8.0001 15.9998C11.3297 15.9998 14.1838 13.9656 15.3883 11.0723H4.36966Z" fill="#496E2D"/>
<path d="M1.73901 5.88428V10.0872H15.7243C15.9038 9.42181 15.9999 8.72231 15.9999 8.00022C15.9999 7.26765 15.9012 6.55828 15.7167 5.88428H1.73901Z" fill="#A2001D"/>
<path d="M2.34314 2.34326C-0.781047 5.46745 -0.781047 10.5328 2.34314 13.657C3.63417 12.366 4.87583 11.1243 8.00002 8.00014L2.34314 2.34326Z" fill="#0052B4"/>
<path d="M2.60585 6.01123L3.58225 7.37376L5.18 6.86611L4.18591 8.21589L5.16231 9.57848L3.57144 9.05014L2.57731 10.3999L2.58825 8.72354L0.997314 8.19514L2.59494 7.68751L2.60585 6.01123Z" fill="#FFDA44"/>
</g>
<defs>
<clipPath id="clip0_467_1956">
<rect width="16" height="16" fill="white"/>
</clipPath>
</defs>
</svg>
