<svg width="16" height="16" viewBox="0 0 16 16" fill="none" xmlns="http://www.w3.org/2000/svg">
<g clip-path="url(#clip0_467_1975)">
<path d="M8 16C12.4183 16 16 12.4183 16 8C16 3.58172 12.4183 0 8 0C3.58172 0 0 3.58172 0 8C0 12.4183 3.58172 16 8 16Z" fill="#F0F0F0"/>
<path d="M14.284 6.43499H11.6521C11.6521 5.95475 11.2628 5.56543 10.7826 5.56543L10.0869 6.95673C10.0869 6.95673 10.829 9.04369 10.8058 9.04369H11.6753C12.1556 9.04369 12.5449 8.6544 12.5449 8.17413C13.0251 8.17413 13.4144 7.78484 13.4144 7.30458H13.3855C13.8657 7.30454 14.284 6.91526 14.284 6.43499Z" fill="#ACABB1"/>
<path d="M1.71594 6.43499H4.34782C4.34782 5.95475 4.73714 5.56543 5.21738 5.56543L5.91304 6.95673C5.91304 6.95673 5.171 9.04369 5.1942 9.04369H4.32464C3.84438 9.04369 3.45509 8.6544 3.45509 8.17413C2.97482 8.17413 2.58553 7.78484 2.58553 7.30458H2.61449C2.13422 7.30454 1.71594 6.91526 1.71594 6.43499Z" fill="#ACABB1"/>
<path d="M10.7826 11.1304V11.4782H5.21735V11.1304H3.82605V12.5217H5.21735V12.8695H10.7826V12.5217H12.1739V11.1304H10.7826Z" fill="#FFDA44"/>
<path d="M5.21741 5.5651V9.04333C5.21741 11.1733 8 11.826 8 11.826C8 11.826 10.7826 11.1733 10.7826 9.04333V5.5651L8 5.21729L5.21741 5.5651Z" fill="#0052B4"/>
<path d="M5.21741 6.95654H10.7826V9.0435H5.21741V6.95654Z" fill="#D80027"/>
<path d="M9.3913 3.82604V4.34778L9.04348 4.5217L8.69567 4.17385V3.13037H7.30437V4.17385L6.95655 4.5217L6.6087 4.34778V3.82604H5.21741V5.56515H10.7826V3.82604H9.3913Z" fill="#FFDA44"/>
</g>
<defs>
<clipPath id="clip0_467_1975">
<rect width="16" height="16" fill="white"/>
</clipPath>
</defs>
</svg>
