<svg width="16" height="16" viewBox="0 0 16 16" fill="none" xmlns="http://www.w3.org/2000/svg">
<g clip-path="url(#clip0_467_891)">
<path d="M8 16C12.4183 16 16 12.4183 16 8C16 3.58172 12.4183 0 8 0C3.58172 0 0 3.58172 0 8C0 12.4183 3.58172 16 8 16Z" fill="#F0F0F0"/>
<path d="M7.99989 0C4.8282 0 2.0877 1.84578 0.793701 4.52175H15.206C13.9121 1.84578 11.1715 0 7.99989 0Z" fill="#0052B4"/>
<path d="M7.99989 15.9998C11.1715 15.9998 13.9121 14.154 15.2061 11.478H0.793701C2.0877 14.154 4.8282 15.9998 7.99989 15.9998Z" fill="#0052B4"/>
<path d="M6.39355 8.34802L8.00012 5.56543L9.60668 8.34802H6.39355Z" fill="#FFDA44"/>
<path d="M10.087 9.26677L8.00005 10.3103L5.91309 9.26677V7.87549H10.087V9.26677Z" fill="#6DA544"/>
<path d="M9.96769 5.68457L9.22984 6.42241C9.54456 6.73713 9.73925 7.17191 9.73925 7.65216C9.73925 8.61266 8.96059 9.39129 8.00012 9.39129C7.03965 9.39129 6.261 8.61263 6.261 7.65216C6.261 7.17191 6.45569 6.73713 6.7704 6.42241L6.03256 5.68457C5.52897 6.18807 5.21753 6.88373 5.21753 7.65216C5.21753 9.18898 6.46334 10.4348 8.00012 10.4348C9.5369 10.4348 10.7827 9.18895 10.7827 7.65216C10.7827 6.88373 10.4712 6.18807 9.96769 5.68457Z" fill="#FFDA44"/>
</g>
<defs>
<clipPath id="clip0_467_891">
<rect width="16" height="16" fill="white"/>
</clipPath>
</defs>
</svg>
