<svg width="16" height="16" viewBox="0 0 16 16" fill="none" xmlns="http://www.w3.org/2000/svg">
<g clip-path="url(#clip0_467_1880)">
<path d="M7.30436 8.69566C7.30436 8.69566 2.34783 2.34203 2.34314 2.34316C3.79083 0.895438 5.79086 0 8.00001 0C12.4183 0 16 3.58175 16 8L7.30436 8.69566Z" fill="#D80027"/>
<path d="M7.30436 8C7.30436 8 2.34783 13.658 2.34314 13.6568C3.79083 15.1046 5.79086 16 8.00001 16C12.4183 16 16 12.4183 16 8H7.30436Z" fill="#0052B4"/>
<path d="M2.34314 2.34326C-0.781047 5.46745 -0.781047 10.5328 2.34314 13.657C3.63417 12.366 4.87583 11.1243 8.00002 8.00014L2.34314 2.34326Z" fill="#F0F0F0"/>
<path d="M0.876851 8C0.872476 8.05744 0.869507 8.11531 0.869507 8.17387C0.869507 9.4225 1.88176 10.4347 3.13038 10.4347C4.37901 10.4347 5.39126 9.4225 5.39126 8.17387C5.39126 8.11531 5.38829 8.05741 5.38391 8H0.876851Z" fill="#FFDA44"/>
<path d="M3.13035 6.95674C3.51455 6.95674 3.826 6.64529 3.826 6.26109C3.826 5.87689 3.51455 5.56543 3.13035 5.56543C2.74615 5.56543 2.43469 5.87689 2.43469 6.26109C2.43469 6.64529 2.74615 6.95674 3.13035 6.95674Z" fill="#FFDA44"/>
<path d="M1.56519 6.08691V8.34779C1.56519 9.54591 3.1304 9.91301 3.1304 9.91301C3.1304 9.91301 4.69562 9.54591 4.69562 8.34779V6.08691H1.56519Z" fill="#D80027"/>
<path d="M3.13121 9.18512C2.84083 9.08062 2.26086 8.81356 2.26086 8.34793V6.78271H4.00002V8.34793C4.00002 8.81509 3.42011 9.0815 3.13121 9.18512Z" fill="#338AF3"/>
<path d="M3.47821 7.65212V7.30428L3.13039 7.13037L2.78255 7.30428V7.65212L2.60864 7.82603V8.52168H3.65214V7.82603L3.47821 7.65212Z" fill="#F3F3F3"/>
</g>
<defs>
<clipPath id="clip0_467_1880">
<rect width="16" height="16" fill="white"/>
</clipPath>
</defs>
</svg>
