<svg width="16" height="16" viewBox="0 0 16 16" fill="none" xmlns="http://www.w3.org/2000/svg">
<g clip-path="url(#clip0_467_2034)">
<path d="M8 16C12.4183 16 16 12.4183 16 8C16 3.58172 12.4183 0 8 0C3.58172 0 0 3.58172 0 8C0 12.4183 3.58172 16 8 16Z" fill="#F0F0F0"/>
<path d="M7.99996 0C4.56025 0 1.6279 2.171 0.497559 5.21741H15.5024C14.372 2.171 11.4397 0 7.99996 0Z" fill="#D80027"/>
<path d="M7.99996 16.0001C11.4397 16.0001 14.372 13.8291 15.5024 10.7827H0.497559C1.6279 13.8291 4.56025 16.0001 7.99996 16.0001Z" fill="black"/>
<path d="M4.78004 6.08691L5.2117 7.41541H6.60867L5.47851 8.2366L5.9102 9.56516L4.78004 8.74407L3.64988 9.56516L4.08157 8.2366L2.95142 7.41541H4.34838L4.78004 6.08691Z" fill="#6DA544"/>
<path d="M11.2199 6.08691L11.6515 7.41541H13.0485L11.9183 8.2366L12.35 9.56516L11.2199 8.74407L10.0897 9.56516L10.5214 8.2366L9.39124 7.41541H10.7882L11.2199 6.08691Z" fill="#6DA544"/>
</g>
<defs>
<clipPath id="clip0_467_2034">
<rect width="16" height="16" fill="white"/>
</clipPath>
</defs>
</svg>
