<svg width="16" height="16" viewBox="0 0 16 16" fill="none" xmlns="http://www.w3.org/2000/svg">
<g clip-path="url(#clip0_467_2009)">
<path d="M15.2062 11.4782C15.7147 10.4265 16 9.24648 16 7.99992C16 6.75336 15.7147 5.57339 15.2062 4.52167L8 4.17383L0.793813 4.52164C0.28525 5.57339 0 6.75336 0 7.99992C0 9.24648 0.28525 10.4265 0.793813 11.4782L8 11.826L15.2062 11.4782Z" fill="#FFDA44"/>
<path d="M7.99989 0C4.8282 0 2.0877 1.84578 0.793701 4.52175H15.206C13.9121 1.84578 11.1715 0 7.99989 0Z" fill="black"/>
<path d="M7.99989 15.9998C4.8282 15.9998 2.0877 14.154 0.793701 11.478H15.206C13.9121 14.154 11.1715 15.9998 7.99989 15.9998Z" fill="#0052B4"/>
<path d="M15.6222 5.56543H0.377781C0.132719 6.33321 0 7.15118 0 8.00021C0 8.84924 0.132719 9.66721 0.377781 10.435H15.6222C15.8673 9.66721 16 8.84924 16 8.00021C16 7.15118 15.8673 6.33321 15.6222 5.56543Z" fill="#A2001D"/>
<path d="M2.78271 7.65186H13.2175V8.34751H2.78271V7.65186Z" fill="#FFDA44"/>
<path d="M4.17407 6.26074H11.8263V6.9564H4.17407V6.26074Z" fill="#FFDA44"/>
<path d="M11.8758 8.00005C11.8758 8.00005 10.087 10.087 8.00005 10.087C5.91312 10.087 5.91309 8.00005 5.91309 8.00005C5.91309 8.00005 5.91309 5.91309 8.00005 5.91309C10.087 5.91309 11.8758 8.00005 11.8758 8.00005Z" fill="#F0F0F0"/>
<path d="M8.00005 10.087C5.91308 10.087 4.12427 8.00005 4.12427 8.00005C4.12427 8.00005 5.91308 5.91309 8.00005 5.91309" fill="black"/>
<path d="M6.60864 7.3042H7.3043V8.69551H6.60864V7.3042Z" fill="#F0F0F0"/>
<path d="M8.69556 7.3042H9.39121V8.69551H8.69556V7.3042Z" fill="black"/>
<path d="M2.78257 8.69551C3.16677 8.69551 3.47823 8.38406 3.47823 7.99986C3.47823 7.61566 3.16677 7.3042 2.78257 7.3042C2.39837 7.3042 2.08691 7.61566 2.08691 7.99986C2.08691 8.38406 2.39837 8.69551 2.78257 8.69551Z" fill="#0052B4"/>
<path d="M13.2174 8.69551C13.6016 8.69551 13.913 8.38406 13.913 7.99986C13.913 7.61566 13.6016 7.3042 13.2174 7.3042C12.8332 7.3042 12.5217 7.61566 12.5217 7.99986C12.5217 8.38406 12.8332 8.69551 13.2174 8.69551Z" fill="#0052B4"/>
</g>
<defs>
<clipPath id="clip0_467_2009">
<rect width="16" height="16" fill="white"/>
</clipPath>
</defs>
</svg>
