<svg width="16" height="16" viewBox="0 0 16 16" fill="none" xmlns="http://www.w3.org/2000/svg">
<g clip-path="url(#clip0_467_693)">
<path d="M7.99994 0C7.02138 0 6.08398 0.176031 5.21735 0.497594L4.86951 8L5.21732 15.5024C6.08398 15.824 7.02138 16 7.99994 16C8.97851 16 9.91591 15.824 10.7825 15.5024L11.1304 8L10.7826 0.497594C9.91591 0.176031 8.97851 0 7.99994 0V0Z" fill="#FFDA44"/>
<path d="M16 7.99996C16 4.56025 13.829 1.6279 10.7826 0.497559V15.5024C13.829 14.372 16 11.4397 16 7.99996Z" fill="#D80027"/>
<path d="M5.21741 15.5024V0.497559C2.171 1.6279 0 4.56025 0 7.99996C0 11.4397 2.171 14.372 5.21741 15.5024Z" fill="#0052B4"/>
</g>
<defs>
<clipPath id="clip0_467_693">
<rect width="16" height="16" fill="white"/>
</clipPath>
</defs>
</svg>
