<svg width="16" height="16" viewBox="0 0 16 16" fill="none" xmlns="http://www.w3.org/2000/svg">
<g clip-path="url(#clip0_467_2087)">
<path d="M8 16C12.4183 16 16 12.4183 16 8C16 3.58172 12.4183 0 8 0C3.58172 0 0 3.58172 0 8C0 12.4183 3.58172 16 8 16Z" fill="#FFDA44"/>
<path d="M7.99991 0C7.9941 6.25e-05 7.6521 3.2 7.6521 3.2H14.4003C12.9408 1.25697 10.6172 0 7.99991 0Z" fill="#496E2D"/>
<path d="M7.99995 15.9998C10.6172 15.9998 12.9408 14.7428 14.4003 12.7998H1.59961C3.05911 14.7428 5.3827 15.9998 7.99995 15.9998Z" fill="#496E2D"/>
<path d="M15.8397 6.3999H7.6521L7.99991 9.5999H15.8397C15.9447 9.08293 15.9999 8.54787 15.9999 7.9999C15.9999 7.45193 15.9447 6.91687 15.8397 6.3999Z" fill="#496E2D"/>
<path d="M8 9.6C8 7.93044 8 1.87825 8 0C3.58175 0 0 3.58175 0 8C0 8.54797 0.05525 9.08303 0.160187 9.6H8Z" fill="#D80027"/>
<path d="M4.41428 3.82617L4.93228 5.42039H6.60869L5.25253 6.4058L5.77047 8.00008L4.41428 7.01477L3.0581 8.00008L3.57613 6.4058L2.21997 5.42039H3.89631L4.41428 3.82617Z" fill="#F0F0F0"/>
</g>
<defs>
<clipPath id="clip0_467_2087">
<rect width="16" height="16" fill="white"/>
</clipPath>
</defs>
</svg>
