<svg width="16" height="16" viewBox="0 0 16 16" fill="none" xmlns="http://www.w3.org/2000/svg">
<g clip-path="url(#clip0_467_2071)">
<path d="M8 16C12.4183 16 16 12.4183 16 8C16 3.58172 12.4183 0 8 0C3.58172 0 0 3.58172 0 8C0 12.4183 3.58172 16 8 16Z" fill="#F0F0F0"/>
<path d="M3.49109 1.39131C4.775 0.513625 6.32743 0 8.00006 0C9.67268 0 11.2251 0.513625 12.509 1.39131L8.00006 1.73913L3.49109 1.39131Z" fill="#FFDA44"/>
<path d="M2.34356 13.6562L6.03237 9.96749L8 6.60849L9.96741 9.96727L13.6564 13.6562C15.1042 12.2086 16 10.209 16 7.9998C16 5.25414 14.6166 2.83183 12.509 1.39111H3.49103C1.38341 2.83183 0 5.25414 0 7.9998C0 10.209 0.89575 12.2086 2.34356 13.6562Z" fill="#D80027"/>
<path d="M15.3923 11.0628L9.54321 8.63916L9.96715 9.96678L13.6565 13.6561C14.3931 12.9196 14.9868 12.0401 15.3923 11.0628Z" fill="#0052B4"/>
<path d="M16 7.99968C16 6.91452 15.7837 5.87999 15.3923 4.93652L8 7.99968H16Z" fill="#0052B4"/>
<path d="M13.6564 2.34336C13.3048 1.9918 12.9208 1.67264 12.509 1.39111H10.7385L8 7.9998L13.6564 2.34336Z" fill="#0052B4"/>
<path d="M7.99994 1.39111H5.26147L7.99994 7.9998V1.39111Z" fill="#0052B4"/>
<path d="M2.34357 2.34326C1.60694 3.07982 1.01329 3.95923 0.607788 4.93651L8.00001 7.9997L2.34357 2.34326Z" fill="#0052B4"/>
<path d="M0 8C0 9.08516 0.216281 10.1197 0.60775 11.0632L8 8H0Z" fill="#0052B4"/>
<path d="M3.49109 14.6084C4.77496 15.4861 6.32743 15.9997 8.00006 15.9997C9.67268 15.9997 11.2251 15.4861 12.509 14.6084H3.49109Z" fill="#FFDA44"/>
<path d="M8 7.99988L9.9676 9.96747C10.4712 9.46391 10.7826 8.76829 10.7826 7.99988C10.7826 6.46307 9.53681 5.21729 8.00003 5.21729C6.46325 5.21729 5.21741 6.46307 5.21741 7.99988C5.21741 8.76825 5.52884 9.46391 6.03244 9.96747L8 7.99988Z" fill="#FFDA44"/>
<path d="M9.21741 12.0001C9.21741 12.6725 8.67231 12.8697 8 12.8697C7.32769 12.8697 6.78259 12.6725 6.78259 12.0001C6.78259 11.3278 7.32769 10.7827 8 10.7827C8.67231 10.7827 9.21741 11.3278 9.21741 12.0001Z" fill="#FFDA44"/>
<path d="M9.21741 12C9.21741 12.6723 8.67231 13.2174 8 13.2174C7.32769 13.2174 6.78259 12.6723 6.78259 12" fill="#0052B4"/>
</g>
<defs>
<clipPath id="clip0_467_2071">
<rect width="16" height="16" fill="white"/>
</clipPath>
</defs>
</svg>
