<svg width="16" height="16" viewBox="0 0 16 16" fill="none" xmlns="http://www.w3.org/2000/svg">
<g clip-path="url(#clip0_467_2047)">
<path d="M0.793813 4.52183C0.28525 5.57358 0 6.75352 0 8.00008C0 9.24664 0.28525 10.4266 0.793813 11.4783L8 12.174L15.2062 11.4783C15.7147 10.4266 16 9.24664 16 8.00008C16 6.75352 15.7147 5.57358 15.2062 4.52183L8 3.82617L0.793813 4.52183Z" fill="#F0F0F0"/>
<path d="M0.794067 11.478C2.08804 14.154 4.82832 15.9998 7.99997 15.9998C11.1716 15.9998 13.9119 14.154 15.2059 11.478H0.794067Z" fill="#6DA544"/>
<path d="M0.794067 4.52175H15.2059C13.9119 1.84581 11.1716 0 7.99997 0C4.82832 0 2.08804 1.84581 0.794067 4.52175Z" fill="#D80027"/>
<path d="M6.60864 10.0873H9.39127V8.90468L8.83474 9.18293L7.99996 8.34814L7.16517 9.18293L6.60864 8.90468V10.0873Z" fill="#FFDA44"/>
<path d="M5.01661 8.6958L5.14614 9.09436H5.56521L5.22614 9.34071L5.35567 9.73927L5.01661 9.49296L4.67755 9.73927L4.80708 9.34071L4.46802 9.09436H4.88708L5.01661 8.6958Z" fill="#FFDA44"/>
<path d="M5.4181 7.30469L5.54763 7.70325H5.96669L5.62763 7.94959L5.75713 8.34816L5.4181 8.10184L5.07904 8.34816L5.20857 7.94959L4.86951 7.70325H5.28857L5.4181 7.30469Z" fill="#FFDA44"/>
<path d="M6.56605 6.26123L6.69558 6.65979H7.11461L6.77561 6.90614L6.90508 7.3047L6.56605 7.05839L6.22702 7.3047L6.35652 6.90614L6.01746 6.65979H6.43655L6.56605 6.26123Z" fill="#FFDA44"/>
<path d="M10.9834 8.6958L10.8539 9.09436H10.4348L10.7739 9.34071L10.6443 9.73927L10.9834 9.49296L11.3224 9.73927L11.1929 9.34071L11.532 9.09436H11.1129L10.9834 8.6958Z" fill="#FFDA44"/>
<path d="M10.5818 7.30469L10.4523 7.70325H10.0332L10.3723 7.94959L10.2427 8.34816L10.5818 8.10184L10.9209 8.34816L10.7913 7.94959L11.1304 7.70325H10.7113L10.5818 7.30469Z" fill="#FFDA44"/>
<path d="M9.43394 6.26123L9.30441 6.65979H8.88538L9.22438 6.90614L9.09488 7.3047L9.43394 7.05839L9.77297 7.3047L9.64347 6.90614L9.9825 6.65979H9.56344L9.43394 6.26123Z" fill="#FFDA44"/>
<path d="M8.00001 5.73926L8.12954 6.13782H8.5486L8.20954 6.38416L8.33907 6.78273L8.00001 6.53641L7.66095 6.78273L7.79048 6.38416L7.45142 6.13782H7.87048L8.00001 5.73926Z" fill="#FFDA44"/>
</g>
<defs>
<clipPath id="clip0_467_2047">
<rect width="16" height="16" fill="white"/>
</clipPath>
</defs>
</svg>
