<svg width="16" height="16" viewBox="0 0 16 16" fill="none" xmlns="http://www.w3.org/2000/svg">
<g clip-path="url(#clip0_467_2095)">
<path d="M8 16C12.4183 16 16 12.4183 16 8C16 3.58172 12.4183 0 8 0C3.58172 0 0 3.58172 0 8C0 12.4183 3.58172 16 8 16Z" fill="#FFDA44"/>
<path d="M12.8696 3.82609C12.7978 4.17094 12.7652 4.53822 12.7652 4.90434C12.7652 7.01478 14.0233 8.84138 15.8263 9.66366C15.9398 9.12691 16 8.5705 16 8C16 3.58175 12.4183 0 8 0C3.58175 0 0 3.58175 0 8C0 12.4183 3.58175 16 8 16C10.7401 16 13.1581 14.6221 14.5999 12.5218H4.52175V11.4783H15.2062C15.3155 11.2522 15.4143 11.02 15.5024 10.7826H4.52175L12.8696 3.82609Z" fill="#0052B4"/>
<path d="M5.87722 4.17383L6.04991 4.70527H6.60866L6.15663 5.03373L6.32931 5.56514L5.87722 5.23673L5.42519 5.56514L5.59785 5.03373L5.14575 4.70527H5.70453L5.87722 4.17383Z" fill="#F0F0F0"/>
<path d="M3.6074 8L3.82327 8.66434H4.52171L3.95662 9.07481L4.17249 9.73913L3.6074 9.32856L3.04233 9.73913L3.25818 9.07481L2.69312 8.66434H3.39155L3.6074 8Z" fill="#F0F0F0"/>
<path d="M3.6074 2.43457L3.82327 3.09891H4.52171L3.95662 3.50938L4.17249 4.1737L3.6074 3.76313L3.04233 4.1737L3.25818 3.50938L2.69312 3.09891H3.39155L3.6074 2.43457Z" fill="#F0F0F0"/>
<path d="M1.86826 5.56494L2.08414 6.22928H2.78254L2.21748 6.63975L2.43335 7.30407L1.86826 6.8935L1.3032 7.30407L1.51904 6.63975L0.953979 6.22928H1.65239L1.86826 5.56494Z" fill="#F0F0F0"/>
</g>
<defs>
<clipPath id="clip0_467_2095">
<rect width="16" height="16" fill="white"/>
</clipPath>
</defs>
</svg>
