<svg width="16" height="16" viewBox="0 0 16 16" fill="none" xmlns="http://www.w3.org/2000/svg">
<g clip-path="url(#clip0_467_2130)">
<path d="M7.99999 0C7.40268 0 6.82084 0.0660313 6.2609 0.190156L5.91309 7.99997L6.2609 15.8098C6.82087 15.9339 7.40271 16 7.99999 16C12.4183 16 16 12.4182 16 7.99997C16 3.58172 12.4183 0 7.99999 0V0Z" fill="#496E2D"/>
<path d="M2.08694 2.61182C0.790562 4.03357 0 5.9245 0 8.00019C0 10.0759 0.790594 11.9668 2.08697 13.3886L2.43478 8.00019L2.08694 2.61182Z" fill="#496E2D"/>
<path d="M11.7007 6.03437C12.0943 4.93731 11.6521 3.74415 10.7031 3.1499C10.8738 3.17212 11.0447 3.21231 11.2133 3.27278C12.479 3.7269 13.137 5.12103 12.6829 6.38671C12.2287 7.6525 10.8346 8.31037 9.56889 7.85625C9.40024 7.79575 9.24277 7.71809 9.09692 7.62675C10.2072 7.77134 11.3071 7.13143 11.7007 6.03437Z" fill="#F0F0F0"/>
<path d="M9.51766 2.84912L9.17563 3.29106L8.64972 3.10234L8.96428 3.56415L8.62231 4.00603L9.15872 3.84959L9.47335 4.31134L9.49022 3.75284L10.0267 3.59637L9.50075 3.40771L9.51766 2.84912Z" fill="#F0F0F0"/>
<path d="M10.4412 4.28906L10.0991 4.73097L9.57318 4.54225L9.88778 5.00406L9.54578 5.44594L10.0822 5.28944L10.3968 5.75128L10.4137 5.19275L10.9502 5.03625L10.4242 4.84756L10.4412 4.28906Z" fill="#F0F0F0"/>
<path d="M7.88936 3.37354L7.54733 3.81541L7.02142 3.62675L7.33602 4.08854L6.99402 4.53044L7.53039 4.37397L7.84502 4.83575L7.86196 4.27725L8.39836 4.12079L7.87246 3.93207L7.88936 3.37354Z" fill="#F0F0F0"/>
<path d="M7.85192 5.02295L7.50992 5.46486L6.98398 5.27617L7.29861 5.73798L6.95654 6.17986L7.49301 6.02342L7.80761 6.48517L7.82451 5.92667L8.36095 5.7702L7.83498 5.58148L7.85192 5.02295Z" fill="#F0F0F0"/>
<path d="M9.4215 5.58594L9.07947 6.02781L8.55356 5.83913L8.86819 6.30094L8.52612 6.74278L9.06259 6.58634L9.37718 7.04816L9.39409 6.48959L9.93053 6.33316L9.40456 6.14447L9.4215 5.58594Z" fill="#F0F0F0"/>
<path d="M2.08691 2.61138V13.3882C3.17691 14.5836 4.62473 15.4469 6.26082 15.8096V0.189941C4.6247 0.552629 3.17695 1.41591 2.08691 2.61138Z" fill="#D80027"/>
<path d="M3.67974 4.21182L2.98096 3.69126V2.9551L3.67974 2.43457H4.66802L5.3668 2.9551V3.69126L4.66802 4.21182H3.67974Z" fill="#F0F0F0"/>
<path d="M4.17389 2.43457H3.67974L2.98096 2.9551V3.31501H4.17389V2.43457Z" fill="#FF9811"/>
<path d="M4.17395 4.21201H4.66808L5.36686 3.69145V3.31592H4.17395V4.21201Z" fill="#FF9811"/>
<path d="M3.67974 13.5653L2.98096 13.0448V12.3086L3.67974 11.7881H4.66802L5.3668 12.3086V13.0448L4.66802 13.5653H3.67974Z" fill="#F0F0F0"/>
<path d="M4.17389 11.7881H3.67974L2.98096 12.3086V12.6686H4.17389V11.7881Z" fill="#FF9811"/>
<path d="M4.17395 13.5655H4.66808L5.36686 13.0449V12.6694H4.17395V13.5655Z" fill="#FF9811"/>
<path d="M3.67974 8.88858L2.98096 8.36802V7.63189L3.67974 7.11133H4.66802L5.3668 7.63189V8.36802L4.66802 8.88858H3.67974Z" fill="#496E2D"/>
<path d="M5.39129 10.0341H5.08692V9.72975H4.55207L4.17389 9.35156L3.79573 9.72975H3.26089V10.0341H2.95654V10.6428H3.26089V10.9471H3.7957L4.17392 11.3253L4.55207 10.9471H5.08692V10.6428H5.39129V10.0341Z" fill="#496E2D"/>
<path d="M5.39129 5.35737H5.08692V5.05299H4.55207L4.17389 4.6748L3.79573 5.05299H3.26089V5.35737H2.95654V5.96605H3.26089V6.2704H3.7957L4.17392 6.64865L4.55207 6.2704H5.08692V5.96605H5.39129V5.35737Z" fill="#496E2D"/>
<path d="M3.82605 7.65186H4.52171V8.34751H3.82605V7.65186Z" fill="#D80027"/>
<path d="M4.17386 6.0091C4.36595 6.0091 4.52167 5.85338 4.52167 5.66129C4.52167 5.4692 4.36595 5.31348 4.17386 5.31348C3.98177 5.31348 3.82605 5.4692 3.82605 5.66129C3.82605 5.85338 3.98177 6.0091 4.17386 6.0091Z" fill="#D80027"/>
<path d="M4.17386 10.6859C4.36595 10.6859 4.52167 10.5301 4.52167 10.338C4.52167 10.146 4.36595 9.99023 4.17386 9.99023C3.98177 9.99023 3.82605 10.146 3.82605 10.338C3.82605 10.5301 3.98177 10.6859 4.17386 10.6859Z" fill="#D80027"/>
</g>
<defs>
<clipPath id="clip0_467_2130">
<rect width="16" height="16" fill="white"/>
</clipPath>
</defs>
</svg>
