<svg width="16" height="16" viewBox="0 0 16 16" fill="none" xmlns="http://www.w3.org/2000/svg">
<g clip-path="url(#clip0_467_2119)">
<path d="M8 16C12.4183 16 16 12.4183 16 8C16 3.58172 12.4183 0 8 0C3.58172 0 0 3.58172 0 8C0 12.4183 3.58172 16 8 16Z" fill="#D80027"/>
<path d="M8.00004 11.826C10.1131 11.826 11.8261 10.113 11.8261 7.99992C11.8261 5.88683 10.1131 4.17383 8.00004 4.17383C5.88695 4.17383 4.17395 5.88683 4.17395 7.99992C4.17395 10.113 5.88695 11.826 8.00004 11.826Z" fill="#F0F0F0"/>
<path d="M8.47134 6.53711L9.12772 7.44164L10.1907 7.09695L9.53334 8.0007L10.1897 8.9052L9.12697 8.5592L8.46956 9.46295L8.47025 8.34542L7.40759 7.99942L8.47066 7.65473L8.47134 6.53711Z" fill="#D80027"/>
<path d="M8.86956 10.2608C7.62094 10.2608 6.60869 9.24854 6.60869 7.99991C6.60869 6.75129 7.62094 5.73904 8.86956 5.73904C9.25888 5.73904 9.62522 5.83747 9.94503 6.01079C9.44331 5.52013 8.75722 5.21729 8 5.21729C6.46325 5.21729 5.21741 6.4631 5.21741 7.99988C5.21741 9.53666 6.46325 10.7825 8 10.7825C8.75722 10.7825 9.44334 10.4796 9.94503 9.98897C9.62522 10.1623 9.25888 10.2608 8.86956 10.2608Z" fill="#D80027"/>
</g>
<defs>
<clipPath id="clip0_467_2119">
<rect width="16" height="16" fill="white"/>
</clipPath>
</defs>
</svg>
