<svg width="16" height="16" viewBox="0 0 16 16" fill="none" xmlns="http://www.w3.org/2000/svg">
<g clip-path="url(#clip0_467_2103)">
<path d="M8 16C12.4183 16 16 12.4183 16 8C16 3.58172 12.4183 0 8 0C3.58172 0 0 3.58172 0 8C0 12.4183 3.58172 16 8 16Z" fill="#F0F0F0"/>
<path d="M5.21746 4.17384V3.13037H4.17396V4.17384H3.13049V5.21734H4.17396V6.26081H5.21746V5.21734H6.26093V4.17384H5.21746Z" fill="#D80027"/>
<path d="M8 0V8C3.58175 8.00003 1.82578 8 0 8.00003C0 12.4183 3.58175 16 8 16C12.4183 16 16 12.4183 16 8C16 3.58175 12.4183 0 8 0Z" fill="#D80027"/>
</g>
<defs>
<clipPath id="clip0_467_2103">
<rect width="16" height="16" fill="white"/>
</clipPath>
</defs>
</svg>
