<svg width="16" height="16" viewBox="0 0 16 16" fill="none" xmlns="http://www.w3.org/2000/svg">
<g clip-path="url(#clip0_467_2108)">
<path d="M15.7244 5.91303C14.8064 2.50691 11.6963 0 8.00004 0C4.30382 0 1.19363 2.50691 0.275635 5.91303L8.00004 6.26088L15.7244 5.91303Z" fill="#A2001D"/>
<path d="M0.275635 10.0871C1.19363 13.4932 4.30382 16.0001 8.00004 16.0001C11.6963 16.0001 14.8064 13.4932 15.7244 10.0871L8.00004 9.73926L0.275635 10.0871Z" fill="#A2001D"/>
<path d="M15.7244 5.91309H0.275594C0.09625 6.57849 0 7.27796 0 8.00005C0 8.72215 0.09625 9.42162 0.275594 10.087H15.7244C15.9038 9.42162 16 8.72215 16 8.00005C16 7.27796 15.9038 6.57849 15.7244 5.91309Z" fill="#6DA544"/>
</g>
<defs>
<clipPath id="clip0_467_2108">
<rect width="16" height="16" fill="white"/>
</clipPath>
</defs>
</svg>
