<svg width="16" height="16" viewBox="0 0 16 16" fill="none" xmlns="http://www.w3.org/2000/svg">
<g clip-path="url(#clip0_467_2113)">
<path d="M4.33171 0.888184C3.61552 1.25784 2.94324 1.74237 2.34287 2.34275C1.74246 2.94315 1.25793 3.61543 0.888306 4.33162L6.03227 9.96753L11.6682 15.1115C12.3844 14.7418 13.0567 14.2573 13.6571 13.657C14.2575 13.0566 14.742 12.3843 15.1116 11.6681L9.96765 6.03215L4.33171 0.888184Z" fill="#F0F0F0"/>
<path d="M13.6571 13.6569C13.9927 13.3213 14.292 12.9632 14.5555 12.5876L3.41227 1.44434C3.03667 1.7078 2.67858 2.00712 2.34299 2.34271C2.00739 2.6783 1.70808 3.0364 1.44458 3.41202L12.5879 14.5553C12.9634 14.2918 13.3215 13.9925 13.6571 13.6569Z" fill="black"/>
<path d="M2.34287 13.6574C4.86684 16.1813 8.65737 16.6658 11.6682 15.1119L0.888341 4.33203C-0.665565 7.34284 -0.180971 11.1334 2.34287 13.6574Z" fill="#D80027"/>
<path d="M13.6571 2.34291C11.1331 -0.181025 7.3426 -0.665525 4.33179 0.888319L15.1116 11.6683C16.6656 8.65744 16.1811 4.86685 13.6571 2.34291Z" fill="#D80027"/>
</g>
<defs>
<clipPath id="clip0_467_2113">
<rect width="16" height="16" fill="white"/>
</clipPath>
</defs>
</svg>
