<svg width="16" height="16" viewBox="0 0 16 16" fill="none" xmlns="http://www.w3.org/2000/svg">
<g clip-path="url(#clip0_467_2172)">
<path d="M16 8C16 12.4183 12.4183 16 8.00003 16C3.58175 16 0 12.4183 0 8C0 8.00191 8.00003 0.000875 8.00003 0C12.4183 0 16 3.58175 16 8Z" fill="#338AF3"/>
<path d="M3.82605 7.99988H6.52424L4.17386 5.21729L3.82605 6.26075V7.99988Z" fill="#0052B4"/>
<path d="M8.00003 6.52439L5.21741 3.82617H8L8.00003 6.52439Z" fill="#0052B4"/>
<path d="M7.97864 7.99992H8.00004C8.00004 7.99273 8.00004 7.98573 8.00004 7.97852C7.99292 7.98567 7.98579 7.9928 7.97864 7.99992Z" fill="#F0F0F0"/>
<path d="M8.00003 4.17391C8.00003 2.76625 8.00003 1.84388 8.00003 0H7.99869C3.581 0.00075 0 3.58216 0 8H4.17394V5.64966L6.52428 8H7.97866C7.98578 7.99288 7.99291 7.98575 8.00006 7.97859C8.00006 7.43963 8.00006 6.95872 8.00006 6.52431L5.64962 4.17391H8.00003Z" fill="#F0F0F0"/>
<path d="M4.04733 1.04346C2.79611 1.75593 1.75593 2.79611 1.04346 4.04733V7.99999H3.13043V3.13049V3.13043H7.99999C7.99999 2.47221 7.99999 1.84514 7.99999 1.04346H4.04733Z" fill="#D80027"/>
<path d="M8.00004 7.01611L5.1577 4.17383H4.17395V4.17389L7.99998 7.99989H8.00004C8.00004 7.99989 8.00004 7.32155 8.00004 7.01611Z" fill="#D80027"/>
<path d="M8.73144 13.2178L8.90413 13.7492H9.46291L9.01087 14.0776L9.18356 14.6091L8.73144 14.2806L8.27941 14.6091L8.45209 14.0776L8 13.7492H8.55875L8.73144 13.2178Z" fill="#FFDA44"/>
<path d="M13.1815 9.73926L13.3542 10.2707H13.913L13.4609 10.5992L13.6337 11.1306L13.1815 10.8022L12.7295 11.1306L12.9022 10.5992L12.4501 10.2707H13.0089L13.1815 9.73926Z" fill="#FFDA44"/>
<path d="M14.2966 4.52197L14.4693 5.05341H15.0281L14.5761 5.38185L14.7487 5.91325L14.2966 5.58485L13.8446 5.91325L14.0173 5.38185L13.5652 5.05341H14.124L14.2966 4.52197Z" fill="#FFDA44"/>
<path d="M14.5729 8.34814L14.7456 8.87961H15.3043L14.8523 9.20805L15.025 9.73946L14.5729 9.41105L14.1209 9.73946L14.2936 9.20805L13.8414 8.87961H14.4002L14.5729 8.34814Z" fill="#FFDA44"/>
<path d="M9.53273 11.9675L10.0307 12.2213L10.4258 11.8262L10.3384 12.378L10.8363 12.6317L10.2843 12.7191L10.1969 13.271L9.94329 12.7731L9.39136 12.8606L9.78645 12.4655L9.53273 11.9675Z" fill="#FFDA44"/>
<path d="M9.53273 9.88066L10.0307 10.1344L10.4258 9.73926L10.3384 10.2911L10.8363 10.5448L10.2843 10.6322L10.1969 11.1841L9.94329 10.6863L9.39136 10.7737L9.78645 10.3786L9.53273 9.88066Z" fill="#FFDA44"/>
<path d="M11.2719 11.2185L11.7698 11.4722L12.1649 11.0771L12.0776 11.629L12.5754 11.8827L12.0235 11.9701L11.9361 12.522L11.6824 12.0241L11.1305 12.1116L11.5256 11.7165L11.2719 11.2185Z" fill="#FFDA44"/>
<path d="M11.2719 6.75029L11.7698 7.00398L12.1649 6.60889L12.0776 7.16076L12.5754 7.41442L12.0235 7.50186L11.9361 8.05376L11.6824 7.55589L11.1305 7.64332L11.5256 7.24823L11.2719 6.75029Z" fill="#FFDA44"/>
<path d="M12.9573 6.69658L13.4553 6.95027L13.8504 6.55518L13.7629 7.10705L14.2608 7.36071L13.7089 7.44814L13.6215 8.00005L13.3679 7.50218L12.8159 7.58961L13.211 7.19452L12.9573 6.69658Z" fill="#FFDA44"/>
</g>
<defs>
<clipPath id="clip0_467_2172">
<rect width="16" height="16" fill="white"/>
</clipPath>
</defs>
</svg>
