<svg width="16" height="16" viewBox="0 0 16 16" fill="none" xmlns="http://www.w3.org/2000/svg">
<g clip-path="url(#clip0_467_2041)">
<path d="M16 8C16 12.4183 12.4183 16 8 16C3.58175 16 0 12.4183 0 8C2.74781 5.25219 5.07825 2.92175 8 0C12.4183 0 16 3.58175 16 8Z" fill="#D80027"/>
<path d="M8 8C8 3.58175 8 3.06087 8 0C3.58175 0 0 3.58175 0 8H8Z" fill="#0052B4"/>
<path d="M6.9565 4.68179L5.97947 5.14141L6.49972 6.08763L5.43882 5.88463L5.30435 6.95641L4.56541 6.16816L3.82641 6.95641L3.692 5.88463L2.63107 6.08757L3.15132 5.14135L2.17432 4.68179L3.15135 4.22226L2.63107 3.27601L3.69197 3.47898L3.82644 2.40723L4.56541 3.19548L5.30438 2.40723L5.43882 3.47898L6.49975 3.27601L5.97947 4.22229L6.9565 4.68179Z" fill="#F0F0F0"/>
<path d="M4.56557 6.1707C5.38801 6.1707 6.05473 5.50398 6.05473 4.68154C6.05473 3.8591 5.38801 3.19238 4.56557 3.19238C3.74313 3.19238 3.07642 3.8591 3.07642 4.68154C3.07642 5.50398 3.74313 6.1707 4.56557 6.1707Z" fill="#0052B4"/>
<path d="M4.56544 5.47518C4.12791 5.47518 3.77197 5.11921 3.77197 4.68168C3.77197 4.24415 4.12794 3.88818 4.56544 3.88818C5.00297 3.88818 5.35894 4.24415 5.35894 4.68168C5.35891 5.11921 5.00291 5.47518 4.56544 5.47518Z" fill="#F0F0F0"/>
</g>
<defs>
<clipPath id="clip0_467_2041">
<rect width="16" height="16" fill="white"/>
</clipPath>
</defs>
</svg>
