<svg width="16" height="16" viewBox="0 0 16 16" fill="none" xmlns="http://www.w3.org/2000/svg">
<g clip-path="url(#clip0_467_2060)">
<path d="M8 16C12.4183 16 16 12.4183 16 8C16 3.58172 12.4183 0 8 0C3.58172 0 0 3.58172 0 8C0 12.4183 3.58172 16 8 16Z" fill="#FFDA44"/>
<path d="M2.34314 13.6569C2.67873 13.9925 3.03679 14.2918 3.41239 14.5553L14.5552 3.41242C14.2918 3.03682 13.9924 2.67876 13.6569 2.34317C13.3212 2.00757 12.9632 1.70832 12.5876 1.44482L1.44482 12.5877C1.70826 12.9632 2.00757 13.3213 2.34314 13.6569Z" fill="black"/>
<path d="M2.34318 2.34327C-0.18063 4.86714 -0.665162 8.65748 0.888682 11.6682L11.6681 0.888797C8.6574 -0.665046 4.86703 -0.180484 2.34318 2.34327Z" fill="#6DA544"/>
<path d="M13.6568 13.657C16.1806 11.1332 16.6651 7.34275 15.1113 4.33203L4.33191 15.1115C7.34257 16.6653 11.133 16.1808 13.6568 13.657Z" fill="#338AF3"/>
</g>
<defs>
<clipPath id="clip0_467_2060">
<rect width="16" height="16" fill="white"/>
</clipPath>
</defs>
</svg>
