<svg width="16" height="16" viewBox="0 0 16 16" fill="none" xmlns="http://www.w3.org/2000/svg">
<g clip-path="url(#clip0_467_2227)">
<path d="M8 16C12.4183 16 16 12.4183 16 8C16 3.58172 12.4183 0 8 0C3.58172 0 0 3.58172 0 8C0 12.4183 3.58172 16 8 16Z" fill="#338AF3"/>
<path d="M7.97693 5.21729C6.44009 5.21729 5.19434 6.4631 5.19434 7.99988C5.19434 9.53666 6.44012 10.7825 7.97693 10.7825C9.51368 10.7825 10.7595 9.53666 10.7595 7.99988C10.7595 6.4631 9.51365 5.21729 7.97693 5.21729ZM7.28127 7.99988C7.28127 7.61569 7.59271 7.30422 7.97693 7.30422C8.36112 7.30422 8.67259 7.61569 8.67259 7.99988C8.67259 8.3841 8.36112 8.69553 7.97693 8.69553C7.59271 8.69553 7.28127 8.3841 7.28127 7.99988ZM8.69818 6.80991C8.59021 6.74432 8.47252 6.69338 8.3479 6.65897V5.94647C8.66168 6.00279 8.95099 6.129 9.19931 6.30882L8.69818 6.80991ZM7.65227 6.64707C7.52174 6.67829 7.39843 6.72788 7.28512 6.79297L6.78168 6.28954C7.03618 6.11135 7.33205 5.98825 7.65227 5.93816V6.64707ZM7.28509 9.20679C7.3984 9.27185 7.52171 9.32147 7.65224 9.35266V10.0615C7.33199 10.0115 7.03618 9.88835 6.78168 9.71016L7.28509 9.20679ZM8.34793 9.34079C8.47252 9.30638 8.59027 9.25547 8.69818 9.18988L9.19927 9.69097C8.95096 9.87075 8.66168 9.997 8.3479 10.0533V9.34082H8.34793V9.34079ZM9.1838 8.69175C9.24509 8.5851 9.29299 8.46972 9.3244 8.34772H10.0345C9.98221 8.65904 9.86115 8.94682 9.68727 9.19513L9.1838 8.69175ZM9.3244 7.65207C9.29299 7.53004 9.24509 7.41475 9.1838 7.30807L9.68724 6.80463C9.86112 7.05297 9.98221 7.34072 10.0344 7.65204H9.32437V7.65207H9.3244ZM6.28584 6.77753L6.78693 7.27863C6.71727 7.39332 6.66374 7.51882 6.62943 7.65207H5.91937C5.97352 7.32938 6.10162 7.03194 6.28584 6.77753ZM5.91937 8.34769H6.62943C6.66371 8.48094 6.71724 8.60644 6.78693 8.72113L6.28584 9.22222C6.10162 8.96782 5.97352 8.67041 5.91937 8.34769Z" fill="#F0F0F0"/>
<path d="M12.4986 8.00008C12.4986 6.7632 12.0018 5.64255 11.1971 4.82617L10.4593 5.56402C11.0752 6.19152 11.4552 7.05139 11.4552 8.00008C11.4552 9.92108 9.89789 11.4783 7.97692 11.4783C6.05589 11.4783 4.49867 9.92108 4.49867 8.00008C4.49867 7.03955 4.88795 6.16998 5.51742 5.54058L4.77958 4.80273C3.96129 5.62102 3.4552 6.75145 3.4552 8.00008C3.4552 10.0693 4.84511 11.8139 6.74226 12.3512C6.53426 12.7463 6.56595 13.2438 6.86308 13.6145C7.25333 13.3018 7.65736 12.978 8.00011 12.7034C8.34286 12.978 8.74692 13.3018 9.13714 13.6145C9.4372 13.2401 9.46673 12.7363 9.25183 12.3393C11.1282 11.7888 12.4986 10.0546 12.4986 8.00008Z" fill="#F0F0F0"/>
</g>
<defs>
<clipPath id="clip0_467_2227">
<rect width="16" height="16" fill="white"/>
</clipPath>
</defs>
</svg>
