<svg width="16" height="16" viewBox="0 0 16 16" fill="none" xmlns="http://www.w3.org/2000/svg">
<g clip-path="url(#clip0_467_2240)">
<path d="M8 16C12.4183 16 16 12.4183 16 8C16 3.58172 12.4183 0 8 0C3.58172 0 0 3.58172 0 8C0 12.4183 3.58172 16 8 16Z" fill="#F0F0F0"/>
<path d="M8 5.91314H15.7244C15.5238 5.16895 15.2189 4.46767 14.8258 3.82617H8V5.91314Z" fill="#338AF3"/>
<path d="M3.01998 14.2608H12.9798C13.7099 13.6793 14.336 12.973 14.8257 12.1738H1.17407C1.66379 12.973 2.28992 13.6793 3.01998 14.2608Z" fill="#338AF3"/>
<path d="M8 0V1.73913H12.9799C11.6133 0.65075 9.88278 0 8 0Z" fill="#338AF3"/>
<path d="M8 5.91314H15.7244C15.5238 5.16895 15.2189 4.46767 14.8258 3.82617H8V5.91314Z" fill="#338AF3"/>
<path d="M0 8C0 8.72209 0.09625 9.42153 0.275594 10.087H15.7244C15.9038 9.42153 16 8.72209 16 8H0Z" fill="#338AF3"/>
<path d="M6.9565 4.68179L5.97944 5.14138L6.49972 6.08763L5.43879 5.8847L5.30435 6.95641L4.56541 6.16816L3.82641 6.95641L3.692 5.8847L2.63107 6.08757L3.15132 5.14135L2.17432 4.68179L3.15135 4.22226L2.63107 3.27601L3.69197 3.47895L3.82644 2.40723L4.56541 3.19548L5.30438 2.40723L5.43879 3.47895L6.49975 3.27601L5.97947 4.22229L6.9565 4.68179Z" fill="#FFDA44"/>
</g>
<defs>
<clipPath id="clip0_467_2240">
<rect width="16" height="16" fill="white"/>
</clipPath>
</defs>
</svg>
