<svg width="16" height="16" viewBox="0 0 16 16" fill="none" xmlns="http://www.w3.org/2000/svg">
<g clip-path="url(#clip0_467_2250)">
<path d="M0.37775 5.56513C0.132688 6.33288 -3.12445e-05 7.15079 5.51734e-09 7.99982C-3.12445e-05 8.84888 0.132719 9.66685 0.377781 10.4346L8 10.7825L15.6222 10.4347C15.8673 9.66688 16 8.84888 16 7.99988C16 7.15082 15.8673 6.33288 15.6222 5.5651L8 5.21729L0.37775 5.56513Z" fill="#F0F0F0"/>
<path d="M15.6222 5.5651L8 5.21729L0.377748 5.5651C0.305123 5.79272 0.242592 6.02482 0.190186 6.26075H15.8097C15.7573 6.02479 15.6948 5.79266 15.6222 5.5651Z" fill="#D80027"/>
<path d="M0.190308 9.73877C0.242651 9.97471 0.305183 10.2068 0.377808 10.4344L0.378558 10.4344L8 10.7822L15.6222 10.4344C15.6948 10.2068 15.7574 9.97471 15.8097 9.73877H0.190308Z" fill="#D80027"/>
<path d="M7.99999 15.9998C11.5692 15.9998 14.5921 13.6622 15.6222 10.4346H0.377808C1.40796 13.6622 4.43084 15.9998 7.99999 15.9998Z" fill="#6DA544"/>
<path d="M8.00003 3.13315e-10C4.43084 3.12503e-05 1.40803 2.33762 0.377808 5.56522L15.6222 5.56525C14.5921 2.33759 11.5693 -3.12497e-05 8.00003 3.13315e-10Z" fill="#338AF3"/>
<path d="M3.6558 3.30445C3.6558 2.55516 4.18239 1.92923 4.88561 1.77566C4.77755 1.75204 4.66539 1.73926 4.5502 1.73926C3.68577 1.73926 2.98499 2.44001 2.98499 3.30448C2.98499 4.16895 3.6857 4.8697 4.5502 4.8697C4.66539 4.8697 4.77752 4.85688 4.88561 4.83329C4.18242 4.67966 3.6558 4.05373 3.6558 3.30445Z" fill="#F0F0F0"/>
<path d="M5.81069 4.01611L5.91663 4.34221H6.2595L5.98213 4.54377L6.08807 4.86986L5.81069 4.66833L5.53325 4.86986L5.63922 4.54377L5.36182 4.34221H5.70469L5.81069 4.01611Z" fill="#F0F0F0"/>
<path d="M6.90511 4.01611L7.01108 4.34221H7.35395L7.07655 4.54377L7.18252 4.86986L6.90511 4.66833L6.62771 4.86986L6.73367 4.54377L6.4563 4.34221H6.79914L6.90511 4.01611Z" fill="#F0F0F0"/>
<path d="M7.99953 4.01611L8.10547 4.34221H8.44838L8.17097 4.54377L8.27691 4.86986L7.99953 4.66833L7.7221 4.86986L7.8281 4.54377L7.55066 4.34221H7.89357L7.99953 4.01611Z" fill="#F0F0F0"/>
<path d="M9.09389 4.01611L9.19986 4.34221H9.54271L9.26533 4.54377L9.3713 4.86986L9.09389 4.66833L8.81646 4.86986L8.92246 4.54377L8.64502 4.34221H8.9879L9.09389 4.01611Z" fill="#F0F0F0"/>
<path d="M10.1883 4.01611L10.2943 4.34221H10.6372L10.3598 4.54377L10.4658 4.86986L10.1883 4.66833L9.91091 4.86986L10.0169 4.54377L9.7395 4.34221H10.0823L10.1883 4.01611Z" fill="#F0F0F0"/>
<path d="M6.90511 2.87744L7.01108 3.2035H7.35395L7.07655 3.4051L7.18252 3.73116L6.90511 3.52963L6.62771 3.73116L6.73367 3.4051L6.4563 3.2035H6.79914L6.90511 2.87744Z" fill="#F0F0F0"/>
<path d="M7.99953 2.87744L8.10547 3.2035H8.44838L8.17097 3.4051L8.27691 3.73116L7.99953 3.52963L7.7221 3.73116L7.8281 3.4051L7.55066 3.2035H7.89357L7.99953 2.87744Z" fill="#F0F0F0"/>
<path d="M9.09389 2.87744L9.19986 3.2035H9.54271L9.26533 3.4051L9.3713 3.73116L9.09389 3.52963L8.81646 3.73116L8.92246 3.4051L8.64502 3.2035H8.9879L9.09389 2.87744Z" fill="#F0F0F0"/>
<path d="M10.1883 2.87744L10.2943 3.2035H10.6372L10.3598 3.4051L10.4658 3.73116L10.1883 3.52963L9.91091 3.73116L10.0169 3.4051L9.7395 3.2035H10.0823L10.1883 2.87744Z" fill="#F0F0F0"/>
<path d="M7.99953 1.73926L8.10547 2.06538H8.44838L8.17097 2.26691L8.27691 2.59304L7.99953 2.39151L7.7221 2.59304L7.8281 2.26691L7.55066 2.06538H7.89357L7.99953 1.73926Z" fill="#F0F0F0"/>
<path d="M9.09389 1.73926L9.19986 2.06538H9.54271L9.26533 2.26691L9.3713 2.59304L9.09389 2.39151L8.81646 2.59304L8.92246 2.26691L8.64502 2.06538H8.9879L9.09389 1.73926Z" fill="#F0F0F0"/>
<path d="M10.1883 1.73926L10.2943 2.06538H10.6372L10.3598 2.26691L10.4658 2.59304L10.1883 2.39151L9.91091 2.59304L10.0169 2.26691L9.7395 2.06538H10.0823L10.1883 1.73926Z" fill="#F0F0F0"/>
</g>
<defs>
<clipPath id="clip0_467_2250">
<rect width="16" height="16" fill="white"/>
</clipPath>
</defs>
</svg>
