<svg width="16" height="16" viewBox="0 0 16 16" fill="none" xmlns="http://www.w3.org/2000/svg">
<g clip-path="url(#clip0_467_2297)">
<path d="M8.00001 0C12.4183 0 16 3.58175 16 8C16 12.4183 12.4183 16 8.00001 16C8.00001 15.6522 6.95654 8 6.95654 8L8.00001 0Z" fill="#F0F0F0"/>
<path d="M8 16C3.58175 16 0 12.4183 0 8C0 3.58175 3.58175 0 8 0" fill="#FFDA44"/>
<path d="M11.0634 6.96143L12.5669 8.95037C12.33 9.30906 12.3313 9.79231 12.6052 10.1547C12.9527 10.6144 13.6071 10.7054 14.0669 10.3579C14.5266 10.0104 14.6176 9.356 14.27 8.89628C13.9961 8.53387 13.5315 8.40087 13.1218 8.53093L10.7787 5.43115L10.2237 5.85065L9.39124 6.47984L10.2302 7.58968L11.0634 6.96143ZM13.2279 9.248C13.3811 9.13212 13.5993 9.1625 13.7151 9.31568C13.831 9.46893 13.8007 9.68709 13.6474 9.80296C13.4942 9.91875 13.276 9.8885 13.1602 9.73521C13.0443 9.58196 13.0747 9.36381 13.2279 9.248Z" fill="#ACABB1"/>
<path d="M13.6421 7.58975L14.4811 6.4799L13.6487 5.85065L13.0938 5.43115L10.7506 8.53093C10.341 8.40087 9.87632 8.5339 9.60238 8.89628C9.25482 9.35603 9.34582 10.0104 9.80554 10.3579C10.2653 10.7054 10.9197 10.6144 11.2672 10.1547C11.5411 9.79231 11.5424 9.30906 11.3055 8.95037L12.809 6.96143L13.6421 7.58975ZM10.7122 9.73528C10.5964 9.88856 10.3783 9.91884 10.225 9.80303C10.0718 9.68715 10.0415 9.469 10.1573 9.31575C10.2731 9.16256 10.4913 9.13218 10.6446 9.24806C10.7978 9.3639 10.8281 9.58206 10.7122 9.73528Z" fill="#FFDA44"/>
</g>
<defs>
<clipPath id="clip0_467_2297">
<rect width="16" height="16" fill="white"/>
</clipPath>
</defs>
</svg>
