<svg width="16" height="16" viewBox="0 0 16 16" fill="none" xmlns="http://www.w3.org/2000/svg">
<g clip-path="url(#clip0_467_1989)">
<path d="M11.8261 0.972719C10.6895 0.352594 9.38596 0 8.00002 0C6.61408 0 5.31052 0.352594 4.17393 0.972719L3.47827 8L4.17393 15.0273C5.31052 15.6474 6.61408 16 8.00002 16C9.38596 16 10.6895 15.6474 11.8261 15.0273L12.5218 8L11.8261 0.972719Z" fill="#FFDA44"/>
<path d="M4.17391 15.0272V0.972656C1.68716 2.32953 0 4.96762 0 7.99997C0 11.0323 1.68716 13.6704 4.17391 15.0272Z" fill="#338AF3"/>
<path d="M16 7.99997C16 4.96762 14.3128 2.32953 11.826 0.972656V15.0272C14.3128 13.6704 16 11.0323 16 7.99997Z" fill="#6DA544"/>
<path d="M6.26085 10.087L4.86951 8.00005L6.26082 5.91309L7.65219 8.00005L6.26085 10.087Z" fill="#6DA544"/>
<path d="M9.73909 10.087L8.34778 8.00005L9.73909 5.91309L11.1304 8.00005L9.73909 10.087Z" fill="#6DA544"/>
<path d="M7.99996 12.8697L6.60864 10.7827L7.99996 8.6958L9.39127 10.7827L7.99996 12.8697Z" fill="#6DA544"/>
</g>
<defs>
<clipPath id="clip0_467_1989">
<rect width="16" height="16" fill="white"/>
</clipPath>
</defs>
</svg>
