<svg width="16" height="16" viewBox="0 0 16 16" fill="none" xmlns="http://www.w3.org/2000/svg">
<g clip-path="url(#clip0_467_2302)">
<path d="M15.2062 11.4783C15.7148 10.4266 16 9.24667 16 8.00008C16 6.75348 15.7148 5.57358 15.2062 4.52183L8 3.82617L0.793813 4.52183C0.285219 5.57358 0 6.75348 0 8.00008C0 9.24667 0.285219 10.4266 0.793813 11.4783L8 12.174L15.2062 11.4783Z" fill="#0052B4"/>
<path d="M7.99989 15.9998C11.1715 15.9998 13.9121 14.154 15.2061 11.478H0.793701C2.0877 14.154 4.8282 15.9998 7.99989 15.9998Z" fill="#D80027"/>
<path d="M13.8552 9.57064L13.4327 9.90082L13.6161 10.4046L13.1715 10.1048L12.7489 10.4349L12.8967 9.91948L12.4521 9.61961L12.9881 9.60092L13.1359 9.08545L13.3194 9.58932L13.8552 9.57064Z" fill="#F0F0F0"/>
<path d="M12.7731 7.6963L12.489 8.15108L12.8337 8.56177L12.3134 8.4322L12.0292 8.88686L11.9917 8.35195L11.4714 8.22217L11.9687 8.02127L11.9313 7.48633L12.276 7.89717L12.7731 7.6963Z" fill="#F0F0F0"/>
<path d="M11.1153 6.30566L11.0039 6.8302L11.4683 7.09832L10.935 7.15454L10.8235 7.67891L10.6054 7.1891L10.072 7.24507L10.4706 6.88626L10.2525 6.39645L10.7169 6.66451L11.1153 6.30566Z" fill="#F0F0F0"/>
<path d="M9.08181 5.56543L9.15653 6.09646L9.68456 6.18952L9.20263 6.42471L9.27728 6.95571L8.90478 6.56996L8.42272 6.80502L8.67453 6.33149L8.302 5.9458L8.83013 6.0389L9.08181 5.56543Z" fill="#F0F0F0"/>
<path d="M6.9179 5.56543L7.16969 6.0389L7.69769 5.94574L7.32528 6.33159L7.57694 6.80509L7.095 6.56996L6.72244 6.95562L6.79715 6.42471L6.31519 6.18965L6.84328 6.09646L6.9179 5.56543Z" fill="#F0F0F0"/>
<path d="M4.88458 6.30566L5.28314 6.66451L5.74743 6.39645L5.52939 6.88645L5.92786 7.2452L5.39458 7.1891L5.17639 7.67891L5.06505 7.15445L4.53174 7.09845L4.99611 6.83026L4.88458 6.30566Z" fill="#F0F0F0"/>
<path d="M3.22673 7.69669L3.72401 7.89757L4.06857 7.48682L4.03129 8.02185L4.52842 8.22275L4.00813 8.35241L3.97067 8.88725L3.6866 8.4326L3.16626 8.56225L3.51095 8.15147L3.22673 7.69669Z" fill="#F0F0F0"/>
<path d="M2.14478 9.57057L2.68078 9.58926L2.86409 9.08545L3.01206 9.60095L3.5479 9.61967L3.10334 9.91954L3.25109 10.435L2.82859 10.1049L2.38399 10.4046L2.5674 9.90076L2.14478 9.57057Z" fill="#F0F0F0"/>
<path d="M15.2061 4.52175C13.9121 1.84578 11.1715 0 7.99989 0C4.8282 0 2.0877 1.84578 0.793701 4.52175H15.2061Z" fill="#FFDA44"/>
</g>
<defs>
<clipPath id="clip0_467_2302">
<rect width="16" height="16" fill="white"/>
</clipPath>
</defs>
</svg>
