<svg width="16" height="16" viewBox="0 0 16 16" fill="none" xmlns="http://www.w3.org/2000/svg">
<g clip-path="url(#clip0_467_2318)">
<path d="M8 16C12.4183 16 16 12.4183 16 8C16 3.58172 12.4183 0 8 0C3.58172 0 0 3.58172 0 8C0 12.4183 3.58172 16 8 16Z" fill="#FCFCFC"/>
<path d="M9.35863 5.58916C9.35863 4.83878 8.75032 4.23047 7.99991 4.23047C7.24951 4.23047 6.64119 4.83878 6.64119 5.58916H3.6521C3.6521 6.32794 4.29566 6.92691 5.03444 6.92691H4.98994C4.98994 7.66575 5.58882 8.26475 6.32772 8.26475C6.32772 8.91891 6.79754 9.46247 7.41801 9.57866L7.41454 9.58647H8.58532L8.58185 9.57866C9.20235 9.46241 9.67213 8.91887 9.67213 8.26475C10.411 8.26475 11.0099 7.66575 11.0099 6.92691H10.9654C11.7041 6.92691 12.3477 6.32794 12.3477 5.58916H9.35863Z" fill="#FFDA44"/>
<path d="M7.40274 9.44775L6.5603 11.3497C7.0048 11.5304 7.49065 11.6308 8.00005 11.6308C8.50946 11.6308 8.9953 11.5304 9.43977 11.3497L8.59736 9.44775H7.40274Z" fill="#FFDA44"/>
<path d="M6.26099 6.25732V8.59767C6.26099 9.92886 8.00011 10.3368 8.00011 10.3368C8.00011 10.3368 9.73924 9.92886 9.73924 8.59767V6.25732H6.26099Z" fill="#F0F0F0"/>
<path d="M1.94008 8.05615L2.88067 10.6869L3.81149 8.05615H4.52186L3.1648 11.5344H2.59652L1.22974 8.05615H1.94008Z" fill="#338AF3"/>
<path d="M12.8696 11.5344V8.05615H13.5457V11.5344H12.8696Z" fill="#338AF3"/>
<path d="M6.95654 7.0127V9.84876C7.19564 10.0247 7.45289 10.1458 7.6522 10.2233V7.0127H6.95654Z" fill="#D80027"/>
<path d="M9.04356 7.0127V9.84876C8.80446 10.0247 8.54721 10.1458 8.3479 10.2233V7.0127H9.04356Z" fill="#D80027"/>
<path d="M6.26099 6.25684H9.73924V7.36046H6.26099V6.25684Z" fill="#0052B4"/>
</g>
<defs>
<clipPath id="clip0_467_2318">
<rect width="16" height="16" fill="white"/>
</clipPath>
</defs>
</svg>
