<svg width="16" height="16" viewBox="0 0 16 16" fill="none" xmlns="http://www.w3.org/2000/svg">
<g clip-path="url(#clip0_467_1773)">
<path d="M16 8C16 12.4183 12.4183 16 8 16C3.58175 16 0 12.4183 0 8C2.74781 5.25219 5.07825 2.92175 8 0C12.4183 0 16 3.58175 16 8Z" fill="#D80027"/>
<path d="M8 8C8 3.58175 8 3.06087 8 0C3.58175 0 0 3.58175 0 8H8Z" fill="#0052B4"/>
<path d="M6.40785 5.21729L6.53738 5.61588H6.95644L6.61738 5.86216L6.74691 6.26075L6.40785 6.01441L6.06878 6.26075L6.19832 5.86216L5.85925 5.61588H6.27832L6.40785 5.21729Z" fill="#F0F0F0"/>
<path d="M4.30298 2.08691L4.51883 2.75126H5.21733L4.6522 3.16173L4.86811 3.82604L4.30298 3.41545L3.73789 3.82604L3.95377 3.16173L3.38867 2.75126H4.08711L4.30298 2.08691Z" fill="#F0F0F0"/>
<path d="M6.39002 2.78271L6.60586 3.44709H7.30433L6.73924 3.85756L6.95508 4.52187L6.39002 4.11128L5.82493 4.52187L6.0408 3.85756L5.47571 3.44709H6.17415L6.39002 2.78271Z" fill="#F0F0F0"/>
<path d="M4.74036 5.56494L4.95624 6.22928H5.65468L5.08958 6.63975L5.30546 7.30407L4.74036 6.8935L4.17527 7.30407L4.39114 6.63975L3.82605 6.22928H4.52452L4.74036 5.56494Z" fill="#F0F0F0"/>
<path d="M2.91172 3.82617L3.12759 4.49052H3.82606L3.26094 4.90098L3.47681 5.5653L2.91172 5.15473L2.34666 5.5653L2.5625 4.90098L1.99744 4.49052H2.69587L2.91172 3.82617Z" fill="#F0F0F0"/>
</g>
<defs>
<clipPath id="clip0_467_1773">
<rect width="16" height="16" fill="white"/>
</clipPath>
</defs>
</svg>
