<svg width="16" height="16" viewBox="0 0 16 16" fill="none" xmlns="http://www.w3.org/2000/svg">
<g clip-path="url(#clip0_467_1927)">
<path d="M8 16C12.4183 16 16 12.4183 16 8C16 3.58172 12.4183 0 8 0C3.58172 0 0 3.58172 0 8C0 12.4183 3.58172 16 8 16Z" fill="#F0F0F0"/>
<path d="M2.34314 13.657C-0.781047 10.5328 -0.781047 5.46748 2.34314 2.34326C2.34292 2.34361 6.95655 8.00014 6.95655 8.00014L2.34314 13.657Z" fill="black"/>
<path d="M6.95658 8.00008L1.06108 4.01611C0.878301 4.33383 0.717113 4.66546 0.578613 5.00871L3.56327 8.00011L0.578707 10.9917C0.717082 11.3347 0.878113 11.6661 1.06077 11.9836L6.95658 8.00008Z" fill="#FFDA44"/>
<path d="M15.9324 6.95654H6.95638L2.34313 2.34326C1.84601 2.84039 1.4141 3.40261 1.0611 4.01607L5.03732 8.00001L1.06079 11.9834C1.41379 12.5971 1.84588 13.1595 2.34313 13.6567L6.95638 9.04348H15.9324C15.9768 8.70192 16.0001 8.35367 16.0001 8.00001C16.0001 7.64636 15.9768 7.29811 15.9324 6.95654Z" fill="#6DA544"/>
<path d="M3.12939 14.3461C4.47843 15.383 6.16708 15.9999 8.00008 15.9999C11.6963 15.9999 14.8065 13.493 15.7245 10.0869H7.38861L3.12939 14.3461Z" fill="#0052B4"/>
<path d="M15.7245 5.91303C14.8065 2.50691 11.6963 0 8.00008 0C6.16708 0 4.47843 0.616906 3.12939 1.65384L7.38858 5.91303H15.7245Z" fill="#D80027"/>
</g>
<defs>
<clipPath id="clip0_467_1927">
<rect width="16" height="16" fill="white"/>
</clipPath>
</defs>
</svg>
