<svg width="16" height="16" viewBox="0 0 16 16" fill="none" xmlns="http://www.w3.org/2000/svg">
<g clip-path="url(#clip0_467_2339)">
<path d="M8 16C12.4183 16 16 12.4183 16 8C16 3.58172 12.4183 0 8 0C3.58172 0 0 3.58172 0 8C0 12.4183 3.58172 16 8 16Z" fill="#496E2D"/>
<path d="M11.1304 8H8V16C8.93512 16 9.83253 15.839 10.6667 15.5442L11.1304 8Z" fill="#D80027"/>
<path d="M13.3333 13.9623C14.9698 12.4975 15.9999 10.3692 15.9999 8H12.8695L13.3333 13.9623Z" fill="#FF9811"/>
<path d="M10.6666 8V15.5442C11.6603 15.1929 12.5638 14.6511 13.3333 13.9623V8H10.6666Z" fill="black"/>
<path d="M14.7825 5.21763H12.6956C12.6956 4.83344 12.3841 4.52197 11.9999 4.52197C11.6157 4.52197 11.3043 4.83344 11.3043 5.21763H9.21729C9.21729 5.60185 9.55194 5.91329 9.9361 5.91329H9.91294C9.91294 6.2975 10.2243 6.60894 10.6086 6.60894C10.6086 6.99316 10.92 7.3046 11.3043 7.3046H12.6956C13.0798 7.3046 13.3912 6.99316 13.3912 6.60894C13.7754 6.60894 14.0869 6.2975 14.0869 5.91329H14.0637C14.4479 5.91325 14.7825 5.60182 14.7825 5.21763Z" fill="#FF9811"/>
</g>
<defs>
<clipPath id="clip0_467_2339">
<rect width="16" height="16" fill="white"/>
</clipPath>
</defs>
</svg>
