<svg width="16" height="16" viewBox="0 0 16 16" fill="none" xmlns="http://www.w3.org/2000/svg">
<g clip-path="url(#clip0_467_2345)">
<path d="M8 16C12.4183 16 16 12.4183 16 8C16 3.58172 12.4183 0 8 0C3.58172 0 0 3.58172 0 8C0 12.4183 3.58172 16 8 16Z" fill="#F0F0F0"/>
<path d="M15.2343 4.58148C14.8278 3.72291 14.2731 2.94845 13.6031 2.29079L8 1.73926L2.39687 2.29082C2.379 2.30835 2.36156 2.32629 2.34387 2.34401L4.58137 4.58151L8 4.68591L15.2343 4.58148Z" fill="#FFDA44"/>
<path d="M2.34375 13.6562C2.37319 13.6856 2.40256 13.7151 2.43244 13.7441L7.99997 14.2608L13.5674 13.7441C14.2443 13.0878 14.8058 12.3133 15.218 11.4534L4.8695 11.1304C3.97909 12.0208 2.95209 13.0477 2.34375 13.6562Z" fill="#FFDA44"/>
<path d="M15.9204 6.87223L6.60864 6.60889L7.99996 8.0002C7.58786 8.41229 6.97267 9.02748 6.60864 9.39151L15.9155 9.16295C15.9708 8.78329 16 8.39517 16 8.0002C16 7.61726 15.9725 7.24082 15.9204 6.87223Z" fill="black"/>
<path d="M7.99998 0C5.81785 0 3.84016 0.874063 2.39685 2.29069H13.6031C12.1598 0.874063 10.1821 0 7.99998 0Z" fill="#6DA544"/>
<path d="M6.87199 6.87223H15.9204C15.8062 6.06351 15.5714 5.2937 15.2342 4.58154H4.5813L6.87199 6.87223Z" fill="#D80027"/>
<path d="M4.54651 11.4538H15.218C15.5591 10.7421 15.7977 9.97224 15.9155 9.16309H6.8372C5.9501 10.0502 5.19829 10.802 4.54651 11.4538Z" fill="#D80027"/>
<path d="M7.99996 16C10.1642 16 12.1273 15.1403 13.5674 13.7441H2.4325C3.87262 15.1403 5.83575 16 7.99996 16Z" fill="#6DA544"/>
<path d="M2.85673 1.87305C2.67889 2.02248 2.5073 2.17914 2.34314 2.34323L8.00001 8.00011L2.34314 13.657C2.50726 13.8211 2.67889 13.9777 2.85673 14.1272L8.9838 8.00011L2.85673 1.87305Z" fill="black"/>
<path d="M3.21641 5.91309L3.73438 7.50734H5.41078L4.05459 8.49271L4.57259 10.087L3.21641 9.10168L1.86019 10.087L2.37825 8.49271L1.02209 7.50734H2.69841L3.21641 5.91309Z" fill="#D80027"/>
<path d="M4.64119 8.1303L3.29125 7.65205C3.29125 7.65205 3.1915 6.71634 3.18547 6.68462C3.13966 6.44327 2.92756 6.26074 2.67288 6.26074C2.38475 6.26074 2.15113 6.49434 2.15113 6.78249C2.15113 6.83027 2.15809 6.8763 2.17013 6.9203L1.79163 7.30134H2.46463C2.46463 7.99987 1.94338 7.99987 1.94338 8.69552L2.23253 9.39118H3.97166L4.26153 8.69552H4.26141C4.29044 8.62877 4.30806 8.55993 4.31534 8.49115C4.56522 8.39009 4.64119 8.1303 4.64119 8.1303Z" fill="#FFDA44"/>
</g>
<defs>
<clipPath id="clip0_467_2345">
<rect width="16" height="16" fill="white"/>
</clipPath>
</defs>
</svg>
